<svg width="25" height="24" viewBox="0 0 25 24" fill="none" xmlns="http://www.w3.org/2000/svg">
<path d="M5.07504 4.5759C5.35634 4.29469 5.7378 4.13672 6.13554 4.13672C6.53329 4.13672 6.91475 4.29469 7.19604 4.5759L12.5 9.8799L17.804 4.5759C18.0869 4.30266 18.4658 4.15147 18.8591 4.15489C19.2524 4.1583 19.6287 4.31606 19.9068 4.59417C20.1849 4.87228 20.3426 5.2485 20.3461 5.6418C20.3495 6.03509 20.1983 6.414 19.925 6.6969L14.621 12.0009L19.925 17.3049C20.1983 17.5878 20.3495 17.9667 20.3461 18.36C20.3426 18.7533 20.1849 19.1295 19.9068 19.4076C19.6287 19.6857 19.2524 19.8435 18.8591 19.8469C18.4658 19.8503 18.0869 19.6991 17.804 19.4259L12.5 14.1219L7.19604 19.4259C6.91314 19.6991 6.53424 19.8503 6.14094 19.8469C5.74765 19.8435 5.37143 19.6857 5.09332 19.4076C4.8152 19.1295 4.65745 18.7533 4.65403 18.36C4.65062 17.9667 4.80181 17.5878 5.07504 17.3049L10.379 12.0009L5.07504 6.6969C4.79384 6.41561 4.63586 6.03414 4.63586 5.6364C4.63586 5.23865 4.79384 4.85719 5.07504 4.5759V4.5759Z" fill="white" fill-opacity="0.6"/>
</svg>
