<svg width="24" height="26" viewBox="0 0 24 26" fill="none" xmlns="http://www.w3.org/2000/svg">
<path d="M11.7204 25.0863C11.0456 25.0866 10.5823 24.6157 10.5397 23.7934C10.4705 22.4529 10.2288 21.1502 9.80676 19.8724C8.53647 16.0257 5.80444 13.9521 1.64453 13.6949C1.48455 13.6852 1.32431 13.6782 1.16487 13.6625C0.418662 13.5888 -0.00679296 13.1703 8.20521e-05 12.5201C0.00669264 11.8833 0.445108 11.4358 1.19078 11.3926C1.96819 11.3479 2.7448 11.3251 3.50713 11.1527C6.78942 10.4113 8.72024 8.29425 9.78084 5.30838C10.2306 4.04189 10.4839 2.73431 10.5286 1.39127C10.5421 0.987175 10.5889 0.586165 10.9395 0.299215C11.2788 0.0212566 11.6614 -0.0791887 12.0895 0.0667267C12.6345 0.252204 12.8749 0.661948 12.8971 1.1932C12.9537 2.55602 13.1988 3.88133 13.629 5.18096C14.9297 9.1086 17.7307 11.1912 21.9877 11.3734C22.9417 11.4142 23.4412 11.8119 23.442 12.5312C23.4425 13.1567 23.0306 13.5922 22.3328 13.6546C21.4684 13.7322 20.5992 13.7507 19.7491 13.9593C16.5633 14.7412 14.7007 16.8398 13.6613 19.7424C13.1932 21.05 12.956 22.4044 12.8992 23.7921C12.8656 24.6103 12.3968 25.0858 11.7204 25.0861V25.0863ZM16.9245 12.5309C14.4622 11.2074 12.7995 9.33364 11.7101 6.841C10.632 9.38399 8.93945 11.2108 6.51812 12.5386C8.96087 13.8383 10.6392 15.721 11.727 18.2332C12.8088 15.6887 14.4945 13.8544 16.9245 12.5309Z" fill="#D9994D"/>
<path d="M16.923 12.5294C14.4929 13.8529 12.8072 15.6874 11.7255 18.2317C10.6376 15.7195 8.95935 13.8367 6.5166 12.5371C8.93793 11.2095 10.6302 9.38246 11.7086 6.83948C12.798 9.33211 14.4607 11.2056 16.923 12.5294Z" fill="#D9994D"/>
</svg>
