<svg width="47" height="53" viewBox="0 0 47 53" fill="none" xmlns="http://www.w3.org/2000/svg">
<path d="M7.01994 37.0306C7.4349 37.3435 7.98818 37.5 8.67978 37.5C9.37138 37.5 9.92466 37.3261 10.3396 36.9784C10.7546 36.596 11.135 35.9875 11.4808 35.153L13.9298 29.3714L13.9203 29.3715L14.2301 28.6625L14.4412 28.1641L16.3889 23.7211L23.6501 6.4109C23.6623 6.38188 23.6907 6.363 23.7221 6.363C23.7535 6.363 23.7819 6.3818 23.7941 6.41073L30.8978 23.2341L30.9005 23.234L33.2439 28.8245L35.9634 35.153C36.3092 35.9527 36.7069 36.5438 37.1564 36.9263C37.606 37.3088 38.2111 37.5 38.9719 37.5C39.6635 37.5 40.1995 37.3609 40.5798 37.0828C40.9602 36.7698 41.185 36.3526 41.2541 35.831C41.3233 35.2747 41.2023 34.6662 40.8911 34.0056L26.8343 2.29485C26.4885 1.46036 26.0389 0.869261 25.4857 0.521557C24.967 0.173852 24.3964 0 23.774 0C23.1169 0 22.5118 0.173852 21.9585 0.521557C21.4398 0.869261 21.0076 1.46036 20.6618 2.29485L6.60498 34.0056C6.32834 34.6662 6.2246 35.2573 6.29376 35.7789C6.36292 36.3004 6.60498 36.7177 7.01994 37.0306Z" fill="white"/>
<path d="M3 21.084C3 20.4802 3.4895 19.9907 4.09332 19.9907C4.69714 19.9907 5.18664 20.4802 5.18664 21.084V25.2083C5.18664 25.8122 4.69714 26.3017 4.09332 26.3017C3.4895 26.3017 3 25.8122 3 25.2083V21.084Z" fill="#F72585"/>
<path d="M42.3597 21.084C42.3597 20.4802 42.8492 19.9907 43.453 19.9907C44.0568 19.9907 44.5463 20.4802 44.5463 21.084V25.2083C44.5463 25.8122 44.0568 26.3017 43.453 26.3017C42.8492 26.3017 42.3597 25.8122 42.3597 25.2083V21.084Z" fill="#F72585"/>
<path d="M7.37317 19.5063C7.37317 18.9024 7.86266 18.4129 8.46649 18.4129C9.07031 18.4129 9.55981 18.9024 9.55981 19.5063V26.7861C9.55981 27.3899 9.07031 27.8794 8.46649 27.8794C7.86266 27.8794 7.37317 27.3899 7.37317 26.7861V19.5063Z" fill="#B5179E"/>
<path d="M24.8662 19.5063C24.8662 18.9024 25.3557 18.4129 25.9595 18.4129C26.5634 18.4129 27.0529 18.9024 27.0529 19.5063V26.7861C27.0529 27.3899 26.5634 27.8794 25.9595 27.8794C25.3557 27.8794 24.8662 27.3899 24.8662 26.7861V19.5063Z" fill="#480CA8"/>
<path d="M11.7467 21.084C11.7467 20.4802 12.2362 19.9907 12.84 19.9907C13.4439 19.9907 13.9334 20.4802 13.9334 21.084V25.2083C13.9334 25.8122 13.4439 26.3017 12.84 26.3017C12.2362 26.3017 11.7467 25.8122 11.7467 25.2083V21.084Z" fill="#7209B7"/>
<path d="M29.2398 21.084C29.2398 20.4802 29.7293 19.9907 30.3331 19.9907C30.9369 19.9907 31.4264 20.4802 31.4264 21.084V25.2083C31.4264 25.8122 30.9369 26.3017 30.3331 26.3017C29.7293 26.3017 29.2398 25.8122 29.2398 25.2083V21.084Z" fill="#560BAD"/>
<path d="M16.1199 19.5063C16.1199 18.9024 16.6094 18.4129 17.2132 18.4129C17.817 18.4129 18.3065 18.9024 18.3065 19.5063V26.7861C18.3065 27.3899 17.817 27.8794 17.2132 27.8794C16.6094 27.8794 16.1199 27.3899 16.1199 26.7861V19.5063Z" fill="#560BAD"/>
<path d="M33.6129 19.5063C33.6129 18.9024 34.1024 18.4129 34.7063 18.4129C35.3101 18.4129 35.7996 18.9024 35.7996 19.5063V26.7861C35.7996 27.3899 35.3101 27.8794 34.7063 27.8794C34.1024 27.8794 33.6129 27.3899 33.6129 26.7861V19.5063Z" fill="#7209B7"/>
<path d="M20.4931 16.35C20.4931 15.7461 20.9826 15.2567 21.5864 15.2567C22.1902 15.2567 22.6797 15.7461 22.6797 16.35V29.9408C22.6797 30.5446 22.1902 31.0341 21.5864 31.0341C20.9826 31.0341 20.4931 30.5446 20.4931 29.9408V16.35Z" fill="#480CA8"/>
<path d="M37.9861 16.35C37.9861 15.7461 38.4756 15.2567 39.0794 15.2567C39.6833 15.2567 40.1728 15.7461 40.1728 16.35V29.9408C40.1728 30.5446 39.6833 31.0341 39.0794 31.0341C38.4756 31.0341 37.9861 30.5446 37.9861 29.9408V16.35Z" fill="#B5179E"/>
<path d="M0.541093 53C0.385606 53 0.261217 52.9666 0.167925 52.8999C0.0746335 52.8331 0.0202132 52.7441 0.0046646 52.6328C-0.0108841 52.5216 0.0124389 52.3955 0.0746335 52.2545L3.2349 45.4896C3.31264 45.3115 3.40982 45.1854 3.52643 45.1113C3.65082 45.0371 3.78687 45 3.93459 45C4.07452 45 4.2028 45.0371 4.31941 45.1113C4.4438 45.1854 4.54487 45.3115 4.62261 45.4896L7.78288 52.2545C7.85284 52.3955 7.88005 52.5253 7.86451 52.644C7.84896 52.7552 7.79842 52.8442 7.71291 52.911C7.62739 52.9703 7.50689 53 7.3514 53C7.18037 53 7.04432 52.9592 6.94325 52.8776C6.84218 52.796 6.75278 52.6699 6.67503 52.4993L5.85873 50.6968L6.40682 51.0083H1.43903L1.97546 50.6968L1.17081 52.4993C1.09307 52.6773 1.00755 52.8071 0.914261 52.8887C0.820969 52.9629 0.696579 53 0.541093 53ZM3.91126 46.3574L2.15038 50.3408L1.85884 50.0737H5.97535L5.70713 50.3408L3.93459 46.3574H3.91126Z" fill="white"/>
<path d="M9.71085 53C9.55536 53 9.43097 52.9666 9.33768 52.8999C9.24439 52.8331 9.18997 52.7441 9.17442 52.6328C9.15887 52.5216 9.18219 52.3955 9.24439 52.2545L12.4046 45.4896C12.4824 45.3115 12.5796 45.1854 12.6962 45.1113C12.8206 45.0371 12.9566 45 13.1043 45C13.2443 45 13.3726 45.0371 13.4892 45.1113C13.6136 45.1854 13.7146 45.3115 13.7924 45.4896L16.9526 52.2545C17.0226 52.3955 17.0498 52.5253 17.0343 52.644C17.0187 52.7552 16.9682 52.8442 16.8827 52.911C16.7971 52.9703 16.6766 53 16.5212 53C16.3501 53 16.2141 52.9592 16.113 52.8776C16.0119 52.796 15.9225 52.6699 15.8448 52.4993L15.0285 50.6968L15.5766 51.0083H10.6088L11.1452 50.6968L10.3406 52.4993C10.2628 52.6773 10.1773 52.8071 10.084 52.8887C9.99072 52.9629 9.86633 53 9.71085 53ZM13.081 46.3574L11.3201 50.3408L11.0286 50.0737H15.1451L14.8769 50.3408L13.1043 46.3574H13.081Z" fill="white"/>
<path d="M19.5803 52.9221C19.3704 52.9221 19.2071 52.8702 19.0905 52.7663C18.9817 52.6551 18.9272 52.4993 18.9272 52.299V45.701C18.9272 45.5007 18.9817 45.3486 19.0905 45.2448C19.2071 45.1335 19.3704 45.0779 19.5803 45.0779H21.831C23.1837 45.0779 24.2254 45.4154 24.9562 46.0904C25.6948 46.758 26.0641 47.726 26.0641 48.9944C26.0641 49.6249 25.9708 50.185 25.7842 50.6745C25.5976 51.1641 25.3216 51.5758 24.9562 51.9096C24.5986 52.236 24.1594 52.4882 23.6385 52.6662C23.1176 52.8368 22.5151 52.9221 21.831 52.9221H19.5803ZM20.14 51.9541H21.761C22.2741 51.9541 22.7172 51.8948 23.0904 51.7761C23.4713 51.65 23.7901 51.4645 24.0466 51.2197C24.3032 50.975 24.4937 50.6671 24.6181 50.2962C24.7424 49.9254 24.8046 49.4914 24.8046 48.9944C24.8046 48.0079 24.5481 47.2698 24.035 46.7803C23.5296 46.2907 22.7717 46.0459 21.761 46.0459H20.14V51.9541Z" fill="white"/>
<path d="M28.8509 53C28.6721 53 28.5322 52.9518 28.4311 52.8554C28.3378 52.7589 28.2911 52.6254 28.2911 52.4548V45.5452C28.2911 45.3672 28.3417 45.2337 28.4427 45.1446C28.5438 45.0482 28.6799 45 28.8509 45C29.0142 45 29.1385 45.0297 29.2241 45.089C29.3174 45.1409 29.4029 45.2374 29.4806 45.3783L32.5359 50.8192H32.1744L35.2181 45.3783C35.2958 45.2374 35.3774 45.1409 35.463 45.089C35.5485 45.0297 35.6729 45 35.8361 45C36.0072 45 36.1393 45.0482 36.2326 45.1446C36.3259 45.2337 36.3726 45.3672 36.3726 45.5452V52.4548C36.3726 52.6254 36.3259 52.7589 36.2326 52.8554C36.1471 52.9518 36.0149 53 35.8361 53C35.6573 53 35.5213 52.9518 35.428 52.8554C35.3347 52.7589 35.288 52.6254 35.288 52.4548V46.7135H35.5446L32.8391 51.4868C32.7769 51.5981 32.7109 51.6796 32.6409 51.7316C32.5709 51.7835 32.4737 51.8095 32.3493 51.8095C32.225 51.8095 32.1239 51.7835 32.0461 51.7316C31.9684 51.6722 31.8984 51.5906 31.8362 51.4868L29.1075 46.7024H29.3873V52.4548C29.3873 52.6254 29.3407 52.7589 29.2474 52.8554C29.1619 52.9518 29.0297 53 28.8509 53Z" fill="white"/>
<path d="M39.4783 53C39.2995 53 39.1596 52.9518 39.0585 52.8554C38.9652 52.7589 38.9186 52.6254 38.9186 52.4548V45.5452C38.9186 45.3672 38.9691 45.2337 39.0702 45.1446C39.1713 45.0482 39.3073 45 39.4783 45C39.6416 45 39.766 45.0297 39.8515 45.089C39.9448 45.1409 40.0303 45.2374 40.1081 45.3783L43.1634 50.8192H42.8019L45.8455 45.3783C45.9233 45.2374 46.0049 45.1409 46.0904 45.089C46.1759 45.0297 46.3003 45 46.4636 45C46.6346 45 46.7668 45.0482 46.8601 45.1446C46.9534 45.2337 47 45.3672 47 45.5452V52.4548C47 52.6254 46.9534 52.7589 46.8601 52.8554C46.7745 52.9518 46.6424 53 46.4636 53C46.2848 53 46.1487 52.9518 46.0554 52.8554C45.9621 52.7589 45.9155 52.6254 45.9155 52.4548V46.7135H46.172L43.4666 51.4868C43.4044 51.5981 43.3383 51.6796 43.2683 51.7316C43.1984 51.7835 43.1012 51.8095 42.9768 51.8095C42.8524 51.8095 42.7513 51.7835 42.6736 51.7316C42.5958 51.6722 42.5259 51.5906 42.4637 51.4868L39.7349 46.7024H40.0148V52.4548C40.0148 52.6254 39.9681 52.7589 39.8748 52.8554C39.7893 52.9518 39.6571 53 39.4783 53Z" fill="white"/>
</svg>
