<svg width="20" height="20" viewBox="0 0 20 20" fill="none" xmlns="http://www.w3.org/2000/svg">
<path d="M10 0C4.4775 0 0 4.4775 0 10C0 15.5225 4.4775 20 10 20C15.5225 20 20 15.5225 20 10C20 4.4775 15.5225 0 10 0ZM13.9632 11.4632H9.80143C9.48572 11.4632 9.18314 11.3378 8.95993 11.1147C8.73671 10.8916 8.6113 10.5889 8.61116 10.2733V3.87833C8.61883 3.45826 8.84721 3.07336 9.2123 2.86565C9.57741 2.65778 10.0249 2.65778 10.39 2.86565C10.7552 3.07338 10.9837 3.45829 10.9912 3.87833V9.08297H13.9632C14.2825 9.07725 14.5908 9.20002 14.8186 9.42379C15.0466 9.6477 15.1749 9.95365 15.1749 10.2731C15.1749 10.5924 15.0466 10.8985 14.8186 11.1223C14.5908 11.3461 14.2825 11.4688 13.9632 11.4631L13.9632 11.4632Z" fill="white" fill-opacity="0.6"/>
</svg>
