<svg width="32" height="33" viewBox="0 0 32 33" fill="none" xmlns="http://www.w3.org/2000/svg">
<path d="M3.7731 15.1404C5.14643 13.9537 6.50643 12.767 7.87977 11.5804C10.5598 9.26038 13.2264 6.94038 15.9064 4.60704C15.9198 4.59371 15.9464 4.58038 15.9864 4.55371C20.0398 8.07371 24.1064 11.607 28.1864 15.1537C27.7731 15.6337 27.3598 16.1137 26.9331 16.5937C26.5598 16.2737 26.1998 15.967 25.7998 15.607V15.9137C25.7998 18.887 25.7998 21.8604 25.7998 24.8337C25.7998 26.3804 24.8664 27.5137 23.3464 27.7937C23.2131 27.8204 23.0798 27.8204 22.9464 27.8204C21.8664 27.8204 20.7864 27.8204 19.7064 27.8204C19.6664 27.8204 19.6131 27.8204 19.5331 27.8204C19.5598 27.767 19.5864 27.7404 19.6131 27.7137C20.0931 27.1537 20.5731 26.5937 21.0664 26.047C21.1198 25.9804 21.2398 25.927 21.3198 25.927C21.8264 25.927 22.3331 25.927 22.8398 25.927C23.4664 25.927 23.8664 25.5404 23.8798 24.9137C23.8798 24.5937 23.8798 24.2737 23.8798 23.967C23.8798 20.7137 23.8798 17.447 23.8798 14.1937C23.8798 14.0737 23.8264 13.927 23.7331 13.847C21.1864 11.6337 18.6398 9.42038 16.0931 7.20704C16.0664 7.18038 16.0264 7.15371 15.9731 7.11371C15.9064 7.16704 15.8398 7.22038 15.7731 7.27371C13.2664 9.44704 10.7731 11.6204 8.26643 13.7804C8.11977 13.9137 8.0531 14.047 8.0531 14.247C8.0531 17.7804 8.0531 21.3004 8.0531 24.8337C8.0531 25.5537 8.43977 25.9404 9.15977 25.9404C9.34643 25.9404 9.51977 25.9404 9.70643 25.9404C10.0664 25.9404 10.4664 25.8337 10.7598 25.9804C11.0531 26.1137 11.2264 26.5004 11.4664 26.767C11.7731 27.1137 12.0931 27.4604 12.4264 27.8337C12.3464 27.8337 12.3064 27.8337 12.2664 27.8337C11.1731 27.8337 10.0931 27.8337 8.99977 27.8337C7.39977 27.8204 6.15977 26.567 6.14643 24.967C6.14643 21.967 6.14643 18.967 6.14643 15.9537C6.14643 15.8604 6.14643 15.7804 6.14643 15.6337C5.74643 15.9804 5.38643 16.287 5.0131 16.607C4.58643 16.1404 4.1731 15.6737 3.75977 15.207C3.75977 15.1937 3.75977 15.1804 3.75977 15.1537L3.7731 15.1404Z" fill="white"/>
<path d="M16.0002 28.4734C15.5069 28.0467 15.0536 27.6867 14.6269 27.2867C13.4669 26.1934 12.4002 25.0334 11.5602 23.66C10.7736 22.38 10.3602 21.02 10.5469 19.5C10.8269 17.1134 12.7336 15.14 15.1069 14.7534C17.9602 14.2867 20.7336 16.14 21.3469 19.06C21.6402 20.4334 21.4136 21.7534 20.7736 23.0067C20.0669 24.3667 19.1069 25.54 18.0269 26.6067C17.3869 27.2467 16.7069 27.8334 16.0002 28.4734V28.4734ZM15.8269 25.7934C15.9069 25.8734 16.0402 25.8734 16.1202 25.7934C17.1336 24.8334 18.0402 23.8334 18.7602 22.6734C19.3202 21.7934 19.6402 20.8467 19.5202 19.78C19.3069 17.8067 17.6669 16.3934 15.6936 16.5934C13.2802 16.8334 11.7869 19.2334 12.6136 21.4734C13.2536 23.22 14.5202 24.5134 15.8269 25.7934Z" fill="white"/>
<path d="M15.9464 21.5796C15.1731 21.5796 14.5464 20.9262 14.5598 20.1262C14.5598 19.3529 15.2264 18.7129 15.9998 18.7129C16.7864 18.7129 17.4264 19.3796 17.4131 20.1662C17.4131 20.9529 16.7598 21.5796 15.9464 21.5662V21.5796Z" fill="white"/>
</svg>
