<svg width="99" height="88" viewBox="0 0 99 88" fill="none" xmlns="http://www.w3.org/2000/svg">
<path d="M98.6064 23.1781V76.6605C98.2471 76.8312 98.3389 77.2109 98.2726 77.486C96.8178 83.5726 91.6153 87.7407 85.3835 87.7433C61.6563 87.7509 37.9316 87.7535 14.2044 87.7433C6.87448 87.7407 1.0172 81.886 1.0121 74.5332C0.996815 54.1664 0.994268 33.7971 1.01465 13.4278C1.02229 6.08266 6.89487 0.266136 14.24 0.253397C18.7827 0.245754 23.3228 0.253397 27.8654 0.253397C43.873 0.253397 59.8805 0.245754 75.8906 0.255945C82.4867 0.26104 88.0943 5.21133 88.8816 11.7285C88.9555 12.3323 89.2561 12.4954 89.7274 12.6686C94.0077 14.2457 96.7924 17.2393 98.1274 21.6061C98.2879 22.131 98.2217 22.7246 98.6064 23.1806V23.1781ZM49.8449 81.6032C61.5034 81.6032 73.1594 81.6032 84.8179 81.6032C89.5338 81.6032 92.4637 78.6529 92.4663 73.909C92.4688 70.9816 92.4433 68.0517 92.4841 65.1243C92.4943 64.3957 92.3338 64.1485 91.5542 64.1638C88.823 64.2148 86.0918 64.2071 83.3606 64.1791C79.3275 64.1383 75.2893 64.3702 71.2639 64.0594C63.5595 63.4632 57.5442 55.6288 58.8614 47.9881C60.1174 40.7092 65.7837 35.922 73.1619 35.9169C79.2613 35.9118 85.3606 35.8965 91.4574 35.9398C92.3236 35.9449 92.4994 35.6952 92.4867 34.8774C92.4357 31.792 92.4739 28.7042 92.4663 25.6163C92.4535 21.0635 89.488 18.0928 84.9428 18.0928C61.5009 18.0902 38.059 18.0877 14.6171 18.0928C10.1433 18.0928 7.15474 21.0889 7.15219 25.5781C7.14455 41.7461 7.15219 57.9167 7.14709 74.0848C7.14709 74.8516 7.20824 75.6109 7.40951 76.3523C8.29103 79.5956 11.0197 81.6057 14.5865 81.6083C26.3393 81.6159 38.0921 81.6108 49.8449 81.6108V81.6032ZM7.2006 13.9756C10.1993 11.9858 13.4375 11.8966 16.7368 11.9017C38.3647 11.9323 59.9926 11.917 81.6179 11.917C82.795 11.917 82.8103 11.8941 82.3593 10.7884C81.2587 8.08774 78.6957 6.40113 75.5976 6.39858C55.2079 6.39094 34.8208 6.39603 14.4311 6.39603C14.2732 6.39603 14.1127 6.39858 13.9547 6.40622C9.98274 6.61004 7.01206 9.85079 7.2006 13.9781V13.9756ZM81.8269 57.9779C85.0982 57.9779 88.3669 57.96 91.6383 57.9931C92.3032 58.0008 92.4841 57.8199 92.4816 57.1498C92.4535 52.4085 92.4459 47.6696 92.4867 42.9283C92.4918 42.1792 92.2625 42.0544 91.5797 42.0569C85.4192 42.085 79.2613 42.0697 73.1008 42.0773C72.5632 42.0773 72.018 42.0952 71.4906 42.1945C67.3531 42.9716 64.5658 46.5665 64.8894 50.6811C65.213 54.7957 68.6371 57.9396 72.8766 57.9728C75.86 57.9957 78.846 57.9779 81.8294 57.9779H81.8269Z" fill="white" fill-opacity="0.35"/>
<path d="M98.6278 76.7057L98.6564 76.6921V76.6605V23.3175V23.1806V23.1781H98.6094L98.6446 23.1484C98.4604 22.9301 98.3829 22.6777 98.3319 22.4098C98.315 22.321 98.3012 22.2319 98.2873 22.1419C98.2802 22.0953 98.2729 22.0485 98.2652 22.0013C98.2427 21.8641 98.2163 21.726 98.1752 21.5915C96.8357 17.21 94.0399 14.2043 89.7447 12.6217L89.7274 12.6686L89.7447 12.6217C89.509 12.535 89.3251 12.4539 89.1901 12.324C89.0572 12.196 88.9672 12.0161 88.9312 11.7225C88.1409 5.18003 82.5118 0.21106 75.8906 0.205945C64.6835 0.198811 53.4776 0.200416 42.272 0.202021C37.4698 0.202709 32.6676 0.203397 27.8654 0.203397C26.3512 0.203397 24.8372 0.202548 23.3233 0.201698C20.2957 0.2 17.2683 0.198302 14.24 0.203397C6.86752 0.216183 0.972322 6.05475 0.96465 13.4278C0.944268 33.7971 0.946815 54.1664 0.962102 74.5332C0.967216 81.9136 6.84682 87.7907 14.2044 87.7933C37.9316 87.8035 61.6563 87.8009 85.3835 87.7933C91.6389 87.7907 96.8612 83.6064 98.3212 77.4977C98.3388 77.4246 98.3457 77.3455 98.352 77.2691L98.3529 77.2584C98.359 77.1843 98.3649 77.1125 98.3786 77.044C98.4069 76.9032 98.4669 76.7822 98.6278 76.7057ZM49.8449 81.5532H49.7949V81.5608C46.4536 81.5608 43.1123 81.5612 39.7711 81.5617C31.3762 81.5627 22.9814 81.5637 14.5866 81.5583C11.0406 81.5557 8.33293 79.5591 7.45777 76.3392C7.25807 75.6036 7.19709 74.8491 7.19709 74.0848C7.19941 66.7355 7.19909 59.3857 7.19878 52.0359C7.1984 43.2164 7.19802 34.3969 7.20219 25.5781C7.20346 23.3449 7.94723 21.4869 9.24331 20.1873C10.5394 18.8878 12.3916 18.1428 14.6171 18.1428C38.059 18.1377 61.5009 18.1402 84.9428 18.1428C87.2042 18.1428 89.0685 18.8816 90.3688 20.1826C91.6692 21.4836 92.4099 23.351 92.4163 25.6164C92.4189 26.6647 92.4162 27.7133 92.4135 28.762C92.4083 30.8011 92.403 32.8404 92.4367 34.8782C92.4431 35.2882 92.4005 35.5356 92.2648 35.6834C92.1301 35.83 91.8904 35.8923 91.4577 35.8898C86.264 35.8529 81.0684 35.8585 75.8728 35.8641C74.9692 35.8651 74.0655 35.8661 73.1619 35.8669C65.7592 35.872 60.0723 40.6768 58.8121 47.9796L58.8614 47.9881L58.8121 47.9796C57.49 55.6489 63.5257 63.5107 71.26 64.1092C73.9415 64.3163 76.6306 64.2827 79.3174 64.2491C80.666 64.2323 82.0139 64.2155 83.3601 64.2291C86.0915 64.2571 88.8232 64.2648 91.5551 64.2138L91.5543 64.1676L91.5552 64.2138C91.9436 64.2062 92.1579 64.2653 92.2782 64.3986C92.4 64.5335 92.4392 64.7584 92.4341 65.1236C92.4055 67.181 92.4095 69.2399 92.4136 71.2979C92.4153 72.1685 92.417 73.0389 92.4163 73.9089C92.415 76.2705 91.6853 78.1804 90.3741 79.4998C89.063 80.8191 87.1653 81.5532 84.8179 81.5532H84.7496H84.6813H84.613H84.5447H84.4764H84.4081H84.3397H84.2714H84.2031H84.1348H84.0665H83.9982H83.9299H83.8616H83.7933H83.7249H83.6566H83.5883H83.52H83.4517H83.3834H83.3151H83.2468H83.1785H83.1101H83.0418H82.9735H82.9052H82.8369H82.7686H82.7003H82.632H82.5637H82.4954H82.427H82.3587H82.2904H82.2221H82.1538H82.0855H82.0172H81.9489H81.8806H81.8123H81.7439H81.6756H81.6073H81.539H81.4707H81.4024H81.3341H81.2658H81.1975H81.1292H81.0609H80.9926H80.9242H80.8559H80.7876H80.7193H80.651H80.5827H80.5144H80.4461H80.3778H80.3095H80.2412H80.1729H80.1045H80.0362H79.9679H79.8996H79.8313H79.763H79.6947H79.6264H79.5581H79.4898H79.4215H79.3532H79.2849H79.2165H79.1482H79.0799H79.0116H78.9433H78.875H78.8067H78.7384H78.6701H78.6018H78.5335H78.4652H78.3969H78.3285H78.2602H78.1919H78.1236H78.0553H77.987H77.9187H77.8504H77.7821H77.7138H77.6455H77.5772H77.5089H77.4406H77.3722H77.3039H77.2356H77.1673H77.099H77.0307H76.9624H76.8941H76.8258H76.7575H76.6892H76.6209H76.5526H76.4843H76.416H76.3476H76.2793H76.211H76.1427H76.0744H76.0061H75.9378H75.8695H75.8012H75.7329H75.6646H75.5963H75.528H75.4597H75.3914H75.3231H75.2548H75.1864H75.1181H75.0498H74.9815H74.9132H74.8449H74.7766H74.7083H74.64H74.5717H74.5034H74.4351H74.3668H74.2985H74.2302H74.1619H74.0936H74.0253H73.957H73.8886H73.8203H73.752H73.6837H73.6154H73.5471H73.4788H73.4105H73.3422H73.2739H73.2056H73.1373H73.069H73.0007H72.9324H72.8641H72.7958H72.7275H72.6592H72.5909H72.5225H72.4542H72.3859H72.3176H72.2493H72.181H72.1127H72.0444H71.9761H71.9078H71.8395H71.7712H71.7029H71.6346H71.5663H71.498H71.4297H71.3614H71.2931H71.2248H71.1565H71.0882H71.0198H70.9515H70.8832H70.8149H70.7466H70.6783H70.61H70.5417H70.4734H70.4051H70.3368H70.2685H70.2002H70.1319H70.0636H69.9953H69.927H69.8587H69.7904H69.7221H69.6538H69.5854H69.5171H69.4488H69.3805H69.3122H69.2439H69.1756H69.1073H69.039H68.9707H68.9024H68.8341H68.7658H68.6975H68.6292H68.5609H68.4926H68.4243H68.356H68.2877H68.2194H68.1511H68.0828H68.0145H67.9462H67.8778H67.8095H67.7412H67.6729H67.6046H67.5363H67.468H67.3997H67.3314H67.2631H67.1948H67.1265H67.0582H66.9899H66.9216H66.8533H66.785H66.7167H66.6484H66.5801H66.5118H66.4435H66.3752H66.3068H66.2385H66.1702H66.1019H66.0336H65.9653H65.897H65.8287H65.7604H65.6921H65.6238H65.5555H65.4872H65.4189H65.3506H65.2823H65.214H65.1457H65.0774H65.0091H64.9408H64.8725H64.8042H64.7359H64.6675H64.5992H64.5309H64.4626H64.3943H64.326H64.2577H64.1894H64.1211H64.0528H63.9845H63.9162H63.8479H63.7796H63.7113H63.643H63.5747H63.5064H63.4381H63.3698H63.3015H63.2332H63.1648H63.0965H63.0282H62.9599H62.8916H62.8233H62.755H62.6867H62.6184H62.5501H62.4818H62.4135H62.3452H62.2769H62.2086H62.1403H62.072H62.0037H61.9354H61.8671H61.7988H61.7304H61.6621H61.5938H61.5255H61.4572H61.3889H61.3206H61.2523H61.184H61.1157H61.0474H60.9791H60.9108H60.8425H60.7742H60.7059H60.6376H60.5693H60.501H60.4327H60.3643H60.296H60.2277H60.1594H60.0911H60.0228H59.9545H59.8862H59.8179H59.7496H59.6813H59.613H59.5447H59.4764H59.4081H59.3398H59.2715H59.2032H59.1348H59.0665H58.9982H58.9299H58.8616H58.7933H58.725H58.6567H58.5884H58.5201H58.4518H58.3835H58.3152H58.2469H58.1786H58.1103H58.0419H57.9736H57.9053H57.837H57.7687H57.7004H57.6321H57.5638H57.4955H57.4272H57.3589H57.2906H57.2223H57.154H57.0857H57.0173H56.949H56.8807H56.8124H56.7441H56.6758H56.6075H56.5392H56.4709H56.4026H56.3343H56.266H56.1977H56.1294H56.0611H55.9927H55.9244H55.8561H55.7878H55.7195H55.6512H55.5829H55.5146H55.4463H55.378H55.3097H55.2414H55.1731H55.1047H55.0364H54.9681H54.8998H54.8315H54.7632H54.6949H54.6266H54.5583H54.49H54.4217H54.3534H54.285H54.2167H54.1484H54.0801H54.0118H53.9435H53.8752H53.8069H53.7386H53.6703H53.602H53.5337H53.4653H53.397H53.3287H53.2604H53.1921H53.1238H53.0555H52.9872H52.9189H52.8506H52.7823H52.7139H52.6456H52.5773H52.509H52.4407H52.3724H52.3041H52.2358H52.1675H52.0992H52.0308H51.9625H51.8942H51.8259H51.7576H51.6893H51.621H51.5527H51.4844H51.4161H51.3477H51.2794H51.2111H51.1428H51.0745H51.0062H50.9379H50.8696H50.8013H50.7329H50.6646H50.5963H50.528H50.4597H50.3914H50.3231H50.2548H50.1865H50.1181H50.0498H49.9815H49.9132H49.8449ZM16.7369 11.8517C13.4651 11.8467 10.2388 11.9335 7.24691 13.8853C7.10682 9.82826 10.0423 6.65705 13.9573 6.45616L13.9547 6.40622L13.9571 6.45616C14.114 6.44857 14.2737 6.44603 14.4311 6.44603C20.2568 6.44603 26.0823 6.44562 31.9078 6.4452C46.471 6.44416 61.0336 6.44312 75.5976 6.44858C78.6765 6.45111 81.2205 8.12651 82.313 10.8072L82.3593 10.7884L82.313 10.8072C82.4262 11.0846 82.5084 11.2903 82.5511 11.4445C82.5946 11.6018 82.5914 11.6881 82.5574 11.7399C82.5236 11.7913 82.4471 11.8272 82.2877 11.8465C82.1315 11.8655 81.9133 11.867 81.6179 11.867C76.2117 11.867 70.8053 11.868 65.3988 11.8689C49.1789 11.8718 32.9579 11.8747 16.7369 11.8517ZM84.3708 57.9255C83.5237 57.9267 82.6766 57.9279 81.8294 57.9279H81.8269C80.9196 57.9279 80.0122 57.9295 79.1047 57.9312C77.0286 57.9349 74.9522 57.9387 72.877 57.9228C68.6626 57.8898 65.2607 54.7651 64.9392 50.6772C64.6177 46.5887 67.3868 43.0161 71.4998 42.2437C72.0225 42.1452 72.5639 42.1273 73.1008 42.1273C75.2334 42.1247 77.3656 42.1248 79.4978 42.1249C83.525 42.1251 87.552 42.1253 91.5798 42.1069C91.7496 42.1063 91.888 42.1137 92.0005 42.1357C92.1127 42.1578 92.1959 42.1938 92.2582 42.2484C92.3821 42.357 92.4392 42.5543 92.4367 42.9278C92.3959 47.6695 92.4035 52.4086 92.4316 57.15C92.4328 57.4847 92.3871 57.678 92.2749 57.7903C92.1627 57.9024 91.9709 57.947 91.6388 57.9431C89.2154 57.9186 86.7932 57.922 84.3708 57.9255Z" stroke="white" stroke-opacity="0.35" stroke-width="0.1"/>
<path d="M70.7695 50.3105C70.7516 48.5245 72.1529 47.08 73.9185 47.057C75.6841 47.0341 77.1363 48.4507 77.1643 50.2239C77.1949 51.9818 75.7656 53.457 74.0051 53.4876C72.2548 53.5181 70.7847 52.0736 70.7695 50.3105V50.3105Z" fill="white" fill-opacity="0.35"/>
<path d="M77.2143 50.2231C77.1859 48.4225 75.7112 46.9838 73.9178 47.007C72.1243 47.0303 70.7014 48.4979 70.7195 50.311C70.735 52.1014 72.2275 53.5686 74.006 53.5376C75.7939 53.5065 77.2453 52.0087 77.2143 50.2231ZM77.2143 50.2231L77.1643 50.2239L77.2143 50.223C77.2143 50.223 77.2143 50.2231 77.2143 50.2231Z" stroke="white" stroke-opacity="0.35" stroke-width="0.1"/>
</svg>
