<svg width="32" height="33" viewBox="0 0 32 33" fill="none" xmlns="http://www.w3.org/2000/svg">
<path d="M26.9893 14.0953H27.3226C27.6559 14.0953 27.9893 14.1087 28.3226 14.0953C28.7359 14.0553 28.9093 13.922 29.0026 13.562V10.842C28.9759 10.562 28.7759 10.442 28.5626 10.3087C27.2693 9.56201 25.9893 8.78868 24.6959 8.01534C22.1893 6.52201 19.6693 5.02868 17.1493 3.54868C16.2959 3.04201 15.4026 3.04201 14.5626 3.53534C12.5893 4.69534 10.6293 5.86868 8.65592 7.02868C6.80258 8.13534 4.93592 9.24201 3.06925 10.3487C2.78925 10.5087 2.66925 10.722 2.66925 11.0687C2.68258 11.842 2.66925 12.6287 2.66925 13.402C2.66925 13.7487 2.81592 13.9353 3.14925 14.0287C3.29592 14.0687 3.44258 14.082 3.58925 14.082H4.68258C4.96258 14.082 4.97592 14.1087 4.98925 14.3753C4.98925 17.7087 4.97592 21.0553 4.98925 24.3887C4.98925 24.5753 4.93592 24.6687 4.73592 24.6953C4.33592 24.7353 3.97592 24.882 3.65592 25.1353C3.02925 25.6153 2.62925 26.2287 2.66925 27.0553C2.68258 27.6687 2.66925 28.2953 2.66925 28.9087C2.66925 29.2953 2.74925 29.402 3.10925 29.522H28.5893C28.8293 29.482 28.9626 29.3487 29.0026 29.1087V26.7487C28.9759 26.1753 28.7093 25.7353 28.3093 25.3487C27.9493 24.9887 27.5226 24.762 27.0293 24.6953C26.7893 24.6687 26.6826 24.562 26.7226 24.322V14.3753C26.7093 14.1753 26.7893 14.082 26.9893 14.0953V14.0953ZM27.7226 26.722C27.8826 27.2153 27.7759 27.7353 27.8026 28.2287C27.8026 28.3087 27.7493 28.322 27.6826 28.322H15.8426C11.9493 28.322 8.06925 28.322 4.17592 28.3353C3.93592 28.3353 3.86925 28.2687 3.88258 28.0287C3.90925 27.7353 3.88258 27.4553 3.89592 27.162C3.92258 26.4287 4.40259 25.9487 5.13592 25.9353H26.4826C27.1093 25.9353 27.5493 26.202 27.7226 26.722ZM8.66925 24.562C8.66925 24.682 8.64259 24.7487 8.49592 24.7487C7.81592 24.7353 7.13592 24.7353 6.44258 24.7487C6.24258 24.7487 6.28258 24.6153 6.28258 24.5087V19.3753C6.28258 17.6687 6.29592 15.962 6.28258 14.2553C6.28258 14.0287 6.34925 13.9887 6.54925 13.9887C7.16259 14.002 7.76259 14.002 8.37592 13.9887C8.60259 13.9887 8.66925 14.0287 8.66925 14.282C8.65592 17.442 8.65592 20.6153 8.65592 23.7887C8.65592 24.0553 8.65592 24.3087 8.66925 24.562ZM9.86925 14.242C9.86925 14.042 9.92259 13.9887 10.1226 13.9887C11.1626 14.002 12.2026 14.002 13.2293 13.9887C13.4026 13.9887 13.4426 14.0287 13.4426 14.202V24.5487C13.4426 24.7087 13.4159 24.7487 13.2559 24.7487C12.2026 24.7353 11.1626 24.7353 10.1226 24.7487C9.92259 24.7487 9.86925 24.7087 9.86925 24.5087C9.88259 22.7887 9.88259 21.0687 9.88259 19.3487C9.88259 17.6287 9.88259 15.9487 9.86925 14.242V14.242ZM14.6559 24.5087C14.6693 22.7887 14.6559 21.0687 14.6559 19.3487C14.6559 17.6287 14.6693 15.9487 14.6559 14.242C14.6559 14.0553 14.6959 13.9887 14.9093 13.9887C15.5493 14.002 16.1893 14.002 16.8293 13.9887C17.0026 13.9887 17.0426 14.042 17.0426 14.202C17.0293 17.642 17.0293 21.082 17.0426 24.522C17.0426 24.6953 17.0026 24.7487 16.8159 24.7487C16.1759 24.7353 15.5359 24.7353 14.8959 24.7487C14.6959 24.7487 14.6559 24.6953 14.6559 24.5087V24.5087ZM18.2426 24.522C18.2559 21.0953 18.2559 17.6553 18.2426 14.2287C18.2426 14.0287 18.3093 13.9887 18.4959 13.9887C19.5226 14.002 20.5626 14.002 21.6026 13.9887C21.7759 13.9887 21.8159 14.042 21.8159 14.2153V24.5087C21.8159 24.7087 21.7626 24.7487 21.5759 24.7487C20.5493 24.7353 19.5093 24.7353 18.4693 24.7487C18.2959 24.7487 18.2426 24.6953 18.2426 24.522ZM23.0293 24.5087C23.0426 22.802 23.0293 21.0953 23.0293 19.3753C23.0293 17.6553 23.0426 15.9753 23.0293 14.2687C23.0293 14.0287 23.1093 13.9887 23.3226 13.9887C23.9626 14.002 24.5893 14.002 25.2293 13.9887C25.3626 13.9887 25.4159 14.0287 25.4159 14.1753C25.4026 17.642 25.4026 21.0953 25.4159 24.562C25.4159 24.722 25.3626 24.7487 25.2293 24.7487C24.5759 24.7353 23.9226 24.7353 23.2693 24.7487C23.0826 24.7487 23.0293 24.7087 23.0293 24.5087V24.5087ZM26.1226 12.7753H15.8426C11.9626 12.7753 8.06925 12.7753 4.18925 12.7887C3.96258 12.7887 3.86925 12.7487 3.88258 12.4953C3.90925 12.1887 3.90925 11.8687 3.88258 11.5487C3.88258 11.3753 3.96259 11.2953 4.09592 11.2153C6.80259 9.61534 9.49592 8.01534 12.1893 6.41534C13.1893 5.82868 14.1759 5.24201 15.1626 4.64201C15.6293 4.36201 16.0693 4.36201 16.5359 4.64201C20.2159 6.84201 23.9093 9.02868 27.6026 11.2153C27.7626 11.3087 27.8159 11.4153 27.8026 11.5753V12.5753C27.8159 12.7353 27.7759 12.7887 27.6159 12.7887C27.1093 12.7753 26.6159 12.7753 26.1226 12.7753V12.7753Z" fill="white"/>
<path d="M15.8563 6.81262C14.5363 6.79929 13.4563 7.86596 13.443 9.18596C13.4297 10.4926 14.523 11.586 15.843 11.5993C17.163 11.5993 18.243 10.5326 18.2563 9.21262C18.2563 7.89262 17.1763 6.81262 15.8563 6.81262ZM15.843 10.386C15.1763 10.3726 14.6563 9.85262 14.6563 9.18596C14.6697 8.53262 15.203 7.99929 15.8563 7.99929C16.5097 7.99929 17.043 8.54596 17.0297 9.21262C17.0297 9.86596 16.4963 10.386 15.843 10.386V10.386Z" fill="white" fill-opacity="0.6"/>
</svg>
