<svg width="32" height="33" viewBox="0 0 32 33" fill="none" xmlns="http://www.w3.org/2000/svg">
<path d="M20.1864 25.8334C19.5688 25.6962 18.7793 25.5588 17.8871 25.4901C20.2893 22.4701 24.7507 16.2929 24.7507 12.2091C24.7507 7.37019 20.8384 3.45801 15.9996 3.45801C11.1608 3.45801 7.24854 7.37025 7.24854 12.2091C7.24854 16.293 11.7099 22.4701 14.1121 25.4901C13.2542 25.5588 12.4305 25.6618 11.8128 25.7989C11.2637 25.9363 9.82238 26.2796 9.82238 27.4806C9.82238 28.7503 11.504 29.0935 12.1559 29.2307C13.1855 29.4366 14.5581 29.5395 15.9994 29.5395C17.4408 29.5395 18.8136 29.4366 19.843 29.2307C20.4951 29.0936 22.1765 28.7503 22.1765 27.4806C22.177 26.2796 20.6669 25.9363 20.1865 25.8334L20.1864 25.8334ZM15.9996 4.48764C20.2551 4.48764 23.7211 7.9537 23.7211 12.2092C23.7211 16.6706 17.6126 24.2548 15.9996 26.1766C14.3867 24.2548 8.27807 16.6705 8.27807 12.2092C8.27807 7.95388 11.7441 4.48764 15.9996 4.48764V4.48764ZM15.9996 28.5102C13.1512 28.5102 10.8519 28.064 10.8519 27.4806C10.8519 27.0002 12.6021 26.5884 14.9013 26.4855C15.2788 26.9659 15.5534 27.2405 15.5876 27.3092C15.6905 27.4121 15.828 27.4808 15.9651 27.4808C16.1023 27.4808 16.2397 27.4121 16.3426 27.3092C16.4113 27.2405 16.6514 26.9659 17.0289 26.4855C19.3972 26.5884 21.1473 27.0002 21.1473 27.4806C21.1473 28.0642 18.848 28.5102 15.9996 28.5102H15.9996ZM19.7747 14.9889H19.0884V11.5571V11.5229H19.4317C19.672 11.5229 19.8779 11.3857 19.9121 11.1454C19.9808 10.9395 19.8779 10.6992 19.6718 10.562L16.24 8.50283C16.0684 8.39989 15.8625 8.39989 15.7253 8.50283L12.2935 10.562C12.0877 10.665 11.9847 10.9053 12.0532 11.1454C12.1219 11.3513 12.3278 11.5229 12.5336 11.5229H12.8769V11.5571V14.9889H12.1906C11.916 14.9889 11.6759 15.2293 11.6759 15.5036C11.6759 15.7782 11.9163 16.0183 12.1906 16.0183H19.7405C20.0151 16.0183 20.2552 15.7779 20.2552 15.5036C20.2552 15.2293 20.0491 14.9889 19.7748 14.9889H19.7747ZM15.9996 9.53244L17.5784 10.4933H14.4211L15.9996 9.53244ZM13.9404 14.9889V11.5571V11.5229H14.6267V11.5571V14.9889H13.9404ZM15.6563 14.9889V11.5571V11.5229H16.3426V11.5571V14.9889H15.6563ZM17.3722 14.9889V11.5571V11.5229H18.0585V11.5571V14.9889H17.3722Z" fill="white"/>
</svg>
