<svg width="24" height="24" viewBox="0 0 24 24" fill="none" xmlns="http://www.w3.org/2000/svg">
<path d="M21.78 11.2203V12.8215C21.726 12.8362 21.7424 12.882 21.7389 12.9173C21.696 13.3312 21.6367 13.7423 21.5462 14.1492C20.6197 18.3224 17.191 21.4222 12.945 21.9319C12.8034 21.9489 12.6507 21.9154 12.5191 22H10.9563C10.9416 21.946 10.8958 21.9624 10.8605 21.9589C10.4399 21.9166 10.0216 21.8573 9.60915 21.7628C7.33607 21.2419 5.44898 20.0875 3.99078 18.2695C2.34516 16.2185 1.62546 13.8662 1.80759 11.2414C1.90806 9.79337 2.29699 8.42403 3.02374 7.17095C4.818 4.07878 7.50116 2.34714 11.075 2.0371C12.6995 1.89617 14.2746 2.15571 15.7545 2.83392C19.0928 4.36474 21.0697 6.95545 21.6784 10.582C21.7142 10.7945 21.6954 11.0159 21.78 11.2203ZM16.6487 5.68123C13.6924 3.34243 9.13855 3.32482 6.11522 6.35886C3.05076 9.43401 3.15652 13.9859 5.45368 16.8697C9.18497 13.1404 12.9174 9.41052 16.6487 5.68123ZM18.0975 7.12926C14.3662 10.8585 10.6338 14.589 6.90249 18.3183C9.81713 20.6307 14.3639 20.7052 17.423 17.6577C20.4669 14.6248 20.4317 10.0711 18.0975 7.12926Z" fill="white"/>
</svg>
