<svg width="24" height="24" viewBox="0 0 24 24" fill="none" xmlns="http://www.w3.org/2000/svg">
<path d="M12.2936 23.9994H11.6089C11.5783 23.9267 11.4989 23.9349 11.4432 23.922C11.0263 23.8242 10.6907 23.5985 10.3881 23.3195C9.93019 22.8969 9.47169 22.476 9.0187 22.0482C8.80535 21.8465 8.56081 21.7627 8.26432 21.8049C7.63649 21.894 7.00865 21.9796 6.38082 22.0675C5.05851 22.2533 4.03943 21.5751 3.77411 20.3161C3.65001 19.7282 3.54181 19.1362 3.44888 18.5425C3.39325 18.1873 3.22208 17.9452 2.88402 17.7834C2.32465 17.5161 1.77384 17.2313 1.22548 16.9429C0.0780174 16.3409 -0.305897 15.205 0.25408 14.0714C0.524899 13.5228 0.802442 12.9765 1.08977 12.4355C1.24688 12.1401 1.24932 11.8628 1.09221 11.5668C0.808555 11.0329 0.535903 10.493 0.265084 9.95321C-0.315678 8.79265 0.0780175 7.64324 1.26338 7.03424C1.80747 6.75465 2.34788 6.46803 2.90052 6.20486C3.2337 6.0466 3.39203 5.80452 3.44827 5.46105C3.54792 4.84502 3.6549 4.22898 3.78817 3.61882C4.02965 2.51219 4.91913 1.85337 6.08799 1.91667C6.79469 1.95477 7.4916 2.08724 8.19157 2.18629C8.52352 2.23319 8.79801 2.17047 9.03643 1.9366C9.31581 1.66346 9.61536 1.40908 9.89473 1.13652C10.4021 0.641235 10.9193 0.162946 11.6584 0H12.2942C13.015 0.133053 13.5303 0.569726 14.0194 1.05446C14.336 1.36863 14.6759 1.66111 15.0012 1.96825C15.209 2.16461 15.4529 2.23553 15.7372 2.19509C16.3571 2.10834 16.9776 2.02745 17.5963 1.93484C18.9131 1.7379 19.9554 2.41547 20.2213 3.66395C20.3485 4.25946 20.4554 4.85908 20.552 5.45987C20.6077 5.80335 20.766 6.04543 21.0986 6.20427C21.6439 6.46451 22.1757 6.74879 22.7131 7.02369C23.9363 7.64851 24.3251 8.79793 23.7169 9.99365C23.4503 10.5182 23.1862 11.0446 22.9093 11.5645C22.7522 11.8599 22.7516 12.1383 22.9093 12.4337C23.1862 12.9536 23.4503 13.4794 23.7169 14.0046C24.3251 15.2009 23.9363 16.3497 22.7137 16.9751C22.1763 17.25 21.6439 17.5349 21.0992 17.7946C20.7666 17.9534 20.6077 18.1955 20.552 18.539C20.4524 19.155 20.3454 19.771 20.2121 20.3812C19.9707 21.489 19.0818 22.1572 17.9129 22.0786C17.2087 22.0312 16.5081 21.9163 15.8087 21.8155C15.4762 21.7674 15.2029 21.8307 14.9633 22.0634C14.6545 22.3635 14.3232 22.6425 14.0175 22.9455C13.5285 23.4303 13.0125 23.8669 12.2924 24L12.2936 23.9994ZM17.4807 7.42988C17.4795 7.14737 17.3053 6.89533 17.0296 6.79451C16.6652 6.66087 16.3932 6.80623 16.1376 7.05241C13.0419 10.0265 9.94181 12.9964 6.84359 15.9676C6.78062 16.0279 6.7146 16.0883 6.66264 16.1575C6.48902 16.3861 6.4664 16.634 6.60151 16.8837C6.73172 17.1246 6.9463 17.2477 7.2324 17.2553C7.50199 17.2623 7.68539 17.117 7.86268 16.947C10.8912 14.0409 13.9209 11.1366 16.9507 8.23172C17.0656 8.12153 17.1812 8.01133 17.293 7.89762C17.4208 7.76691 17.485 7.611 17.4819 7.43047L17.4807 7.42988ZM14.8972 13.1588C13.4417 13.1523 12.2502 14.2824 12.2428 15.6757C12.2361 17.0672 13.4148 18.216 14.8636 18.2301C16.31 18.2441 17.5168 17.107 17.5278 15.7196C17.5394 14.3059 16.3675 13.1658 14.8966 13.1594L14.8972 13.1588ZM9.11346 10.8418C10.569 10.8412 11.7556 9.70644 11.7575 8.31319C11.7593 6.91467 10.5556 5.76232 9.10062 5.76935C7.65177 5.77639 6.46701 6.92287 6.47129 8.31437C6.47557 9.71289 7.65666 10.843 9.11407 10.8418H9.11346Z" fill="white" fill-opacity="0.6"/>
</svg>
