<svg width="64" height="64" viewBox="0 0 64 64" fill="none" xmlns="http://www.w3.org/2000/svg">
<rect width="64" height="64" rx="10" fill="#32BA7C"/>
<path d="M32.0001 45.3333C39.3639 45.3333 45.3334 39.3638 45.3334 32C45.3334 24.6362 39.3639 18.6667 32.0001 18.6667C24.6363 18.6667 18.6667 24.6362 18.6667 32C18.6667 39.3638 24.6363 45.3333 32.0001 45.3333Z" fill="#32BA7C"/>
<path d="M32.3799 35.371C33.045 36.0361 33.045 37.1763 32.3799 37.8414L31.0022 39.219C30.3372 39.8841 29.197 39.8841 28.5319 39.219L22.4986 33.1382C21.8335 32.4731 21.8335 31.333 22.4986 30.6679L23.8763 29.2902C24.5414 28.6251 25.6815 28.6251 26.3466 29.2902L32.3799 35.371Z" fill="white"/>
<path d="M37.6531 24.8694C38.3182 24.2043 39.4584 24.2043 40.1235 24.8694L41.5012 26.2471C42.1663 26.9121 42.1663 28.0523 41.5012 28.7174L31.0497 39.1213C30.3846 39.7864 29.2445 39.7864 28.5794 39.1213L27.2017 37.7436C26.5366 37.0785 26.5366 35.9384 27.2017 35.2733L37.6531 24.8694Z" fill="white"/>
</svg>
