<svg width="24" height="24" viewBox="0 0 24 24" fill="none" xmlns="http://www.w3.org/2000/svg">
<path d="M8.71527 10.9878C9.90847 12.6672 11.3314 14.0931 13.0117 15.2828C13.154 15.0802 13.2856 14.8913 13.4186 14.7037C13.9422 13.9653 14.7988 13.8137 15.5399 14.3292C16.1329 14.7416 16.7253 15.1541 17.3159 15.5699C17.9938 16.047 18.1808 16.7573 17.819 17.5049C17.414 18.342 16.7263 18.8001 15.824 18.9449C14.81 19.1081 13.8441 18.8909 12.9044 18.53C11.5815 18.0218 10.4116 17.2572 9.34222 16.337C7.86784 15.0686 6.64355 13.598 5.78835 11.8399C5.34351 10.9271 5.02687 9.97488 5.00162 8.94739C4.98025 8.07294 5.16576 7.26212 5.82671 6.63786C6.22591 6.26136 6.68532 5.97716 7.26856 6.00145C7.70029 6.01942 8.06549 6.19723 8.31753 6.54215C8.81094 7.2184 9.29852 7.90096 9.75501 8.60198C10.16 9.22431 9.99346 10.0375 9.40487 10.4937C9.18973 10.6608 8.96197 10.8114 8.71478 10.9878H8.71527Z" fill="white"/>
</svg>
