<svg width="32" height="33" viewBox="0 0 32 33" fill="none" xmlns="http://www.w3.org/2000/svg">
<path d="M26.2293 7.16699H5.77179C5.24745 7.16699 4.74449 7.37542 4.37353 7.74623C4.00271 8.11705 3.79443 8.62001 3.79443 9.14449V23.8567C3.79443 24.3812 4.00273 24.8842 4.37353 25.255C4.74449 25.6258 5.24745 25.8342 5.77179 25.8342H26.2293C26.7536 25.8342 27.2566 25.6258 27.6275 25.255C27.9984 24.8842 28.2066 24.3812 28.2066 23.8567V9.14449C28.2066 8.62001 27.9983 8.11705 27.6275 7.74623C27.2566 7.3754 26.7536 7.16699 26.2293 7.16699V7.16699ZM5.77179 8.39033H26.2293C26.429 8.39101 26.6204 8.4707 26.7617 8.61197C26.9029 8.75324 26.9826 8.94464 26.9833 9.14451V11.1599H5.01227V9.14451C5.01296 8.94371 5.09347 8.75147 5.23583 8.61009C5.37832 8.46868 5.57109 8.38967 5.77175 8.39035L5.77179 8.39033ZM26.2293 24.6109H5.77179C5.57208 24.6101 5.38067 24.5305 5.2394 24.3892C5.09813 24.248 5.01843 24.0566 5.01775 23.8567V14.873H26.9888V23.8567C26.9881 24.0575 26.9076 24.2497 26.7652 24.3911C26.6227 24.5325 26.43 24.6115 26.2293 24.6109L26.2293 24.6109ZM16.2719 17.8919H7.28814C7.09429 17.8919 6.91516 17.7885 6.81828 17.6207C6.72128 17.4529 6.72128 17.2461 6.81828 17.0782C6.91513 16.9103 7.09428 16.8069 7.28814 16.8069H16.2719C16.4657 16.8069 16.6447 16.9103 16.7417 17.0782C16.8386 17.2461 16.8386 17.4528 16.7417 17.6207C16.6447 17.7885 16.4657 17.8919 16.2719 17.8919ZM11.78 20.3332H7.28814C7.09429 20.3332 6.91516 20.2298 6.81828 20.0619C6.72128 19.8941 6.72128 19.6873 6.81828 19.5194C6.91513 19.3515 7.09428 19.2481 7.28814 19.2481H11.78C11.9739 19.2481 12.153 19.3515 12.2499 19.5194C12.3467 19.6873 12.3467 19.8941 12.2499 20.0619C12.153 20.2298 11.9739 20.3332 11.78 20.3332Z" fill="white"/>
</svg>
