<svg width="14" height="18" viewBox="0 0 14 18" fill="none" xmlns="http://www.w3.org/2000/svg">
<path d="M11.3823 0C11.5528 0.287633 11.7381 0.55314 11.8493 0.877649C11.9902 1.29066 11.9753 1.68892 11.7678 2.07981C10.5076 4.43249 9.32894 6.82943 8.12063 9.21162C8.06133 9.32962 8.05392 9.41075 8.12063 9.52876C8.62471 10.3917 9.12137 11.2619 9.61804 12.1322C9.68476 12.2428 9.72923 12.2502 9.84043 12.1986C10.6336 11.8298 11.4194 11.9109 12.1533 12.3313C13.4579 13.0836 14.0806 14.2341 13.9917 15.7313C13.9324 16.8302 13.1836 17.7152 12.1458 17.9439C11.3749 18.1061 10.6781 17.907 10.0406 17.4718C9.14361 16.8597 8.64695 15.9894 8.48386 14.9274C8.32078 13.8875 8.07615 12.8771 7.63138 11.9183C7.48312 11.5938 7.30521 11.2841 7.09765 10.9964C7.02352 10.8932 6.98646 10.8858 6.90492 10.9964C6.46014 11.6159 6.17104 12.3092 5.94124 13.032C5.70403 13.7769 5.61507 14.5513 5.43716 15.3035C5.13323 16.5426 4.39935 17.4423 3.1614 17.8627C1.71588 18.3495 0.300016 17.494 0.0479774 15.9968C-0.241126 14.3153 0.804094 12.5968 2.43493 12.0953C3.03538 11.9109 3.62841 11.9404 4.1992 12.2207C4.28816 12.265 4.32522 12.2576 4.3697 12.1691C4.88119 11.2693 5.4001 10.3695 5.919 9.47713C5.96348 9.396 5.94865 9.34437 5.91159 9.27062C4.74035 6.95481 3.60617 4.61687 2.3608 2.34531C1.91603 1.53404 2.05687 0.855523 2.5313 0.162254C2.56837 0.0958776 2.62767 0.0663768 2.62026 0C2.63508 0 2.64249 0 2.65732 0C2.65732 0.0073752 2.65732 0.0221256 2.65732 0.0295008C4.07319 2.50019 5.49646 4.96351 6.91233 7.4342C6.93457 7.47108 6.95681 7.50795 6.99387 7.56695C7.03835 7.50058 7.068 7.45632 7.09024 7.4047C8.0465 5.74528 8.99536 4.09323 9.95162 2.43382C10.4186 1.62254 10.8782 0.811272 11.3378 0C11.3527 0 11.3601 0 11.3749 0L11.3823 0ZM4.11025 14.5218C4.11025 14.4701 4.11025 14.4185 4.11025 14.3669C4.06577 13.5999 3.46533 13.2016 2.74628 13.4597C1.93086 13.7474 1.30076 14.7946 1.42678 15.6502C1.50832 16.1959 1.79001 16.5131 2.26444 16.5721C2.48682 16.6016 2.69439 16.5499 2.89453 16.4467C3.68771 16.0484 4.05095 15.3847 4.11025 14.5218ZM9.89232 14.5218C9.8849 14.7578 9.92938 14.9864 10.0035 15.2003C10.2407 15.8345 10.641 16.3139 11.3082 16.5278C11.8567 16.7048 12.3089 16.4836 12.5017 15.9452C12.6425 15.5543 12.6054 15.1634 12.472 14.7799C12.2422 14.153 11.8493 13.6736 11.197 13.4524C10.7151 13.2901 10.3 13.4376 10.0628 13.8285C9.93679 14.0424 9.8849 14.2858 9.89232 14.5291V14.5218Z" fill="white" fill-opacity="0.6"/>
</svg>
