<svg width="32" height="33" viewBox="0 0 32 33" fill="none" xmlns="http://www.w3.org/2000/svg">
<path d="M28.7883 7.97822C28.3343 7.3542 27.6684 7.16699 26.9268 7.16699C19.6472 7.16699 12.3525 7.16699 5.07286 7.16699C4.96692 7.16699 4.86098 7.16699 4.75504 7.16699C3.5897 7.22939 2.6665 8.21223 2.6665 9.41348C2.6665 14.5773 2.6665 19.7411 2.6665 24.9205C2.6665 25.3885 2.80271 25.8253 3.06 26.1998C3.54429 26.8862 4.2102 27.167 5.04259 27.167C12.3525 27.167 19.6472 27.167 26.9571 27.167C27.0479 27.167 27.1538 27.167 27.2446 27.167C28.1678 27.1046 28.8186 26.6054 29.1818 25.7317C29.2424 25.5913 29.2878 25.4353 29.3332 25.2793V9.05467C29.1667 8.69585 29.0456 8.29024 28.8035 7.96262L28.7883 7.97822ZM3.87725 9.46028C3.89238 8.83626 4.28588 8.43064 4.90638 8.41504C4.95179 8.41504 4.99719 8.41504 5.04259 8.41504C12.3525 8.41504 19.6472 8.41504 26.9571 8.41504C27.1084 8.41504 27.2749 8.41504 27.4262 8.46184C27.7895 8.57105 28.0619 8.83626 28.0922 9.24188C28.1224 9.7879 28.0922 10.3339 28.0922 10.8955H3.90752C3.90752 10.8955 3.87725 10.7863 3.87725 10.7395C3.87725 10.3027 3.87725 9.8815 3.87725 9.44468V9.46028ZM28.1073 12.4712C28.1073 16.543 28.1073 20.6303 28.1073 24.7021C28.1073 25.5289 27.7289 25.9033 26.9268 25.9033C19.6321 25.9033 12.3525 25.9033 5.05773 25.9033C4.24047 25.9033 3.87725 25.5289 3.87725 24.7021C3.87725 20.6303 3.87725 16.543 3.87725 12.4712V12.1748H28.1073V12.4712V12.4712Z" fill="white" fill-opacity="0.6"/>
<path d="M9.156 21.7003C9.83785 21.8503 10.553 21.8003 11.2515 21.8337C11.7171 21.8337 11.9998 21.5837 11.9998 21.167C11.9998 20.767 11.7171 20.517 11.2681 20.5003C10.8523 20.5003 10.4532 20.5003 10.0374 20.5003C8.92317 20.467 8.09163 19.6837 8.02511 18.6003C7.97522 17.5337 8.70697 16.6503 9.80459 16.517C10.3035 16.467 10.8191 16.517 11.318 16.5003C11.7171 16.5003 11.9998 16.2337 11.9998 15.8503C11.9998 15.467 11.7504 15.1837 11.3512 15.167C11.0685 15.167 10.8024 15.167 10.5197 15.167C10.2702 15.167 10.0208 15.167 9.77133 15.167C8.15816 15.267 6.8277 16.567 6.67803 18.2003C6.54498 19.8003 7.57608 21.3503 9.13936 21.7003H9.156Z" fill="white" fill-opacity="0.6"/>
<path d="M15.3148 21.2671C15.4647 21.6504 15.6646 21.817 15.9811 21.8337C16.3143 21.8337 16.5142 21.667 16.6808 21.2671C17.0473 20.3006 17.4137 19.3175 17.7802 18.351C18.0634 17.6179 18.3466 16.868 18.6131 16.1348C18.813 15.5849 18.4299 15.085 17.8802 15.185C17.5803 15.235 17.4304 15.4516 17.3304 15.7182C16.8973 16.868 16.4642 18.0178 16.0145 19.2509C15.9478 19.0842 15.9145 19.0009 15.8812 18.9176C15.4814 17.8511 15.0816 16.8014 14.6818 15.7349C14.5819 15.4683 14.4486 15.2517 14.1488 15.185C13.8989 15.135 13.6657 15.185 13.4991 15.385C13.2992 15.6183 13.2992 15.8682 13.3991 16.1348C14.0488 17.8511 14.6818 19.5508 15.3148 21.2671Z" fill="white" fill-opacity="0.6"/>
<path d="M21.4963 21.3182C21.5843 21.6175 21.7225 21.817 21.9864 21.8337C22.2378 21.8337 22.3886 21.684 22.4891 21.3182C22.6525 20.7363 22.8284 20.1377 22.9918 19.5558C23.3185 18.4251 23.6453 17.2779 23.9595 16.1472C24.1103 15.5985 23.8212 15.0997 23.4065 15.1995C23.1929 15.2494 23.0798 15.4489 23.0044 15.6983C22.6776 16.8622 22.3383 18.0261 21.999 19.2399C21.9487 19.0902 21.9236 18.9904 21.8985 18.8907C21.5968 17.8266 21.2952 16.7791 20.9936 15.7149C20.8679 15.266 20.604 15.0665 20.315 15.2161C20.0385 15.3491 19.9254 15.7316 20.0511 16.1639C20.5412 17.8764 21.0313 19.589 21.5089 21.3182H21.4963Z" fill="white" fill-opacity="0.6"/>
</svg>
