<svg width="24" height="24" viewBox="0 0 24 24" fill="none" xmlns="http://www.w3.org/2000/svg">
<path fill-rule="evenodd" clip-rule="evenodd" d="M11.625 1.875C12.0392 1.875 12.375 2.21079 12.375 2.625V13.7222L17.1311 9.56057C17.4428 9.28781 17.9167 9.31939 18.1894 9.63112C18.4622 9.94285 18.4306 10.4167 18.1189 10.6894L12.1217 15.937C11.9904 16.053 11.8183 16.1238 11.6296 16.125C11.6281 16.125 11.6265 16.125 11.625 16.125C11.6235 16.125 11.6219 16.125 11.6204 16.125C11.4317 16.1238 11.2596 16.053 11.1283 15.937L5.13112 10.6894C4.81939 10.4167 4.78781 9.94285 5.06057 9.63112C5.33333 9.31939 5.80715 9.28781 6.11888 9.56057L10.875 13.7222V2.625C10.875 2.21079 11.2108 1.875 11.625 1.875ZM4.125 19.875C4.125 19.4608 4.46079 19.125 4.875 19.125H18.375C18.7892 19.125 19.125 19.4608 19.125 19.875C19.125 20.2892 18.7892 20.625 18.375 20.625H4.875C4.46079 20.625 4.125 20.2892 4.125 19.875Z" fill="white"/>
</svg>
