<svg width="25" height="24" viewBox="0 0 25 24" fill="none" xmlns="http://www.w3.org/2000/svg">
<path d="M6.53984 17.625C6.58672 17.625 6.63359 17.6203 6.68047 17.6133L10.6227 16.9219C10.6695 16.9125 10.7141 16.8914 10.7469 16.8563L20.682 6.92109C20.7038 6.89941 20.721 6.87366 20.7328 6.8453C20.7445 6.81695 20.7506 6.78656 20.7506 6.75586C20.7506 6.72516 20.7445 6.69477 20.7328 6.66642C20.721 6.63806 20.7038 6.61231 20.682 6.59063L16.7867 2.69297C16.7422 2.64844 16.6836 2.625 16.6203 2.625C16.557 2.625 16.4984 2.64844 16.4539 2.69297L6.51875 12.6281C6.48359 12.6633 6.4625 12.7055 6.45312 12.7523L5.76172 16.6945C5.73892 16.8201 5.74707 16.9493 5.78545 17.071C5.82384 17.1927 5.89132 17.3032 5.98203 17.393C6.13672 17.543 6.33125 17.625 6.53984 17.625V17.625ZM8.11953 13.5375L16.6203 5.03906L18.3383 6.75703L9.8375 15.2555L7.75391 15.6234L8.11953 13.5375V13.5375ZM21.125 19.5938H3.875C3.46016 19.5938 3.125 19.9289 3.125 20.3438V21.1875C3.125 21.2906 3.20937 21.375 3.3125 21.375H21.6875C21.7906 21.375 21.875 21.2906 21.875 21.1875V20.3438C21.875 19.9289 21.5398 19.5938 21.125 19.5938Z" fill="white"/>
<path d="M20.1402 6.7558L10.4518 16.4442L6.60083 17.1196C6.57234 17.1237 6.55321 17.125 6.53984 17.125C6.46929 17.125 6.39833 17.0994 6.33201 17.0359C6.29991 17.0036 6.276 16.964 6.26229 16.9206C6.24835 16.8764 6.24539 16.8295 6.25368 16.7839L6.2542 16.7809L6.93079 12.9232L16.6203 3.23373L20.1402 6.7558ZM20.3288 6.94454C20.3287 6.94439 20.3285 6.94423 20.3284 6.94407L20.3288 6.94454ZM16.9739 4.68551L16.6204 4.332L16.2668 4.68546L7.76603 13.1839L8.11953 13.5375L7.62704 13.4512L7.26141 15.5371L7.13823 16.2399L7.84086 16.1158L9.92446 15.7479L10.0796 15.7205L10.191 15.6091L18.6918 7.11063L19.0454 6.75708L18.6918 6.40348L16.9739 4.68551ZM3.875 20.0938H21.125C21.2637 20.0938 21.375 20.205 21.375 20.3438V20.875H3.625V20.3438C3.625 20.205 3.7363 20.0938 3.875 20.0938Z" stroke="white" stroke-opacity="0.6"/>
</svg>
