<svg width="32" height="33" viewBox="0 0 32 33" fill="none" xmlns="http://www.w3.org/2000/svg">
<path d="M3.50684 9.60622C3.64017 9.05956 3.86684 8.56622 4.32017 8.20622C4.72017 7.88622 5.16017 7.72622 5.66684 7.71289C5.88017 7.71289 6.10684 7.71289 6.32017 7.71289C12.9335 7.71289 19.5335 7.71289 26.1468 7.71289C27.0935 7.71289 27.8135 8.09956 28.2268 8.96622C28.3602 9.25956 28.4402 9.60622 28.4535 9.92622C28.4668 14.2996 28.4535 18.6729 28.4535 23.0596C28.4535 24.2996 27.4935 25.2596 26.2402 25.2596C19.4002 25.2596 12.5735 25.2596 5.7335 25.2596C4.66684 25.2596 3.8135 24.5796 3.56017 23.5396C3.54684 23.4729 3.52017 23.4196 3.50684 23.3529C3.50684 18.7662 3.50684 14.1929 3.50684 9.60622V9.60622ZM6.04017 9.16622C6.04017 9.16622 6.12017 9.25956 6.14684 9.28622C8.8935 12.0196 11.6402 14.7662 14.4002 17.4996C15.3335 18.4329 16.6535 18.4196 17.5868 17.4862C20.3202 14.7662 23.0535 12.0462 25.7868 9.32622C25.8268 9.28622 25.8535 9.23289 25.9068 9.16622H6.04017V9.16622ZM6.16017 23.7662H25.7602C23.7602 21.7262 21.7068 19.6329 19.5868 17.4596C19.1735 17.8996 18.8135 18.3662 18.3868 18.7396C17.2135 19.7396 15.8802 19.9396 14.4668 19.2996C14.0402 19.1129 13.6668 18.7796 13.3068 18.4729C12.9602 18.1796 12.6668 17.8329 12.3202 17.4729C10.2402 19.5929 8.18684 21.6862 6.16017 23.7529V23.7662ZM11.1468 16.5262C9.12017 14.4596 7.0535 12.3662 5.00017 10.2729V22.6996C5.00017 22.6996 5.04017 22.7262 5.0535 22.7396C7.10684 20.6462 9.16017 18.5529 11.1335 16.5262H11.1468ZM27.0002 10.2062C24.9068 12.3396 22.8402 14.4462 20.8402 16.4729C22.8535 18.5262 24.9068 20.6196 27.0002 22.7529V10.2062V10.2062Z" fill="white"/>
</svg>
