<svg width="48" height="48" viewBox="0 0 48 48" fill="none" xmlns="http://www.w3.org/2000/svg">
<g clip-path="url(#clip0_1159_26060)">
<path d="M47.5881 13.647L34.353 0.411938C34.0893 0.148219 33.7316 0 33.3587 0H14.6413C14.2684 0 13.9107 0.148219 13.647 0.411938L0.411938 13.647C0.148219 13.9107 0 14.2684 0 14.6413V33.3586C0 33.7315 0.148219 34.0892 0.411938 34.3529L13.647 47.588C13.9107 47.8517 14.2684 47.9999 14.6413 47.9999H33.3586C33.7315 47.9999 34.0892 47.8517 34.3529 47.588L47.588 34.3529C47.8517 34.0892 47.9999 33.7315 47.9999 33.3586V14.6413C48 14.2684 47.8518 13.9107 47.5881 13.647V13.647Z" fill="#F25A3C"/>
<path d="M48 14.6409V33.3591C48 33.7312 47.8519 34.0894 47.5884 34.3528L34.3528 47.5884C34.0894 47.8519 33.7312 48 33.3591 48H24V0H33.3591C33.7312 0 34.0894 0.148125 34.3528 0.411562L47.5884 13.6472C47.8519 13.9106 48 14.2687 48 14.6409Z" fill="#E43539"/>
<path d="M22.235 9.9375H25.7654C26.5836 9.9375 27.2291 10.6333 27.1677 11.4493L25.9684 27.3868C25.9131 28.1205 25.3018 28.6875 24.5661 28.6875H23.4342C22.6985 28.6875 22.0871 28.1204 22.0319 27.3868L20.8326 11.4493C20.7713 10.6333 21.4167 9.9375 22.235 9.9375V9.9375Z" fill="#E9F3FB"/>
<path d="M27.1678 11.4497L25.9678 27.3872C25.9134 28.1203 25.3013 28.6875 24.5663 28.6875H24V9.9375H25.7653C26.5837 9.9375 27.2288 10.6331 27.1678 11.4497V11.4497Z" fill="#D6E9F8"/>
<path d="M21.1924 35.2453V35.2547C21.1924 36.8054 22.4495 38.0625 24.0002 38.0625C25.5509 38.0625 26.808 36.8054 26.808 35.2547V35.2453C26.808 33.6946 25.5509 32.4375 24.0002 32.4375C22.4495 32.4375 21.1924 33.6946 21.1924 35.2453Z" fill="#E9F3FB"/>
<path d="M26.8078 35.2453V35.2547C26.8078 36.03 26.4937 36.7322 25.9856 37.2403C25.4775 37.7484 24.7753 38.0625 24 38.0625V32.4375C25.5506 32.4375 26.8078 33.6947 26.8078 35.2453Z" fill="#D6E9F8"/>
</g>
<defs>
<clipPath id="clip0_1159_26060">
<rect width="48" height="48" fill="white"/>
</clipPath>
</defs>
</svg>
