<svg width="24" height="24" viewBox="0 0 24 24" fill="none" xmlns="http://www.w3.org/2000/svg">
<path d="M12.8907 24H11.0156C10.9968 23.9368 10.9424 23.9556 10.8999 23.9512C8.54271 23.7193 6.42063 22.8896 4.57179 21.4084C2.1127 19.4382 0.626495 16.891 0.130051 13.7716C0.0906604 13.5247 0.118796 13.2646 0 13.0313V11.0156C0.0625244 10.9962 0.0437671 10.9418 0.0481438 10.8993C0.0987886 10.4103 0.173818 9.92575 0.275107 9.44431C1.28488 4.64244 5.3671 0.822196 10.2259 0.130676C10.4891 0.0931614 10.7636 0.109418 11.0156 0H12.8907C12.9044 0.05127 12.9469 0.0425166 12.9838 0.0443923C13.3502 0.0656506 13.7129 0.118796 14.0742 0.180696C19.1281 1.04666 23.129 5.16202 23.8718 10.2496C23.9112 10.521 23.8962 10.8017 24 11.0631V12.9382C23.94 12.9601 23.9575 13.0138 23.9537 13.0564C23.9143 13.4759 23.8537 13.8917 23.7743 14.3056C22.8283 19.2538 18.7454 23.149 13.7504 23.8718C13.464 23.9131 13.1689 23.9037 12.89 24H12.8907ZM11.0068 13.6597C11.0068 13.7923 11.0012 13.9254 11.008 14.058C11.0349 14.5832 11.4632 14.9934 11.9859 14.9996C12.5199 15.0059 12.9632 14.5951 12.9919 14.0624C13.0007 13.8986 12.992 13.7341 12.9982 13.5703C13.0151 13.1445 13.2052 12.8256 13.5947 12.6381C14.4463 12.2285 15.1203 11.6133 15.6486 10.8392C16.2832 9.90887 16.6509 8.90535 16.4408 7.75365C15.9331 4.97007 13.1633 3.34318 10.491 4.26229C8.72716 4.86878 7.47479 6.64009 7.50043 8.49207C7.50981 9.16671 8.12192 9.63626 8.7678 9.46432C9.21798 9.3449 9.47683 8.96163 9.51059 8.39515C9.57374 7.34412 10.0989 6.5907 11.0624 6.19367C12.0309 5.79476 12.9357 5.98046 13.7091 6.68511C14.5832 7.48105 14.717 8.61086 14.078 9.6C13.7372 10.1277 13.2989 10.5466 12.7318 10.833C11.577 11.417 11.0156 12.3723 11.0068 13.6591V13.6597ZM12.9951 17.9895C12.9907 17.4349 12.5524 17.0029 11.9959 17.0048C11.4407 17.0066 11.0062 17.4418 11.0055 17.9977C11.0049 18.5629 11.4495 19.0012 12.0166 18.9943C12.5693 18.988 13.0001 18.5454 12.9957 17.9889L12.9951 17.9895Z" fill="white" fill-opacity="0.6"/>
</svg>
