<svg width="23" height="23" viewBox="0 0 23 23" fill="none" xmlns="http://www.w3.org/2000/svg">
<path d="M10.6018 0H12.3988C12.4215 0.0548653 12.4725 0.0409982 12.5138 0.0446157C14.2544 0.200168 15.8878 0.707219 17.3761 1.62968C20.4433 3.53127 22.2852 6.27212 22.8736 9.85706C22.9179 10.1272 22.9041 10.4063 23 10.6674V12.5207C22.9113 12.7143 22.9275 12.9253 22.8981 13.1285C22.5255 15.7168 21.435 17.9488 19.5871 19.7907C17.88 21.4921 15.8356 22.5514 13.4659 22.9735C13.3149 23.0006 13.2945 22.9644 13.2945 22.827C13.2981 20.2507 13.2981 17.6738 13.2933 15.0976C13.2933 14.9445 13.3419 14.9119 13.4833 14.9137C14.2167 14.9203 14.9507 14.9167 15.6841 14.9167C15.9968 14.9167 15.9902 14.9155 16.0346 14.6147C16.1718 13.6789 16.3042 12.7426 16.4612 11.8105C16.4983 11.5892 16.4402 11.5663 16.2485 11.5681C15.3275 11.5772 14.4066 11.5711 13.4857 11.573C13.3736 11.573 13.2903 11.5814 13.2927 11.4156C13.3029 10.7228 13.2831 10.0289 13.3023 9.33674C13.3299 8.32746 13.8476 7.76012 14.8242 7.62989C15.3611 7.55814 15.901 7.60758 16.439 7.59733C16.5612 7.59492 16.6266 7.58648 16.6248 7.43153C16.617 6.58805 16.6188 5.74397 16.6236 4.90049C16.6242 4.7781 16.5858 4.72324 16.4666 4.70877C15.3976 4.57552 14.3281 4.43022 13.2496 4.5701C12.2628 4.69791 11.3963 5.08438 10.7289 5.85189C10.011 6.67849 9.73423 7.67149 9.70726 8.74166C9.68569 9.61529 9.69828 10.4895 9.70666 11.3631C9.70846 11.5283 9.67191 11.579 9.49935 11.5772C8.6611 11.5675 7.82225 11.576 6.984 11.5693C6.83601 11.5681 6.77729 11.5941 6.77909 11.7617C6.78747 12.7486 6.78688 13.7356 6.77909 14.722C6.77789 14.8817 6.82163 14.9221 6.97801 14.9209C7.80128 14.9131 8.62515 14.9234 9.44842 14.9125C9.64675 14.9101 9.70846 14.9535 9.70786 15.1663C9.69947 17.6974 9.70247 20.229 9.70247 22.76V23C9.50115 22.9638 9.3178 22.9373 9.13745 22.8981C7.00258 22.4345 5.13375 21.4565 3.55791 19.9336C1.74241 18.1791 0.613557 16.0502 0.168968 13.5535C0.107852 13.2099 0.113844 12.856 0 12.5219V10.6234C0.0545251 10.6011 0.0419424 10.5504 0.0467358 10.5082C0.088079 10.1115 0.144402 9.71718 0.2187 9.32529C1.11627 4.58276 5.03728 0.818758 9.79594 0.126009C10.0644 0.0868198 10.3418 0.0964664 10.6018 0Z" fill="#1877F1"/>
</svg>
