<svg width="18" height="18" viewBox="0 0 18 18" fill="none" xmlns="http://www.w3.org/2000/svg">
<path d="M15.8702 8.10966C16.5102 8.44966 17.0002 8.96966 17.2802 9.67966C17.4102 10.0197 17.4802 10.3697 17.4802 10.7397C17.4802 11.5997 17.4602 12.4597 17.4802 13.3197C17.5102 14.2997 17.1002 15.0497 16.3702 15.6497C15.6502 16.2497 14.8102 16.6197 13.9202 16.8897C12.3402 17.3697 10.7302 17.5197 9.09018 17.4497C7.83018 17.3997 6.59018 17.2197 5.39018 16.8197C4.45018 16.5097 3.57018 16.0897 2.86018 15.3797C2.32018 14.8397 2.03018 14.2097 2.05018 13.4197C2.07018 12.4697 2.05018 11.5297 2.05018 10.5797C2.05018 10.3797 2.08018 10.1897 2.12018 9.98966C2.14018 9.88966 2.12018 9.84966 2.03018 9.78966C1.03018 9.18966 0.510179 8.30966 0.500179 7.13966C0.500179 6.29966 0.520179 5.45966 0.500179 4.62966C0.460179 3.63966 0.880179 2.88966 1.62018 2.27966C2.41018 1.62966 3.34018 1.24966 4.31018 0.96966C5.82018 0.54966 7.37018 0.41966 8.94018 0.47966C10.3702 0.53966 11.7602 0.75966 13.1002 1.28966C13.9202 1.60966 14.6802 2.02966 15.2702 2.69966C15.7102 3.19966 15.9502 3.75966 15.9402 4.43966C15.9302 5.30966 15.9402 6.17966 15.9402 7.03966C15.9402 7.36966 15.9102 7.70966 15.8902 8.07966L15.8702 8.10966ZM8.26018 2.02966C6.94018 2.03966 5.67018 2.17966 4.44018 2.56966C3.80018 2.76966 3.19018 3.02966 2.65018 3.44966C1.86018 4.05966 1.86018 4.62966 2.65018 5.23966C3.07018 5.55966 3.54018 5.78966 4.03018 5.96966C5.16018 6.38966 6.34018 6.57966 7.54018 6.63966C8.97018 6.70966 10.3802 6.58966 11.7602 6.18966C12.5302 5.96966 13.2802 5.67966 13.9002 5.14966C14.5402 4.60966 14.5402 4.08966 13.9002 3.54966C13.4802 3.18966 13.0002 2.94966 12.4902 2.74966C11.1202 2.21966 9.68018 2.04966 8.26018 2.02966ZM3.55018 10.5797C3.65018 10.7597 3.72018 10.9297 3.82018 11.0697C4.07018 11.3997 4.41018 11.6197 4.77018 11.8097C5.91018 12.4097 7.14018 12.6697 8.40018 12.7797C9.72018 12.8997 11.0302 12.8597 12.3402 12.5997C13.2502 12.4197 14.1302 12.1597 14.9302 11.6897C15.2502 11.4997 15.5402 11.2897 15.7602 10.9797C15.9502 10.6997 15.9802 10.4197 15.7902 10.1197C15.5802 9.78966 15.2702 9.57966 14.9502 9.37966C14.2102 10.0097 13.3602 10.3997 12.4602 10.6897C11.3702 11.0397 10.2502 11.2097 9.11018 11.2697C7.75018 11.3397 6.40018 11.2897 5.07018 10.9797C4.58018 10.8697 4.09018 10.7297 3.54018 10.5797H3.55018ZM3.59018 12.9197C3.59018 13.0697 3.60018 13.1997 3.59018 13.3297C3.53018 13.8197 3.76018 14.1597 4.12018 14.4497C4.55018 14.7997 5.05018 15.0497 5.57018 15.2397C6.70018 15.6597 7.87018 15.8497 9.06018 15.8997C10.4002 15.9697 11.7302 15.8597 13.0302 15.5197C13.8402 15.3097 14.6202 15.0097 15.3102 14.5097C15.8802 14.0997 16.0102 13.5597 15.9002 12.8997C15.8402 12.9297 15.7702 12.9597 15.7102 12.9997C14.3902 13.7097 12.9902 14.1797 11.5002 14.3097C10.5602 14.3897 9.61018 14.3797 8.67018 14.3597C7.35018 14.3297 6.08018 14.0197 4.86018 13.4997C4.44018 13.3197 4.03018 13.1197 3.59018 12.9097V12.9197ZM14.3702 6.72966C14.2902 6.76966 14.2302 6.79966 14.1802 6.81966C12.9402 7.48966 11.6102 7.91966 10.2102 8.11966C9.39018 8.22966 8.56018 8.21966 7.74018 8.21966C5.78018 8.21966 3.93018 7.74966 2.21018 6.80966C2.16018 6.77966 2.11018 6.75966 2.04018 6.71966C2.04018 6.92966 2.04018 7.10966 2.04018 7.28966C2.03018 7.56966 2.11018 7.80966 2.30018 7.99966C2.52018 8.20966 2.75018 8.41966 3.01018 8.57966C3.68018 8.99966 4.42018 9.23966 5.19018 9.41966C6.50018 9.72966 7.83018 9.79966 9.17018 9.71966C10.3202 9.64966 11.4502 9.44966 12.5302 9.01966C13.0902 8.79966 13.6402 8.53966 14.0502 8.07966C14.1902 7.91966 14.3202 7.70966 14.3602 7.50966C14.4102 7.26966 14.3702 7.00966 14.3702 6.72966V6.72966Z" fill="white"/>
</svg>
