<svg width="23" height="23" viewBox="0 0 23 23" fill="none" xmlns="http://www.w3.org/2000/svg">
<path d="M15.0092 17.5626C15.6461 17.1522 16.2429 16.6932 16.7438 16.1186C17.2495 15.5386 17.6551 14.8969 17.9535 14.1881C17.9757 14.1354 18.017 14.0845 17.9912 14.0012H17.7522C16.1428 14.0012 14.5335 14.0012 12.9241 14.0012C12.2728 14.0012 11.9978 13.7244 11.9978 13.0713C11.9978 12.1654 11.9972 11.26 11.9978 10.3541C11.9978 9.79567 12.295 9.49609 12.8588 9.49549C15.9056 9.49369 18.9523 9.49369 21.9984 9.49549C22.5389 9.49549 22.7917 9.71358 22.8942 10.242C22.9319 10.4362 22.9128 10.6405 22.9996 10.825V12.4871C22.9373 12.5177 22.9601 12.577 22.9541 12.6255C22.9199 12.8999 22.8978 13.1761 22.8516 13.4482C22.4736 15.6824 21.5209 17.6363 19.9745 19.2942C19.1794 20.1468 18.28 20.8718 17.2549 21.435C17.2081 21.3583 17.1602 21.2828 17.1159 21.2055C16.4136 19.991 15.7114 18.7765 15.0092 17.562V17.5626Z" fill="#177EE5"/>
<path d="M5.4314 7.99621C5.11265 8.62114 4.82685 9.25865 4.67526 9.94888C4.30138 11.6499 4.52547 13.2688 5.34033 14.8069C5.37448 14.8716 5.40144 14.9411 5.432 15.0082C4.1438 15.753 2.85561 16.4977 1.56681 17.2425C1.54763 17.2203 1.52487 17.2005 1.51049 17.1754C0.806472 15.9519 0.352906 14.6409 0.131216 13.2467C0.088676 12.9788 0.107849 12.7002 0 12.4432V10.6014C0.0527262 10.5774 0.0413422 10.5277 0.0449371 10.4857C0.109047 9.74038 0.242661 9.007 0.45776 8.291C0.723787 7.40364 1.06052 6.54505 1.56441 5.76074C2.85321 6.5061 4.14201 7.25146 5.4308 7.99681L5.4314 7.99621Z" fill="#FED401"/>
<path d="M5.43182 7.99581C4.14302 7.25046 2.85423 6.5051 1.56543 5.75974C1.57502 5.73158 1.57981 5.70102 1.59479 5.67646C3.47736 2.59856 6.19036 0.74356 9.75118 0.131816C10.0496 0.0808868 10.3563 0.0940684 10.6481 0H11.5013V4.49012C9.85483 4.52307 8.3785 5.03116 7.0945 6.07191C6.47916 6.57041 5.96627 7.16118 5.54746 7.83344C5.51271 7.88976 5.47077 7.94189 5.43242 7.99581H5.43182Z" fill="#FE4B26"/>
<path d="M1.56689 17.2421C2.85509 16.4973 4.14329 15.7526 5.43209 15.0078C5.81615 15.5872 6.22358 16.1462 6.74006 16.619C8.05642 17.8245 9.60645 18.4482 11.389 18.5015C11.4261 18.5027 11.4633 18.5063 11.5004 18.5087C11.5004 20.0054 11.5004 21.5021 11.5004 22.9988H10.5573C10.3668 22.9042 10.1559 22.9281 9.95456 22.8988C7.15648 22.4866 4.80596 21.2361 2.91381 19.133C2.39374 18.5549 1.924 17.9377 1.56749 17.2415L1.56689 17.2421Z" fill="#13B247"/>
<path d="M11.501 4.49012V0H12.3991C12.6891 0.0916718 12.9941 0.0838827 13.2913 0.132415C15.4656 0.486519 17.3812 1.39006 19.045 2.82864C19.3764 3.11504 19.4033 3.59138 19.0948 3.90833C18.3859 4.63751 17.6658 5.35651 16.9378 6.06651C16.634 6.3631 16.2439 6.34692 15.8838 6.05693C15.0576 5.39006 14.1271 4.94009 13.0971 4.68904C12.5723 4.56142 12.0354 4.53685 11.501 4.49012V4.49012Z" fill="#D83F22"/>
<path d="M17.2563 21.4351C16.8657 21.7245 16.4187 21.9085 15.9771 22.0966C14.8621 22.5705 13.7021 22.8671 12.4912 22.9546C12.4552 22.957 12.4151 22.9516 12.4001 22.9983H11.502C11.502 21.5016 11.502 20.0049 11.502 18.5082C12.3276 18.4633 13.1395 18.3512 13.9202 18.0583C14.2958 17.9168 14.644 17.7203 15.0112 17.5627C15.7135 18.7772 16.4157 19.9917 17.1179 21.2062C17.1628 21.2835 17.2108 21.3596 17.2569 21.4357L17.2563 21.4351Z" fill="#10993E"/>
</svg>
