<svg width="26" height="26" viewBox="0 0 26 26" fill="none" xmlns="http://www.w3.org/2000/svg">
<path d="M21.0005 13.9649C20.9488 14.3136 20.9109 14.6649 20.8438 15.0107C20.2709 17.9621 17.805 20.3709 14.8378 20.8751C12.6931 21.2397 10.7314 20.8151 8.98887 19.4842C8.46427 19.0834 8.01176 18.61 7.623 18.0762C7.43507 17.8179 7.46924 17.5166 7.70466 17.3441C7.93801 17.1729 8.23676 17.2291 8.42885 17.4854C9.39847 18.7792 10.6739 19.6042 12.2631 19.8896C15.8795 20.5397 19.105 18.2367 19.8454 14.9036C20.5734 11.6269 18.6817 8.33012 15.4832 7.30509C11.8119 6.12838 7.92175 8.39762 7.13673 12.1736C7.1209 12.2494 7.11006 12.3261 7.09673 12.4027L7.14298 12.4452C7.22007 12.3515 7.29007 12.2507 7.37507 12.1648C7.59133 11.9465 7.89592 11.939 8.09926 12.139C8.30302 12.3398 8.30093 12.6461 8.08509 12.8644C7.67883 13.2757 7.2709 13.6853 6.85839 14.0903C6.6163 14.3278 6.27796 14.3003 6.08878 14.024C5.74794 13.5257 5.4171 13.0207 5.08292 12.5182C5.05167 12.4715 5.0275 12.4202 5 12.3711V12.1211C5.1525 11.8294 5.32001 11.7211 5.56293 11.7473C5.84419 11.7773 5.9417 12.0231 6.09212 12.2198C6.18295 11.8706 6.25129 11.5406 6.35462 11.2215C7.52508 7.60843 11.0914 5.46503 14.8395 6.11588C17.815 6.63257 20.2692 9.02722 20.8442 11.9819C20.9113 12.3273 20.9492 12.6786 21.0005 13.0273V13.9649Z" fill="white"/>
<path d="M12.7504 11.4952C12.7504 10.7715 12.7504 10.0477 12.7504 9.32393C12.7504 8.97517 12.9454 8.74849 13.2458 8.74599C13.5512 8.74349 13.75 8.97392 13.7504 9.33143C13.7504 10.6698 13.752 12.0082 13.7479 13.3461C13.7479 13.4578 13.7833 13.5245 13.8712 13.5903C14.7371 14.2403 15.5988 14.8958 16.463 15.5479C16.5917 15.6449 16.6976 15.7541 16.7196 15.9225C16.7476 16.1325 16.6588 16.3291 16.4821 16.4275C16.2788 16.5404 16.0842 16.5166 15.8992 16.3775C15.2713 15.905 14.6421 15.4337 14.0133 14.962C13.6762 14.7091 13.3416 14.452 13.0004 14.2045C12.8237 14.0766 12.7487 13.9116 12.7495 13.6978C12.7524 12.9636 12.7504 12.2294 12.7504 11.4952Z" fill="white"/>
<path d="M21.1005 13.9722L21.0994 13.9795C21.0833 14.0885 21.0683 14.199 21.0533 14.3103C21.0209 14.5494 20.9881 14.7919 20.942 15.0298L20.942 15.0298C20.3611 18.022 17.8627 20.4625 14.8545 20.9737M21.1005 13.9722L14.8378 20.8751M21.1005 13.9722V13.9649V13.0273V13.02L21.0994 13.0128C21.0837 12.9061 21.0692 12.798 21.0545 12.6892C21.022 12.4477 20.989 12.2029 20.9424 11.9628L20.9424 11.9628C20.3594 8.96712 17.8727 6.54109 14.8566 6.01736C11.0597 5.35803 7.44535 7.53004 6.25949 11.1906L6.25949 11.1907C6.18822 11.4108 6.13272 11.6384 6.07635 11.8696C6.0672 11.9072 6.05802 11.9448 6.04876 11.9825M21.1005 13.9722L6.04876 11.9825M14.8545 20.9737L14.8378 20.8751M14.8545 20.9737C14.8546 20.9737 14.8546 20.9737 14.8546 20.9737L14.8378 20.8751M14.8545 20.9737C12.6845 21.3426 10.6943 20.9126 8.92817 19.5637L8.92816 19.5637C8.39531 19.1565 7.93616 18.6761 7.54216 18.1351L7.54213 18.1351C7.43557 17.9886 7.38806 17.8242 7.4057 17.6669C7.42342 17.5088 7.50624 17.3656 7.6455 17.2635M14.8378 20.8751C12.6931 21.2397 10.7314 20.8151 8.98887 19.4842C8.46427 19.0834 8.01176 18.61 7.623 18.0762C7.43507 17.8179 7.46924 17.5166 7.70466 17.3441M7.6455 17.2635L7.70466 17.3441M7.6455 17.2635C7.64552 17.2635 7.64554 17.2635 7.64556 17.2635L7.70466 17.3441M7.6455 17.2635C7.78383 17.162 7.94501 17.1261 8.10119 17.1563C8.2566 17.1863 8.39997 17.2801 8.50887 17.4254L8.50888 17.4254C9.46427 18.7002 10.718 19.5105 12.2808 19.7912L12.2808 19.7912C15.8433 20.4315 19.0188 18.1637 19.7478 14.882C20.4646 11.6557 18.6019 8.40958 15.4527 7.40032L15.4832 7.30509L15.4527 7.40032C11.848 6.24498 8.02895 8.46363 7.24118 12.1629C7.26156 12.1392 7.28251 12.1162 7.30402 12.0945L7.30402 12.0944C7.55558 11.8405 7.92334 11.8257 8.16938 12.0677L8.16946 12.0678C8.41554 12.3103 8.40793 12.6801 8.15621 12.9347C7.74978 13.3462 7.34147 13.7561 6.92845 14.1616L6.92842 14.1617C6.78899 14.2985 6.61602 14.3639 6.44531 14.3495C6.27425 14.335 6.11626 14.2412 6.00627 14.0805L6.00624 14.0805C5.75258 13.7096 5.5043 13.3348 5.25655 12.9608C5.17092 12.8316 5.08535 12.7024 4.99965 12.5735L5.08292 12.5182L4.99983 12.5738C4.97559 12.5376 4.95323 12.4955 4.93413 12.4596C4.92644 12.4451 4.91927 12.4316 4.91272 12.4199L4.9 12.3971V12.3711V12.1211V12.0965L4.91138 12.0747C4.99154 11.9214 5.08131 11.8049 5.19247 11.7315C5.30655 11.6562 5.4334 11.6327 5.57354 11.6479L8.42885 17.4854C8.23676 17.2291 7.93801 17.1729 7.70466 17.3441M6.04876 11.9825C6.01929 11.9398 5.98745 11.896 5.95194 11.8553C5.86276 11.7531 5.74674 11.6664 5.57368 11.6479L6.04876 11.9825ZM13.8504 9.33131V9.33143C13.8504 9.6287 13.8505 9.92599 13.8505 10.2233C13.8508 11.2642 13.8511 12.3053 13.8479 13.3461C13.8479 13.3912 13.855 13.4191 13.8656 13.4399C13.8764 13.461 13.895 13.4831 13.9312 13.5103L13.9313 13.5103C14.4693 13.9142 15.0059 14.3204 15.5424 14.7264C15.8693 14.9739 16.1961 15.2212 16.5232 15.468C16.6582 15.5699 16.7913 15.7003 16.8188 15.9095M13.8504 9.33131L16.7196 15.9225M13.8504 9.33131C13.8502 9.13472 13.7953 8.96265 13.6882 8.83841C13.5797 8.71257 13.4249 8.64452 13.245 8.646C13.068 8.64747 12.916 8.71589 12.8095 8.83999C12.7042 8.96267 12.6504 9.13147 12.6504 9.32393V9.32817V9.33241V9.33665V9.34089V9.34513V9.34937V9.35361V9.35785V9.36209V9.36633V9.37058V9.37482V9.37906V9.3833V9.38754V9.39178V9.39602V9.40026V9.4045V9.40874V9.41298V9.41722V9.42147V9.42571V9.42995V9.43419V9.43843V9.44267V9.44691V9.45115V9.45539V9.45963V9.46387V9.46811V9.47236V9.4766V9.48084V9.48508V9.48932V9.49356V9.4978V9.50204V9.50628V9.51052V9.51476V9.519V9.52325V9.52749V9.53173V9.53597V9.54021V9.54445V9.54869V9.55293V9.55717V9.56141V9.56565V9.5699V9.57414V9.57838V9.58262V9.58686V9.5911V9.59534V9.59958V9.60382V9.60806V9.6123V9.61654V9.62079V9.62503V9.62927V9.63351V9.63775V9.64199V9.64623V9.65047V9.65471V9.65895V9.66319V9.66743V9.67168V9.67592V9.68016V9.6844V9.68864V9.69288V9.69712V9.70136V9.7056V9.70984V9.71408V9.71832V9.72257V9.72681V9.73105V9.73529V9.73953V9.74377V9.74801V9.75225V9.75649V9.76073V9.76497V9.76922V9.77346V9.7777V9.78194V9.78618V9.79042V9.79466V9.7989V9.80314V9.80738V9.81162V9.81586V9.82011V9.82435V9.82859V9.83283V9.83707V9.84131V9.84555V9.84979V9.85403V9.85827V9.86251V9.86675V9.871V9.87524V9.87948V9.88372V9.88796V9.8922V9.89644V9.90068V9.90492V9.90916V9.9134V9.91764V9.92189V9.92613V9.93037V9.93461V9.93885V9.94309V9.94733V9.95157V9.95581V9.96005V9.96429V9.96854V9.97278V9.97702V9.98126V9.9855V9.98974V9.99398V9.99822V10.0025V10.0067V10.0109V10.0152V10.0194V10.0237V10.0279V10.0321V10.0364V10.0406V10.0449V10.0491V10.0534V10.0576V10.0618V10.0661V10.0703V10.0746V10.0788V10.083V10.0873V10.0915V10.0958V10.1V10.1042V10.1085V10.1127V10.117V10.1212V10.1254V10.1297V10.1339V10.1382V10.1424V10.1467V10.1509V10.1551V10.1594V10.1636V10.1679V10.1721V10.1763V10.1806V10.1848V10.1891V10.1933V10.1975V10.2018V10.206V10.2103V10.2145V10.2187V10.223V10.2272V10.2315V10.2357V10.2399V10.2442V10.2484V10.2527V10.2569V10.2612V10.2654V10.2696V10.2739V10.2781V10.2824V10.2866V10.2908V10.2951V10.2993V10.3036V10.3078V10.312V10.3163V10.3205V10.3248V10.329V10.3332V10.3375V10.3417V10.346V10.3502V10.3545V10.3587V10.3629V10.3672V10.3714V10.3757V10.3799V10.3841V10.3884V10.3926V10.3969V10.4011V10.4053V10.4096V10.4138V10.4181V10.4223V10.4265V10.4308V10.435V10.4393V10.4435V10.4478V10.452V10.4562V10.4605V10.4647V10.469V10.4732V10.4774V10.4817V10.4859V10.4902V10.4944V10.4986V10.5029V10.5071V10.5114V10.5156V10.5198V10.5241V10.5283V10.5326V10.5368V10.541V10.5453V10.5495V10.5538V10.558V10.5623V10.5665V10.5707V10.575V10.5792V10.5835V10.5877V10.5919V10.5962V10.6004V10.6047V10.6089V10.6131V10.6174V10.6216V10.6259V10.6301V10.6343V10.6386V10.6428V10.6471V10.6513V10.6556V10.6598V10.664V10.6683V10.6725V10.6768V10.681V10.6852V10.6895V10.6937V10.698V10.7022V10.7064V10.7107V10.7149V10.7192V10.7234V10.7276V10.7319V10.7361V10.7404V10.7446V10.7489V10.7531V10.7573V10.7616V10.7658V10.7701V10.7743V10.7785V10.7828V10.787V10.7913V10.7955V10.7997V10.804V10.8082V10.8125V10.8167V10.8209V10.8252V10.8294V10.8337V10.8379V10.8422V10.8464V10.8506V10.8549V10.8591V10.8634V10.8676V10.8718V10.8761V10.8803V10.8846V10.8888V10.893V10.8973V10.9015V10.9058V10.91V10.9142V10.9185V10.9227V10.927V10.9312V10.9354V10.9397V10.9439V10.9482V10.9524V10.9567V10.9609V10.9651V10.9694V10.9736V10.9779V10.9821V10.9863V10.9906V10.9948V10.9991V11.0033V11.0075V11.0118V11.016V11.0203V11.0245V11.0287V11.033V11.0372V11.0415V11.0457V11.05V11.0542V11.0584V11.0627V11.0669V11.0712V11.0754V11.0796V11.0839V11.0881V11.0924V11.0966V11.1008V11.1051V11.1093V11.1136V11.1178V11.122V11.1263V11.1305V11.1348V11.139V11.1433V11.1475V11.1517V11.156V11.1602V11.1645V11.1687V11.1729V11.1772V11.1814V11.1857V11.1899V11.1941V11.1984V11.2026V11.2069V11.2111V11.2153V11.2196V11.2238V11.2281V11.2323V11.2365V11.2408V11.245V11.2493V11.2535V11.2578V11.262V11.2662V11.2705V11.2747V11.279V11.2832V11.2874V11.2917V11.2959V11.3002V11.3044V11.3086V11.3129V11.3171V11.3214V11.3256V11.3298V11.3341V11.3383V11.3426V11.3468V11.3511V11.3553V11.3595V11.3638V11.368V11.3723V11.3765V11.3807V11.385V11.3892V11.3935V11.3977V11.4019V11.4062V11.4104V11.4147V11.4189V11.4231V11.4274V11.4316V11.4359V11.4401V11.4444V11.4486V11.4528V11.4571V11.4613V11.4656V11.4698V11.474V11.4783V11.4825V11.4868V11.491V11.4952C12.6504 11.7113 12.6505 11.9274 12.6507 12.1433C12.6511 12.6615 12.6516 13.1794 12.6495 13.6974C12.6486 13.9405 12.7367 14.137 12.9416 14.2854M13.8504 9.33131L13.0004 14.2045M16.8188 15.9095L16.7196 15.9225M16.8188 15.9095C16.8188 15.9094 16.8188 15.9093 16.8188 15.9093L16.7196 15.9225M16.8188 15.9095C16.8514 16.1552 16.7474 16.3943 16.5308 16.5148L16.5307 16.5149C16.414 16.5797 16.2944 16.608 16.1743 16.5966C16.0549 16.5852 15.9429 16.5355 15.8391 16.4574L15.8391 16.4574C15.3683 16.1031 14.8968 15.7496 14.4253 15.396C14.2679 15.278 14.1106 15.16 13.9533 15.042L13.9533 15.042C13.854 14.9675 13.7551 14.8928 13.6564 14.8182C13.4189 14.6387 13.1821 14.4599 12.9416 14.2854M16.7196 15.9225C16.7476 16.1325 16.6588 16.3291 16.4821 16.4275C16.2788 16.5404 16.0842 16.5166 15.8992 16.3775C15.4282 16.0231 14.9565 15.6694 14.4849 15.3157L14.0133 14.962C13.9147 14.888 13.8164 14.8137 13.718 14.7394L13.7175 14.739C13.4796 14.5593 13.2417 14.3795 13.0004 14.2045M12.9416 14.2854C12.9417 14.2855 12.9417 14.2855 12.9417 14.2855L13.0004 14.2045M12.9416 14.2854L13.0004 14.2045" stroke="white" stroke-opacity="0.35" stroke-width="0.2"/>
</svg>
