<svg width="26" height="26" viewBox="0 0 26 26" fill="none" xmlns="http://www.w3.org/2000/svg">
<path d="M18.6034 22.273H5.39734C5.08851 22.1308 5 21.8862 5 21.5545C5.00666 15.9427 5.00666 10.3304 5 4.71855C5 4.38735 5.08803 4.14181 5.39734 4H18.6034C18.6134 4.00619 18.6229 4.01475 18.6343 4.01761C19.567 4.25601 19.9958 4.80801 19.9958 5.77115C19.9958 9.85498 19.9958 13.9388 19.9958 18.0226C19.9958 18.9082 20.0077 19.7943 19.9915 20.6799C19.9787 21.3679 19.6356 21.8595 19.0089 22.1446C18.8808 22.2026 18.739 22.2312 18.6034 22.273ZM8.22395 21.2023H8.37956C11.692 21.2023 15.0045 21.2023 18.3174 21.2023C18.7162 21.2023 18.9246 20.9877 18.9246 20.5785C18.9246 15.6191 18.9246 10.6592 18.9246 5.69977C18.9246 5.2734 18.7191 5.07116 18.287 5.07116C14.9983 5.07116 11.7092 5.07116 8.42048 5.07116H8.22395V21.2023ZM6.08163 21.1876H7.13709V5.08211H6.08163V21.1876Z" fill="white"/>
<path d="M16.3849 10.7372V8.45167C15.2424 8.73433 14.1108 9.01413 12.963 9.29775C12.963 9.37246 12.963 9.44241 12.963 9.51283C12.963 10.732 12.9673 11.9516 12.9611 13.1708C12.9573 13.9455 12.3843 14.6122 11.632 14.7378C10.8535 14.8677 10.0902 14.4223 9.84134 13.6757C9.64481 13.0861 9.75378 12.5426 10.1702 12.0815C10.5875 11.6199 11.1162 11.4691 11.7248 11.5947C11.7762 11.6052 11.8276 11.6161 11.8923 11.6299C11.8923 11.2112 11.8923 10.8015 11.8923 10.3913C11.8923 9.90352 11.8909 9.41576 11.8928 8.928C11.8942 8.60822 12.0312 8.42835 12.3406 8.35126C13.8095 7.98485 15.279 7.61844 16.7494 7.25678C17.152 7.1578 17.4589 7.39526 17.4594 7.80117C17.4613 9.29394 17.4665 10.7872 17.457 12.28C17.4513 13.1774 16.7128 13.8803 15.822 13.8612C14.9211 13.8417 14.2221 13.1027 14.2492 12.1986C14.2787 11.2055 15.239 10.4693 16.2084 10.6963C16.2602 10.7082 16.3121 10.7206 16.3835 10.7372H16.3849ZM16.3897 12.2624C16.3911 11.9721 16.1479 11.7275 15.8567 11.7261C15.5659 11.7246 15.3209 11.9668 15.3194 12.2581C15.318 12.5507 15.5574 12.7906 15.8519 12.7915C16.147 12.7925 16.3887 12.555 16.3897 12.2624ZM11.3484 13.6866C11.641 13.6914 11.8866 13.4544 11.8918 13.1627C11.8966 12.871 11.662 12.6302 11.365 12.6231C11.0729 12.6164 10.8268 12.8529 10.8226 13.1456C10.8183 13.4377 11.0553 13.6818 11.3484 13.6866Z" fill="white"/>
<path d="M13.5154 15.8132C14.6147 15.8132 15.7144 15.8118 16.8136 15.8142C17.2395 15.8151 17.5093 16.201 17.3399 16.5665C17.2366 16.7887 17.0511 16.8853 16.8084 16.8849C16.0893 16.8834 15.3703 16.8844 14.6513 16.8844C13.1776 16.8844 11.7038 16.8853 10.2296 16.8839C9.80037 16.8834 9.5258 16.5051 9.69045 16.1392C9.79371 15.9093 9.98405 15.8123 10.2353 15.8127C11.3288 15.8151 12.4219 15.8132 13.5154 15.8132Z" fill="white"/>
<path d="M13.4977 19.0253C12.892 19.0253 12.2862 19.0257 11.68 19.0253C11.3178 19.0248 11.0747 18.8102 11.0728 18.4933C11.0709 18.1759 11.315 17.9555 11.6738 17.9551C12.9034 17.9541 14.133 17.9541 15.3626 17.9551C15.721 17.9551 15.9651 18.1778 15.9613 18.4956C15.9575 18.8073 15.7172 19.0243 15.3688 19.0248C14.745 19.0262 14.1216 19.0253 13.4977 19.0253Z" fill="white"/>
</svg>
