<svg width="24" height="24" viewBox="0 0 24 24" fill="none" xmlns="http://www.w3.org/2000/svg">
<path d="M10 4C8.93913 4 7.92172 4.42143 7.17157 5.17157C6.42143 5.92172 6 6.93913 6 8C6 9.06087 6.42143 10.0783 7.17157 10.8284C7.92172 11.5786 8.93913 12 10 12C11.0609 12 12.0783 11.5786 12.8284 10.8284C13.5786 10.0783 14 9.06087 14 8C14 6.93913 13.5786 5.92172 12.8284 5.17157C12.0783 4.42143 11.0609 4 10 4ZM4 8C4 6.4087 4.63214 4.88258 5.75736 3.75736C6.88258 2.63214 8.4087 2 10 2C11.5913 2 13.1174 2.63214 14.2426 3.75736C15.3679 4.88258 16 6.4087 16 8C16 9.5913 15.3679 11.1174 14.2426 12.2426C13.1174 13.3679 11.5913 14 10 14C8.4087 14 6.88258 13.3679 5.75736 12.2426C4.63214 11.1174 4 9.5913 4 8V8ZM16.828 3.757C16.9209 3.66402 17.0312 3.59026 17.1526 3.53994C17.274 3.48962 17.4041 3.46371 17.5355 3.46371C17.6669 3.46371 17.797 3.48962 17.9184 3.53994C18.0398 3.59026 18.1501 3.66402 18.243 3.757C18.8003 4.31416 19.2423 4.97565 19.5439 5.70366C19.8455 6.43168 20.0007 7.21198 20.0007 8C20.0007 8.78802 19.8455 9.56832 19.5439 10.2963C19.2423 11.0244 18.8003 11.6858 18.243 12.243C18.1501 12.3359 18.0398 12.4096 17.9184 12.4599C17.797 12.5102 17.6669 12.5361 17.5355 12.5361C17.4041 12.5361 17.274 12.5102 17.1526 12.4599C17.0312 12.4096 16.9209 12.3359 16.828 12.243C16.7351 12.1501 16.6614 12.0398 16.6111 11.9184C16.5608 11.797 16.5349 11.6669 16.5349 11.5355C16.5349 11.4041 16.5608 11.274 16.6111 11.1526C16.6614 11.0312 16.7351 10.9209 16.828 10.828C17.5779 10.0779 17.9991 9.06066 17.9991 8C17.9991 6.93934 17.5779 5.92211 16.828 5.172C16.735 5.07913 16.6613 4.96884 16.6109 4.84744C16.5606 4.72604 16.5347 4.59592 16.5347 4.4645C16.5347 4.33308 16.5606 4.20296 16.6109 4.08156C16.6613 3.96016 16.735 3.84987 16.828 3.757V3.757ZM17.53 16.757C17.5945 16.5 17.7583 16.279 17.9856 16.1427C18.2128 16.0064 18.4849 15.9659 18.742 16.03C20.07 16.362 20.911 17.21 21.394 18.178C21.862 19.113 22 20.158 22 21C22 21.2652 21.8946 21.5196 21.7071 21.7071C21.5196 21.8946 21.2652 22 21 22C20.7348 22 20.4804 21.8946 20.2929 21.7071C20.1054 21.5196 20 21.2652 20 21C20 20.343 19.888 19.637 19.606 19.072C19.339 18.539 18.929 18.138 18.257 17.97C18 17.9055 17.779 17.7417 17.6427 17.5144C17.5064 17.2872 17.4659 17.0151 17.53 16.758V16.757ZM6.5 18C5.24 18 4 19.213 4 21C4 21.2652 3.89464 21.5196 3.70711 21.7071C3.51957 21.8946 3.26522 22 3 22C2.73478 22 2.48043 21.8946 2.29289 21.7071C2.10536 21.5196 2 21.2652 2 21C2 18.368 3.893 16 6.5 16H13.5C16.107 16 18 18.368 18 21C18 21.2652 17.8946 21.5196 17.7071 21.7071C17.5196 21.8946 17.2652 22 17 22C16.7348 22 16.4804 21.8946 16.2929 21.7071C16.1054 21.5196 16 21.2652 16 21C16 19.213 14.76 18 13.5 18H6.5Z" fill="white"/>
</svg>
