<svg width="26" height="26" viewBox="0 0 26 26" fill="none" xmlns="http://www.w3.org/2000/svg">
<path d="M18 10C18 8.67392 17.4732 7.40215 16.5355 6.46447C15.5979 5.52678 14.3261 5 13 5C11.6739 5 10.4021 5.52678 9.46447 6.46447C8.52678 7.40215 8 8.67392 8 10C8 10.2652 8.10536 10.5196 8.29289 10.7071C8.48043 10.8946 8.73478 11 9 11C9.26522 11 9.51957 10.8946 9.70711 10.7071C9.89464 10.5196 10 10.2652 10 10C10 9.40666 10.1759 8.82664 10.5056 8.33329C10.8352 7.83994 11.3038 7.45542 11.8519 7.22836C12.4001 7.0013 13.0033 6.94189 13.5853 7.05764C14.1672 7.1734 14.7018 7.45912 15.1213 7.87868C15.5409 8.29824 15.8266 8.83279 15.9424 9.41473C16.0581 9.99667 15.9987 10.5999 15.7716 11.1481C15.5446 11.6962 15.1601 12.1648 14.6667 12.4944C14.1734 12.8241 13.5933 13 13 13C12.7348 13 12.4804 13.1054 12.2929 13.2929C12.1054 13.4804 12 13.7348 12 14V16C12 16.2652 12.1054 16.5196 12.2929 16.7071C12.4804 16.8946 12.7348 17 13 17C13.2652 17 13.5196 16.8946 13.7071 16.7071C13.8946 16.5196 14 16.2652 14 16V14.9C15.1294 14.6695 16.1444 14.0558 16.8733 13.1629C17.6022 12.27 18.0002 11.1527 18 10Z" fill="white"/>
<path d="M13 21C13.5523 21 14 20.5523 14 20C14 19.4477 13.5523 19 13 19C12.4477 19 12 19.4477 12 20C12 20.5523 12.4477 21 13 21Z" fill="white"/>
</svg>
