<svg width="24" height="24" viewBox="0 0 24 24" fill="none" xmlns="http://www.w3.org/2000/svg">
<path d="M19.617 8.66849V17.2257C19.5595 17.253 19.5742 17.3137 19.5636 17.3578C19.3309 18.3316 18.4985 18.9985 17.5014 18.9989C13.705 19.0001 9.90906 19.0006 6.1127 18.9989C4.93992 18.9985 4.00275 18.0618 4.00194 16.8853C3.99949 13.6266 3.99908 10.3675 4.00234 7.10845C4.00357 5.93323 4.94318 5.00258 6.11841 5.00054C6.84523 4.99932 7.57165 5.00054 8.29847 5.00054C10.8597 5.00054 13.4209 4.99932 15.9825 5.00095C17.0379 5.00177 17.9351 5.79381 18.0611 6.83656C18.0729 6.93317 18.121 6.95926 18.1964 6.98698C18.8812 7.23931 19.3268 7.71828 19.5404 8.41698C19.5661 8.50095 19.5555 8.59553 19.617 8.66849ZM11.8152 18.0165C13.6805 18.0165 15.5455 18.0165 17.4109 18.0165C18.1654 18.0165 18.6342 17.5445 18.6346 16.7854C18.635 16.3171 18.6309 15.8483 18.6375 15.3799C18.6391 15.2633 18.6134 15.2238 18.4887 15.2262C18.0517 15.2344 17.6147 15.2331 17.1777 15.2287C16.5324 15.2221 15.8863 15.2592 15.2422 15.2095C14.0095 15.1141 13.0471 13.8606 13.2578 12.6381C13.4588 11.4735 14.3654 10.7075 15.5459 10.7067C16.5218 10.7059 17.4977 10.7034 18.4732 10.7104C18.6118 10.7112 18.6399 10.6712 18.6379 10.5404C18.6297 10.0467 18.6358 9.55267 18.6346 9.05861C18.6326 8.33015 18.1581 7.85484 17.4308 7.85484C13.6801 7.85444 9.92944 7.85403 6.17874 7.85484C5.46292 7.85484 4.98476 8.33423 4.98435 9.05249C4.98313 11.6394 4.98435 14.2267 4.98353 16.8136C4.98353 16.9363 4.99332 17.0577 5.02552 17.1764C5.16657 17.6953 5.60315 18.0169 6.17385 18.0173C8.05429 18.0185 9.93474 18.0177 11.8152 18.0177V18.0165ZM4.9921 7.1961C5.47189 6.87773 5.99 6.86346 6.51789 6.86428C9.97836 6.86917 13.4388 6.86672 16.8989 6.86672C17.0872 6.86672 17.0896 6.86305 17.0175 6.68614C16.8414 6.25404 16.4313 5.98418 15.9356 5.98377C12.6733 5.98255 9.41133 5.98337 6.14898 5.98337C6.12371 5.98337 6.09802 5.98377 6.07275 5.985C5.43724 6.01761 4.96193 6.53572 4.9921 7.1961ZM16.9323 14.2365C17.4557 14.2365 17.9787 14.2336 18.5021 14.2389C18.6085 14.2401 18.6375 14.2112 18.6371 14.104C18.6326 13.3454 18.6313 12.5871 18.6379 11.8285C18.6387 11.7087 18.602 11.6887 18.4927 11.6891C17.5071 11.6936 16.5218 11.6911 15.5361 11.6924C15.4501 11.6924 15.3629 11.6952 15.2785 11.7111C14.6165 11.8355 14.1705 12.4106 14.2223 13.069C14.2741 13.7273 14.8219 14.2303 15.5003 14.2356C15.9776 14.2393 16.455 14.2365 16.9323 14.2365Z" fill="white"/>
<path d="M15.1631 13.0097C15.1603 12.7239 15.3845 12.4928 15.667 12.4891C15.9495 12.4855 16.1818 12.7121 16.1863 12.9958C16.1912 13.2771 15.9625 13.5131 15.6808 13.518C15.4008 13.5229 15.1656 13.2918 15.1631 13.0097Z" fill="white"/>
</svg>
