<svg width="24" height="24" viewBox="0 0 24 24" fill="none" xmlns="http://www.w3.org/2000/svg">
<path d="M3 8.6341C3.02758 8.58099 3.05515 8.52788 3.08273 8.47477C3.22776 8.19185 3.54745 8.03048 3.85692 8.08461C4.17251 8.13976 4.41151 8.38795 4.45441 8.70968C4.46462 8.78322 4.46973 8.85778 4.46973 8.93131C4.46973 11.2069 4.47075 13.4825 4.46871 15.7591C4.46871 15.8755 4.45849 15.996 4.42581 16.1063C4.3441 16.3882 4.08876 16.5874 3.80176 16.6109C3.49944 16.6364 3.21959 16.4822 3.08273 16.2156C3.05515 16.1615 3.02758 16.1084 3 16.0563C3 13.5826 3 11.1078 3 8.6341Z" fill="white"/>
<path d="M10.0116 12.3463C10.0116 9.50182 10.0116 6.65735 10.0116 3.8139C10.0116 3.37574 10.2383 3.08261 10.6274 3.01112C11.0084 2.94065 11.3996 3.21335 11.4609 3.59738C11.4752 3.68828 11.4792 3.78224 11.4792 3.87416C11.4792 9.51918 11.4792 15.1642 11.4792 20.8092C11.4792 21.2903 11.2862 21.5783 10.9073 21.6672C10.4742 21.7693 10.0514 21.4588 10.0156 21.0084C10.0095 20.9348 10.0116 20.8603 10.0116 20.7857C10.0116 17.9729 10.0116 15.1591 10.0116 12.3463Z" fill="white"/>
<path d="M7.97301 12.3564C7.97301 14.2183 7.97301 16.0792 7.97301 17.9411C7.97301 18.4293 7.64924 18.7511 7.19065 18.7296C6.85667 18.7143 6.56559 18.4508 6.52167 18.1188C6.50839 18.0208 6.50635 17.9217 6.50635 17.8226C6.50635 14.1672 6.50635 10.5128 6.50635 6.8574C6.50635 6.72871 6.50941 6.59491 6.54312 6.47235C6.63606 6.13121 6.96085 5.92694 7.32649 5.96065C7.65333 5.99027 7.93114 6.2691 7.96688 6.60614C7.97505 6.68581 7.97301 6.7665 7.97301 6.84718C7.97301 8.68358 7.97301 10.521 7.97301 12.3574V12.3564Z" fill="white"/>
<path d="M14.9856 12.344C14.9856 13.7718 14.9876 15.2007 14.9845 16.6285C14.9845 17.1249 14.622 17.4528 14.1511 17.3966C13.8355 17.3588 13.5781 17.1106 13.5342 16.7961C13.5209 16.699 13.5169 16.5989 13.5169 16.4999C13.5169 13.7299 13.5158 10.96 13.5179 8.19013C13.5179 8.05531 13.524 7.91539 13.5608 7.7867C13.6568 7.45169 13.9775 7.25355 14.3339 7.2893C14.6781 7.32402 14.9488 7.59775 14.9805 7.94705C14.9876 8.02059 14.9856 8.09515 14.9856 8.1697C14.9856 9.56079 14.9856 10.9519 14.9856 12.343V12.344Z" fill="white"/>
<path d="M17.0239 12.3276C17.0239 11.1653 17.0208 10.003 17.0249 8.84071C17.0269 8.30041 17.507 7.94498 17.9952 8.11861C18.274 8.21768 18.4415 8.41991 18.4773 8.71917C18.4875 8.80496 18.4895 8.89178 18.4895 8.97859C18.4895 11.2225 18.4905 13.4664 18.4895 15.7103C18.4895 15.839 18.4865 15.9728 18.4527 16.0954C18.3598 16.4345 18.0207 16.649 17.6694 16.6091C17.3139 16.5683 17.0341 16.2741 17.028 15.9064C17.0188 15.3692 17.0239 14.8309 17.0239 14.2927C17.0239 13.637 17.0239 12.9823 17.0239 12.3266V12.3276Z" fill="white"/>
<path d="M21.9972 12.3478C21.9972 12.7247 21.9993 13.1016 21.9972 13.4785C21.9931 13.9279 21.6949 14.2516 21.2792 14.2639C20.8799 14.2761 20.5438 13.9646 20.5357 13.5254C20.5204 12.7349 20.5193 11.9434 20.5367 11.1528C20.5459 10.7147 20.8891 10.4052 21.2874 10.4226C21.699 10.441 21.9931 10.7596 21.9982 11.1968C22.0023 11.5798 21.9982 11.9628 21.9982 12.3458L21.9972 12.3478Z" fill="white"/>
</svg>
