<svg width="24" height="24" viewBox="0 0 24 24" fill="none" xmlns="http://www.w3.org/2000/svg">
<path d="M13.7409 20.9995H10.1875C10.173 20.9447 10.1183 20.9597 10.083 20.9484C9.47605 20.7604 9.1346 20.3538 9.03061 19.7513C8.98273 19.4746 8.93582 19.1975 8.88697 18.9209C8.75832 18.188 8.09813 17.818 7.37604 18.074C7.07086 18.1823 6.76858 18.2991 6.4605 18.4004C5.78629 18.6222 5.09612 18.3849 4.73628 17.7936C4.21539 16.9378 3.70272 16.0779 3.19779 15.2132C2.83989 14.6003 2.97773 13.8951 3.53006 13.436C3.78204 13.2264 4.04418 13.0281 4.29665 12.8189C4.83978 12.3679 4.84027 11.6312 4.29761 11.1815C4.04998 10.9761 3.79268 10.7811 3.54457 10.5762C2.96806 10.0993 2.83844 9.39732 3.2152 8.75679C3.70853 7.91932 4.2062 7.08466 4.70726 6.25141C5.09805 5.60151 5.80128 5.36049 6.52821 5.61979C6.83339 5.72858 7.1347 5.84862 7.4423 5.94944C8.10539 6.16654 8.76364 5.78204 8.88213 5.11478C8.9334 4.8264 8.98176 4.53802 9.03013 4.24917C9.1196 3.71227 9.40689 3.3212 9.92875 3.10504C10.025 3.06518 10.1251 3.0347 10.2238 3C11.3961 3 12.5685 3 13.7409 3C13.7467 3.00938 13.7515 3.02532 13.7593 3.02673C14.4407 3.16459 14.8542 3.57629 14.9684 4.23182C15.0177 4.51458 15.0646 4.79733 15.1144 5.08008C15.2436 5.81251 15.9033 6.18108 16.6263 5.92505C16.9204 5.82095 17.2116 5.70842 17.5066 5.60713C18.1972 5.3694 18.9058 5.60995 19.2763 6.2214C19.7894 7.06778 20.2948 7.91838 20.7949 8.77227C21.163 9.4006 21.0266 10.1049 20.4564 10.5766C20.2131 10.7783 19.9601 10.9691 19.7164 11.1703C19.1553 11.6326 19.1558 12.3679 19.7178 12.8311C19.9572 13.0286 20.2044 13.2166 20.4438 13.4135C21.0319 13.897 21.1654 14.598 20.7848 15.2446C20.2919 16.0821 19.7938 16.9167 19.2927 17.7495C18.9019 18.399 18.1982 18.6386 17.4708 18.3793C17.1656 18.2705 16.8643 18.1509 16.5562 18.0501C15.8931 17.833 15.2349 18.2189 15.1178 18.8866C15.067 19.175 15.0206 19.4639 14.9698 19.7522C14.8654 20.3459 14.5345 20.7529 13.9348 20.9447C13.8705 20.9653 13.7892 20.9325 13.7404 21L13.7409 20.9995ZM17.9777 17.0612C18.0507 17.0762 18.0608 17.0091 18.0855 16.9683C18.5537 16.1848 19.0185 15.3989 19.4891 14.6163C19.5418 14.5286 19.521 14.4901 19.4484 14.4343C19.2303 14.2679 19.017 14.0949 18.8032 13.9232C17.5254 12.8959 17.5274 11.0962 18.8076 10.0716C19.0219 9.89999 19.2356 9.72837 19.4523 9.55956C19.5142 9.51127 19.549 9.47844 19.4968 9.3917C19.019 8.59971 18.5464 7.80491 18.0749 7.00964C18.0328 6.93836 17.996 6.92805 17.9172 6.959C17.6662 7.05747 17.4108 7.14609 17.1569 7.238C15.6532 7.78193 14.0828 6.99604 13.724 5.51241C13.6471 5.19402 13.6059 4.86766 13.5537 4.54412C13.5373 4.44424 13.5044 4.4011 13.3849 4.40204C12.4607 4.40813 11.5359 4.40766 10.6117 4.40204C10.5033 4.40157 10.4641 4.43252 10.4501 4.53146C10.4148 4.77482 10.3689 5.01631 10.3311 5.2592C10.1014 6.7358 8.71334 7.67877 7.23627 7.35335C6.8479 7.26801 6.48613 7.09967 6.11372 6.96697C6.01844 6.93274 5.96814 6.93414 5.913 7.02793C5.45015 7.81475 4.98343 8.59924 4.51235 9.38138C4.45915 9.46953 4.48237 9.50798 4.55395 9.56332C4.77207 9.73025 4.98488 9.90327 5.19914 10.0749C6.47646 11.0971 6.47355 12.9043 5.19382 13.9274C4.97956 14.0986 4.76579 14.2707 4.54911 14.4395C4.48672 14.4878 4.4548 14.5216 4.50655 14.6074C4.98101 15.3947 5.45063 16.1843 5.91687 16.9758C5.96814 17.0626 6.0136 17.0682 6.10308 17.0335C6.37731 16.928 6.65492 16.8309 6.93254 16.7334C8.36414 16.2289 9.90505 17.0194 10.2663 18.4538C10.349 18.7825 10.3921 19.1206 10.4482 19.4554C10.4651 19.5567 10.5004 19.597 10.6184 19.5966C11.5369 19.5905 12.4553 19.5905 13.3733 19.5966C13.4957 19.5975 13.5392 19.5628 13.5561 19.4484C13.5997 19.153 13.6509 18.859 13.7056 18.5654C13.9358 17.3303 15.1725 16.4516 16.4629 16.5937C16.8406 16.6354 17.1835 16.7761 17.5341 16.8989C17.6812 16.9505 17.8272 17.0058 17.9781 17.0612H17.9777Z" fill="white"/>
<path d="M12.005 8.52796C13.9769 8.53265 15.5928 10.1082 15.5802 12.0129C15.5676 13.9214 13.9566 15.4748 11.9949 15.4711C10.0245 15.4673 8.40813 13.8909 8.41974 11.9857C8.43183 10.0777 10.0434 8.52328 12.005 8.52796V8.52796ZM14.1297 12.0002C14.1302 10.8702 13.1605 9.93141 11.9963 9.93469C10.8365 9.93797 9.87794 10.8645 9.87069 11.9904C9.86295 13.1176 10.8293 14.0611 11.9949 14.0653C13.1585 14.0695 14.1292 13.1308 14.1297 12.0007V12.0002Z" fill="white"/>
</svg>
