<svg width="24" height="24" viewBox="0 0 24 24" fill="none" xmlns="http://www.w3.org/2000/svg">
<path d="M8.55383 3H15.4106C15.8501 3.14939 16.1369 3.42472 16.1302 3.9179C16.1283 4.06059 16.1757 4.07975 16.3021 4.08023C16.69 4.08262 17.0807 4.03761 17.4642 4.12619C18.3845 4.33927 18.9994 5.12454 18.9998 6.09559C19.0008 8.61324 18.9974 11.1314 18.995 13.649C18.9931 15.5389 18.9922 17.4289 18.9874 19.3188C18.985 20.2649 18.4573 21.0138 17.6084 21.2858C17.4992 21.3207 17.3876 21.349 17.2775 21.3806H6.61555C6.60645 21.3317 6.56192 21.3408 6.5308 21.3313C5.51569 21.0253 5 20.33 5 19.2661C5 18.4047 5.00048 17.5433 5.00144 16.6819C5.00479 13.1764 5.00814 9.67096 5.01245 6.1655C5.01389 5.13986 5.59757 4.36177 6.53846 4.1305C6.91529 4.03809 7.30027 4.08262 7.68189 4.08023C7.82218 4.07927 7.88587 4.06969 7.88491 3.8954C7.88299 3.53197 8.0616 3.26048 8.38815 3.09002C8.4437 3.06081 8.51839 3.0656 8.55383 3V3ZM17.9124 12.7091H17.9239C17.9239 10.5079 17.9244 8.3068 17.9239 6.10565C17.9239 5.52867 17.5471 5.15614 16.9682 5.15423C16.7407 5.15375 16.5133 5.15853 16.2863 5.15183C16.1791 5.14848 16.1326 5.16476 16.1312 5.29308C16.1235 5.87677 15.7544 6.23014 15.1659 6.23062C13.0663 6.2311 10.9671 6.23062 8.86745 6.23062C8.25935 6.23062 7.90119 5.88491 7.8806 5.27202C7.87773 5.182 7.86049 5.14848 7.76281 5.15135C7.53585 5.15901 7.30841 5.15375 7.08097 5.15375C6.4561 5.1547 6.08884 5.51861 6.08836 6.14443C6.08358 10.5467 6.08023 14.949 6.07687 19.3513C6.07687 19.9283 6.45371 20.3028 7.0326 20.3032C10.3341 20.3037 13.6361 20.3032 16.9375 20.3032C17.0209 20.3032 17.1061 20.3013 17.187 20.2841C17.6467 20.1864 17.9119 19.8316 17.9124 19.313C17.9134 17.1119 17.9124 14.9107 17.9124 12.7096V12.7091ZM11.9985 5.15375C12.9671 5.15375 13.9358 5.15135 14.904 5.15662C15.029 5.15758 15.0653 5.12741 15.0606 5.00052C15.05 4.7319 15.0534 4.46233 15.0596 4.19371C15.0615 4.09938 15.0337 4.07209 14.9399 4.07448C14.7129 4.08118 14.4855 4.07639 14.2585 4.07639C12.5486 4.07639 10.8388 4.07783 9.12889 4.07304C8.99147 4.07304 8.94407 4.10273 8.95173 4.24733C8.96466 4.49776 8.96274 4.74962 8.95173 5.00052C8.94598 5.12933 8.98812 5.1571 9.1107 5.15614C10.0731 5.15087 11.036 5.15327 11.9985 5.15327V5.15375Z" fill="white"/>
<path d="M14.0956 17.3598C13.4799 17.3598 12.8641 17.3603 12.2488 17.3598C11.8911 17.3594 11.6422 17.1343 11.6445 16.8178C11.6469 16.5013 11.8955 16.2834 12.2565 16.2834C13.488 16.283 14.7191 16.283 15.9506 16.2834C16.3174 16.2834 16.5587 16.4951 16.5616 16.8164C16.564 17.1453 16.3212 17.3598 15.9434 17.3598C15.3277 17.3603 14.7119 17.3598 14.0966 17.3598H14.0956Z" fill="white"/>
<path d="M14.1003 10.18C13.4845 10.18 12.8683 10.1805 12.2525 10.18C11.8924 10.1795 11.6439 9.9588 11.6434 9.64182C11.6434 9.32532 11.8924 9.10362 12.2515 9.10314C13.4836 9.10266 14.7156 9.10266 15.9471 9.10314C16.3024 9.10314 16.5552 9.33489 16.5485 9.64996C16.5418 9.96071 16.2962 10.1791 15.9481 10.1795C15.3323 10.1805 14.716 10.1795 14.1003 10.1795V10.18Z" fill="white"/>
<path d="M14.107 12.6929C14.7228 12.6929 15.339 12.6919 15.9548 12.6929C16.3 12.6939 16.5471 12.9184 16.549 13.2287C16.5509 13.538 16.302 13.7688 15.9591 13.7693C14.7151 13.7703 13.4712 13.7707 12.2277 13.7693C11.8863 13.7693 11.6392 13.5356 11.6435 13.2244C11.6478 12.9203 11.8915 12.6943 12.2229 12.6934C12.8506 12.6915 13.4788 12.6929 14.1066 12.6929H14.107Z" fill="white"/>
<path d="M7.97844 12.8334C8.22455 12.8253 8.3749 12.9871 8.51472 13.1494C8.61671 13.2677 8.67608 13.2662 8.78573 13.1513C9.13192 12.7884 9.49152 12.4374 9.84728 12.084C10.1039 11.8293 10.4319 11.8149 10.6565 12.0452C10.8772 12.2717 10.8614 12.5911 10.6115 12.8415C10.1015 13.3539 9.59063 13.8657 9.07781 14.3752C8.80106 14.65 8.50466 14.6529 8.22886 14.3843C8.01483 14.1755 7.80271 13.9653 7.59586 13.7499C7.4321 13.5789 7.38901 13.374 7.48381 13.1552C7.57527 12.943 7.7486 12.8411 7.97748 12.8339L7.97844 12.8334Z" fill="white"/>
<path d="M7.97687 16.424C8.21485 16.4154 8.36663 16.5658 8.5007 16.7266C8.61035 16.8574 8.67643 16.8593 8.79757 16.731C9.13754 16.3704 9.49426 16.0252 9.8462 15.6756C10.1033 15.4204 10.4304 15.4051 10.6554 15.6349C10.8771 15.8609 10.8618 16.1808 10.6123 16.4312C10.1024 16.9436 9.59146 17.4554 9.07864 17.9649C8.79662 18.245 8.50214 18.2436 8.21724 17.963C8.00847 17.7576 7.79971 17.5521 7.59716 17.341C7.43341 17.17 7.38936 16.9656 7.48368 16.7463C7.57466 16.5342 7.74751 16.4312 7.97639 16.424H7.97687Z" fill="white"/>
<path d="M10.8109 8.56902C10.8033 8.70836 10.7477 8.84147 10.6366 8.95256C10.108 9.48022 9.58227 10.0108 9.05125 10.536C8.79891 10.7855 8.49821 10.7812 8.24348 10.5327C8.02944 10.3239 7.81828 10.1127 7.60951 9.89872C7.38638 9.66936 7.38159 9.34232 7.59228 9.12781C7.8044 8.91186 8.12521 8.91617 8.36462 9.13116C8.46326 9.21974 8.53747 9.39691 8.66293 9.37823C8.76827 9.36243 8.85445 9.21208 8.94735 9.11967C9.2605 8.80748 9.57125 8.49289 9.88632 8.18261C10.0558 8.0155 10.2593 7.9772 10.4805 8.06291C10.6773 8.13952 10.81 8.34254 10.8114 8.56902H10.8109Z" fill="white"/>
</svg>
