<svg width="26" height="26" viewBox="0 0 26 26" fill="none" xmlns="http://www.w3.org/2000/svg">
<path d="M19.1134 22H7.51236C7.49696 21.9921 7.48199 21.9793 7.4657 21.9776C6.63206 21.8724 6 21.162 6 20.2583C6.00132 15.4211 5.9978 10.5833 6.00792 5.74608C6.00836 5.48551 6.06998 5.20426 6.18002 4.96878C6.49561 4.29534 7.06605 4.00352 7.7967 4.00352C10.7197 4.00308 13.6428 4.00528 16.5654 4C16.8194 3.99956 17.0108 4.08451 17.1873 4.26233C18.2437 5.32662 19.304 6.3865 20.3683 7.44287C20.5466 7.61981 20.6289 7.81215 20.6284 8.06568C20.6232 10.619 20.6254 13.1723 20.6254 15.7256C20.6254 17.2248 20.6254 18.724 20.6254 20.2235C20.6254 20.8164 20.411 21.3059 19.933 21.6694C19.69 21.8543 19.4053 21.9362 19.1134 22ZM16.1252 5.12811H15.9237C13.2176 5.12811 10.5111 5.12811 7.80506 5.12811C7.33014 5.12811 7.12547 5.33542 7.12547 5.81607C7.12547 10.6067 7.12547 15.3973 7.12547 20.1879C7.12547 20.6681 7.33014 20.8745 7.80638 20.875C11.479 20.875 15.1516 20.875 18.8243 20.875C19.2913 20.875 19.4999 20.6663 19.4999 20.2007C19.4999 16.3647 19.4999 12.5284 19.4999 8.69246C19.4999 8.63128 19.4999 8.56966 19.4999 8.50231C18.7516 8.50231 18.0315 8.50495 17.311 8.50143C16.6055 8.49791 16.1318 8.02563 16.1252 7.32227C16.1222 6.97675 16.1248 6.63123 16.1248 6.28571C16.1248 5.9063 16.1252 5.52733 16.1252 5.12811Z" fill="white"/>
<path d="M8.25879 12.9892V11.8857H18.3611V12.9892H8.25879Z" fill="white"/>
<path d="M8.25879 15.8019V14.6975H18.3611V15.8019H8.25879Z" fill="white"/>
<path d="M8.25781 18.6126V17.51H16.1167V18.6126H8.25781Z" fill="white"/>
<path d="M17.2583 18.6161V17.5135H18.3644V18.6161H17.2583Z" fill="white"/>
</svg>
