<svg width="26" height="26" viewBox="0 0 26 26" fill="none" xmlns="http://www.w3.org/2000/svg">
<path d="M19.5096 17.1055C19.5021 17.5922 19.3489 17.9525 19.0579 18.2509C18.7906 18.5254 18.5214 18.7981 18.2447 19.0628C17.6118 19.6678 16.692 19.6704 16.0537 19.0686C15.8769 18.902 15.6869 18.8128 15.4519 18.9105C15.2125 19.01 15.1334 19.2072 15.1286 19.459C15.1126 20.3131 14.4388 20.9829 13.5856 20.9971C13.2138 21.0033 12.8416 21.0002 12.4699 20.998C11.5545 20.9935 10.8883 20.3358 10.8665 19.4173C10.8567 19.01 10.5018 18.7546 10.1554 18.9109C10.0866 18.942 10.0248 18.9944 9.96843 19.0468C9.28266 19.6842 8.36816 19.6718 7.70282 19.0135C7.46209 18.7755 7.22225 18.5361 6.98463 18.2953C6.3264 17.6296 6.31308 16.7119 6.95443 16.0324C7.11832 15.8587 7.18894 15.6678 7.08812 15.4417C6.99218 15.2258 6.81541 15.1383 6.58134 15.1339C5.66861 15.1174 5.00728 14.4428 5.00683 13.5269C5.00683 13.0832 4.97885 12.6347 5.03615 12.1976C5.1383 11.4159 5.77788 10.8887 6.56757 10.8718C6.87448 10.8652 7.05836 10.7328 7.12054 10.469C7.16895 10.2633 7.08234 10.1061 6.94466 9.95999C6.47075 9.4581 6.35749 8.78876 6.63819 8.19049C6.80475 7.83606 7.83562 6.80697 8.1905 6.64175C8.78654 6.36371 9.46876 6.47475 9.94666 6.9371C10.1221 7.10677 10.3131 7.19338 10.5476 7.09655C10.787 6.99751 10.8767 6.79986 10.8705 6.54803C10.8683 6.46586 10.882 6.38236 10.8963 6.30064C11.0211 5.57401 11.6446 5.02549 12.3806 5.01261C12.8518 5.00461 13.3289 4.97885 13.7934 5.03703C14.5867 5.13608 15.1103 5.77432 15.1357 6.57423C15.1392 6.6906 15.169 6.82118 15.2298 6.91801C15.4088 7.20137 15.7619 7.21337 16.032 6.96064C16.5241 6.49917 17.0926 6.36904 17.7202 6.61154C17.9254 6.6906 18.1137 6.83806 18.2811 6.98596C18.5387 7.21337 18.7728 7.46742 19.0149 7.7117C19.6722 8.37526 19.6855 9.2982 19.0446 9.97509C18.8798 10.1492 18.8106 10.3393 18.9109 10.5654C19.0069 10.7812 19.1841 10.8687 19.4177 10.8727C20.3251 10.8891 20.9895 11.5585 20.9927 12.4628C20.994 12.9118 21.0206 13.3662 20.9633 13.809C20.8621 14.5902 20.2221 15.1143 19.4324 15.1383C19.3156 15.1419 19.1845 15.169 19.0881 15.2298C18.8097 15.4053 18.7888 15.7664 19.0344 16.02C19.3466 16.3424 19.5128 16.7226 19.5096 17.1055ZM15.6895 17.8041C16.0693 17.8143 16.4446 17.9644 16.7586 18.2691C17.0113 18.5143 17.2853 18.5116 17.535 18.266C17.7686 18.0364 17.9995 17.8041 18.2305 17.5723C18.5174 17.2849 18.5205 17.0331 18.2398 16.7346C17.9578 16.4344 17.8086 16.0773 17.801 15.6673C17.785 14.7981 18.4823 14.0861 19.3586 14.0697C19.7406 14.0626 19.9276 13.8729 19.928 13.4914C19.9285 13.153 19.9298 12.8141 19.928 12.4756C19.9258 12.1483 19.7255 11.9458 19.4026 11.9373C18.7088 11.9191 18.1963 11.606 17.928 10.9638C17.662 10.3273 17.7988 9.74724 18.2678 9.24491C18.5068 8.98908 18.5072 8.71592 18.262 8.46631C18.0324 8.23313 17.7997 8.00262 17.5678 7.77122C17.2805 7.48474 17.0308 7.48163 16.731 7.76322C16.4352 8.04126 16.0839 8.19005 15.6802 8.20071C14.803 8.22469 14.083 7.52605 14.0666 6.64308C14.0595 6.26111 13.8703 6.07501 13.4879 6.07457C13.1494 6.07412 12.8105 6.07279 12.4721 6.07457C12.1448 6.07634 11.9462 6.27665 11.9329 6.60044C11.9271 6.73813 11.9169 6.87892 11.8832 7.01172C11.582 8.18694 10.1514 8.59201 9.264 7.757C8.97398 7.48385 8.71948 7.48607 8.43922 7.765C8.21892 7.98441 7.99951 8.20426 7.7801 8.42456C7.48163 8.72392 7.47586 8.96909 7.76189 9.27378C8.04437 9.57446 8.19183 9.932 8.19849 10.3415C8.2127 11.2187 7.51583 11.92 6.62132 11.9365C6.27177 11.9431 6.07323 12.1394 6.0719 12.4841C6.07057 12.8394 6.06924 13.1947 6.07235 13.5496C6.07546 13.8543 6.28065 14.055 6.58356 14.0697C6.72702 14.0768 6.87359 14.0844 7.01128 14.1199C8.1865 14.4219 8.58979 15.849 7.75434 16.7395C7.48163 17.03 7.4843 17.2849 7.76278 17.5647C7.99374 17.7966 8.22469 18.0288 8.45787 18.2589C8.7137 18.5116 8.98286 18.5108 9.24801 18.2642C9.75124 17.7961 10.3322 17.6624 10.9678 17.9298C11.6033 18.1972 11.9142 18.7057 11.9338 19.3924C11.9431 19.7286 12.1408 19.9289 12.4761 19.9311C12.8034 19.9329 13.1312 19.9316 13.4586 19.9311C13.8778 19.9311 14.0568 19.757 14.0666 19.3413C14.0866 18.4934 14.7892 17.8041 15.6895 17.8028V17.8041Z" fill="white"/>
<path d="M9.26904 13.0025C9.26816 10.9554 10.9382 9.27651 12.9795 9.27295C15.0554 9.2694 16.7294 10.9385 16.7308 13.0131C16.7321 15.0473 15.0528 16.7342 13.0279 16.7333C10.939 16.7324 9.26993 15.0758 9.26904 13.0025ZM10.3354 12.9971C10.3297 14.4668 11.5253 15.6647 13.0012 15.6683C14.4536 15.6718 15.6581 14.4771 15.6644 13.0265C15.6706 11.5546 14.4874 10.3465 13.0314 10.3389C11.5422 10.3314 10.3412 11.5155 10.3354 12.9971Z" fill="white"/>
</svg>
