<svg width="24" height="24" viewBox="0 0 24 24" fill="none" xmlns="http://www.w3.org/2000/svg">
<path d="M5.00048 11.2149C5.00048 8.75205 4.9994 6.28973 5.00048 3.82687C5.00155 3.02717 5.46487 2.4235 6.20191 2.26603C6.331 2.23817 6.46759 2.2371 6.60096 2.2371C10.5357 2.2355 14.4705 2.23496 18.4053 2.23603C19.3705 2.23603 19.9988 2.86487 19.9994 3.83223C20.0005 8.75741 19.9999 13.6826 19.9994 18.6083C19.9994 19.2371 19.7455 19.7299 19.175 20.0128C18.6019 20.2966 18.0497 20.2216 17.5381 19.836C17.2296 19.6035 16.8755 19.6105 16.5826 19.8596C16.3994 20.0154 16.2397 20.2008 16.0485 20.3443C15.1931 20.9871 14.0233 20.8874 13.2734 20.1204C13.1754 20.0202 13.0741 19.9212 12.9649 19.8344C12.6847 19.6116 12.32 19.6126 12.0414 19.8381C11.9273 19.9303 11.824 20.0363 11.7206 20.1408C10.8984 20.9737 9.5566 20.9769 8.73065 20.1472C8.64549 20.062 8.56246 19.9747 8.47194 19.8949C8.14145 19.603 7.79275 19.5923 7.43655 19.8596C6.90413 20.2591 6.23565 20.2977 5.69198 19.9463C5.21527 19.6383 5.00048 19.1852 5.00048 18.6228C5.00048 16.1535 5.00048 13.6842 5.00048 11.2149ZM18.7144 11.2219C18.7144 8.77241 18.7144 6.32348 18.7144 3.87401C18.7144 3.57084 18.6662 3.52102 18.3694 3.52102C14.455 3.52102 10.54 3.52102 6.6256 3.52102C6.3385 3.52102 6.286 3.57298 6.286 3.85901C6.286 8.76437 6.286 13.6692 6.286 18.5746C6.286 18.6887 6.27529 18.8076 6.40277 18.8702C6.52597 18.9308 6.6181 18.8643 6.71291 18.7958C7.44566 18.2666 8.35785 18.2532 9.11363 18.7545C9.33378 18.9002 9.50358 19.1 9.69587 19.2752C9.87049 19.4337 10.0687 19.4959 10.3022 19.4814C10.6011 19.4627 10.7789 19.258 10.9637 19.0674C11.8373 18.1686 13.1641 18.1632 14.0372 19.0572C14.1261 19.1477 14.2177 19.2371 14.3163 19.3164C14.6034 19.5473 14.9692 19.55 15.2563 19.3196C15.3758 19.2238 15.4834 19.1123 15.5927 19.0041C16.3169 18.2869 17.446 18.1841 18.2548 18.7658C18.3603 18.8418 18.46 18.9308 18.5976 18.8649C18.7422 18.7952 18.7144 18.6538 18.7144 18.529C18.7149 16.093 18.7144 13.6574 18.7144 11.2213V11.2219Z" fill="white"/>
<path d="M13.5855 9.94496C14.3611 9.94496 15.1367 9.9396 15.9123 9.94657C16.4041 9.95085 16.7142 10.4302 16.5074 10.8561C16.3885 11.1009 16.1812 11.2278 15.9123 11.2283C14.3477 11.2316 12.7831 11.2337 11.2186 11.2267C10.8409 11.2251 10.5678 10.93 10.5726 10.5738C10.5774 10.2155 10.8538 9.94817 11.2384 9.94603C12.0204 9.94175 12.803 9.94496 13.5855 9.94496V9.94496Z" fill="white"/>
<path d="M13.5735 15.5068C12.7909 15.5068 12.0089 15.5121 11.2263 15.5046C10.7442 15.4998 10.4362 15.0365 10.6264 14.6117C10.7416 14.3551 10.9531 14.2239 11.2306 14.2234C12.7888 14.2202 14.3464 14.2186 15.9046 14.2234C16.2966 14.2245 16.5704 14.5094 16.565 14.879C16.5596 15.2406 16.2881 15.503 15.9003 15.5052C15.1247 15.5094 14.3491 15.5062 13.5735 15.5062V15.5068Z" fill="white"/>
<path d="M13.5649 6.94339C12.7823 6.94339 12.0003 6.94661 11.2177 6.94179C10.8808 6.93964 10.6093 6.69004 10.5761 6.36919C10.5428 6.05102 10.7459 5.76017 11.0619 5.67822C11.1069 5.66643 11.154 5.66001 11.2001 5.65947C12.7781 5.6584 14.356 5.65733 15.934 5.66001C16.2211 5.66054 16.4691 5.85766 16.5457 6.1228C16.6213 6.38472 16.5184 6.667 16.2881 6.82877C16.1627 6.91661 16.0229 6.94446 15.8714 6.94393C15.1022 6.94179 14.3335 6.94286 13.5644 6.94286L13.5649 6.94339Z" fill="white"/>
<path d="M9.06312 11.4419C8.59658 11.4371 8.21039 11.0444 8.21414 10.58C8.21789 10.1146 8.60944 9.72571 9.07384 9.72571C9.54734 9.72571 9.93728 10.1242 9.92978 10.6004C9.92228 11.0691 9.53341 11.4467 9.06312 11.4419V11.4419Z" fill="white"/>
<path d="M9.07774 14.0134C9.54749 14.015 9.9294 14.3985 9.92993 14.8688C9.92993 15.3364 9.54642 15.7247 9.07934 15.729C8.60905 15.7333 8.20733 15.33 8.21483 14.8597C8.22179 14.3904 8.60852 14.0112 9.07827 14.0128L9.07774 14.0134Z" fill="white"/>
</svg>
