<svg width="26" height="26" viewBox="0 0 26 26" fill="none" xmlns="http://www.w3.org/2000/svg">
<path d="M21 17.6873V18.156C20.9906 18.1907 20.9769 18.2251 20.9728 18.2604C20.8244 19.5307 19.9516 20.5513 18.7181 20.8903C18.5541 20.9353 18.3853 20.9638 18.2188 20.9997H17.625C17.3947 20.9416 17.1578 20.9016 16.935 20.8222C16.1944 20.5584 15.6734 20.0403 15.2878 19.3688C14.5603 18.1022 13.8287 16.8382 13.0984 15.5732C13.0684 15.5214 13.0372 15.4704 12.9975 15.4045C12.9581 15.4692 12.9306 15.5123 12.905 15.5564C12.1541 16.8576 11.4016 18.1576 10.6534 19.4603C10.2431 20.1744 9.65625 20.6628 8.85938 20.8872C8.69031 20.9347 8.51562 20.9628 8.34375 21H7.78125C7.74656 20.9906 7.71219 20.9788 7.67656 20.9728C6.37469 20.7566 5.52375 20.0169 5.12188 18.7632C5.06531 18.5869 5.03969 18.4007 5 18.2188V17.5938C5.03156 17.4476 5.05469 17.2991 5.09594 17.1557C5.45063 15.9242 6.24937 15.132 7.50688 14.8951C8.72781 14.6651 9.74062 15.087 10.4959 16.0838C10.6234 16.252 10.72 16.4432 10.8362 16.6326C10.8647 16.586 10.8922 16.5426 10.9178 16.4982C11.3444 15.7595 11.7678 15.0189 12.1997 14.2833C12.2616 14.1779 12.2556 14.1067 12.1962 14.0042C10.6622 11.3521 9.13125 8.69837 7.60219 6.04342C7.54344 5.94154 7.48781 5.82873 7.46906 5.71499C7.41719 5.39655 7.55969 5.19156 7.9375 5H8.21875C8.45188 5.08312 8.59344 5.25562 8.71438 5.46593C10.1084 7.89088 11.5078 10.313 12.9059 12.7355C12.9325 12.7817 12.9628 12.8261 12.9997 12.8848C13.0413 12.8152 13.0709 12.767 13.0991 12.718C14.4944 10.2999 15.8909 7.88213 17.2825 5.46187C17.4038 5.25093 17.545 5.07844 17.7812 5H18.0625C18.1688 5.07062 18.2912 5.12562 18.3784 5.215C18.5812 5.42343 18.5869 5.70811 18.4144 6.00686C16.8738 8.67774 15.3325 11.3483 13.7913 14.0189C13.7497 14.0911 13.7163 14.1489 13.7709 14.2423C14.2178 15.0051 14.6566 15.7723 15.0988 16.5376C15.1172 16.5691 15.1434 16.5963 15.1459 16.5998C15.3513 16.3185 15.5244 16.0151 15.7597 15.772C16.5584 14.9451 17.5434 14.6554 18.6547 14.9295C19.7897 15.2095 20.525 15.9485 20.8716 17.0645C20.9341 17.266 20.9581 17.4791 21 17.6873ZM17.9213 16.0835C16.9556 16.0845 16.1556 16.9048 16.155 17.8947C16.1541 18.9041 16.9588 19.7475 17.9231 19.7488C18.9241 19.75 19.7469 18.9219 19.7453 17.9154C19.7438 16.9063 18.9234 16.0826 17.9213 16.0835V16.0835ZM8.07969 16.0857C7.07125 16.0835 6.25469 16.8966 6.25063 17.9072C6.24656 18.9104 7.06 19.7447 8.04625 19.7491C9.01875 19.7535 9.8375 18.9107 9.84062 17.9016C9.84375 16.912 9.04438 16.0876 8.07969 16.0857V16.0857Z" fill="white"/>
</svg>
