<svg width="24" height="24" viewBox="0 0 24 24" fill="none" xmlns="http://www.w3.org/2000/svg">
<path d="M13.1429 10.2857H4.57143C4.4199 10.2857 4.27449 10.2255 4.16735 10.1184C4.06021 10.0112 4 9.86582 4 9.71429V6.28571C4 5.67948 4.24082 5.09809 4.66952 4.66952C5.09809 4.24082 5.67948 4 6.28571 4H13.1429C13.2944 4 13.4398 4.06021 13.5469 4.16735C13.6541 4.27449 13.7143 4.4199 13.7143 4.57143V9.71429C13.7143 9.86582 13.6541 10.0112 13.5469 10.1184C13.4398 10.2255 13.2944 10.2857 13.1429 10.2857ZM5.14286 9.14286H12.5714V5.14286H6.28571C5.98265 5.14286 5.69195 5.26327 5.47755 5.47755C5.26327 5.69196 5.14286 5.98266 5.14286 6.28571V9.14286ZM8.57143 20H6.28571C5.67948 20 5.09809 19.7592 4.66952 19.3305C4.24082 18.9019 4 18.3205 4 17.7143V12C4 11.8485 4.06021 11.7031 4.16735 11.5959C4.27449 11.4888 4.4199 11.4286 4.57143 11.4286H8.57143C8.72296 11.4286 8.86837 11.4888 8.97551 11.5959C9.08265 11.7031 9.14286 11.8485 9.14286 12V19.4286C9.14286 19.5801 9.08265 19.7255 8.97551 19.8327C8.86837 19.9398 8.72296 20 8.57143 20ZM5.14286 12.5714V17.7143C5.14286 18.0173 5.26327 18.308 5.47755 18.5224C5.69196 18.7367 5.98266 18.8571 6.28571 18.8571H8V12.5714H5.14286ZM17.7143 20H10.8571C10.7056 20 10.5602 19.9398 10.4531 19.8327C10.3459 19.7255 10.2857 19.5801 10.2857 19.4286V13.7143C10.2857 13.5628 10.3459 13.4173 10.4531 13.3102C10.5602 13.2031 10.7056 13.1429 10.8571 13.1429H19.4286C19.5801 13.1429 19.7255 13.2031 19.8327 13.3102C19.9398 13.4173 20 13.5628 20 13.7143V17.7143C20 18.3205 19.7592 18.9019 19.3305 19.3305C18.9019 19.7592 18.3205 20 17.7143 20ZM11.4286 18.8571H17.7143C18.0173 18.8571 18.308 18.7367 18.5224 18.5224C18.7367 18.308 18.8571 18.0173 18.8571 17.7143V14.2857H11.4286V18.8571ZM19.4286 12H15.4286C15.277 12 15.1316 11.9398 15.0245 11.8327C14.9173 11.7255 14.8571 11.5801 14.8571 11.4286V4.57143C14.8571 4.4199 14.9173 4.27449 15.0245 4.16735C15.1316 4.06021 15.277 4 15.4286 4H17.7143C18.3205 4 18.9019 4.24082 19.3305 4.66952C19.7592 5.09809 20 5.67948 20 6.28571V11.4286C20 11.5801 19.9398 11.7255 19.8327 11.8327C19.7255 11.9398 19.5801 12 19.4286 12ZM16 10.8571H18.8571V6.28571C18.8571 5.98265 18.7367 5.69195 18.5224 5.47755C18.308 5.26327 18.0173 5.14286 17.7143 5.14286H16V10.8571Z" fill="white"/>
</svg>
