<svg width="24" height="24" viewBox="0 0 24 24" fill="none" xmlns="http://www.w3.org/2000/svg">
<path d="M15.437 19.9992H7.3122C7.29594 19.95 7.25218 19.9692 7.22009 19.9637C5.60213 19.6882 4.42804 18.5838 4.07669 17.0091C4.05252 16.9016 4.06419 16.7849 4 16.687V7.3122C4.04918 7.29594 4.03001 7.25176 4.03543 7.21967C4.30467 5.60838 5.41582 4.42721 6.99002 4.07669C7.09755 4.05252 7.21425 4.06419 7.31262 4H16.6249C16.6307 4.02459 16.6495 4.02751 16.6711 4.03001C18.267 4.20673 19.5649 5.37664 19.9116 6.94459C19.9412 7.07755 19.9362 7.21842 20 7.34387V15.5312C19.9383 15.5591 19.9587 15.6225 19.9512 15.6667C19.8183 16.4506 19.4561 17.1113 18.8934 17.6681C18.4762 18.0811 18.0619 18.4971 17.6477 18.9134C17.1721 19.3911 16.6136 19.7241 15.958 19.8879C15.7859 19.9308 15.6108 19.9625 15.4374 19.9996L15.437 19.9992ZM5.24994 11.9973C5.24994 13.4031 5.24827 14.8089 5.25036 16.2147C5.25244 17.6439 6.35276 18.7467 7.78233 18.7484C9.95379 18.7509 12.1248 18.7484 14.2963 18.7521C14.4188 18.7521 14.4472 18.7209 14.448 18.6C14.4526 17.9548 14.4134 17.3084 14.4672 16.664C14.5601 15.5479 15.5446 14.5605 16.6582 14.4676C17.3076 14.4134 17.959 14.4522 18.6096 14.4484C18.7288 14.4476 18.7526 14.4167 18.7521 14.3025C18.7484 12.1311 18.7509 9.96004 18.7488 7.78859C18.7476 6.34984 17.6472 5.25119 16.206 5.25036C13.3994 5.24869 10.5931 5.25036 7.7865 5.24911C7.61395 5.24911 7.44265 5.26119 7.27469 5.29662C6.06976 5.54794 5.25244 6.5499 5.25077 7.77983C5.24869 9.18565 5.25036 10.5915 5.25036 11.9973H5.24994ZM17.7498 15.6946C17.4897 15.6946 17.2296 15.6904 16.9695 15.6954C16.2948 15.7079 15.7621 16.1568 15.7142 16.8174C15.6721 17.4022 15.6996 17.9919 15.6938 18.5796C15.6925 18.688 15.7484 18.6488 15.8025 18.6313C16.1456 18.5225 16.4456 18.3408 16.7007 18.0886C17.1671 17.6281 17.6306 17.1646 18.0911 16.6982C18.3391 16.4469 18.5146 16.1493 18.63 15.8146C18.6625 15.7204 18.6567 15.6883 18.5454 15.6917C18.2803 15.6992 18.0148 15.6942 17.7498 15.6942V15.6946Z" fill="white"/>
<path d="M15.3038 12.81L15.3039 12.81C15.4362 12.7842 15.5111 12.6991 15.5616 12.6154H15.6032V12.5154V11.5115V11.4328L15.5721 11.4253C15.5025 11.2569 15.3285 11.1644 15.1466 11.2059L15.1464 11.2059C15.0592 11.2259 14.9855 11.2729 14.9343 11.3433C14.8836 11.4131 14.8591 11.4998 14.8584 11.5938L14.8584 11.5938C14.8569 11.8165 14.8577 12.0391 14.8584 12.2611L14.8584 12.2614L14.8584 12.2615C14.8585 12.2772 14.8582 12.2945 14.8579 12.3128C14.8569 12.3701 14.8558 12.438 14.8652 12.5019L14.8652 12.502C14.8965 12.7133 15.0965 12.8501 15.3038 12.81Z" fill="white" stroke="white" stroke-width="0.2"/>
<path d="M11.4344 15.5547L11.4344 15.5547C11.205 15.6199 10.9769 15.4587 10.9604 15.2209L10.9603 15.22C10.9588 15.1957 10.9589 15.1708 10.959 15.1499C10.959 15.146 10.959 15.1421 10.959 15.1385V15.1324V15.1263V15.1201V15.114V15.1079V15.1018V15.0956V15.0895V15.0834V15.0773V15.0711V15.065V15.0589V15.0528V15.0466V15.0405V15.0344V15.0283V15.0221V15.016V15.0099V15.0038V14.9976V14.9915V14.9854V14.9793V14.9731V14.967V14.9609V14.9548V14.9486V14.9425V14.9364V14.9303V14.9241V14.918V14.9119V14.9058V14.8997V14.8935V14.8874V14.8813V14.8752V14.869V14.8629V14.8568V14.8507V14.8445V14.8384V14.8323V14.8262V14.82V14.8139V14.8078V14.8017V14.7955V14.7894V14.7833V14.7772V14.771V14.7649V14.7588V14.7527V14.7465V14.7404V14.7343V14.7282V14.722V14.7159V14.7098V14.7037V14.6975V14.6914V14.6853V14.6792V14.673V14.6669V14.6608V14.6547V14.6485V14.6424V14.6363V14.6302V14.624V14.6179V14.6118V14.6057V14.5995V14.5934V14.5873V14.5812V14.575V14.5689V14.5628V14.5567V14.5506V14.5444V14.5383V14.5322V14.5261V14.5199V14.5138V14.5077V14.5016V14.4954V14.4893V14.4832V14.4771V14.4709V14.4648V14.4587V14.4526V14.4464V14.4403V14.4342V14.4281V14.4219V14.4158V14.4097V14.4036V14.3974V14.3913V14.3852V14.3791V14.3729V14.3668V14.3607V14.3546V14.3484V14.3423V14.3362V14.3301V14.3239V14.3178V14.3117V14.3056V14.2994V14.2933V14.2872V14.2811V14.275V14.2688V14.2627V14.2566V14.2505V14.2443V14.2382V14.2321V14.226V14.2198V14.2137V14.2076V14.2015V14.1953V14.1892V14.1831V14.177V14.1708V14.1647V14.1586V14.1525V14.1463V14.1402V14.1341V14.128V14.1218V14.1157V14.1096V14.1035V14.0973V14.0912V14.0851V14.079V14.0728V14.0667V14.0606V14.0545V14.0483V14.0422V14.0361V14.03V14.0239V14.0177V14.0116V14.0055V13.9994V13.9932V13.9871V13.981V13.9749V13.9687V13.9626V13.9565V13.9504V13.9442V13.9381V13.932V13.9259V13.9197V13.9136V13.9075V13.9014V13.8952V13.8891V13.883V13.8769V13.8707V13.8646V13.8585V13.8524V13.8462V13.8401V13.834V13.8279V13.8218V13.8156V13.8095V13.8034V13.7973V13.7911V13.785V13.7789V13.7728V13.7666V13.7605V13.7544V13.7483V13.7421V13.736V13.7299V13.7238V13.7176V13.7115V13.7054V13.6993V13.6931V13.687V13.6809V13.6748V13.6686V13.6625V13.6564V13.6503V13.6442V13.638V13.6319V13.6258V13.6197V13.6135V13.6074V13.6013V13.5952V13.589V13.5829V13.5768V13.5707V13.5645V13.5584V13.5523V13.5462V13.54V13.5339V13.5278V13.5217V13.5155V13.5094V13.5033V13.4972V13.4911V13.4849V13.4788V13.4727V13.4666V13.4604V13.4543V13.4482V13.4421V13.4359V13.4298V13.4237V13.4176V13.4114V13.4053V13.3992V13.3931V13.3869V13.3808V13.3747V13.3686V13.3624V13.3563V13.3502V13.3441V13.338V13.3318V13.3257V13.3196V13.3135V13.3073V13.3012V13.2951V13.289V13.2828V13.2767V13.2706V13.2645V13.2583V13.2522V13.2461V13.24V13.2338V13.2277V13.2216V13.2155V13.2094V13.2032V13.1971V13.191V13.1849V13.1787V13.1726V13.1665V13.1604V13.1542V13.1481V13.142V13.1359V13.1297V13.1236V13.1175V13.1114V13.1052V13.0991V13.093V13.0869V13.0808V13.0746V13.0685V13.0624V13.0563V13.0501V13.044V13.0379V13.0318V13.0256V13.0195V13.0134V13.0073V13.0011V12.995V12.9889V12.9828V12.9767V12.9705V12.9644V12.9583V12.9522V12.946V12.9399V12.9338V12.9277V12.9215V12.9154V12.9093V12.9032V12.897V12.8909V12.8848V12.8787V12.8726V12.8664V12.8603V12.8542V12.8481V12.8419V12.8358V12.8297V12.8236V12.8174V12.8113V12.8052V12.7991V12.793V12.7868V12.7807V12.7746V12.7685V12.7623V12.7562V12.7501V12.744V12.7378V12.7317V12.7256V12.7195V12.7133V12.7072V12.7011V12.695V12.6889V12.6827V12.6766V12.6705V12.6644V12.6582V12.6521V12.646V12.6399V12.6337V12.6276V12.6215V12.6154V12.6093V12.6031V12.597V12.5909V12.5848V12.5786V12.5725V12.5664V12.5603V12.5541V12.548V12.5419V12.5358V12.5297V12.5235V12.5174V12.5113V12.5052V12.499V12.4929V12.4868V12.4807V12.4745V12.4684V12.4623V12.4562V12.4501V12.4439V12.4378V12.4317V12.4256V12.4194V12.4133V12.4072V12.4011V12.3949V12.3888V12.3827V12.3766V12.3705V12.3643V12.3582V12.3521V12.346V12.3398V12.3337V12.3276V12.3215V12.3154V12.3092V12.3031V12.297V12.2909V12.2847V12.2786V12.2725V12.2664V12.2602V12.2541V12.248V12.2419V12.2358V12.2296V12.2235V12.2174V12.2113V12.2051V12.199V12.1929V12.1868V12.1807V12.1745V12.1684V12.1623V12.1562V12.15V12.1439V12.1378V12.1317V12.1255V12.1194V12.1133V12.1072V12.1011V12.0949V12.0888V12.0827V12.0766V12.0704V12.0643V12.0582V12.0521V12.046V12.0398V12.0337V12.0276V12.0215V12.0153V12.0092V12.0031V11.9413L10.9598 11.9409V11.9349V11.9287V11.9226V11.9164V11.9103V11.9041V11.8979V11.8918V11.8856V11.8794V11.8733V11.8671V11.8609V11.8548V11.8486V11.8424V11.8363V11.8301V11.8239V11.8178V11.8116V11.8055V11.7993V11.7931V11.787V11.7808V11.7746V11.7685V11.7623V11.7561V11.75V11.7438V11.7376V11.7315V11.7253V11.7192V11.713V11.7068V11.7007V11.6945V11.6883V11.6822V11.676V11.6698V11.6637V11.6575V11.6513V11.6452V11.639V11.6328V11.6267V11.6205V11.6144V11.6082V11.602V11.5959V11.5897V11.5835V11.5774V11.5712V11.565V11.5589V11.5527V11.5465V11.5404V11.5342V11.528V11.5219V11.5157V11.5096V11.5034V11.4972V11.4911V11.4849V11.4787V11.4726V11.4664V11.4602V11.4541V11.4479V11.4417V11.4356V11.4294V11.4233V11.4171V11.4109V11.4048V11.3986V11.3924V11.3863V11.3801V11.3739V11.3678V11.3616V11.3554V11.3493V11.3431V11.3369V11.3308V11.3246V11.3185V11.3123V11.3061V11.3V11.2938V11.2876V11.2815V11.2753V11.2691V11.263V11.2568V11.2506V11.2445V11.2383V11.2321V11.226V11.2198V11.2137V11.2075V11.2013V11.1952V11.189V11.1828V11.1767V11.1705V11.1643V11.1582V11.152V11.1458V11.1397V11.1335V11.1274V11.1212V11.115V11.1089V11.1027V11.0965V11.0904V11.0842V11.078V11.0719V11.0657V11.0595V11.0534V11.0472V11.041V11.0349V11.0287V11.0226V11.0164V11.0102V11.0041V10.9979V10.9917V10.9856V10.9794V10.9732V10.9671V10.9609V10.9547V10.9486V10.9424V10.9363V10.9301V10.9239V10.9178V10.9116V10.9054V10.8993V10.8931V10.8869V10.8808V10.8746V10.8684V10.8623V10.8561V10.8499V10.8438V10.8376V10.8315V10.8253V10.8191V10.813V10.8068V10.8006V10.7945V10.7883V10.7821V10.776V10.7698V10.7636V10.7575V10.7513V10.7451V10.739V10.7328V10.7267V10.7205V10.7143V10.7082V10.702V10.6958V10.6897V10.6835V10.6773V10.6712V10.665V10.6588V10.6527V10.6465V10.6404V10.6342V10.628V10.6219V10.6157V10.6095V10.6034V10.5972V10.591V10.5849V10.5787V10.5725V10.5664V10.5602V10.554V10.5479V10.5417V10.5356V10.5294V10.5232V10.5171V10.5109V10.5047V10.4986V10.4924V10.4862V10.4801V10.4739V10.4677V10.4616V10.4554V10.4492V10.4431V10.4369V10.4308V10.4246V10.4184V10.4123V10.4061V10.3999V10.3938V10.3876V10.3814V10.3753V10.3691V10.3629V10.3568V10.3506V10.3445V10.3383V10.3321V10.326V10.3198V10.3136V10.3075V10.3013V10.2951V10.289V10.2828V10.2766V10.2705V10.2643V10.2581V10.252V10.2458V10.2397V10.2335V10.2273V10.2212V10.215V10.2088V10.2027V10.1965V10.1903V10.1842V10.178V10.1718V10.1657V10.1595V10.1533V10.1472V10.141V10.1349V10.1287V10.1225V10.1164V10.1102V10.104V10.0979V10.0917V10.0855V10.0794V10.0732V10.067V10.0609V10.0547V10.0486V10.0424V10.0362V10.0301V10.0239V10.0177V10.0116V10.0054V9.99924V9.99307V9.98691V9.98074V9.97458V9.96841V9.96225V9.95608V9.94992V9.94375V9.93759V9.93143V9.92526V9.9191V9.91293V9.90677V9.9006V9.89444V9.88827V9.88211V9.87594V9.86978V9.86361V9.85745V9.85129V9.84512V9.83896V9.83279V9.82663V9.82046V9.8143V9.80813V9.80197V9.7958V9.78964V9.78348V9.77731V9.77115V9.76498V9.75882V9.75265V9.74649V9.74032V9.73416V9.72799V9.72183V9.71567V9.7095V9.70334V9.69717V9.69101V9.68484V9.67868V9.67251V9.66635V9.66018V9.65402V9.64785V9.64169V9.63553V9.62936V9.6232V9.61703V9.61087V9.6047V9.59854V9.59237V9.58621V9.58004V9.57388V9.56772V9.56155V9.55539V9.54922V9.54306V9.53689V9.53073V9.52456V9.5184V9.51223V9.50607V9.49991V9.49374V9.48758V9.48141V9.47525V9.46908V9.46292V9.45675V9.45059V9.44442V9.43826V9.43209V9.42593V9.41977V9.4136V9.40744V9.40127V9.39511V9.38894V9.38278V9.37661V9.37045V9.36428V9.35812V9.35196V9.34579V9.33963V9.33346V9.3273V9.32113V9.31497V9.3088V9.30264V9.29647V9.29031V9.28415V9.27798V9.27182V9.26565V9.25949V9.25332V9.24716V9.24099V9.23483V9.22866V9.2225V9.21633V9.21017V9.20401V9.19784V9.19168V9.18551V9.17935V9.17318V9.16702V9.16085V9.15469V9.14852V9.14236V9.1362V9.13003V9.12387V9.1177V9.11154V9.10537V9.09921V9.09304V9.08688V9.08071V9.07455V9.06839V9.06222V9.05606V9.04989V9.04373V9.03756V9.0314V9.02523V9.01907V9.0129V9.00674V9.00057V8.99441V8.98825V8.98208V8.97592V8.96975V8.96359V8.95742V8.95126V8.94509V8.93893V8.93276V8.9266V8.92044V8.91427V8.90811V8.90194V8.89578V8.88961V8.88345V8.87728V8.87112V8.86495V8.85879V8.85263V8.84646C10.9598 8.74814 10.9844 8.65764 11.039 8.58562C11.0942 8.51274 11.1736 8.46729 11.2666 8.44918L11.4344 15.5547ZM11.4344 15.5547C11.5212 15.5299 11.592 15.48 11.6392 15.4042C11.6851 15.3305 11.7038 15.2406 11.7038 15.1423V15.1301V15.1178V15.1056V15.0933V15.0811V15.0688V15.0566V15.0443V15.0321V15.0198V15.0076V14.9953V14.9831V14.9708V14.9586V14.9463V14.9341V14.9218V14.9096V14.8973V14.8851V14.8728V14.8606V14.8483V14.8361V14.8238V14.8116V14.7993V14.7871V14.7748V14.7626V14.7503V14.7381V14.7258V14.7136V14.7013V14.6891V14.6768V14.6646V14.6523V14.6401V14.6278V14.6156V14.6033V14.5911V14.5788V14.5666V14.5543V14.5421V14.5299V14.5176V14.5054V14.4931V14.4809V14.4686V14.4564V14.4441V14.4319V14.4196V14.4074V14.3951V14.3829V14.3706V14.3584V14.3461V14.3339V14.3216V14.3094V14.2971V14.2849V14.2726V14.2604V14.2481V14.2359V14.2236V14.2114V14.1991V14.1869V14.1746V14.1624V14.1501V14.1379V14.1256V14.1134V14.1011V14.0889V14.0767V14.0644V14.0522V14.0399V14.0277V14.0154V14.0032V13.9909V13.9787V13.9664V13.9542V13.9419V13.9297V13.9174V13.9052V13.8929V13.8807V13.8684V13.8562V13.8439V13.8317V13.8194V13.8072V13.7949V13.7827V13.7704V13.7582V13.7459V13.7337V13.7214V13.7092V13.6969V13.6847V13.6725V13.6602V13.648V13.6357V13.6235V13.6112V13.599V13.5867V13.5745V13.5622V13.55V13.5377V13.5255V13.5132V13.501V13.4887V13.4765V13.4642V13.452V13.4397V13.4275V13.4152V13.403V13.3907V13.3785V13.3662V13.354V13.3417V13.3295V13.3173V13.305V13.2928V13.2805V13.2683V13.256V13.2438V13.2315V13.2193V13.207V13.1948V13.1825V13.1703V13.158V13.1458V13.1335V13.1213V13.109V13.0968V13.0845V13.0723V13.06V13.0478V13.0355V13.0233V13.011V12.9988V12.9865V12.9743V12.9621V12.9498V12.9376V12.9253V12.9131V12.9008V12.8886V12.8763V12.8641V12.8518V12.8396V12.8273V12.8151V12.8028V12.7906V12.7783V12.7661V12.7538V12.7416V12.7293V12.7171V12.7048V12.6926V12.6803V12.6681V12.6559V12.6436V12.6314V12.6191V12.6069V12.5946V12.5824V12.5701V12.5579V12.5456V12.5334V12.5211V12.5089V12.4966V12.4844V12.4721V12.4599V12.4476V12.4354V12.4231V12.4109V12.3986V12.3864V12.3741V12.3619V12.3496V12.3374V12.3252V12.3129V12.3007V12.2884V12.2762V12.2639V12.2517V12.2394V12.2272V12.2149V12.2027V12.1904V12.1782V12.1659V12.1537V12.1414V12.1292V12.1169V12.1047V12.0924V12.0802V12.0679V12.0557V12.0434V12.0312V12.019V12.0067V11.9945V11.9822V11.97V11.9577V11.9455V11.9332V11.921V11.9087V11.8965V11.8842V11.872V11.8597V11.8475V11.8352V11.823V11.8107V11.7985V11.7862V11.774V11.7617V11.7495V11.7372V11.725V11.7127V11.7005V11.6883V11.676V11.6638V11.6515V11.6393V11.627V11.6148V11.6025V11.5903V11.578V11.5658V11.5535V11.5413V11.529V11.5168V11.5045V11.4923V11.48V11.4678V11.4555V11.4433V11.431V11.4188V11.4065V11.3943V11.3821V11.3698V11.3576V11.3453V11.3331V11.3208V11.3086V11.2963V11.2841V11.2718V11.2596V11.2473V11.2351V11.2228V11.2106V11.1983V11.1861V11.1738V11.1616V11.1493V11.1371V11.1248V11.1126V11.1003V11.0881V11.0758V11.0636V11.0514V11.0391V11.0269V11.0146V11.0024V10.9901V10.9779V10.9656V10.9534V10.9411V10.9289V10.9166V10.9044V10.8921V10.8799V10.8676V10.8554V10.8431V10.8309V10.8186V10.8064V10.7941V10.7819V10.7696V10.7574V10.7451V10.7329V10.7206V10.7084V10.6962V10.6839V10.6717V10.6594V10.6472V10.6349V10.6227V10.6104V10.5982V10.5859V10.5737V10.5614V10.5492V10.5369V10.5247V10.5124V10.5002V10.4879V10.4757V10.4634V10.4512V10.4389V10.4267V10.4144V10.4022V10.3899V10.3777V10.3654V10.3532V10.341V10.3287V10.3165V10.3042V10.292V10.2797V10.2675V10.2552V10.243V10.2307V10.2185V10.2062V10.194V10.1817V10.1695V10.1572V10.145V10.1327V10.1205V10.1082V10.096V10.0837V10.0715V10.0592V10.047V10.0347V10.0225V10.0102V9.998V9.98575V9.9735V9.96125V9.949V9.93675V9.9245V9.91226V9.90001V9.88776V9.87551V9.86326V9.85101V9.83876V9.82652V9.81427V9.80202V9.78977V9.77752V9.76527V9.75302V9.74078V9.72853V9.71628V9.70403V9.69178V9.67953V9.66728V9.65503V9.64279V9.63054V9.61829V9.60604V9.59379V9.58154V9.56929V9.55704V9.5448V9.53255V9.5203V9.50805V9.4958V9.48355V9.4713V9.45905V9.44681V9.43456V9.42231V9.41006V9.39781V9.38556V9.37331V9.36106V9.34882V9.33657V9.32432V9.31207V9.29982V9.28757V9.27532V9.26307V9.25082V9.23858V9.22633V9.21408V9.20183V9.18958V9.17733V9.16508V9.15283V9.14058V9.12833V9.11609V9.10384V9.09159V9.07934V9.06709V9.05484V9.04259V9.03034V9.01809V9.00584V8.9936V8.98135V8.9691V8.95685V8.9446V8.93235V8.9201V8.90785V8.8956V8.88335V8.8711C11.7038 8.83432 11.7022 8.79419 11.6963 8.75391M11.4344 15.5547L11.6963 8.75391M11.6963 8.75391C11.6668 8.55174 11.4662 8.41022 11.2666 8.44917L11.6963 8.75391Z" fill="white" stroke="white" stroke-width="0.2"/>
<path d="M10.0043 14.4725L10.0043 14.4725C9.83796 14.463 9.69064 14.3314 9.66719 14.164L9.66714 14.1637C9.6613 14.121 9.66015 14.0786 9.66015 14.0405V14.0326V14.0246V14.0167V14.0087V14.0008V13.9928V13.9849V13.977V13.969V13.9611V13.9531V13.9452V13.9372V13.9293V13.9213V13.9134V13.9054V13.8975V13.8895V13.8816V13.8736V13.8657V13.8577V13.8498V13.8418V13.8339V13.8259V13.818V13.81V13.8021V13.7941V13.7862V13.7782V13.7703V13.7623V13.7544V13.7464V13.7385V13.7305V13.7226V13.7147V13.7067V13.6988V13.6908V13.6829V13.6749V13.667V13.659V13.6511V13.6431V13.6352V13.6272V13.6193V13.6113V13.6034V13.5954V13.5875V13.5795V13.5716V13.5636V13.5557V13.5477V13.5398V13.5318V13.5239V13.5159V13.508V13.5V13.4921V13.4842V13.4762V13.4683V13.4603V13.4524V13.4444V13.4365V13.4285V13.4206V13.4126V13.4047V13.3967V13.3888V13.3808V13.3729V13.3649V13.357V13.349V13.3411V13.3331V13.3252V13.3172V13.3093V13.3013V13.2934V13.2854V13.2775V13.2695V13.2616V13.2536V13.2457V13.2378V13.2298V13.2219V13.2139V13.206V13.198V13.1901V13.1821V13.1742V13.1662V13.1583V13.1503V13.1424V13.1344V13.1265V13.1185V13.1106V13.1026V13.0947V13.0867V13.0788V13.0708V13.0629V13.0549V13.047V13.039V13.0311V13.0231V13.0152V13.0073V12.9993V12.9914V12.9834V12.9755V12.9675V12.9596V12.9516V12.9437V12.9357V12.9278V12.9198V12.9119V12.9039V12.896V12.888V12.8801V12.8721V12.8642V12.8562V12.8483V12.8403V12.8324V12.8244V12.8165V12.8085V12.8006V12.7926V12.7847V12.7768V12.7688V12.7609V12.7529V12.745V12.737V12.7291V12.7211V12.7132V12.7052V12.6973V12.6893V12.6814V12.6734V12.6655V12.6575V12.6496V12.6416V12.6337V12.6257V12.6178V12.6098V12.6019V12.5939V12.586V12.578V12.5701V12.5622V12.5542V12.5463V12.5383V12.5304V12.5224V12.5145V12.5065V12.4986V12.4906V12.4827V12.4747V12.4668V12.4588V12.4509V12.4429V12.435V12.427V12.4191V12.4111V12.4032V12.3952V12.3873V12.3793V12.3714V12.3634V12.3555V12.3476V12.3396V12.3317V12.3237V12.3158V12.3078V12.2999V12.2919V12.284V12.276V12.2681V12.2601V12.2522V12.2442V12.2363V12.2283V12.2204V12.2124V12.2045V12.1965V12.1886V12.1806V12.1727V12.1648V12.1568V12.1489V12.1409V12.133V12.125V12.1171V12.1091V12.1012V12.0932V12.0853V12.0773V12.0694V12.0614V12.0535V12.0455V12.0376V12.0296V12.0217V12.0137V12.0058V11.9978V11.9899V11.9819V11.974V11.9661V11.9581V11.9502V11.9422V11.9343V11.9263V11.9184V11.9104V11.9025V11.8945V11.8866V11.8786V11.8707V11.8627V11.8548V11.8468V11.8389V11.8309V11.823V11.815V11.8071V11.7991V11.7912V11.7833V11.7753V11.7674V11.7594V11.7515V11.7435V11.7356V11.7276V11.7197V11.7117V11.7038V11.6958V11.6879V11.6799V11.672V11.664V11.6561V11.6481V11.6402V11.6322V11.6243V11.6164V11.6084V11.6005V11.5925V11.5846V11.5766V11.5687V11.5607V11.5528V11.5448V11.5369V11.5289V11.521V11.513V11.5051V11.4971V11.4892V11.4812V11.4733V11.4653V11.4574V11.4495V11.4415V11.4336V11.4256V11.4177V11.4097V11.4018V11.3938V11.3859V11.3779V11.37V11.362V11.3541V11.3461V11.3382V11.3302V11.3223V11.3143V11.3064V11.2985V11.2905V11.2826V11.2746V11.2667V11.2587V11.2508V11.2428V11.2349V11.2269V11.219V11.211V11.2031V11.1951V11.1872V11.1792V11.1713V11.1633V11.1554V11.1475V11.1395V11.1316V11.1236V11.1157V11.1077V11.0998V11.0918V11.0839V11.0759V11.068V11.06V11.0521V11.0441V11.0362V11.0282V11.0203V11.0123V11.0044V10.9965V10.9885V10.9806V10.9726V10.9647V10.9567V10.9488V10.9408V10.9329V10.9249V10.917V10.909V10.9011V10.8931V10.8852V10.8772V10.8693V10.8614V10.8534V10.8455V10.8375V10.8296V10.8216V10.8137V10.8057V10.7978V10.7898V10.7819V10.7739V10.766V10.758V10.7501V10.7421V10.7342V10.7263V10.7183V10.7104V10.7024V10.6945V10.6865V10.6786V10.6706V10.6627V10.6547V10.6468V10.6388V10.6309V10.6229V10.615V10.6071V10.5991V10.5912V10.5832V10.5753V10.5673V10.5594V10.5514V10.5435V10.5355V10.5276V10.5196V10.5117V10.5037V10.4958V10.4879V10.4799V10.472V10.464V10.4561V10.4481V10.4402V10.4322V10.4243V10.4163V10.4084V10.4004V10.3925V10.3845V10.3766V10.3687V10.3607V10.3528V10.3448V10.3369V10.3289V10.321V10.313V10.3051V10.2971V10.2892V10.2812V10.2733V10.2653V10.2574V10.2495V10.2415V10.2336V10.2256V10.2177V10.2097V10.2018V10.1938V10.1859V10.1779V10.17V10.162V10.1541V10.1461V10.1382V10.1303V10.1223V10.1144V10.1064V10.0985V10.0905V10.0826V10.0746V10.0667V10.0587V10.0508V10.0428V10.0349V10.027V10.019V10.0111V10.0031V9.99517V9.98722V9.97928V9.97133C9.66015 9.96771 9.66014 9.96394 9.66012 9.96003C9.65996 9.91724 9.65973 9.85764 9.67788 9.79888L9.67789 9.79883C9.73233 9.62296 9.90173 9.51934 10.084 9.54105L10.0841 9.54107C10.2528 9.56135 10.3888 9.70748 10.4024 9.87754M10.0043 14.4725L10.4024 9.87775C10.4024 9.87768 10.4024 9.87761 10.4024 9.87754M10.0043 14.4725C10.1161 14.4789 10.2184 14.4433 10.2926 14.3694C10.3664 14.296 10.4042 14.193 10.4042 14.0788V14.0748V14.0707V14.0667V14.0627V14.0586V14.0546V14.0505V14.0465V14.0425V14.0384V14.0344V14.0303V14.0263V14.0223V14.0182V14.0142V14.0101V14.0061V14.0021V13.998V13.994V13.9899V13.9859V13.9819V13.9778V13.9738V13.9697V13.9657V13.9616V13.9576V13.9536V13.9495V13.9455V13.9414V13.9374V13.9334V13.9293V13.9253V13.9212V13.9172V13.9132V13.9091V13.9051V13.901V13.897V13.893V13.8889V13.8849V13.8808V13.8768V13.8727V13.8687V13.8647V13.8606V13.8566V13.8525V13.8485V13.8445V13.8404V13.8364V13.8323V13.8283V13.8243V13.8202V13.8162V13.8121V13.8081V13.8041V13.8V13.796V13.7919V13.7879V13.7838V13.7798V13.7758V13.7717V13.7677V13.7636V13.7596V13.7556V13.7515V13.7475V13.7434V13.7394V13.7354V13.7313V13.7273V13.7232V13.7192V13.7152V13.7111V13.7071V13.703V13.699V13.6949V13.6909V13.6869V13.6828V13.6788V13.6747V13.6707V13.6667V13.6626V13.6586V13.6545V13.6505V13.6465V13.6424V13.6384V13.6343V13.6303V13.6263V13.6222V13.6182V13.6141V13.6101V13.6061V13.602V13.598V13.5939V13.5899V13.5858V13.5818V13.5778V13.5737V13.5697V13.5656V13.5616V13.5576V13.5535V13.5495V13.5454V13.5414V13.5374V13.5333V13.5293V13.5252V13.5212V13.5172V13.5131V13.5091V13.505V13.501V13.4969V13.4929V13.4889V13.4848V13.4808V13.4767V13.4727V13.4687V13.4646V13.4606V13.4565V13.4525V13.4485V13.4444V13.4404V13.4363V13.4323V13.4283V13.4242V13.4202V13.4161V13.4121V13.408V13.404V13.4V13.3959V13.3919V13.3878V13.3838V13.3798V13.3757V13.3717V13.3676V13.3636V13.3596V13.3555V13.3515V13.3474V13.3434V13.3394V13.3353V13.3313V13.3272V13.3232V13.3192V13.3151V13.3111V13.307V13.303V13.2989V13.2949V13.2909V13.2868V13.2828V13.2787V13.2747V13.2707V13.2666V13.2626V13.2585V13.2545V13.2505V13.2464V13.2424V13.2383V13.2343V13.2303V13.2262V13.2222V13.2181V13.2141V13.21V13.206V13.202V13.1979V13.1939V13.1898V13.1858V13.1818V13.1777V13.1737V13.1696V13.1656V13.1616V13.1575V13.1535V13.1494V13.1454V13.1414V13.1373V13.1333V13.1292V13.1252V13.1211V13.1171V13.1131V13.109V13.105V13.1009V13.0969V13.0929V13.0888V13.0848V13.0807V13.0767V13.0727V13.0686V13.0646V13.0605V13.0565V13.0525V13.0484V13.0444V13.0403V13.0363V13.0323V13.0282V13.0242V13.0201V13.0161V13.012V13.008V13.004V12.9999V12.9959V12.9918V12.9878V12.9838V12.9797V12.9757V12.9716V12.9676V12.9636V12.9595V12.9555V12.9514V12.9474V12.9434V12.9393V12.9353V12.9312V12.9272V12.9231V12.9191V12.9151V12.911V12.907V12.9029V12.8989V12.8949V12.8908V12.8868V12.8827V12.8787V12.8747V12.8706V12.8666V12.8625V12.8585V12.8545V12.8504V12.8464V12.8423V12.8383V12.8342V12.8302V12.8262V12.8221V12.8181V12.814V12.81V12.806V12.8019V12.7979V12.7938V12.7898V12.7858V12.7817V12.7777V12.7736V12.7696V12.7656V12.7615V12.7575V12.7534V12.7494V12.7454V12.7413V12.7373V12.7332V12.7292V12.7251V12.7211V12.7171V12.713V12.709V12.7049V12.7009V12.6969V12.6928V12.6888V12.6847V12.6807V12.6767V12.6726V12.6686V12.6645V12.6605V12.6565V12.6524V12.6484V12.6443V12.6403V12.6362V12.6322V12.6282V12.6241V12.6201V12.616V12.612V12.608V12.6039V12.5999V12.5958V12.5918V12.5878V12.5837V12.5797V12.5756V12.5716V12.5676V12.5635V12.5595V12.5554V12.5514V12.5473V12.5433V12.5393V12.5352V12.5312V12.5271V12.5231V12.5191V12.515V12.511V12.5069V12.5029V12.4989V12.4948V12.4908V12.4867V12.4827V12.4787V12.4746V12.4706V12.4665V12.4625V12.4584V12.4544V12.4504V12.4463V12.4423V12.4382V12.4342V12.4302V12.4261V12.4221V12.418V12.414V12.41V12.4059V12.4019V12.3978V12.3938V12.3898V12.3857V12.3817V12.3776V12.3736V12.3696V12.3655V12.3615V12.3574V12.3534V12.3493V12.3453V12.3413V12.3372V12.3332V12.3291V12.3251V12.3211V12.317V12.313V12.3089V12.3049V12.3009V12.2968V12.2928V12.2887V12.2847V12.2807V12.2766V12.2726V12.2685V12.2645V12.2604V12.2564V12.2524V12.2483V12.2443V12.2402V12.2362V12.2322V12.2281V12.2241V12.22V12.216V12.212V12.2079V12.2039V12.1998V12.1958V12.1918V12.1877V12.1837V12.1796V12.1756V12.1715V12.1675V12.1635V12.1594V12.1554V12.1513V12.1473V12.1433V12.1392V12.1352V12.1311V12.1271V12.1231V12.119V12.115V12.1109V12.1069V12.1029V12.0988V12.0948V12.0907V12.0867V12.0827V12.0786V12.0746V12.0705V12.0665V12.0624V12.0584V12.0544V12.0503V12.0463V12.0422V12.0382V12.0342V12.0301V12.0261V12.022V12.018V12.014V12.0099V12.0095V12.0055V12.0016V11.9976V11.9936V11.9896V11.9856V11.9816V11.9776V11.9736V11.9697V11.9657V11.9617V11.9577V11.9537V11.9497V11.9457V11.9417V11.9378V11.9338V11.9298V11.9258V11.9218V11.9178V11.9138V11.9098V11.9059V11.9019V11.8979V11.8939V11.8899V11.8859V11.8819V11.8779V11.874V11.87V11.866V11.862V11.858V11.854V11.85V11.846V11.8421V11.8381V11.8341V11.8301V11.8261V11.8221V11.8181V11.8141V11.8102V11.8062V11.8022V11.7982V11.7942V11.7902V11.7862V11.7822V11.7783V11.7743V11.7703V11.7663V11.7623V11.7583V11.7543V11.7503V11.7464V11.7424V11.7384V11.7344V11.7304V11.7264V11.7224V11.7184V11.7145V11.7105V11.7065V11.7025V11.6985V11.6945V11.6905V11.6865V11.6826V11.6786V11.6746V11.6706V11.6666V11.6626V11.6586V11.6546V11.6507V11.6467V11.6427V11.6387V11.6347V11.6307V11.6267V11.6227V11.6188V11.6148V11.6108V11.6068V11.6028V11.5988V11.5948V11.5908V11.5869V11.5829V11.5789V11.5749V11.5709V11.5669V11.5629V11.5589V11.555V11.551V11.547V11.543V11.539V11.535V11.531V11.527V11.5231V11.5191V11.5151V11.5111V11.5071V11.5031V11.4991V11.4951V11.4912V11.4872V11.4832V11.4792V11.4752V11.4712V11.4672V11.4632V11.4593V11.4553V11.4513V11.4473V11.4433V11.4393V11.4353V11.4313V11.4274V11.4234V11.4194V11.4154V11.4114V11.4074V11.4034V11.3994V11.3955V11.3915V11.3875V11.3835V11.3795V11.3755V11.3715V11.3675V11.3636V11.3596V11.3556V11.3516V11.3476V11.3436V11.3396V11.3356V11.3317V11.3277V11.3237V11.3197V11.3157V11.3117V11.3077V11.3037V11.2998V11.2958V11.2918V11.2878V11.2838V11.2798V11.2758V11.2718V11.2679V11.2639V11.2599V11.2559V11.2519V11.2479V11.2439V11.2399V11.236V11.232V11.228V11.224V11.22V11.216V11.212V11.208V11.2041V11.2001V11.1961V11.1921V11.1881V11.1841V11.1801V11.1761V11.1722V11.1682V11.1642V11.1602V11.1562V11.1522V11.1482V11.1442V11.1403V11.1363V11.1323V11.1283V11.1243V11.1203V11.1163V11.1123V11.1084V11.1044V11.1004V11.0964V11.0924V11.0884V11.0844V11.0804V11.0765V11.0725V11.0685V11.0645V11.0605V11.0565V11.0525V11.0485V11.0446V11.0406V11.0366V11.0326V11.0286V11.0246V11.0206V11.0166V11.0127V11.0087V11.0047V11.0007V10.9967V10.9927V10.9887V10.9847V10.9808V10.9768V10.9728V10.9688V10.9648V10.9608V10.9568V10.9528V10.9489V10.9449V10.9409V10.9369V10.9329V10.9289V10.9249V10.9209V10.917V10.913V10.909V10.905V10.901V10.897V10.893V10.889V10.8851V10.8811V10.8771V10.8731V10.8691V10.8651V10.8611V10.8571V10.8532V10.8492V10.8452V10.8412V10.8372V10.8332V10.8292V10.8252V10.8213V10.8173V10.8133V10.8093V10.8053V10.8013V10.7973V10.7933V10.7894V10.7854V10.7814V10.7774V10.7734V10.7694V10.7654V10.7614V10.7575V10.7535V10.7495V10.7455V10.7415V10.7375V10.7335V10.7295V10.7256V10.7216V10.7176V10.7136V10.7096V10.7056V10.7016V10.6976V10.6937V10.6897V10.6857V10.6817V10.6777V10.6737V10.6697V10.6657V10.6617V10.6578V10.6538V10.6498V10.6458V10.6418V10.6378V10.6338V10.6298V10.6259V10.6219V10.6179V10.6139V10.6099V10.6059V10.6019V10.5979V10.594V10.59V10.586V10.582V10.578V10.574V10.57V10.566V10.5621V10.5581V10.5541V10.5501V10.5461V10.5421V10.5381V10.5341V10.5302V10.5262V10.5222V10.5182V10.5142V10.5102V10.5062V10.5022V10.4983V10.4943V10.4903V10.4863V10.4823V10.4783V10.4743V10.4703V10.4664V10.4624V10.4584V10.4544V10.4504V10.4464V10.4424V10.4384V10.4345V10.4305V10.4265V10.4225V10.4185V10.4145V10.4105V10.4065V10.4026V10.3986V10.3946V10.3906V10.3866V10.3826V10.3786V10.3746V10.3707V10.3667V10.3627V10.3587V10.3547V10.3507V10.3467V10.3427V10.3388V10.3348V10.3308V10.3268V10.3228V10.3188V10.3148V10.3108V10.3069V10.3029V10.2989V10.2949V10.2909V10.2869V10.2829V10.2789V10.275V10.271V10.267V10.263V10.259V10.255V10.251V10.247V10.2431V10.2391V10.2351V10.2311V10.2271V10.2231V10.2191V10.2151V10.2112V10.2072V10.2032V10.1992V10.1952V10.1912V10.1872V10.1832V10.1793V10.1753V10.1713V10.1673V10.1633V10.1593V10.1553V10.1513V10.1474V10.1434V10.1394V10.1354V10.1314V10.1274V10.1234V10.1194V10.1155V10.1115V10.1075V10.1035V10.0995V10.0955V10.0915V10.0875V10.0836V10.0796V10.0756V10.0716V10.0676V10.0636V10.0596V10.0556V10.0517V10.0477V10.0437V10.0397V10.0357V10.0317V10.0277V10.0237V10.0198V10.0158V10.0118V10.0078V10.0038V9.99982V9.99583V9.99184V9.98786V9.98387V9.97988V9.97589V9.97191V9.96792C10.4042 9.96363 10.4042 9.95898 10.4043 9.95405C10.4044 9.93199 10.4046 9.90425 10.4024 9.87754M10.0043 14.4725L10.4024 9.87754" fill="white" stroke="white" stroke-width="0.2"/>
<path d="M12.5339 13.8646C12.4369 13.8267 12.3788 13.7547 12.3648 13.65M12.5339 13.8646L12.4974 13.9577C12.4975 13.9578 12.4975 13.9578 12.4975 13.9578C12.7532 14.0579 13.0027 13.8668 13.0032 13.5968L12.3648 13.65M12.5339 13.8646C12.7178 13.9367 12.9028 13.8032 12.9032 13.5966C12.904 13.2186 12.9038 12.8408 12.9037 12.4628C12.9036 12.345 12.9036 12.2271 12.9036 12.1092L12.5339 13.8646ZM12.3648 13.65C12.3606 13.6186 12.3591 13.5864 12.3591 13.5541V10.4619C12.3591 10.4138 12.3591 10.3656 12.3739 10.319C12.4133 10.1931 12.532 10.1184 12.667 10.134L12.3648 13.65ZM13.0036 12.1092C13.0036 12.227 13.0036 12.3448 13.0037 12.4627C13.0038 12.8406 13.004 13.2186 13.0032 13.5968L13.0036 12.1092ZM13.0036 12.1092H13.0039V12.0092V12.0069V12.0046V12.0022V11.9999V11.9976V11.9953V11.993V11.9907V11.9884V11.9861V11.9838V11.9815V11.9792V11.9769V11.9745V11.9722V11.9699V11.9676V11.9653V11.963V11.9607V11.9584V11.9561V11.9538V11.9515V11.9492V11.9469V11.9445V11.9422V11.9399V11.9376V11.9353V11.933V11.9307V11.9284V11.9261V11.9238V11.9215V11.9192V11.9168V11.9145V11.9122V11.9099V11.9076V11.9053V11.903V11.9007V11.8984V11.8961V11.8938V11.8915V11.8891V11.8868V11.8845V11.8822V11.8799V11.8776V11.8753V11.873V11.8707V11.8684V11.8661V11.8638V11.8615V11.8591V11.8568V11.8545V11.8522V11.8499V11.8476V11.8453V11.843V11.8407V11.8384V11.8361V11.8338V11.8314V11.8291V11.8268V11.8245V11.8222V11.8199V11.8176V11.8153V11.813V11.8107V11.8084V11.8061V11.8037V11.8014V11.7991V11.7968V11.7945V11.7922V11.7899V11.7876V11.7853V11.783V11.7807V11.7784V11.7761V11.7737V11.7714V11.7691V11.7668V11.7645V11.7622V11.7599V11.7576V11.7553V11.753V11.7507V11.7484V11.746V11.7437V11.7414V11.7391V11.7368V11.7345V11.7322V11.7299V11.7276V11.7253V11.723V11.7207V11.7183V11.716V11.7137V11.7114V11.7091V11.7068V11.7045V11.7022V11.6999V11.6976V11.6953V11.693V11.6907V11.6883V11.686V11.6837V11.6814V11.6791V11.6768V11.6745V11.6722V11.6699V11.6676V11.6653V11.663V11.6606V11.6583V11.656V11.6537V11.6514V11.6491V11.6468V11.6445V11.6422V11.6399V11.6376V11.6353V11.6329V11.6306V11.6283V11.626V11.6237V11.6214V11.6191V11.6168V11.6145V11.6122V11.6099V11.6076V11.6053V11.6029V11.6006V11.5983V11.596V11.5937V11.5914V11.5891V11.5868V11.5845V11.5822V11.5799V11.5776V11.5752V11.5729V11.5706V11.5683V11.566V11.5637V11.5614V11.5591V11.5568V11.5545V11.5522V11.5499V11.5475V11.5452V11.5429V11.5406V11.5383V11.536V11.5337V11.5314V11.5291V11.5268V11.5245V11.5222V11.5199V11.5175V11.5152V11.5129V11.5106V11.5083V11.506V11.5037V11.5014V11.4991V11.4968V11.4945V11.4922V11.4898V11.4875V11.4852V11.4829V11.4806V11.4783V11.476V11.4737V11.4714V11.4691V11.4668V11.4645V11.4622V11.4598V11.4575V11.4552V11.4529V11.4506V11.4483V11.446V11.4437V11.4414V11.4391V11.4368V11.4345V11.4321V11.4298V11.4275V11.4252V11.4229V11.4206V11.4183V11.416V11.4137V11.4114V11.4091V11.4068V11.4044V11.4021V11.3998V11.3975V11.3952V11.3929V11.3906V11.3883V11.386V11.3837V11.3814V11.3791V11.3768V11.3744V11.3721V11.3698V11.3675V11.3652V11.3629V11.3606V11.3583V11.356V11.3537V11.3514V11.3491V11.3467V11.3444V11.3421V11.3398V11.3375V11.3352V11.3329V11.3306V11.3283V11.326V11.3237V11.3214V11.319V11.3167V11.3144V11.3121V11.3098V11.3075V11.3052V11.3029V11.3006V11.2983V11.296V11.2937V11.2914V11.289V11.2867V11.2844V11.2821V11.2798V11.2775V11.2752V11.2729V11.2706V11.2683V11.266V11.2637V11.2613V11.259V11.2567V11.2544V11.2521V11.2498V11.2475V11.2452V11.2429V11.2406V11.2383V11.236V11.2336V11.2313V11.229V11.2267V11.2244V11.2221V11.2198V11.2175V11.2152V11.2129V11.2106V11.2083V11.206V11.2036V11.2013V11.199V11.1967V11.1944V11.1921V11.1898V11.1875V11.1852V11.1829V11.1806V11.1783V11.1759V11.1736V11.1713V11.169V11.1667V11.1644V11.1621V11.1598V11.1575V11.1552V11.1529V11.1506V11.1482V11.1459V11.1436V11.1413V11.139V11.1367V11.1344V11.1321V11.1298V11.1275V11.1252V11.1229V11.1206V11.1182V11.1159V11.1136V11.1113V11.109V11.1067V11.1044V11.1021V11.0998V11.0975V11.0952V11.0929V11.0905V11.0882V11.0859V11.0836V11.0813V11.079V11.0767V11.0744V11.0721V11.0698V11.0675V11.0652V11.0628V11.0605V11.0582V11.0559V11.0536V11.0513V11.049V11.0467V11.0444V11.0421V11.0398V11.0375V11.0352V11.0328V11.0305V11.0282V11.0259V11.0236V11.0213V11.019V11.0167V11.0144V11.0121V11.0098V11.0075V11.0051V11.0028V11.0005V10.9982V10.9959V10.9936V10.9913V10.989V10.9867V10.9844V10.9821V10.9798V10.9774V10.9751V10.9728V10.9705V10.9682V10.9659V10.9636V10.9613V10.959V10.9567V10.9544V10.9521V10.9498V10.9474V10.9451V10.9428V10.9405V10.9382V10.9359V10.9336V10.9313V10.929V10.9267V10.9244V10.9221V10.9197V10.9174V10.9151V10.9128V10.9105V10.9082V10.9059V10.9036V10.9013V10.899V10.8967V10.8944V10.892V10.8897V10.8874V10.8851V10.8828V10.8805V10.8782V10.8759V10.8736V10.8713V10.869V10.8667V10.8644V10.862V10.8597V10.8574V10.8551V10.8528V10.8505V10.8482V10.8459V10.8436V10.8413V10.839V10.8367V10.8343V10.832V10.8297V10.8274C13.0039 10.7874 13.0041 10.747 13.0044 10.7063C13.0049 10.6001 13.0054 10.4919 13.0024 10.3848M13.0036 12.1092L13.0024 10.3848M13.0024 10.3848C12.9971 10.1998 12.8545 10.0549 12.6784 10.0346L13.0024 10.3848Z" fill="white" stroke="white" stroke-width="0.2"/>
<path d="M8.85504 10.3455C8.60405 10.2561 8.36205 10.4435 8.36105 10.7062L8.36105 10.7063C8.35999 11.0082 8.36023 11.3101 8.36047 11.6118C8.36056 11.7273 8.36065 11.8427 8.36067 11.958L8.36029 11.9584V11.9998V12.0005V12.0012V12.0019V12.0026V12.0032V12.0039V12.0046V12.0053V12.006V12.0067V12.0074V12.008V12.0087V12.0094V12.0101V12.0108V12.0115V12.0121V12.0128V12.0135V12.0142V12.0149V12.0156V12.0162V12.0169V12.0176V12.0183V12.019V12.0197V12.0204V12.021V12.0217V12.0224V12.0231V12.0238V12.0245V12.0251V12.0258V12.0265V12.0272V12.0279V12.0286V12.0293V12.0299V12.0306V12.0313V12.032V12.0327V12.0334V12.034V12.0347V12.0354V12.0361V12.0368V12.0375V12.0382V12.0388V12.0395V12.0402V12.0409V12.0416V12.0423V12.0429V12.0436V12.0443V12.045V12.0457V12.0464V12.0471V12.0477V12.0484V12.0491V12.0498V12.0505V12.0512V12.0518V12.0525V12.0532V12.0539V12.0546V12.0553V12.056V12.0566V12.0573V12.058V12.0587V12.0594V12.0601V12.0608V12.0614V12.0621V12.0628V12.0635V12.0642V12.0649V12.0655V12.0662V12.0669V12.0676V12.0683V12.069V12.0697V12.0703V12.071V12.0717V12.0724V12.0731V12.0738V12.0744V12.0751V12.0758V12.0765V12.0772V12.0779V12.0786V12.0792V12.0799V12.0806V12.0813V12.082V12.0827V12.0834V12.084V12.0847V12.0854V12.0861V12.0868V12.0875V12.0881V12.0888V12.0895V12.0902V12.0909V12.0916V12.0923V12.0929V12.0936V12.0943V12.095V12.0957V12.0964V12.0971V12.0977V12.0984V12.0991V12.0998V12.1005V12.1012V12.1019V12.1025V12.1032V12.1039V12.1046V12.1053V12.106V12.1066V12.1073V12.108V12.1087V12.1094V12.1101V12.1108V12.1114V12.1121V12.1128V12.1135V12.1142V12.1149V12.1156V12.1162V12.1169V12.1176V12.1183V12.119V12.1197V12.1203V12.121V12.1217V12.1224V12.1231V12.1238V12.1245V12.1251V12.1258V12.1265V12.1272V12.1279V12.1286V12.1293V12.1299V12.1306V12.1313V12.132V12.1327V12.1334V12.1341V12.1347V12.1354V12.1361V12.1368V12.1375V12.1382V12.1389V12.1395V12.1402V12.1409V12.1416V12.1423V12.143V12.1436V12.1443V12.145V12.1457V12.1464V12.1471V12.1478V12.1484V12.1491V12.1498V12.1505V12.1512V12.1519V12.1526V12.1532V12.1539V12.1546V12.1553V12.156V12.1567V12.1574V12.158V12.1587V12.1594V12.1601V12.1608V12.1615V12.1622V12.1628V12.1635V12.1642V12.1649V12.1656V12.1663V12.1669V12.1676V12.1683V12.169V12.1697V12.1704V12.1711V12.1717V12.1724V12.1731V12.1738V12.1745V12.1752V12.1759V12.1765V12.1772V12.1779V12.1786V12.1793V12.18V12.1807V12.1813V12.182V12.1827V12.1834V12.1841V12.1848V12.1855V12.1861V12.1868V12.1875V12.1882V12.1889V12.1896V12.1902V12.1909V12.1916V12.1923V12.193V12.1937V12.1944V12.195V12.1957V12.1964V12.1971V12.1978V12.1985V12.1992V12.1998V12.2005V12.2012V12.2019V12.2026V12.2033V12.204V12.2046V12.2053V12.206V12.2067V12.2074V12.2081V12.2088V12.2094V12.2101V12.2108V12.2115V12.2122V12.2129V12.2135V12.2142V12.2149V12.2156V12.2163V12.217V12.2177V12.2183V12.219V12.2197V12.2204V12.2211V12.2218V12.2225V12.2231V12.2238V12.2245V12.2252V12.2259V12.2266V12.2273V12.2279V12.2286V12.2293V12.23V12.2307V12.2314V12.2321V12.2327V12.2334V12.2341V12.2348V12.2355V12.2362V12.2368V12.2375V12.2382V12.2389V12.2396V12.2403V12.241V12.2416V12.2423V12.243V12.2437V12.2444V12.2451V12.2458V12.2464V12.2471V12.2478V12.2485V12.2492V12.2499V12.2506V12.2512V12.2519V12.2526V12.2533V12.254V12.2547V12.2553V12.256V12.2567V12.2574V12.2581V12.2588V12.2595V12.2601V12.2608V12.2615V12.2622V12.2629V12.2636V12.2643V12.2649V12.2656V12.2663V12.267V12.2677V12.2684V12.269V12.2697V12.2704V12.2711V12.2718V12.2725V12.2732V12.2738V12.2745V12.2752V12.2759V12.2766V12.2773V12.278V12.2786V12.2793V12.28V12.2807V12.2814V12.2821V12.2827V12.2834V12.2841V12.2848V12.2855V12.2862V12.2869V12.2875V12.2882V12.2889V12.2896V12.2903V12.291V12.2916V12.2923V12.293V12.2937V12.2944V12.2951V12.2958V12.2964V12.2971V12.2978V12.2985V12.2992V12.2999V12.3006V12.3012V12.3019V12.3026V12.3033V12.304V12.3047V12.3053V12.306V12.3067V12.3074V12.3081V12.3088V12.3095V12.3101V12.3108V12.3115V12.3122V12.3129V12.3136V12.3142V12.3149V12.3156V12.3163V12.317V12.3177V12.3184V12.319V12.3197V12.3204V12.3211V12.3218V12.3225V12.3231V12.3238V12.3245V12.3252V12.3259V12.3266V12.3273V12.3279V12.3286V12.3293V12.33V12.3307V12.3314V12.332V12.3327V12.3334V12.3341V12.3348V12.3355V12.3362V12.3368V12.3375V12.3382V12.3389V12.3396V12.3403V12.3409V12.3416V12.3423V12.343V12.3437V12.3444V12.345V12.3457V12.3464V12.3471V12.3478V12.3485V12.3492V12.3498V12.3505C8.36029 12.4482 8.36015 12.546 8.36 12.644C8.35968 12.8647 8.35936 13.086 8.36067 13.3069L8.36067 13.3069C8.3622 13.574 8.61127 13.7589 8.86275 13.6659L8.86283 13.6658C8.94168 13.6366 9.00494 13.5858 9.04701 13.5137C9.08808 13.4434 9.1051 13.3595 9.1051 13.2684V13.2635V13.2585V13.2536V13.2487V13.2438V13.2388V13.2339V13.229V13.224V13.2191V13.2142V13.2093V13.2043V13.1994V13.1945V13.1896V13.1846V13.1797V13.1748V13.1698V13.1649V13.16V13.1551V13.1501V13.1452V13.1403V13.1354V13.1304V13.1255V13.1206V13.1156V13.1107V13.1058V13.1009V13.0959V13.091V13.0861V13.0812V13.0762V13.0713V13.0664V13.0614V13.0565V13.0516V13.0467V13.0417V13.0368V13.0319V13.027V13.022V13.0171V13.0122V13.0072V13.0023V12.9974V12.9925V12.9875V12.9826V12.9777V12.9727V12.9678V12.9629V12.958V12.953V12.9481V12.9432V12.9383V12.9333V12.9284V12.9235V12.9185V12.9136V12.9087V12.9038V12.8988V12.8939V12.889V12.884V12.8791V12.8742V12.8693V12.8643V12.8594V12.8545V12.8496V12.8446V12.8397V12.8348V12.8298V12.8249V12.82V12.8151V12.8101V12.8052V12.8003V12.7953V12.7904V12.7855V12.7806V12.7756V12.7707V12.7658V12.7608V12.7559V12.751V12.7461V12.7411V12.7362V12.7313V12.7264V12.7214V12.7165V12.7116V12.7066V12.7017V12.6968V12.6919V12.6869V12.682V12.6771V12.6721V12.6672V12.6623V12.6574V12.6524V12.6475V12.6426V12.6376V12.6327V12.6278V12.6229V12.6179V12.613V12.6081V12.6031V12.5982V12.5933V12.5884V12.5834V12.5785V12.5736V12.5687V12.5637V12.5588V12.5539V12.5489V12.544V12.5391V12.5342V12.5292V12.5243V12.5194V12.5144V12.5095V12.5046V12.4997V12.4947V12.4898V12.4849V12.4799V12.475V12.4701V12.4652V12.4602V12.4553V12.4504V12.4454V12.4405V12.4356V12.4307V12.4257V12.4208V12.4159V12.4109V12.406V12.4011V12.3962V12.3912V12.3863V12.3814V12.3764V12.3715V12.3666V12.3617V12.3567V12.3518V12.3469V12.3419V12.337V12.3321V12.3272V12.3222V12.3173V12.3124V12.3074V12.3025V12.2976V12.2927V12.2877V12.2828V12.2779V12.2729V12.268V12.2631V12.2582V12.2532V12.2483V12.2434V12.2384V12.2335V12.2286V12.2237V12.2187V12.2138V12.2089V12.2039V12.199V12.1941V12.1892V12.1842V12.1793V12.1744V12.1694V12.1645V12.1596V12.1547V12.1497V12.1448V12.1399V12.1349V12.13V12.1251V12.1202V12.1152V12.1103V12.1054V12.1004V12.0955V12.0906V12.0857V12.0807V12.0758V12.0709V12.0659V12.061V12.0561V12.0512V12.0462V12.0413V12.0364V12.0314V12.0265V12.0216V12.0166V12.0117V12.0068V12.0019V11.9969V11.992V11.9871V11.9821V11.9772V11.9723V11.9674V11.9624V11.9575V11.9526V11.9476V11.9427V11.9378V11.9329V11.9279V11.923V11.9181V11.9131V11.9082V11.9033V11.8984V11.8934V11.8885V11.8836V11.8786V11.8737V11.8688V11.8639V11.8589V11.854V11.8491V11.8441V11.8392V11.8343V11.8293V11.8244V11.8195V11.8146V11.8096V11.8047V11.7998V11.7948V11.7899V11.785V11.7801V11.7751V11.7702V11.7653V11.7603V11.7554V11.7505V11.7456V11.7406V11.7357V11.7308V11.7258V11.7209V11.716V11.7111V11.7061V11.7012V11.6963V11.6913V11.6864V11.6815V11.6765V11.6716V11.6667V11.6618V11.6568V11.6519V11.647V11.642V11.6371V11.6322V11.6273V11.6223V11.6174V11.6125V11.6075V11.6026V11.5977V11.5928V11.5878V11.5829V11.578V11.573V11.5681V11.5632V11.5582V11.5533V11.5484V11.5435V11.5385V11.5336V11.5287V11.5237V11.5188V11.5139V11.509V11.504V11.4991V11.4942V11.4892V11.4843V11.4794V11.4745V11.4695V11.4646V11.4597V11.4547V11.4498V11.4449V11.4399V11.435V11.4301V11.4252V11.4202V11.4153V11.4104V11.4054V11.4005V11.3956V11.3907V11.3857V11.3808V11.3759V11.3709V11.366V11.3611V11.3561V11.3512V11.3463V11.3414V11.3364V11.3315V11.3266V11.3216V11.3167V11.3118V11.3069V11.3019V11.297V11.2921V11.2871V11.2822V11.2773V11.2723V11.2674V11.2625V11.2576V11.2526V11.2477V11.2428V11.2378V11.2329V11.228V11.2231V11.2181V11.2132V11.2083V11.2033V11.1984V11.1935V11.1886V11.1836V11.1787V11.1738V11.1688V11.1639V11.159V11.154V11.1491V11.1442V11.1393V11.1343V11.1294V11.1245V11.1195V11.1146V11.1097V11.1048V11.0998V11.0949V11.09V11.085V11.0801V11.0752V11.0702V11.0653V11.0604V11.0555V11.0505V11.0456V11.0407V11.0357V11.0308V11.0259V11.021V11.016V11.0111V11.0062V11.0012V10.9963V10.9914V10.9864V10.9815V10.9766V10.9717V10.9667V10.9618V10.9569V10.9519V10.947V10.9421V10.9372V10.9322V10.9273V10.9224V10.9174V10.9125V10.9076V10.9026V10.8977V10.8928V10.8879V10.8829V10.878V10.8731V10.8681V10.8632V10.8583V10.8534V10.8484V10.8435V10.8386V10.8336V10.8287V10.8238V10.8188V10.8139V10.809V10.8041V10.7991V10.7942V10.7893V10.7843V10.7794V10.7745V10.7696V10.7646V10.7597V10.7548V10.7498V10.7449C9.1051 10.7108 9.10295 10.6761 9.09803 10.6417L9.098 10.6415C9.07709 10.4971 8.99058 10.3934 8.85504 10.3455ZM8.85504 10.3455C8.85509 10.3455 8.85513 10.3455 8.85517 10.3455L8.8216 10.4397L8.85492 10.3454C8.85496 10.3454 8.855 10.3454 8.85504 10.3455ZM8.99904 10.6558C8.98349 10.5485 8.92245 10.4753 8.8216 10.4397C8.64076 10.3753 8.46181 10.5072 8.46105 10.7066C8.45999 11.0083 8.46023 11.3099 8.46047 11.6115L8.99904 10.6558ZM8.99904 10.6558C9.00321 10.685 9.0051 10.715 9.0051 10.7449V13.2684C9.0051 13.4269 8.94558 13.5285 8.82805 13.5721L8.99904 10.6558Z" fill="white" stroke="white" stroke-width="0.2"/>
<path d="M13.5598 10.7081L13.5598 10.708C13.5608 10.4453 13.8001 10.2571 14.052 10.3456L14.0522 10.3457C14.1901 10.3944 14.2784 10.4996 14.2978 10.6485L14.2978 10.6485C14.3007 10.6713 14.3031 10.6964 14.3031 10.7232C14.3031 11.0081 14.3032 11.2931 14.3032 11.5781C14.3033 12.148 14.3034 12.718 14.3031 13.288L13.5598 10.7081ZM13.5598 10.7081C13.5588 11.01 13.559 11.3119 13.5593 11.6136C13.5594 11.7429 13.5595 11.8721 13.5595 12.0012V12.0017V12.0021V12.0025V12.0029V12.0033V12.0037V12.0041V12.0046V12.005V12.0054V12.0058V12.0062V12.0066V12.0071V12.0075V12.0079V12.0083V12.0087V12.0091V12.0095V12.01V12.0104V12.0108V12.0112V12.0116V12.012V12.0125V12.0129V12.0133V12.0137V12.0141V12.0145V12.015V12.0154V12.0158V12.0162V12.0166V12.017V12.0174V12.0179V12.0183V12.0187V12.0191V12.0195V12.0199V12.0204V12.0208V12.0212V12.0216V12.022V12.0224V12.0229V12.0233V12.0237V12.0241V12.0245V12.0249V12.0253V12.0258V12.0262V12.0266V12.027V12.0274V12.0278V12.0283V12.0287V12.0291V12.0295V12.0299V12.0303V12.0308V12.0312V12.0316V12.032V12.0324V12.0328V12.0332V12.0337V12.0341V12.0345V12.0349V12.0353V12.0357V12.0362V12.0366V12.037V12.0374V12.0378V12.0382V12.0387V12.0391V12.0395V12.0399V12.0403V12.0407V12.0412V12.0416V12.042V12.0424V12.0428V12.0432V12.0437V12.0441V12.0445V12.0449V12.0453V12.0457V12.0461V12.0466V12.047V12.0474V12.0478V12.0482V12.0486V12.0491V12.0495V12.0499V12.0503V12.0507V12.0511V12.0516V12.052V12.0524V12.0528V12.0532V12.0536V12.0541V12.0545V12.0549V12.0553V12.0557V12.0561V12.0566V12.057V12.0574V12.0578V12.0582V12.0586V12.0591V12.0595V12.0599V12.0603V12.0607V12.0611V12.0615V12.062V12.0624V12.0628V12.0632V12.0636V12.064V12.0645V12.0649V12.0653V12.0657V12.0661V12.0665V12.067V12.0674V12.0678V12.0682V12.0686V12.069V12.0695V12.0699V12.0703V12.0707V12.0711V12.0715V12.072V12.0724V12.0728V12.0732V12.0736V12.074V12.0745V12.0749V12.0753V12.0757V12.0761V12.0765V12.077V12.0774V12.0778V12.0782V12.0786V12.079V12.0795V12.0799V12.0803V12.0807V12.0811V12.0815V12.082V12.0824V12.0828V12.0832V12.0836V12.084V12.0845V12.0849V12.0853V12.0857V12.0861V12.0865V12.0869V12.0874V12.0878V12.0882V12.0886V12.089V12.0894V12.0899V12.0903V12.0907V12.0911V12.0915V12.0919V12.0924V12.0928V12.0932V12.0936V12.094V12.0944V12.0949V12.0953V12.0957V12.0961V12.0965V12.0969V12.0974V12.0978V12.0982V12.0986V12.099V12.0994V12.0999V12.1003V12.1007V12.1011V12.1015V12.1019V12.1024V12.1028V12.1032V12.1036V12.104V12.1044V12.1049V12.1053V12.1057V12.1061V12.1065V12.1069V12.1074V12.1078V12.1082V12.1086V12.109V12.1094V12.1099V12.1103V12.1107V12.1111V12.1115V12.1119V12.1124V12.1128V12.1132V12.1136V12.114V12.1144V12.1149V12.1153V12.1157V12.1161V12.1165V12.1169V12.1174V12.1178V12.1182V12.1186V12.119V12.1194V12.1199V12.1203V12.1207V12.1211V12.1215V12.1219V12.1224V12.1228V12.1232V12.1236V12.124V12.1244V12.1249V12.1253V12.1257V12.1261V12.1265V12.1269V12.1274V12.1278V12.1282V12.1286V12.129V12.1294V12.1298V12.1303V12.1307V12.1311V12.1315V12.1319V12.1323V12.1328V12.1332V12.1336V12.134V12.1344V12.1348V12.1353V12.1357V12.1361V12.1365V12.1369V12.1373V12.1378V12.1382V12.1386V12.139V12.1394V12.1398V12.1403V12.1407V12.1411V12.1415V12.1419V12.1423V12.1428V12.1432V12.1436V12.144V12.1444V12.1448V12.1453V12.1457V12.1461V12.1465V12.1469V12.1473V12.1478V12.1482V12.1486V12.149V12.1494V12.1498V12.1503V12.1507V12.1511V12.1515V12.1519V12.1523V12.1528V12.1532V12.1536V12.154V12.1544V12.1548V12.1553V12.1557V12.1561V12.1565V12.1569V12.1573V12.1577V12.1582V12.1586V12.159V12.1594V12.1598V12.1602V12.1607V12.1611V12.1615V12.1619V12.1623V12.1627V12.1632V12.1636V12.164V12.1644V12.1648V12.1652V12.1657V12.1661V12.1665V12.1669V12.1673V12.1677V12.1682V12.1686V12.169V12.1694V12.1698V12.1702V12.1707V12.1711V12.1715V12.1719V12.1723V12.1727V12.1731V12.1736V12.174V12.1744V12.1748V12.1752V12.1756V12.1761V12.1765V12.1769V12.1773V12.1777V12.1781V12.1786V12.179V12.1794V12.1798V12.1802V12.1806V12.1811V12.1815V12.1819V12.1823V12.1827V12.1831V12.1835V12.184V12.1844V12.1848V12.1852V12.1856V12.186V12.1865V12.1869V12.1873V12.1877V12.1881V12.1885V12.189V12.1894V12.1898V12.1902V12.1906V12.191V12.1915V12.1919V12.1923V12.1927V12.1931V12.1935V12.1939V12.1944V12.1948V12.1952V12.1956V12.196V12.1964V12.1969V12.1973V12.1977V12.1981V12.1985V12.1989V12.1993V12.1998V12.2002V12.2006V12.201V12.2014V12.2018V12.2023V12.2027V12.2031V12.2035V12.2039V12.2043V12.2048V12.2052V12.2056V12.206V12.2064V12.2068V12.2072V12.2077V12.2081V12.2085V12.2089V12.2093V12.2097V12.2102V12.2106V12.211V12.2114V12.2118V12.2122V12.2126V12.2131V12.2135V12.2139V12.2143C13.5595 12.3135 13.5594 12.4127 13.5593 12.5121C13.5591 12.7773 13.5588 13.0429 13.5602 13.3082L13.5602 13.3083C13.5617 13.5758 13.8126 13.7602 14.0636 13.6655L14.0637 13.6655M13.5598 10.7081L14.0637 13.6655M14.0637 13.6655C14.2212 13.6061 14.3031 13.4644 14.3031 13.2881L14.0637 13.6655Z" fill="white" stroke="white" stroke-width="0.2"/>
</svg>
