<svg width="63" height="87" viewBox="0 0 63 87" fill="none" xmlns="http://www.w3.org/2000/svg">
<path d="M32.3681 87C30.6197 87.0007 29.4193 85.7806 29.309 83.6499C29.1295 80.1767 28.5033 76.8013 27.4098 73.4905C24.1184 63.5234 17.0396 58.1505 6.26106 57.4842C5.84656 57.4589 5.43136 57.441 5.01823 57.4004C3.08478 57.2093 1.9824 56.125 2.00021 54.4403C2.01734 52.7903 3.1533 51.6307 5.08538 51.5189C7.09968 51.4031 9.11192 51.3439 11.0872 50.8972C19.5917 48.9762 24.5946 43.4908 27.3427 35.7543C28.5081 32.4728 29.1645 29.0847 29.2802 25.6048C29.3152 24.5578 29.4364 23.5188 30.3449 22.7753C31.224 22.0551 32.2154 21.7948 33.3246 22.1729C34.7367 22.6535 35.3594 23.7151 35.417 25.0917C35.5636 28.6228 36.1987 32.0567 37.3135 35.4241C40.6836 45.6009 47.9413 50.9971 58.9712 51.469C61.4432 51.5748 62.7374 52.6052 62.7395 54.469C62.7409 56.0898 61.6734 57.218 59.8654 57.3797C57.6256 57.5808 55.3736 57.6287 53.1709 58.1692C44.9164 60.1953 40.0903 65.6328 37.397 73.1537C36.1843 76.5417 35.5698 80.0509 35.4225 83.6466C35.3355 85.7666 34.1207 86.9987 32.3681 86.9993V87ZM45.8523 54.4683C39.4723 51.039 35.1642 46.1839 32.3414 39.7254C29.5481 46.3144 25.1626 51.0477 18.8888 54.4883C25.2181 57.8557 29.5666 62.734 32.3853 69.2431C35.1882 62.6501 39.5559 57.8976 45.8523 54.4683V54.4683Z" fill="white"/>
<path d="M45.8517 54.4678C39.5553 57.897 35.1875 62.6503 32.3847 69.2426C29.566 62.7335 25.2175 57.8551 18.8882 54.4877C25.162 51.0478 29.5468 46.3139 32.3408 39.7249C35.1636 46.1834 39.4717 51.0378 45.8517 54.4678V54.4678Z" fill="white"/>
<path d="M11.7204 25.0863C11.0456 25.0866 10.5823 24.6157 10.5397 23.7934C10.4705 22.4529 10.2288 21.1502 9.80676 19.8724C8.53647 16.0257 5.80444 13.9521 1.64453 13.6949C1.48455 13.6852 1.32431 13.6782 1.16487 13.6625C0.418663 13.5888 -0.00679296 13.1703 8.20521e-05 12.5201C0.00669264 11.8833 0.445108 11.4358 1.19078 11.3926C1.96819 11.3479 2.7448 11.3251 3.50713 11.1527C6.78942 10.4113 8.72024 8.29425 9.78084 5.30838C10.2306 4.04189 10.4839 2.73431 10.5286 1.39127C10.5421 0.987175 10.5889 0.586165 10.9395 0.299215C11.2788 0.0212566 11.6614 -0.0791887 12.0895 0.0667267C12.6345 0.252204 12.8749 0.661948 12.8971 1.1932C12.9537 2.55602 13.1988 3.88133 13.629 5.18096C14.9297 9.1086 17.7307 11.1912 21.9877 11.3734C22.9417 11.4142 23.4412 11.8119 23.442 12.5312C23.4425 13.1567 23.0306 13.5922 22.3328 13.6546C21.4684 13.7322 20.5992 13.7507 19.7491 13.9593C16.5633 14.7412 14.7007 16.8398 13.6613 19.7424C13.1932 21.05 12.956 22.4044 12.8992 23.7921C12.8656 24.6103 12.3968 25.0858 11.7204 25.0861V25.0863ZM16.9245 12.5309C14.4622 11.2074 12.7995 9.33364 11.7101 6.841C10.632 9.38399 8.93945 11.2108 6.51812 12.5386C8.96087 13.8383 10.6392 15.721 11.727 18.2332C12.8088 15.6887 14.4945 13.8544 16.9245 12.5309V12.5309Z" fill="#D9994D"/>
<path d="M16.923 12.5295C14.4929 13.853 12.8072 15.6875 11.7255 18.2318C10.6376 15.7196 8.95935 13.8369 6.5166 12.5372C8.93793 11.2096 10.6302 9.38259 11.7086 6.8396C12.798 9.33223 14.4607 11.2058 16.923 12.5295V12.5295Z" fill="#D9994D"/>
<path d="M54.4752 43C54.0448 43.0002 53.7494 42.6998 53.7222 42.1754C53.678 41.3204 53.5239 40.4896 53.2547 39.6746C52.4445 37.2212 50.7021 35.8986 48.0489 35.7346C47.9468 35.7284 47.8446 35.7239 47.7429 35.7139C47.267 35.6669 46.9957 35.4 47.0001 34.9853C47.0043 34.5791 47.2839 34.2937 47.7595 34.2662C48.2553 34.2377 48.7506 34.2231 49.2368 34.1132C51.3303 33.6403 52.5617 32.2901 53.2382 30.3857C53.5251 29.5779 53.6866 28.7439 53.7151 27.8873C53.7237 27.6296 53.7536 27.3739 53.9772 27.1908C54.1936 27.0136 54.4376 26.9495 54.7107 27.0426C55.0583 27.1609 55.2116 27.4222 55.2257 27.761C55.2618 28.6302 55.4182 29.4755 55.6925 30.3044C56.5221 32.8094 58.3086 34.1377 61.0237 34.2539C61.6322 34.28 61.9508 34.5336 61.9513 34.9924C61.9516 35.3913 61.6888 35.669 61.2438 35.7089C60.6925 35.7583 60.1381 35.7701 59.5959 35.9032C57.564 36.4019 56.3761 37.7404 55.7131 39.5917C55.4146 40.4257 55.2633 41.2894 55.2271 42.1745C55.2057 42.6964 54.9066 42.9997 54.4752 42.9998V43ZM57.7944 34.9922C56.224 34.1481 55.1635 32.953 54.4687 31.3632C53.7811 32.9851 52.7016 34.1502 51.1572 34.9971C52.7152 35.826 53.7856 37.0268 54.4795 38.6291C55.1694 37.0062 56.2445 35.8363 57.7944 34.9922V34.9922Z" fill="#D9994D"/>
<path d="M57.7934 34.9911C56.2435 35.8352 55.1684 37.0052 54.4785 38.628C53.7846 37.0257 52.7142 35.8249 51.1562 34.996C52.7006 34.1492 53.7799 32.984 54.4677 31.3621C55.1625 32.9519 56.223 34.1468 57.7934 34.9911V34.9911Z" fill="#D9994D"/>
</svg>
