<svg width="24" height="24" viewBox="0 0 24 24" fill="none" xmlns="http://www.w3.org/2000/svg">
<path d="M15.3705 19.25C15.3705 19.4489 15.2911 19.6397 15.1498 19.7803C15.0084 19.921 14.8167 20 14.6169 20H7.51214C6.84611 19.9993 6.20757 19.7356 5.73661 19.2669C5.26566 18.7983 5.00075 18.1628 5 17.5V6.5C5.00075 5.83719 5.26566 5.20173 5.73661 4.73306C6.20757 4.26438 6.84611 4.00074 7.51214 4H14.6169C14.8167 4 15.0084 4.07902 15.1498 4.21967C15.2911 4.36032 15.3705 4.55109 15.3705 4.75C15.3705 4.94891 15.2911 5.13968 15.1498 5.28033C15.0084 5.42098 14.8167 5.5 14.6169 5.5H7.51214C7.24572 5.50029 6.9903 5.60574 6.80192 5.79321C6.61354 5.98069 6.50757 6.23487 6.50728 6.5V17.5C6.50757 17.7651 6.61352 18.0193 6.80191 18.2068C6.9903 18.3943 7.24572 18.4997 7.51214 18.5H14.6169C14.8167 18.5 15.0084 18.579 15.1498 18.7197C15.2911 18.8603 15.3705 19.0511 15.3705 19.25V19.25ZM18.7793 11.4697L15.1979 7.90556C15.1282 7.83464 15.045 7.77819 14.9533 7.73946C14.8615 7.70074 14.7629 7.68052 14.6632 7.67997C14.5636 7.67942 14.4648 7.69855 14.3726 7.73626C14.2804 7.77397 14.1966 7.82951 14.1261 7.89966C14.0556 7.9698 13.9998 8.05317 13.962 8.14492C13.9241 8.23668 13.9049 8.335 13.9054 8.4342C13.906 8.53339 13.9263 8.63149 13.9653 8.72282C14.0042 8.81414 14.0609 8.89687 14.1322 8.96622L16.4269 11.25H10.494C10.2941 11.25 10.1024 11.329 9.96111 11.4697C9.81977 11.6103 9.74037 11.8011 9.74037 12C9.74037 12.1989 9.81977 12.3897 9.96111 12.5303C10.1024 12.671 10.2941 12.75 10.494 12.75H16.4269L14.1321 15.0337C14.0618 15.1033 14.006 15.186 13.9678 15.2771C13.9297 15.3682 13.91 15.4658 13.9099 15.5645C13.9097 15.6632 13.9292 15.7609 13.967 15.8521C14.0049 15.9432 14.0605 16.0261 14.1306 16.0958C14.2007 16.1656 14.284 16.2209 14.3756 16.2586C14.4672 16.2963 14.5654 16.3157 14.6645 16.3155C14.7637 16.3154 14.8618 16.2958 14.9533 16.2578C15.0449 16.2199 15.128 16.1644 15.1979 16.0944L18.7793 12.5303C18.9206 12.3897 19 12.1989 19 12C19 11.8011 18.9206 11.6103 18.7793 11.4697V11.4697Z" fill="white" fill-opacity="0.6"/>
</svg>
