<svg width="65" height="84" viewBox="0 0 65 84" fill="none" xmlns="http://www.w3.org/2000/svg">
<path d="M6.2574 57.6422C6.90333 58.1293 7.76458 58.3729 8.84113 58.3729C9.91768 58.3729 10.7789 58.1023 11.4249 57.561C12.0708 56.9657 12.6629 56.0185 13.2012 54.7195L17.0133 45.7199L16.9986 45.7201L17.4808 44.6163L17.8094 43.8406L20.8412 36.9245L32.1441 9.97927C32.1631 9.9341 32.2073 9.90471 32.2562 9.90471C32.3051 9.90471 32.3492 9.93398 32.3682 9.979L43.426 36.1664L43.4301 36.1664L47.0778 44.8685L51.3111 54.7195C51.8494 55.9644 52.4684 56.8845 53.1681 57.4798C53.8679 58.0752 54.8099 58.3729 55.9941 58.3729C57.0707 58.3729 57.905 58.1564 58.4971 57.7234C59.0892 57.2363 59.4391 56.5868 59.5467 55.7749C59.6544 54.9089 59.466 53.9618 58.9815 52.9334L37.1006 3.57219C36.5623 2.27321 35.8626 1.3531 35.0013 0.81186C34.1939 0.270619 33.3058 0 32.3369 0C31.3141 0 30.3722 0.270619 29.5109 0.81186C28.7035 1.3531 28.0307 2.27321 27.4924 3.57219L5.61147 52.9334C5.18085 53.9618 5.01937 54.8819 5.12702 55.6937C5.23468 56.5056 5.61147 57.1551 6.2574 57.6422Z" fill="white"/>
<path d="M0 32.8196C0 31.8797 0.761954 31.1177 1.70187 31.1177C2.64179 31.1177 3.40374 31.8797 3.40374 32.8196V39.2396C3.40374 40.1795 2.64179 40.9414 1.70187 40.9414C0.761954 40.9414 0 40.1795 0 39.2396V32.8196Z" fill="#F72585"/>
<path d="M61.2677 32.8196C61.2677 31.8797 62.0296 31.1177 62.9695 31.1177C63.9094 31.1177 64.6714 31.8797 64.6714 32.8196V39.2396C64.6714 40.1795 63.9094 40.9414 62.9695 40.9414C62.0296 40.9414 61.2677 40.1795 61.2677 39.2396V32.8196Z" fill="#F72585"/>
<path d="M6.80732 30.3636C6.80732 29.4237 7.56927 28.6618 8.50919 28.6618C9.44911 28.6618 10.2111 29.4237 10.2111 30.3636V41.6955C10.2111 42.6354 9.44911 43.3973 8.50919 43.3973C7.56927 43.3973 6.80732 42.6354 6.80732 41.6955V30.3636Z" fill="#B5179E"/>
<path d="M34.0372 30.3636C34.0372 29.4237 34.7991 28.6618 35.7391 28.6618C36.679 28.6618 37.4409 29.4237 37.4409 30.3636V41.6955C37.4409 42.6354 36.679 43.3973 35.7391 43.3973C34.7991 43.3973 34.0372 42.6354 34.0372 41.6955V30.3636Z" fill="#480CA8"/>
<path d="M13.6152 32.8196C13.6152 31.8797 14.3772 31.1177 15.3171 31.1177C16.257 31.1177 17.019 31.8797 17.019 32.8196V39.2396C17.019 40.1795 16.257 40.9414 15.3171 40.9414C14.3772 40.9414 13.6152 40.1795 13.6152 39.2396V32.8196Z" fill="#7209B7"/>
<path d="M40.8451 32.8196C40.8451 31.8797 41.6071 31.1177 42.547 31.1177C43.4869 31.1177 44.2489 31.8797 44.2489 32.8196V39.2396C44.2489 40.1795 43.4869 40.9414 42.547 40.9414C41.6071 40.9414 40.8451 40.1795 40.8451 39.2396V32.8196Z" fill="#560BAD"/>
<path d="M20.4226 30.3636C20.4226 29.4237 21.1845 28.6618 22.1244 28.6618C23.0643 28.6618 23.8263 29.4237 23.8263 30.3636V41.6955C23.8263 42.6354 23.0643 43.3973 22.1244 43.3973C21.1845 43.3973 20.4226 42.6354 20.4226 41.6955V30.3636Z" fill="#560BAD"/>
<path d="M47.6524 30.3636C47.6524 29.4237 48.4144 28.6618 49.3543 28.6618C50.2942 28.6618 51.0562 29.4237 51.0562 30.3636V41.6955C51.0562 42.6354 50.2942 43.3973 49.3543 43.3973C48.4144 43.3973 47.6524 42.6354 47.6524 41.6955V30.3636Z" fill="#7209B7"/>
<path d="M27.2299 25.4505C27.2299 24.5106 27.9918 23.7487 28.9317 23.7487C29.8717 23.7487 30.6336 24.5106 30.6336 25.4505V46.6061C30.6336 47.546 29.8717 48.308 28.9317 48.308C27.9918 48.308 27.2299 47.546 27.2299 46.6061V25.4505Z" fill="#480CA8"/>
<path d="M54.4597 25.4505C54.4597 24.5106 55.2217 23.7487 56.1616 23.7487C57.1015 23.7487 57.8635 24.5106 57.8635 25.4505V46.6061C57.8635 47.546 57.1015 48.308 56.1616 48.308C55.2217 48.308 54.4597 47.546 54.4597 46.6061V25.4505Z" fill="#B5179E"/>
<path d="M0.745783 83.9999C0.531478 83.9999 0.360033 83.9524 0.23145 83.8574C0.102867 83.7623 0.0278597 83.6356 0.00642917 83.4772C-0.0150014 83.3188 0.0171445 83.1392 0.102867 82.9386L4.45863 73.3071C4.56578 73.0537 4.69972 72.8741 4.86045 72.7685C5.0319 72.6629 5.21941 72.6101 5.423 72.6101C5.61588 72.6101 5.79268 72.6629 5.95341 72.7685C6.12485 72.8741 6.26415 73.0537 6.3713 73.3071L10.7271 82.9386C10.8235 83.1392 10.861 83.324 10.8396 83.493C10.8181 83.6514 10.7485 83.7782 10.6306 83.8732C10.5128 83.9577 10.3467 83.9999 10.1324 83.9999C9.89663 83.9999 9.70912 83.9419 9.56982 83.8257C9.43052 83.7095 9.30729 83.53 9.20014 83.2871L8.07504 80.7208L8.83046 81.1644H1.9834L2.72275 80.7208L1.61372 83.2871C1.50657 83.5405 1.3887 83.7254 1.26012 83.8415C1.13153 83.9471 0.960089 83.9999 0.745783 83.9999ZM5.39086 74.5427L2.96385 80.2139L2.56202 79.8337H8.23576L7.86609 80.2139L5.423 74.5427H5.39086Z" fill="white"/>
<path d="M13.3844 83.9999C13.1701 83.9999 12.9986 83.9524 12.87 83.8574C12.7415 83.7623 12.6664 83.6356 12.645 83.4772C12.6236 83.3188 12.6557 83.1392 12.7415 82.9386L17.0972 73.3071C17.2044 73.0537 17.3383 72.8741 17.499 72.7685C17.6705 72.6629 17.858 72.6101 18.0616 72.6101C18.2545 72.6101 18.4313 72.6629 18.592 72.7685C18.7634 72.8741 18.9027 73.0537 19.0099 73.3071L23.3657 82.9386C23.4621 83.1392 23.4996 83.324 23.4782 83.493C23.4567 83.6514 23.3871 83.7782 23.2692 83.8732C23.1513 83.9577 22.9853 83.9999 22.771 83.9999C22.5352 83.9999 22.3477 83.9419 22.2084 83.8257C22.0691 83.7095 21.9459 83.53 21.8387 83.2871L20.7136 80.7208L21.469 81.1644H14.622L15.3613 80.7208L14.2523 83.2871C14.1452 83.5405 14.0273 83.7254 13.8987 83.8415C13.7701 83.9471 13.5987 83.9999 13.3844 83.9999ZM18.0294 74.5427L15.6024 80.2139L15.2006 79.8337H20.8744L20.5047 80.2139L18.0616 74.5427H18.0294Z" fill="white"/>
<path d="M26.9873 83.8891C26.698 83.8891 26.473 83.8151 26.3123 83.6673C26.1623 83.5089 26.0872 83.2871 26.0872 83.0019V73.6081C26.0872 73.323 26.1623 73.1065 26.3123 72.9586C26.473 72.8002 26.698 72.721 26.9873 72.721H30.0894C31.9539 72.721 33.3897 73.2015 34.3969 74.1625C35.4149 75.113 35.9239 76.4912 35.9239 78.2971C35.9239 79.1948 35.7953 79.9921 35.5381 80.6891C35.281 81.3861 34.9006 81.9723 34.3969 82.4475C33.904 82.9122 33.2986 83.2712 32.5807 83.5247C31.8628 83.7676 31.0324 83.8891 30.0894 83.8891H26.9873ZM27.7588 82.5109H29.993C30.7002 82.5109 31.3109 82.4264 31.8253 82.2574C32.3503 82.0779 32.7897 81.8139 33.1433 81.4653C33.4969 81.1168 33.7594 80.6786 33.9308 80.1505C34.1023 79.6225 34.188 79.0047 34.188 78.2971C34.188 76.8925 33.8344 75.8417 33.1272 75.1447C32.4307 74.4477 31.386 74.0992 29.993 74.0992H27.7588V82.5109Z" fill="white"/>
<path d="M39.7649 83.9999C39.5185 83.9999 39.3256 83.9313 39.1863 83.794C39.0577 83.6567 38.9934 83.4666 38.9934 83.2237V73.3863C38.9934 73.1329 39.0631 72.9428 39.2024 72.816C39.3417 72.6788 39.5292 72.6101 39.7649 72.6101C39.9899 72.6101 40.1614 72.6524 40.2793 72.7368C40.4078 72.8108 40.5257 72.9481 40.6329 73.1487L44.844 80.8951H44.3457L48.5407 73.1487C48.6479 72.9481 48.7604 72.8108 48.8783 72.7368C48.9961 72.6524 49.1676 72.6101 49.3926 72.6101C49.6283 72.6101 49.8105 72.6788 49.9391 72.816C50.0677 72.9428 50.132 73.1329 50.132 73.3863V83.2237C50.132 83.4666 50.0677 83.6567 49.9391 83.794C49.8212 83.9313 49.6391 83.9999 49.3926 83.9999C49.1462 83.9999 48.9586 83.9313 48.8301 83.794C48.7015 83.6567 48.6372 83.4666 48.6372 83.2237V75.0497H48.9908L45.2619 81.8455C45.1761 82.0039 45.0851 82.1201 44.9886 82.194C44.8922 82.268 44.7582 82.3049 44.5868 82.3049C44.4154 82.3049 44.2761 82.268 44.1689 82.194C44.0618 82.1096 43.9653 81.9934 43.8796 81.8455L40.1185 75.0338H40.5043V83.2237C40.5043 83.4666 40.44 83.6567 40.3114 83.794C40.1935 83.9313 40.0114 83.9999 39.7649 83.9999Z" fill="white"/>
<path d="M54.4126 83.9999C54.1662 83.9999 53.9733 83.9313 53.834 83.794C53.7054 83.6567 53.6411 83.4666 53.6411 83.2237V73.3863C53.6411 73.1329 53.7108 72.9428 53.8501 72.816C53.9894 72.6788 54.1769 72.6101 54.4126 72.6101C54.6376 72.6101 54.8091 72.6524 54.927 72.7368C55.0555 72.8108 55.1734 72.9481 55.2806 73.1487L59.4917 80.8951H58.9934L63.1884 73.1487C63.2956 72.9481 63.4081 72.8108 63.526 72.7368C63.6438 72.6524 63.8153 72.6101 64.0403 72.6101C64.276 72.6101 64.4582 72.6788 64.5868 72.816C64.7154 72.9428 64.7797 73.1329 64.7797 73.3863V83.2237C64.7797 83.4666 64.7154 83.6567 64.5868 83.794C64.4689 83.9313 64.2868 83.9999 64.0403 83.9999C63.7939 83.9999 63.6063 83.9313 63.4778 83.794C63.3492 83.6567 63.2849 83.4666 63.2849 83.2237V75.0497H63.6385L59.9096 81.8455C59.8238 82.0039 59.7328 82.1201 59.6363 82.194C59.5399 82.268 59.4059 82.3049 59.2345 82.3049C59.0631 82.3049 58.9238 82.268 58.8166 82.194C58.7095 82.1096 58.613 81.9934 58.5273 81.8455L54.7662 75.0338H55.152V83.2237C55.152 83.4666 55.0877 83.6567 54.9591 83.794C54.8412 83.9313 54.6591 83.9999 54.4126 83.9999Z" fill="white"/>
</svg>
