<svg width="24" height="24" viewBox="0 0 24 24" fill="none" xmlns="http://www.w3.org/2000/svg">
<path d="M7.27347 21.001C7.06919 20.9583 6.86138 20.9275 6.66107 20.8711C5.37859 20.5101 4.56763 19.5209 4.51127 18.1745C4.45272 16.7838 4.60549 15.4128 5.13424 14.1105C5.47544 13.2696 5.97118 12.5423 6.80195 12.0981C7.31441 11.8242 7.86386 11.6935 8.43884 11.7054C8.62023 11.7093 8.81086 11.8009 8.9764 11.8907C9.24319 12.0356 9.49018 12.2161 9.74905 12.3759C11.2543 13.3053 12.7604 13.3044 14.2644 12.3724C14.473 12.2429 14.6866 12.1179 14.8825 11.9708C15.2426 11.701 15.6384 11.6675 16.0664 11.73C17.2335 11.9017 18.0581 12.541 18.6141 13.5611C19.1103 14.4715 19.334 15.4608 19.433 16.48C19.4841 17.0035 19.5083 17.5318 19.5017 18.0574C19.4828 19.6274 18.405 20.7959 16.8434 20.968C16.8047 20.9724 16.7672 20.9896 16.7289 21.001H7.27347Z" fill="white"/>
<path d="M11.8845 11.6731C9.46965 11.6586 7.53823 9.71485 7.55628 7.31763C7.57433 4.91161 9.51324 3 11.9069 3C14.2588 3 16.2488 4.95123 16.2276 7.34889C16.2065 9.7602 14.268 11.6877 11.8845 11.6731V11.6731Z" fill="white"/>
</svg>
