<svg width="32" height="33" viewBox="0 0 32 33" fill="none" xmlns="http://www.w3.org/2000/svg">
<path d="M26.7602 28.0202C26.2135 27.8468 25.6535 27.6602 25.1069 27.4869C24.5869 27.3269 24.0669 27.1535 23.5469 27.0068C22.4935 26.6868 21.5735 26.1268 20.8002 25.3402C16.1069 20.6335 11.4002 15.9402 6.70688 11.2469C6.64022 11.1802 6.58688 11.1135 6.53355 11.0468C5.97355 11.5535 5.90688 12.5268 6.37355 13.1535C6.46688 13.2735 6.56022 13.3802 6.66688 13.4868C8.08022 14.9002 9.49355 16.3135 10.9069 17.7269C11.0135 17.8469 11.1069 18.0069 11.1469 18.1669C11.2002 18.3935 11.0935 18.5802 10.8935 18.6869C10.6935 18.8069 10.4802 18.7935 10.2802 18.6602C10.2135 18.6202 10.1602 18.5535 10.0935 18.5002C8.68022 17.0869 7.26688 15.6735 5.85355 14.2602C4.61355 13.0068 4.61355 11.3269 5.86688 10.0868C5.97355 9.99352 6.08022 9.90018 6.20022 9.79352C5.81355 9.40685 5.45355 9.04685 5.09355 8.68685C4.68021 8.27352 4.46688 7.79352 4.54688 7.20685C4.57355 6.99352 4.64021 6.75352 4.76021 6.58018C5.10688 6.06018 5.53355 5.59352 6.06688 5.27352C6.69355 4.88685 7.44021 4.96685 7.97355 5.46018C8.40022 5.84685 8.80021 6.28685 9.21355 6.71352C9.28021 6.67352 9.32022 6.63352 9.36022 6.60685C9.60022 6.43352 9.88022 6.44685 10.0935 6.64685C10.1602 6.70018 10.2269 6.76685 10.2802 6.83352C15.0135 11.5668 19.7335 16.3002 24.4802 21.0202C25.5069 22.0335 26.2402 23.1802 26.6135 24.5668C26.8402 25.4202 27.1335 26.2602 27.4002 27.1135C27.5469 27.6068 27.5069 27.7535 27.1202 28.0469H26.7602V28.0202ZM13.1869 16.1002C13.9869 15.3002 14.7869 14.5002 15.5735 13.7135C13.6269 11.7668 11.6669 9.80685 9.73355 7.87352C8.94688 8.66018 8.14688 9.46018 7.34688 10.2602C9.28022 12.1935 11.2402 14.1535 13.1869 16.1002ZM16.0135 18.9002C17.9602 20.8469 19.9202 22.8069 21.8669 24.7535C22.6402 23.9802 23.4402 23.1802 24.2269 22.4069C22.2802 20.4602 20.3202 18.5002 18.3735 16.5669C17.5869 17.3402 16.8002 18.1402 16.0269 18.9135L16.0135 18.9002ZM16.4002 14.5802C15.6135 15.3669 14.8135 16.1669 14.0402 16.9402C14.4135 17.3135 14.8002 17.6869 15.1735 18.0602C15.9602 17.2869 16.7469 16.4868 17.5335 15.7002C17.1602 15.3268 16.7735 14.9402 16.4002 14.5802ZM24.9602 23.3802C24.2402 24.1002 23.5335 24.8069 22.8269 25.5135C23.8269 25.9935 24.9469 26.2335 26.0802 26.6202C25.6802 25.4869 25.4669 24.3669 24.9602 23.3802ZM8.44021 7.46018C8.05355 7.08685 7.66688 6.70018 7.26688 6.32685C7.01355 6.08685 6.73355 6.10018 6.46688 6.32685C6.32021 6.46018 6.20022 6.60685 6.05355 6.74018C5.48022 7.24685 5.50688 7.56685 6.05355 8.06018C6.36022 8.34018 6.65355 8.66018 6.94688 8.95352C7.44022 8.44685 7.92021 7.98018 8.44021 7.44685V7.46018Z" fill="white"/>
</svg>
