<svg width="414" height="305" viewBox="0 0 414 305" fill="none" xmlns="http://www.w3.org/2000/svg">
<path d="M91.9135 84.1425L14.6948 135.797L90.7548 249.5L167.973 197.845L91.9135 84.1425Z" fill="#BDBDBD"/>
<path d="M128.07 192.471L127.196 197.894L88.8076 192.361L89.6817 186.938L128.07 192.471Z" fill="#E0E0E0"/>
<path d="M108.738 173.125L114.244 173.916L108.14 211.713L102.627 210.915L108.738 173.125Z" fill="#E0E0E0"/>
<path d="M73.4121 125.087C73.4672 125.163 65.7316 130.441 56.1309 136.855C46.5303 143.27 38.7053 148.418 38.6502 148.335C38.5951 148.252 46.3307 142.981 55.9314 136.56C65.532 130.138 73.3226 125.004 73.4121 125.087Z" fill="#E0E0E0"/>
<path d="M101.78 117.954C101.835 118.036 88.9657 126.735 73.0403 137.389C57.115 148.043 44.1351 156.611 44.0938 156.535C44.0526 156.46 56.8947 147.747 72.8407 137.093C88.7868 126.439 101.725 117.871 101.78 117.954Z" fill="#E0E0E0"/>
<path d="M107.472 126.462C107.527 126.544 94.6576 135.25 78.7322 145.904C62.8068 156.557 49.827 165.126 49.7857 165.043C49.7445 164.96 62.6004 156.261 78.5326 145.601C94.4649 134.94 107.417 126.379 107.472 126.462Z" fill="#E0E0E0"/>
<path d="M113.164 134.977C113.219 135.06 100.349 143.766 84.4237 154.412C68.4984 165.059 55.5186 173.641 55.5186 173.559C55.5186 173.476 68.3263 164.77 84.2585 154.117C100.191 143.463 113.109 134.895 113.164 134.977Z" fill="#E0E0E0"/>
<path d="M118.834 143.485C118.889 143.568 106.02 152.267 90.0944 162.92C74.1691 173.574 61.1893 182.142 61.1549 182.06C61.1204 181.977 73.9832 173.278 89.9293 162.624C105.875 151.971 118.834 143.402 118.834 143.485Z" fill="#E0E0E0"/>
<path d="M350.123 160.33L285.272 203.711L349.148 299.2L414 255.819L350.123 160.33Z" fill="#C9C8C8"/>
<path d="M380.495 251.325L379.759 255.881L347.516 251.236L348.259 246.68L380.495 251.325Z" fill="#E0E0E0"/>
<path d="M364.26 235.078L368.885 235.746L363.758 267.486L359.126 266.819L364.26 235.078Z" fill="#E0E0E0"/>
<path d="M334.563 194.768C334.618 194.851 328.128 199.29 320.062 204.678C311.997 210.067 305.417 214.375 305.362 214.313C305.307 214.251 311.804 209.799 319.863 204.403C327.922 199.007 334.508 194.651 334.563 194.768Z" fill="#E0E0E0"/>
<path d="M358.41 188.743C358.465 188.825 347.667 196.148 334.322 205.088C320.978 214.028 310.056 221.227 310.001 221.144C309.946 221.062 320.744 213.739 334.088 204.792C347.433 195.845 358.334 188.66 358.41 188.743Z" fill="#E0E0E0"/>
<path d="M363.193 195.891C363.248 195.974 352.45 203.296 339.106 212.243C325.761 221.19 314.839 228.375 314.784 228.293C314.729 228.21 325.493 220.922 338.872 211.975C352.251 203.028 363.152 195.816 363.193 195.891Z" fill="#E0E0E0"/>
<path d="M367.97 203.024C368.025 203.107 357.22 210.429 343.882 219.376C330.544 228.323 319.615 235.508 319.56 235.425C319.505 235.343 330.303 228.027 343.648 219.073C356.992 210.119 367.921 202.955 367.97 203.024Z" fill="#E0E0E0"/>
<path d="M372.787 210.188C372.842 210.271 362.044 217.587 348.699 226.533C335.355 235.48 324.433 242.665 324.378 242.59C324.323 242.514 335.121 235.184 348.465 226.237C361.81 217.291 372.697 210.106 372.787 210.188Z" fill="#E0E0E0"/>
<path d="M247.526 88.3229L176.765 50.4766L121.037 154.67L191.798 192.516L247.526 88.3229Z" fill="#C9C8C8"/>
<path d="M179.687 159.921L175.2 161.455L163.803 129.956L168.297 128.414L179.687 159.921Z" fill="#E0E0E0"/>
<path d="M186.569 137.32L188.207 141.842L156.92 152.557L155.282 148.036L186.569 137.32Z" fill="#E0E0E0"/>
<path d="M208.798 90.848C208.743 90.9512 201.572 87.2211 192.77 82.5206C183.967 77.82 176.886 73.9178 176.941 73.8146C176.996 73.7114 184.174 77.4415 192.976 82.142C201.779 86.8426 208.853 90.7379 208.798 90.848Z" fill="#E0E0E0"/>
<path d="M225.784 109.586C225.729 109.689 213.85 103.44 199.253 95.6356C184.656 87.8312 172.873 81.417 172.928 81.3138C172.983 81.2105 184.855 87.4527 199.452 95.2639C214.049 103.075 225.839 109.483 225.784 109.586Z" fill="#E0E0E0"/>
<path d="M221.613 117.383C221.558 117.486 209.679 111.244 195.082 103.432C180.485 95.6212 168.703 89.2139 168.758 89.1106C168.813 89.0074 180.685 95.2564 195.282 103.061C209.879 110.865 221.668 117.279 221.613 117.383Z" fill="#E0E0E0"/>
<path d="M217.442 125.181C217.387 125.284 205.509 119.042 190.911 111.238C176.314 103.433 164.532 97.0397 164.587 96.9159C164.642 96.792 176.514 103.055 191.111 110.859C205.708 118.664 217.497 125.078 217.442 125.181Z" fill="#E0E0E0"/>
<path d="M213.272 132.977C213.217 133.081 201.338 126.838 186.741 119.034C172.144 111.23 160.355 104.815 160.417 104.712C160.479 104.609 172.344 110.851 186.941 118.656C201.538 126.46 213.327 132.874 213.272 132.977Z" fill="#E0E0E0"/>
<path opacity="0.2" d="M213.636 0H211.861V30.2678H213.636V0Z" fill="black"/>
<path d="M171.297 66.8876H254.2C254.2 66.8876 246.547 30.2812 212.122 30.2812C181.504 30.2812 171.297 66.8876 171.297 66.8876Z" fill="#B5179E"/>
<path d="M213.636 0H211.861V30.2678H213.636V0Z" fill="#B5179E"/>
<path d="M397.336 302.702C397.336 302.799 308.384 302.881 198.675 302.881C88.966 302.881 0 302.819 0 302.702C0 302.585 88.9384 302.523 198.675 302.523C308.411 302.523 397.336 302.599 397.336 302.702Z" fill="#263238"/>
<path d="M21.9953 259.593C23.1589 259.677 24.2936 259.994 25.3318 260.526C26.37 261.058 27.2903 261.794 28.0379 262.69C29.5243 264.492 30.5768 266.611 31.1142 268.884C32.2773 273.233 31.5616 278.374 30.3228 282.703C25.6153 281.017 22.7042 275.993 21.3759 273.35C19.3113 269.18 18.0794 260.371 21.9747 259.586" fill="#7209B7"/>
<path d="M37.1018 287.984C36.3949 286.888 35.9907 285.624 35.9303 284.321C35.8699 283.018 36.1553 281.722 36.7577 280.565C37.379 279.419 38.2223 278.409 39.2386 277.592C40.2548 276.776 41.4235 276.17 42.6764 275.81C43.8257 275.452 45.1609 275.307 46.1588 275.975C46.6086 276.315 46.959 276.77 47.1732 277.292C47.3875 277.813 47.4578 278.383 47.3769 278.941C47.1963 280.059 46.7212 281.109 46.0005 281.983C43.7087 285.087 40.9283 287.668 37.0537 287.984" fill="#7209B7"/>
<path d="M37.6251 302.527C37.5229 302.235 37.4514 301.933 37.4117 301.626C37.2878 300.979 37.1227 300.146 36.9231 299.148C36.3053 296.415 36.1333 293.601 36.4138 290.814C36.7383 288.013 37.8051 285.349 39.5039 283.099C40.0229 282.426 40.6214 281.818 41.2864 281.289C41.4671 281.145 41.6554 281.012 41.8507 280.89C41.9128 280.838 41.9824 280.796 42.0572 280.766C41.1866 281.509 40.3914 282.337 39.6828 283.236C38.0736 285.489 37.0603 288.112 36.7373 290.862C36.2968 294.069 36.8405 297.008 37.1571 299.12C37.3222 300.173 37.4599 301.027 37.5356 301.619C37.5898 301.919 37.6197 302.222 37.6251 302.527V302.527Z" fill="#263238"/>
<path d="M23.5098 266.219C23.5884 266.327 23.6531 266.445 23.7025 266.57C23.8263 266.845 23.9915 267.189 24.1842 267.623C24.604 268.538 25.189 269.866 25.8979 271.511C27.3156 274.808 29.2151 279.391 31.1972 284.498C33.1792 289.604 34.8654 294.264 36.0147 297.657C36.6066 299.35 37.0677 300.726 37.3911 301.683C37.5357 302.137 37.6458 302.502 37.7352 302.784C37.7844 302.91 37.819 303.042 37.8385 303.176C37.7687 303.059 37.7132 302.935 37.6733 302.804C37.5701 302.529 37.4393 302.171 37.2672 301.724L35.8151 297.732C34.5832 294.367 32.8627 289.715 30.8875 284.615C28.9123 279.515 27.0403 274.918 25.6777 271.601C24.9894 269.97 24.4595 268.641 24.0672 267.671C23.8883 267.23 23.7438 266.879 23.6336 266.597C23.5819 266.475 23.5405 266.348 23.5098 266.219V266.219Z" fill="#263238"/>
<path d="M32.0297 292.899C30.6136 290.541 28.6567 288.554 26.3207 287.103C23.9847 285.651 21.3367 284.776 18.5957 284.551C17.2193 284.454 15.5263 284.688 14.9069 285.927C14.2875 287.166 15.1133 288.68 16.0631 289.685C18.081 291.796 20.6787 293.262 23.5287 293.899C26.3786 294.536 29.3534 294.315 32.0779 293.263" fill="#7209B7"/>
<path d="M20.7154 288.287C21.0072 288.273 21.2996 288.284 21.5894 288.322C21.9287 288.34 22.2666 288.379 22.6011 288.439C22.9934 288.514 23.4545 288.556 23.9362 288.693C24.4747 288.807 25.0057 288.954 25.526 289.134C26.1289 289.327 26.7195 289.557 27.2947 289.822C28.6178 290.415 29.8692 291.156 31.0249 292.031C32.1672 292.927 33.2018 293.953 34.1081 295.087C34.4994 295.581 34.8603 296.098 35.1886 296.635C35.4854 297.1 35.7565 297.58 36.0007 298.074C36.2075 298.476 36.3913 298.89 36.5513 299.313C36.6893 299.626 36.8065 299.948 36.9023 300.276C37.0042 300.551 37.0802 300.834 37.1294 301.123C37.0537 301.123 36.7233 299.939 35.7942 298.177C35.5412 297.704 35.2633 297.244 34.9615 296.801C34.6261 296.279 34.2631 295.776 33.8741 295.293C32.074 293.069 29.7784 291.297 27.1708 290.118C26.5721 289.856 26.0009 289.609 25.4434 289.43C24.9316 289.243 24.4101 289.085 23.8812 288.955C21.9542 288.425 20.7085 288.363 20.7154 288.287Z" fill="#263238"/>
<path d="M333.118 72.5956C331.095 73.0567 330.111 75.3897 329.918 77.4544C329.725 79.519 329.987 81.7076 329.12 83.5933C328.143 85.713 325.81 87.2821 325.734 89.6152C325.686 91.0398 326.532 92.3681 326.491 93.8064C326.422 96.1464 324.041 97.9358 323.91 100.248C323.821 101.934 324.942 103.545 324.674 105.21C324.467 106.504 323.456 107.523 323.029 108.761C322.183 111.239 323.883 113.957 326.092 115.348C327.329 116.126 328.722 116.624 330.172 116.808C331.623 116.992 333.096 116.857 334.488 116.413C335.881 115.969 337.16 115.226 338.236 114.236C339.311 113.246 340.158 112.033 340.716 110.682C341.941 107.708 341.673 104.357 341.405 101.157C340.579 91.1729 339.964 81.1753 339.56 71.1641" fill="#263238"/>
<path d="M321.859 124.141L315.665 142.034L289.76 143.411L285.438 153.046L312.485 155.799C313.763 156.323 315.134 156.583 316.515 156.563C317.897 156.543 319.259 156.243 320.522 155.682C321.784 155.12 322.919 154.309 323.858 153.296C324.798 152.284 325.523 151.091 325.988 149.791L333.208 129.639L321.859 124.141Z" fill="#B78876"/>
<path d="M375.409 292.979C375.409 292.979 356.428 232.677 356.022 230.723C355.658 228.947 362.904 185.555 363.827 174.289L338.177 175.246V175.5L327.275 176.106L337.034 299.38H348.837L347.667 258.465C354.949 278.004 365.382 297.921 365.382 297.921L375.409 292.979Z" fill="#B78876"/>
<path d="M348.149 273.141C348.149 272.77 348.005 259.432 348.005 259.432C347.86 260.23 343.483 247.856 343.586 247.106C343.641 246.714 348.149 273.141 348.149 273.141Z" fill="#A36957"/>
<path d="M343.091 241.242C343.03 241.487 343.004 241.74 343.015 241.992C342.977 242.68 342.977 243.369 343.015 244.057C343.015 244.491 343.077 244.959 343.132 245.468C343.187 245.977 343.263 246.514 343.38 247.071C343.624 248.289 343.949 249.489 344.35 250.664C345.203 253.162 346.153 255.344 346.821 256.927C347.137 257.615 347.413 258.269 347.647 258.792C347.731 259.035 347.847 259.266 347.991 259.48C347.954 259.242 347.884 259.011 347.784 258.792C347.626 258.338 347.385 257.684 347.096 256.879C346.49 255.268 345.582 253.066 344.735 250.595C344.335 249.437 344.006 248.256 343.751 247.058C343.627 246.507 343.545 245.977 343.469 245.482C343.393 244.986 343.338 244.518 343.304 244.105C343.221 243.252 343.187 242.564 343.166 242.082C343.179 241.8 343.154 241.517 343.091 241.242V241.242Z" fill="#A36957"/>
<path d="M336.814 300.005V298.897L348.906 298.367L348.94 302.944L348.197 302.992C344.873 303.185 331.301 303.749 329.085 303.081C326.601 302.338 336.814 300.005 336.814 300.005Z" fill="#455A64"/>
<path d="M349.099 302.664C349.03 302.669 348.961 302.669 348.892 302.664L348.3 302.705L346.112 302.802C344.267 302.877 341.714 302.946 338.899 302.96C336.084 302.974 333.524 302.926 331.673 302.871L329.491 302.781H328.892H328.686C328.755 302.775 328.824 302.775 328.892 302.781H329.491L331.68 302.822C333.524 302.822 336.078 302.877 338.892 302.864C341.707 302.85 344.267 302.802 346.112 302.754L348.3 302.698H349.099V302.664Z" fill="#263238"/>
<path d="M332.871 303.052C332.77 302.692 332.632 302.343 332.458 302.012C332.24 301.707 331.988 301.428 331.708 301.18C332.083 301.314 332.395 301.584 332.582 301.937C332.809 302.261 332.912 302.657 332.871 303.052V303.052Z" fill="#263238"/>
<path d="M336.436 301.242C336.436 301.242 336.236 301.056 336.057 300.78C335.878 300.505 335.768 300.264 335.803 300.244C335.837 300.223 336.002 300.423 336.181 300.698C336.36 300.973 336.47 301.221 336.436 301.242Z" fill="#263238"/>
<path d="M337.413 300.757C337.413 300.792 337.192 300.661 336.986 300.475C336.779 300.289 336.628 300.117 336.656 300.09C336.683 300.062 336.876 300.186 337.082 300.372C337.289 300.558 337.44 300.695 337.413 300.757Z" fill="#263238"/>
<path d="M338.026 299.582C337.823 299.657 337.607 299.685 337.392 299.665C337.182 299.693 336.967 299.672 336.766 299.603C336.966 299.529 337.18 299.501 337.392 299.52C337.605 299.491 337.822 299.513 338.026 299.582V299.582Z" fill="#263238"/>
<path d="M338.232 298.79C338.027 298.923 337.788 298.994 337.544 298.996C337.31 299.027 337.072 298.994 336.855 298.9C337.083 298.861 337.313 298.843 337.544 298.845C337.771 298.804 338.001 298.786 338.232 298.79Z" fill="#263238"/>
<path d="M336.03 300.19C335.773 300.238 335.509 300.238 335.252 300.19C334.974 300.157 334.7 300.097 334.433 300.011C334.268 299.966 334.108 299.901 333.958 299.819C333.867 299.765 333.798 299.679 333.765 299.578C333.753 299.52 333.757 299.461 333.778 299.406C333.799 299.351 333.835 299.303 333.882 299.268C334.073 299.176 334.282 299.127 334.493 299.125C334.705 299.123 334.915 299.168 335.107 299.257C335.299 299.346 335.469 299.476 335.605 299.639C335.741 299.802 335.839 299.992 335.892 300.197C335.906 300.265 335.906 300.336 335.892 300.404C335.814 300.155 335.693 299.922 335.534 299.715C335.351 299.509 335.112 299.361 334.846 299.289C334.541 299.19 334.21 299.215 333.924 299.358C333.807 299.447 333.855 299.592 333.986 299.674C334.126 299.75 334.274 299.812 334.426 299.86C334.685 299.945 334.949 300.012 335.218 300.06C335.734 300.17 336.03 300.17 336.03 300.19Z" fill="#263238"/>
<path d="M335.83 300.235C335.73 300.075 335.695 299.883 335.734 299.698C335.759 299.495 335.832 299.302 335.947 299.134C336.012 299.019 336.104 298.922 336.216 298.852C336.328 298.782 336.455 298.742 336.587 298.734C336.665 298.753 336.733 298.8 336.778 298.866C336.823 298.932 336.84 299.013 336.828 299.092C336.811 299.215 336.766 299.333 336.697 299.436C336.593 299.607 336.47 299.766 336.332 299.911C336.213 300.048 336.062 300.155 335.892 300.221C335.892 300.221 336.043 300.083 336.257 299.836C336.38 299.694 336.489 299.539 336.58 299.374C336.683 299.209 336.759 298.913 336.58 298.879C336.401 298.844 336.195 299.058 336.078 299.209C335.968 299.358 335.893 299.53 335.858 299.712C335.829 299.884 335.82 300.06 335.83 300.235V300.235Z" fill="#263238"/>
<path d="M348.844 299.379C348.844 299.379 348.5 299.379 347.956 299.414C347.248 299.499 346.578 299.78 346.022 300.227C345.466 300.673 345.047 301.267 344.811 301.94C344.632 302.456 344.618 302.807 344.591 302.8C344.563 302.793 344.591 302.71 344.591 302.559C344.608 302.337 344.65 302.118 344.715 301.905C344.934 301.201 345.355 300.576 345.926 300.109C346.504 299.65 347.207 299.375 347.942 299.317C348.171 299.29 348.402 299.29 348.631 299.317C348.704 299.329 348.776 299.35 348.844 299.379V299.379Z" fill="#263238"/>
<path d="M343.056 301.702C342.479 301.836 341.887 301.894 341.294 301.874C340.705 301.903 340.115 301.852 339.54 301.722C339.54 301.681 340.324 301.722 341.294 301.722C342.265 301.722 343.049 301.66 343.056 301.702Z" fill="#263238"/>
<path d="M345.41 301.686C345.41 301.686 345.348 301.851 345.266 302.03C345.183 302.209 345.142 302.374 345.1 302.368C345.059 302.361 345.039 302.182 345.135 301.968C345.231 301.755 345.383 301.652 345.41 301.686Z" fill="#263238"/>
<path d="M346.298 300.579C346.298 300.579 346.249 300.73 346.125 300.854C346.002 300.978 345.878 301.06 345.843 301.033C345.809 301.005 345.891 300.881 346.015 300.751C346.139 300.62 346.263 300.544 346.298 300.579Z" fill="#263238"/>
<path d="M347.564 300.068C347.564 300.11 347.399 300.11 347.22 300.172C347.041 300.233 346.917 300.33 346.882 300.302C346.848 300.275 346.951 300.11 347.172 300.034C347.392 299.958 347.578 300.027 347.564 300.068Z" fill="#263238"/>
<path d="M348.466 299.815C348.466 299.856 348.417 299.918 348.314 299.953C348.211 299.987 348.121 299.994 348.108 299.953C348.094 299.911 348.163 299.849 348.259 299.815C348.355 299.78 348.452 299.78 348.466 299.815Z" fill="#263238"/>
<path d="M365.141 298.934L364.687 297.922L375.499 292.492L377.405 296.621L376.717 296.972C373.765 298.507 361.618 304.577 359.319 304.88C356.779 305.245 365.141 298.934 365.141 298.934Z" fill="#455A64"/>
<path d="M377.447 296.328L377.268 296.438L376.738 296.714L374.783 297.705C373.132 298.524 370.833 299.632 368.266 300.802C365.699 301.972 363.345 302.969 361.638 303.678L359.608 304.497L359.057 304.711C358.994 304.74 358.927 304.761 358.858 304.773L359.044 304.683L359.587 304.442L361.597 303.582C363.297 302.852 365.637 301.834 368.204 300.664C370.771 299.494 373.077 298.407 374.742 297.608L376.71 296.665L377.254 296.411L377.447 296.328Z" fill="#263238"/>
<path d="M362.822 303.325C362.583 303.034 362.313 302.771 362.017 302.54C361.694 302.349 361.35 302.197 360.991 302.086C361.386 302.081 361.774 302.197 362.101 302.418C362.428 302.64 362.68 302.956 362.822 303.325V303.325Z" fill="#263238"/>
<path d="M365.306 300.215C365.306 300.215 365.045 300.133 364.77 299.954C364.494 299.775 364.295 299.603 364.315 299.569C364.336 299.534 364.577 299.651 364.852 299.83C365.128 300.009 365.327 300.181 365.306 300.215Z" fill="#263238"/>
<path d="M365.981 299.377C365.981 299.411 365.747 299.377 365.478 299.294C365.21 299.212 365.01 299.108 365.017 299.067C365.191 299.051 365.367 299.079 365.527 299.15C365.788 299.212 365.995 299.308 365.981 299.377Z" fill="#263238"/>
<path d="M366.077 298.055C366.077 298.096 365.85 298.241 365.533 298.392C365.351 298.502 365.146 298.57 364.935 298.591C364.935 298.55 365.162 298.406 365.471 298.254C365.657 298.145 365.863 298.077 366.077 298.055V298.055Z" fill="#263238"/>
<path d="M365.94 297.246C365.94 297.246 365.74 297.521 365.382 297.721C365.179 297.859 364.939 297.931 364.694 297.928C364.891 297.795 365.101 297.682 365.32 297.59C365.657 297.404 365.905 297.212 365.94 297.246Z" fill="#263238"/>
<path d="M364.529 299.432C364.319 299.576 364.086 299.683 363.841 299.749C363.57 299.828 363.294 299.885 363.015 299.921C362.846 299.942 362.675 299.942 362.505 299.921C362.399 299.913 362.3 299.863 362.23 299.783C362.198 299.734 362.181 299.677 362.181 299.618C362.181 299.559 362.198 299.502 362.23 299.453C362.439 299.199 362.73 299.026 363.053 298.964C363.375 298.901 363.71 298.952 363.999 299.109C364.17 299.198 364.32 299.322 364.439 299.473C364.522 299.584 364.556 299.652 364.549 299.659C364.38 299.47 364.177 299.314 363.951 299.198C363.708 299.084 363.438 299.044 363.173 299.081C363.015 299.098 362.862 299.145 362.723 299.22C362.584 299.296 362.461 299.398 362.361 299.522C362.285 299.652 362.361 299.762 362.547 299.783C362.705 299.797 362.864 299.797 363.022 299.783C363.296 299.756 363.567 299.707 363.834 299.639C364.226 299.528 364.529 299.411 364.529 299.432Z" fill="#263238"/>
<path d="M364.336 299.552C364.182 299.443 364.075 299.282 364.033 299.098C363.973 298.904 363.958 298.699 363.992 298.499C364.004 298.367 364.049 298.24 364.124 298.131C364.198 298.021 364.3 297.932 364.418 297.873C364.591 297.818 364.99 298.169 365.017 298.3C365.045 298.43 364.818 298.362 364.804 298.472C364.782 298.667 364.735 298.859 364.666 299.043C364.616 299.22 364.521 299.381 364.391 299.511C364.391 299.511 364.473 299.325 364.57 299.015C364.619 298.833 364.654 298.646 364.673 298.458C364.673 298.265 364.673 297.969 364.453 298.018C364.233 298.066 364.171 298.334 364.122 298.527C364.081 298.706 364.081 298.892 364.122 299.07C364.179 299.237 364.251 299.398 364.336 299.552V299.552Z" fill="#263238"/>
<path d="M375.864 293.43C375.864 293.43 375.533 293.547 375.065 293.829C374.453 294.195 373.955 294.724 373.627 295.357C373.309 295.996 373.173 296.71 373.235 297.421C373.276 297.972 373.407 298.289 373.379 298.302C373.335 298.234 373.3 298.16 373.276 298.082C373.208 297.871 373.16 297.655 373.132 297.435C373.033 296.702 373.16 295.957 373.496 295.298C373.831 294.639 374.36 294.098 375.01 293.746C375.205 293.638 375.41 293.551 375.623 293.485C375.7 293.455 375.781 293.436 375.864 293.43V293.43Z" fill="#263238"/>
<path d="M371.535 297.932C370.564 298.606 369.48 299.101 368.334 299.391C368.334 299.349 369.057 299.074 369.938 298.702C370.819 298.331 371.514 297.897 371.535 297.932Z" fill="#263238"/>
<path d="M373.675 296.947C373.71 296.947 373.675 297.119 373.675 297.319C373.675 297.518 373.675 297.683 373.675 297.697C373.675 297.711 373.538 297.546 373.538 297.319C373.538 297.092 373.641 296.926 373.675 296.947Z" fill="#263238"/>
<path d="M374.026 295.571C374.06 295.571 374.026 295.73 373.985 295.895C373.943 296.06 373.84 296.184 373.806 296.17C373.771 296.156 373.806 296.012 373.847 295.847C373.888 295.681 373.985 295.558 374.026 295.571Z" fill="#263238"/>
<path d="M374.976 294.558C374.976 294.599 374.838 294.661 374.7 294.792C374.563 294.923 374.487 295.06 374.453 295.046C374.418 295.033 374.453 294.84 374.604 294.682C374.756 294.523 374.969 294.558 374.976 294.558Z" fill="#263238"/>
<path d="M375.699 293.993C375.699 293.993 375.699 294.103 375.616 294.179C375.533 294.254 375.458 294.296 375.43 294.268C375.403 294.241 375.43 294.158 375.513 294.082C375.595 294.007 375.671 293.965 375.699 293.993Z" fill="#263238"/>
<path d="M362.161 153.913L360.151 129.343L370.475 129.529C370.475 129.529 370.95 125.902 369.429 117.96C368.493 113.088 365.251 110.101 361.61 108.325V108.256L361.294 108.174C358.297 106.828 355.096 105.993 351.824 105.703L339.126 105.848C339.126 105.848 329.429 104.609 324.082 111.553C322.017 114.216 315.61 132.447 315.61 132.447L330.854 139.784L329.429 129.674C329.429 129.674 329.718 137.003 330.654 139.309C331.171 140.603 332.719 144.622 332.719 144.622L332.519 156.748L362.161 153.913Z" fill="#B5179E"/>
<path d="M355.162 125.781L353.276 133.805H371.053L369.883 120.344L355.162 125.781Z" fill="#B5179E"/>
<path d="M371.053 133.81C370.276 133.667 369.489 133.588 368.699 133.576C367.24 133.493 365.258 133.418 363.001 133.431C360.744 133.445 358.755 133.541 357.296 133.652C356.506 133.679 355.721 133.776 354.949 133.941C355.737 134.003 356.528 134.003 357.316 133.941C358.768 133.892 360.757 133.837 363.001 133.83C365.244 133.824 367.233 133.83 368.692 133.865C369.48 133.909 370.269 133.891 371.053 133.81V133.81Z" fill="#263238"/>
<path d="M354.391 120.281C354.306 120.966 354.288 121.658 354.336 122.346C354.336 123.605 354.391 125.34 354.467 127.26C354.543 129.18 354.632 130.921 354.715 132.174C354.718 132.868 354.792 133.559 354.935 134.238C355.019 133.553 355.038 132.862 354.99 132.174C354.99 130.914 354.935 129.173 354.859 127.253C354.784 125.333 354.694 123.598 354.611 122.339C354.609 121.647 354.535 120.958 354.391 120.281Z" fill="#263238"/>
<g opacity="0.3">
<path d="M338.218 127.234C338.218 127.234 342.169 156.532 353.276 155.754C353.276 155.754 358.28 155.699 359.883 152.375V151.067L338.218 127.234Z" fill="black"/>
</g>
<g opacity="0.3">
<path d="M354.391 122.008L352.265 136.371L353.641 138.89L355.912 133.962L354.949 133.935L354.391 122.008Z" fill="black"/>
</g>
<path d="M332.657 144.636C332.525 144.421 332.424 144.19 332.355 143.947C332.183 143.5 331.955 142.846 331.666 142.027C330.977 139.893 330.41 137.722 329.966 135.524C329.525 133.324 329.244 131.095 329.127 128.855C329.086 127.995 329.072 127.299 329.086 126.79C329.068 126.541 329.084 126.291 329.134 126.047C329.189 126.047 329.23 127.107 329.375 128.8C329.568 131.02 329.883 133.228 330.317 135.414C330.827 137.974 331.439 140.265 331.907 141.91C332.127 142.674 332.313 143.328 332.465 143.865C332.559 144.113 332.624 144.372 332.657 144.636V144.636Z" fill="#263238"/>
<path d="M337.145 153.055C337.048 153.055 336.773 152.456 336.532 151.678C336.325 151.202 336.233 150.683 336.264 150.164C336.567 150.585 336.776 151.066 336.876 151.575C337.074 152.042 337.165 152.548 337.145 153.055V153.055Z" fill="#263238"/>
<path d="M338.679 152.943C338.159 151.562 338.137 150.043 338.617 148.648C338.671 149.363 338.671 150.081 338.617 150.796C338.692 151.509 338.713 152.227 338.679 152.943V152.943Z" fill="#263238"/>
<path d="M331.164 140.123C331.116 140.206 327.571 138.527 323.242 136.366C318.914 134.205 315.438 132.374 315.479 132.285C315.521 132.195 319.072 133.881 323.401 136.042C327.73 138.203 331.205 140.034 331.164 140.123Z" fill="#263238"/>
<path d="M337.413 108.222C337.489 104.739 337.509 101.078 337.509 101.078C337.509 101.078 333.043 100.218 332.265 94.3405C331.522 88.7384 333.6 75.5865 333.6 75.5865C340.125 73.1227 346.903 75.3594 351.37 80.6449L350.262 108.91C350.131 112.193 347.206 114.698 343.696 114.533C340.145 114.361 337.337 111.539 337.413 108.222Z" fill="#B78876"/>
<path d="M337.509 101.08C340.263 101.19 342.993 100.535 345.396 99.1875C345.396 99.1875 343.394 103.159 337.551 102.463L337.509 101.08Z" fill="#A36957"/>
<path d="M348.699 87.5514C348.011 89.1618 346.304 90.4075 346.538 92.1487C346.69 93.2705 347.413 94.3166 347.275 95.4452C347.096 96.8217 345.63 97.8402 345.417 99.2511C345.162 100.979 346.848 102.321 347.516 103.931C348.5 106.285 347.247 108.927 347.213 111.501C347.254 113.456 348.001 115.329 349.317 116.774C350.633 118.219 352.429 119.138 354.37 119.361C355.94 119.492 357.708 119.017 358.5 117.668C359.188 116.553 359.037 115.135 359.436 113.903C360.041 112.059 361.796 110.71 362.189 108.81C362.877 105.369 358.679 102.479 358.954 98.9551C359.071 97.4479 360 96.1403 360.392 94.6813C360.642 93.7225 360.661 92.7181 360.448 91.7504C360.235 90.7826 359.796 89.8791 359.167 89.1136C358.128 87.8817 356.628 87.049 355.726 85.7276C354.728 84.2066 354.694 82.2865 354.35 80.4902C353.888 78.3069 352.88 76.2764 351.42 74.5885C349.96 72.9006 348.096 71.6103 346.002 70.8384C343.908 70.0664 341.653 69.8379 339.446 70.1742C337.24 70.5105 335.155 71.4007 333.387 72.7616C333.387 72.7616 332.389 77.2969 337.048 78.0608C341.707 78.8248 343.861 77.9438 344.384 79.8089C344.261 80.5772 344.322 81.3638 344.561 82.1043C344.8 82.8447 345.211 83.518 345.761 84.069C347.66 86.1199 349.47 85.6794 348.699 87.5514Z" fill="#263238"/>
<path d="M330.118 245.761C330.118 245.761 325.479 201.825 325.211 185.59C324.942 169.355 332.513 153.333 332.513 153.333L362.161 152.102C362.161 152.102 368.025 168.571 368.128 175.501C368.334 188.949 364.556 202.224 364.99 212.892L365.981 245.789" fill="#263238"/>
<path d="M366.979 191.742C366.824 191.877 366.661 192.001 366.49 192.114L366.222 192.3L365.933 192.582C365.678 192.802 365.447 193.049 365.244 193.318C364.288 194.488 363.593 196.587 362.925 199.196C362.584 200.642 362.081 202.046 361.425 203.38C361.225 203.745 360.995 204.093 360.737 204.419C360.613 204.584 360.496 204.763 360.351 204.922L359.897 205.376C359.246 205.984 358.491 206.469 357.667 206.807C356.009 207.537 354.13 207.881 352.423 208.741C350.674 209.682 349.323 211.221 348.617 213.077C347.778 214.942 347.241 216.897 346.552 218.727C345.864 220.558 344.935 222.306 343.455 223.421C342.041 224.404 340.361 224.934 338.638 224.942C337.041 225.038 335.562 224.99 334.233 225.19C333.038 225.314 331.895 225.745 330.916 226.442C330.201 227.001 329.665 227.757 329.375 228.617C329.19 229.159 329.15 229.74 329.258 230.303C329.34 230.688 329.443 230.874 329.423 230.881C329.312 230.708 329.233 230.517 329.189 230.317C329.044 229.743 329.063 229.139 329.244 228.576C329.517 227.673 330.057 226.874 330.792 226.284C331.796 225.527 332.984 225.051 334.233 224.907C335.61 224.687 337.076 224.715 338.652 224.611C340.324 224.601 341.953 224.082 343.325 223.125C344.716 221.91 345.742 220.333 346.291 218.569C346.979 216.759 347.482 214.797 348.356 212.898C349.096 210.966 350.509 209.365 352.334 208.39C354.109 207.509 355.988 207.172 357.605 206.47C358.397 206.142 359.124 205.676 359.753 205.094L360.186 204.66C360.324 204.509 360.441 204.337 360.565 204.178C360.807 203.865 361.021 203.531 361.205 203.18C361.864 201.865 362.374 200.48 362.726 199.051C363.414 196.45 364.164 194.323 365.176 193.146C365.377 192.878 365.608 192.633 365.864 192.417C365.974 192.32 366.07 192.224 366.167 192.148L366.449 191.969C366.621 191.883 366.798 191.807 366.979 191.742V191.742Z" fill="#FAFAFA"/>
<path d="M367.158 171.414C367.189 171.607 367.203 171.803 367.199 171.999C367.197 172.567 367.128 173.133 366.993 173.685C366.4 175.698 365.236 177.496 363.641 178.861C362.589 179.828 361.435 180.68 360.2 181.4C358.872 182.185 357.406 182.935 355.899 183.788C354.315 184.637 352.841 185.675 351.508 186.878C350.14 188.235 349.014 189.816 348.177 191.551C347.333 193.31 346.369 195.01 345.293 196.637C344.746 197.396 344.113 198.089 343.407 198.702C342.711 199.294 341.947 199.8 341.129 200.209C339.651 200.936 338.11 201.528 336.525 201.978C335.052 202.432 333.676 202.838 332.479 203.354C331.392 203.787 330.357 204.341 329.395 205.006C328.672 205.508 328.021 206.108 327.461 206.788C326.993 207.379 326.602 208.026 326.298 208.716C326.347 208.525 326.412 208.338 326.491 208.158C326.717 207.638 327.006 207.148 327.351 206.699C327.9 205.99 328.549 205.364 329.278 204.841C330.245 204.152 331.286 203.575 332.382 203.12C333.708 202.58 335.061 202.109 336.436 201.709C337.998 201.249 339.518 200.654 340.978 199.934C341.753 199.53 342.48 199.04 343.146 198.475C343.825 197.87 344.434 197.191 344.963 196.451C346.024 194.832 346.978 193.144 347.819 191.4C348.682 189.626 349.847 188.014 351.26 186.637C352.617 185.416 354.119 184.366 355.733 183.513C357.247 182.666 358.713 181.93 360.042 181.152C361.273 180.456 362.427 179.63 363.483 178.689C365.064 177.365 366.238 175.621 366.869 173.658C367.046 172.922 367.142 172.17 367.158 171.414V171.414Z" fill="#FAFAFA"/>
<path d="M325.362 187.886C325.335 187.843 325.314 187.797 325.3 187.748C325.249 187.615 325.205 187.48 325.17 187.342C325.052 186.795 325.075 186.226 325.238 185.69C325.624 184.314 327.145 182.545 329.595 181.671C330.82 181.251 332.203 180.983 333.648 180.625C334.849 180.426 335.984 179.943 336.96 179.217C337.935 178.49 338.723 177.54 339.257 176.448C339.649 175.645 339.991 174.82 340.283 173.977C340.821 172.145 341.552 170.375 342.465 168.698C343.51 167.05 345.096 165.816 346.952 165.209C348.64 164.661 350.362 164.225 352.106 163.901C353.664 163.602 355.171 163.088 356.587 162.373C357.786 161.689 358.819 160.749 359.615 159.621C360.79 157.992 361.46 156.053 361.542 154.046C361.545 153.309 361.497 152.574 361.397 151.844C361.605 152.559 361.701 153.302 361.68 154.046C361.653 156.096 361.005 158.091 359.821 159.765C359.016 160.931 357.96 161.902 356.731 162.607C355.297 163.349 353.766 163.884 352.182 164.197C350.454 164.525 348.748 164.964 347.076 165.512C345.294 166.095 343.771 167.28 342.767 168.863C341.87 170.518 341.148 172.262 340.613 174.066C340.316 174.925 339.964 175.764 339.56 176.578C339.153 177.36 338.633 178.079 338.019 178.712C336.81 179.814 335.322 180.564 333.717 180.88C332.258 181.251 330.882 181.485 329.677 181.884C327.289 182.697 325.775 184.369 325.369 185.704C325.202 186.219 325.158 186.766 325.238 187.301C325.297 187.492 325.338 187.688 325.362 187.886V187.886Z" fill="#FAFAFA"/>
<path d="M364.611 225.047C364.639 225.19 364.655 225.335 364.659 225.48C364.672 225.897 364.628 226.314 364.529 226.719C364.096 228.212 363.181 229.519 361.927 230.436C361.09 231.103 360.163 231.65 359.174 232.06C358.121 232.507 356.958 232.865 355.733 233.244C354.461 233.615 353.217 234.075 352.01 234.62C350.756 235.219 349.631 236.059 348.7 237.091C347.695 238.137 346.828 239.286 345.864 240.305C344.942 241.291 343.872 242.127 342.691 242.782C340.682 243.878 338.435 244.465 336.146 244.489C334.614 244.506 333.09 244.252 331.645 243.739C331.253 243.604 330.872 243.441 330.503 243.25C330.369 243.195 330.242 243.123 330.125 243.037C330.263 243.075 330.399 243.123 330.531 243.181C330.909 243.343 331.294 243.485 331.687 243.608C333.129 244.06 334.636 244.272 336.146 244.234C338.384 244.176 340.575 243.579 342.533 242.493C343.677 241.845 344.714 241.026 345.609 240.064C346.552 239.059 347.413 237.917 348.438 236.843C349.424 235.772 350.612 234.907 351.934 234.297C353.16 233.749 354.422 233.289 355.712 232.92C356.924 232.548 358.08 232.232 359.154 231.778C360.114 231.384 361.017 230.864 361.838 230.229C363.071 229.358 363.99 228.113 364.46 226.678C364.561 226.14 364.612 225.594 364.611 225.047V225.047Z" fill="#FAFAFA"/>
<path d="M361.232 133.835L355.492 133.973C355.271 135.13 354.832 136.235 354.198 137.228C349.381 128.9 345.685 117.751 344.763 113.271C344.9 112.824 345.059 112.328 345.258 111.778C345.401 110.941 345.376 110.085 345.183 109.259C345.017 108.261 344.742 106.919 344.66 106.299C344.405 104.4 344.095 104.104 343.434 104.317C342.54 104.613 343.806 109.637 343.07 109.747C342.671 109.802 342.189 108.082 342.051 106.671C341.914 105.26 341.267 100.911 340.806 100.622C340.117 100.195 339.519 100.869 339.697 102.273C339.876 103.677 340.09 107.944 339.346 108.006C338.603 108.068 337.97 100.856 337.97 100.856C337.97 100.856 338.087 99.2865 337.22 99.3209C335.665 99.3897 336.883 106.988 337.013 107.71C337.11 108.206 336.325 108.302 336.229 107.758C336.133 107.215 335.775 100.553 334.164 100.608C332.939 100.608 335.107 106.864 334.419 108.309C333.731 109.754 333.263 103.409 332.1 103.491C331.666 103.526 331.343 103.608 332.141 107.194C332.905 110.043 333.824 112.848 334.894 115.597C336.738 125.542 344.832 157.358 357.515 151.536C364.618 148.274 367.495 133.835 367.495 133.835H361.232Z" fill="#B78876"/>
<path d="M336.766 108.194C336.82 108.208 336.877 108.208 336.931 108.194C337.014 108.169 337.085 108.115 337.132 108.041C337.179 107.968 337.198 107.881 337.186 107.795C337.186 107.368 337.103 106.749 337.007 105.944C336.845 104.973 336.74 103.994 336.69 103.012C336.69 102.434 336.69 101.814 336.724 101.16C336.735 100.828 336.769 100.497 336.828 100.169C336.883 99.8597 337.089 99.4812 337.33 99.5431H337.371C337.612 99.5431 337.805 99.7221 337.881 100.011C337.966 100.311 337.998 100.623 337.977 100.933V100.933C338.119 102.861 338.365 104.779 338.713 106.68C338.768 106.935 338.824 107.196 338.906 107.458C338.943 107.591 338.989 107.723 339.044 107.85C339.079 107.921 339.118 107.99 339.161 108.056C339.192 108.107 339.234 108.149 339.284 108.18C339.334 108.211 339.391 108.23 339.45 108.235C339.55 108.224 339.645 108.184 339.722 108.119C339.799 108.054 339.855 107.967 339.883 107.871C339.943 107.736 339.986 107.595 340.014 107.451C340.068 107.173 340.105 106.893 340.124 106.611C340.187 105.464 340.171 104.315 340.076 103.17C339.989 102.599 339.966 102.019 340.007 101.443C340.032 101.194 340.153 100.964 340.344 100.803C340.389 100.776 340.438 100.76 340.489 100.754C340.54 100.748 340.591 100.753 340.64 100.768C340.699 100.782 340.755 100.805 340.806 100.837C340.841 100.863 340.867 100.899 340.881 100.94C341.098 101.498 341.257 102.077 341.356 102.668C341.48 103.273 341.583 103.9 341.68 104.526C341.776 105.152 341.865 105.785 341.941 106.425C342 107.086 342.106 107.741 342.258 108.387C342.339 108.717 342.443 109.041 342.567 109.357C342.638 109.534 342.735 109.699 342.857 109.846C342.903 109.907 342.966 109.953 343.038 109.98C343.109 110.007 343.187 110.013 343.263 109.997C343.332 109.974 343.395 109.934 343.444 109.879C343.494 109.825 343.528 109.759 343.545 109.687C343.626 109.336 343.652 108.973 343.62 108.614C343.62 108.27 343.579 107.926 343.545 107.595C343.497 107.017 343.441 106.446 343.421 105.882C343.403 105.604 343.403 105.326 343.421 105.049C343.434 104.926 343.465 104.806 343.51 104.691C343.525 104.653 343.546 104.618 343.572 104.588V104.588H343.662C344.116 104.402 344.267 105.035 344.391 105.544C344.515 106.054 344.563 106.632 344.673 107.175C344.852 108.256 345.086 109.336 345.203 110.369C345.283 110.863 345.264 111.368 345.148 111.855C344.983 112.351 344.818 112.84 344.66 113.328V113.376V113.418C345.466 116.799 346.493 120.123 347.736 123.369C348.823 126.308 349.918 128.875 350.874 130.94C351.831 133.004 352.698 134.622 353.29 135.709L353.978 136.941C354.053 137.088 354.143 137.226 354.247 137.354C354.189 137.201 354.117 137.054 354.033 136.913L353.345 135.654C352.781 134.546 351.969 132.901 351.033 130.836C350.097 128.772 349.037 126.205 347.977 123.266C346.764 120.025 345.757 116.71 344.962 113.342V113.438C345.121 112.957 345.279 112.468 345.444 111.979C345.587 111.443 345.616 110.882 345.527 110.334C345.403 109.254 345.176 108.208 344.997 107.12C344.894 106.584 344.825 106.033 344.715 105.469C344.708 105.179 344.659 104.891 344.57 104.615C344.492 104.447 344.358 104.311 344.192 104.23C344.015 104.172 343.825 104.172 343.648 104.23H343.538C343.48 104.249 343.426 104.279 343.38 104.319C343.303 104.384 343.244 104.467 343.208 104.56C343.144 104.709 343.105 104.867 343.09 105.028C343.07 105.326 343.07 105.625 343.09 105.923C343.09 106.501 343.173 107.079 343.221 107.657C343.221 107.994 343.276 108.345 343.29 108.655C343.317 108.966 343.301 109.278 343.242 109.584C343.242 109.653 343.187 109.639 343.242 109.674L343.201 109.632C343.113 109.52 343.043 109.395 342.994 109.261C342.874 108.963 342.775 108.657 342.698 108.345C342.547 107.719 342.444 107.081 342.389 106.439C342.315 105.792 342.226 105.152 342.12 104.519C342.024 103.886 341.914 103.266 341.79 102.647C341.686 102.017 341.511 101.4 341.267 100.809C341.22 100.711 341.146 100.627 341.053 100.569C340.973 100.522 340.888 100.485 340.799 100.458C340.701 100.433 340.598 100.427 340.498 100.441C340.398 100.455 340.301 100.489 340.214 100.541C340.072 100.647 339.953 100.781 339.866 100.935C339.778 101.089 339.723 101.26 339.704 101.436C339.66 101.748 339.66 102.066 339.704 102.379C339.704 102.675 339.773 102.964 339.794 103.253C339.89 104.379 339.91 105.51 339.856 106.639C339.84 106.907 339.805 107.174 339.753 107.437C339.733 107.56 339.698 107.68 339.649 107.795C339.632 107.84 339.606 107.882 339.574 107.919C339.574 107.981 339.526 107.919 339.532 108.001C339.532 107.933 339.532 108.001 339.532 107.912C339.502 107.865 339.474 107.817 339.45 107.767C339.402 107.657 339.36 107.533 339.319 107.416C339.243 107.169 339.188 106.914 339.133 106.666C338.774 104.782 338.515 102.88 338.356 100.968V100.968C338.376 100.622 338.337 100.275 338.239 99.9423C338.193 99.7689 338.1 99.6116 337.97 99.4881C337.903 99.423 337.823 99.3723 337.735 99.3392C337.648 99.3061 337.554 99.2912 337.461 99.2954H337.502C337.386 99.2783 337.267 99.296 337.16 99.3462C337.054 99.3964 336.964 99.4768 336.903 99.5775C336.801 99.7417 336.731 99.9239 336.697 100.114C336.639 100.456 336.607 100.801 336.601 101.147C336.601 101.835 336.601 102.434 336.601 103.019C336.666 104.007 336.792 104.991 336.979 105.964C337.096 106.763 337.186 107.382 337.227 107.802C337.24 107.875 337.227 107.951 337.191 108.016C337.155 108.082 337.097 108.132 337.027 108.16C336.821 108.18 336.759 108.187 336.766 108.194Z" fill="#A36957"/>
<path d="M291.942 143.308C290.599 143.279 289.258 143.435 287.957 143.769C284.399 144.705 278.267 148.422 278.013 153.012H282.472C282.472 153.012 279.974 158.325 280.704 157.829C282.61 156.549 286.395 152.702 286.395 152.702L291.942 143.308Z" fill="#B78876"/>
<path d="M146.363 161.415L122 286.533L118.834 302.913L281.254 302.128C288.549 302.094 295.018 295.618 297.351 285.996L326.16 167.877C327.943 160.575 324.034 152.977 318.5 152.984L154.071 153.156C150.493 153.15 147.285 156.536 146.363 161.415Z" fill="#560BAD"/>
<g opacity="0.5">
<path d="M146.529 161.431L122.166 286.549L119 302.928L281.42 302.144C288.715 302.109 295.184 295.633 297.517 286.012L326.326 167.893C328.108 160.591 324.199 152.993 318.666 153L154.237 153.172C150.658 153.165 147.451 156.551 146.529 161.431Z" fill="#854AC9"/>
</g>
<path d="M265.693 278.042L248.488 139.428C247.8 133.75 243.264 129.511 237.917 129.531L200.203 129.648C198.801 129.664 197.417 129.965 196.136 130.533C194.854 131.101 193.702 131.924 192.749 132.952L174.855 151.995L69.971 152.559C63.5637 152.594 58.636 158.664 59.4825 165.477L75.4561 293.589C76.1443 299.26 80.6797 303.492 86.0134 303.485L268.839 303.121C289.196 303.54 291.144 297.532 291.144 297.532C267.772 302.701 265.693 278.076 265.693 278.042Z" fill="#560BAD"/>
<g opacity="0.5">
<path d="M186.858 250.326L180.692 256.947L133.205 214.222L139.371 207.602L186.858 250.326Z" fill="white"/>
<path d="M178.111 206.133L184.924 212.265L141.959 258.41L135.139 252.278L178.111 206.133Z" fill="white"/>
</g>
<path d="M291.798 71.4212C291.575 71.3273 291.383 71.172 291.246 70.9734C291.108 70.7747 291.03 70.541 291.02 70.2994L290.745 63.9128C290.735 63.7143 290.772 63.5163 290.852 63.3345C290.932 63.1526 291.053 62.9919 291.206 62.865C291.359 62.7382 291.539 62.6486 291.733 62.6035C291.926 62.5584 292.127 62.559 292.321 62.6052C292.854 62.7201 293.404 62.7251 293.939 62.6198C294.474 62.5145 294.982 62.3011 295.431 61.9926C295.845 61.7306 296.201 61.3866 296.477 60.9818C296.753 60.577 296.943 60.12 297.035 59.6389C297.097 59.1518 297.061 58.6572 296.929 58.1843C296.796 57.7114 296.57 57.27 296.264 56.8861C295.942 56.4493 295.536 56.0804 295.071 55.8005C294.606 55.5206 294.09 55.3352 293.553 55.255C292.47 55.1948 291.398 55.5018 290.511 56.1262C289.625 56.7507 288.974 57.6562 288.666 58.6961C288.563 59.0112 288.343 59.2744 288.051 59.4311C287.759 59.5877 287.418 59.6256 287.098 59.5369C286.779 59.4482 286.506 59.2397 286.337 58.9549C286.167 58.67 286.114 58.3308 286.189 58.0079C286.657 56.3723 287.674 54.9478 289.069 53.9739C290.464 53 292.152 52.5362 293.848 52.6604C294.732 52.778 295.582 53.072 296.349 53.5248C297.117 53.9776 297.785 54.58 298.315 55.2963C298.83 55.9601 299.208 56.7206 299.424 57.5327C299.64 58.3448 299.691 59.1921 299.574 60.0243C299.418 60.8554 299.093 61.6456 298.62 62.3463C298.146 63.047 297.534 63.6434 296.822 64.0986C295.789 64.7937 294.583 65.187 293.339 65.2341L293.553 70.1618C293.561 70.3783 293.514 70.5933 293.417 70.7869C293.319 70.9805 293.175 71.1464 292.996 71.2693C292.818 71.3921 292.611 71.4679 292.396 71.4897C292.18 71.5114 291.963 71.4784 291.763 71.3937L291.798 71.4212Z" fill="#560BAD"/>
<path d="M293.683 74.0349C293.698 74.2427 293.65 74.4501 293.547 74.631C293.444 74.8118 293.289 74.9579 293.102 75.0508C292.916 75.1436 292.706 75.179 292.499 75.1526C292.293 75.1261 292.098 75.0389 291.941 74.9021C291.784 74.7652 291.671 74.5849 291.617 74.3838C291.562 74.1827 291.569 73.97 291.635 73.7725C291.701 73.575 291.825 73.4017 291.99 73.2744C292.155 73.1472 292.354 73.0717 292.562 73.0576C292.7 73.0473 292.838 73.0645 292.97 73.1082C293.101 73.1518 293.222 73.2211 293.327 73.312C293.431 73.4029 293.516 73.5136 293.577 73.6377C293.639 73.7618 293.675 73.8968 293.683 74.0349Z" fill="#560BAD"/>
<path d="M269.685 62.4116C269.715 62.2755 269.735 62.1375 269.747 61.9987C269.747 61.6959 269.823 61.3105 269.878 60.7668C269.946 60.0993 270.058 59.4371 270.215 58.7847C270.305 58.3993 270.353 57.9726 270.49 57.5391C270.628 57.1055 270.766 56.6375 270.917 56.1626C271.714 53.8098 272.875 51.5966 274.358 49.6039C276.302 47.0235 278.766 44.8804 281.591 43.3136C283.199 42.407 284.912 41.6998 286.691 41.2076C288.611 40.6987 290.589 40.4396 292.575 40.4368C293.622 40.42 294.668 40.4752 295.707 40.602C296.237 40.6571 296.76 40.7947 297.29 40.8842C297.826 40.976 298.354 41.1047 298.873 41.2696C301.042 41.8758 303.105 42.8112 304.991 44.0431C309.183 46.7624 312.377 50.7726 314.089 55.4675C315.011 57.9824 315.477 60.6416 315.466 63.3201C315.494 66.0794 315.006 68.8198 314.027 71.3998L313.717 72.1843L313.676 72.2876L313.717 72.3908C315.445 76.3618 317.159 80.264 318.776 84.0423L319.065 83.712L308.742 79.7547L308.618 79.7066L308.514 79.8029C305.784 82.449 302.44 84.3782 298.783 85.4188C295.658 86.2791 292.386 86.467 289.183 85.9699C285.98 85.4728 282.919 84.3022 280.201 82.5351C277.976 81.0756 276.014 79.2488 274.4 77.1326C272.06 74.0438 270.545 70.4109 269.995 66.5754C269.912 65.8871 269.843 65.309 269.782 64.786C269.72 64.2629 269.782 63.8363 269.747 63.4715C269.713 63.1067 269.747 62.8659 269.747 62.6663C269.781 62.6611 269.813 62.6431 269.834 62.6159C269.856 62.5888 269.866 62.5545 269.864 62.5198C269.861 62.4852 269.846 62.4529 269.82 62.4293C269.795 62.4057 269.761 62.3926 269.727 62.3926C269.692 62.3926 269.658 62.4057 269.633 62.4293C269.607 62.4529 269.592 62.4852 269.589 62.5198C269.587 62.5545 269.597 62.5888 269.619 62.6159C269.64 62.6431 269.672 62.6611 269.706 62.6663C269.706 62.8659 269.706 63.1343 269.706 63.4715C269.706 63.8087 269.706 64.2767 269.706 64.7998C269.706 65.3228 269.823 65.9216 269.892 66.6029C270.118 68.2582 270.512 69.8862 271.069 71.4617C271.856 73.5423 272.916 75.5093 274.221 77.3116C275.841 79.4654 277.817 81.3273 280.064 82.8173C282.814 84.6285 285.919 85.8339 289.171 86.3536C292.424 86.8733 295.749 86.6954 298.928 85.8317C302.629 84.7805 306.014 82.8326 308.783 80.1608L308.556 80.209L318.879 84.1869L319.395 84.3865L319.168 83.8565C317.53 80.0782 315.837 76.1829 314.117 72.205V72.4046L314.433 71.5994C315.437 68.9631 315.937 66.1616 315.906 63.3407C315.928 60.6053 315.461 57.888 314.53 55.3161C312.781 50.5276 309.516 46.4412 305.232 43.6783C303.299 42.4177 301.181 41.4657 298.955 40.8566C298.429 40.69 297.89 40.5635 297.345 40.4781C296.808 40.3818 296.278 40.2441 295.741 40.196C294.689 40.0653 293.629 40.0055 292.568 40.017C290.55 40.0256 288.542 40.2986 286.595 40.8291C284.792 41.3411 283.057 42.0665 281.426 42.9901C278.573 44.5954 276.093 46.7888 274.152 49.425C272.673 51.4507 271.528 53.6997 270.759 56.0869C270.614 56.5824 270.477 57.0573 270.353 57.4634C270.243 57.8782 270.156 58.2986 270.091 58.7228C269.944 59.3796 269.847 60.0469 269.802 60.7186C269.761 61.2486 269.733 61.6546 269.713 61.9574C269.684 62.107 269.675 62.2597 269.685 62.4116Z" fill="#263238"/>
</svg>
