<svg width="24" height="24" viewBox="0 0 24 24" fill="none" xmlns="http://www.w3.org/2000/svg">
<path d="M18.0488 20.602H5.95166C6.50843 20.602 6.95976 20.1507 6.95976 19.5939C6.95976 19.2228 7.26064 18.9219 7.63182 18.9219H18.3849C18.756 18.9219 19.0569 19.2228 19.0569 19.5939C19.0569 20.1507 18.6056 20.602 18.0488 20.602Z" fill="white"/>
<path d="M17.0171 3.89627C16.8654 3.99584 16.6833 4.0705 16.4103 4.0705C15.5911 4.0705 15.5911 3.39844 14.772 3.39844C13.9529 3.39844 13.9529 4.0705 13.1339 4.0705C12.3148 4.0705 12.3148 3.39844 11.4957 3.39844C10.6767 3.39844 10.6767 4.0705 9.85763 4.0705C9.03862 4.0705 9.03862 3.39844 8.21957 3.39844C7.40049 3.39844 7.40049 4.0705 6.58142 4.0705C6.30839 4.0705 6.12639 3.99584 5.97471 3.89627C5.53209 3.60567 4.94336 3.93555 4.94336 4.46504V19.0581C4.94336 19.3638 5.19874 19.6098 5.50776 19.5945C5.74349 19.5828 5.9446 19.4124 6.00247 19.1836C6.18648 18.4555 6.84712 17.915 7.63162 17.915H17.3765C17.7477 17.915 18.0486 17.6141 18.0486 17.243V4.46517C18.0486 3.93558 17.4598 3.60567 17.0171 3.89627V3.89627ZM12.5041 14.1851C12.5041 14.5563 12.2032 14.8571 11.832 14.8571H7.79963C7.42845 14.8571 7.12757 14.5563 7.12757 14.1851C7.12757 13.8139 7.42845 13.513 7.79963 13.513H11.832C12.2032 13.513 12.5041 13.8139 12.5041 14.1851ZM15.1923 11.8328H7.79963C7.42845 11.8328 7.12757 11.532 7.12757 11.1608C7.12757 10.7896 7.42845 10.4887 7.79963 10.4887H15.1923C15.5635 10.4887 15.8644 10.7896 15.8644 11.1608C15.8644 11.532 15.5635 11.8328 15.1923 11.8328ZM15.1923 8.80855H7.79963C7.42845 8.80855 7.12757 8.50767 7.12757 8.13649C7.12757 7.76531 7.42845 7.46443 7.79963 7.46443H15.1923C15.5635 7.46443 15.8644 7.76531 15.8644 8.13649C15.8644 8.50767 15.5635 8.80855 15.1923 8.80855Z" fill="white"/>
</svg>
