<svg width="211" height="96" viewBox="0 0 211 96" fill="none" xmlns="http://www.w3.org/2000/svg">
<path d="M10.725 86L6.875 79.2H5.225V86H1.725V68.55H8.275C9.625 68.55 10.775 68.7917 11.725 69.275C12.675 69.7417 13.3833 70.3833 13.85 71.2C14.3333 72 14.575 72.9 14.575 73.9C14.575 75.05 14.2417 76.0917 13.575 77.025C12.9083 77.9417 11.9167 78.575 10.6 78.925L14.775 86H10.725ZM5.225 76.575H8.15C9.1 76.575 9.80833 76.35 10.275 75.9C10.7417 75.4333 10.975 74.7917 10.975 73.975C10.975 73.175 10.7417 72.5583 10.275 72.125C9.80833 71.675 9.1 71.45 8.15 71.45H5.225V76.575ZM21.2406 71.375V75.75H27.1156V78.525H21.2406V83.15H27.8656V86H17.7406V68.525H27.8656V71.375H21.2406ZM30.1963 77.25C30.1963 75.5333 30.5796 74 31.3463 72.65C32.1296 71.2833 33.188 70.225 34.5213 69.475C35.8713 68.7083 37.3796 68.325 39.0463 68.325C40.9963 68.325 42.7046 68.825 44.1713 69.825C45.638 70.825 46.663 72.2083 47.2463 73.975H43.2213C42.8213 73.1417 42.2546 72.5167 41.5213 72.1C40.8046 71.6833 39.9713 71.475 39.0213 71.475C38.0046 71.475 37.0963 71.7167 36.2963 72.2C35.513 72.6667 34.8963 73.3333 34.4463 74.2C34.013 75.0667 33.7963 76.0833 33.7963 77.25C33.7963 78.4 34.013 79.4167 34.4463 80.3C34.8963 81.1667 35.513 81.8417 36.2963 82.325C37.0963 82.7917 38.0046 83.025 39.0213 83.025C39.9713 83.025 40.8046 82.8167 41.5213 82.4C42.2546 81.9667 42.8213 81.3333 43.2213 80.5H47.2463C46.663 82.2833 45.638 83.675 44.1713 84.675C42.7213 85.6583 41.013 86.15 39.0463 86.15C37.3796 86.15 35.8713 85.775 34.5213 85.025C33.188 84.2583 32.1296 83.2 31.3463 81.85C30.5796 80.5 30.1963 78.9667 30.1963 77.25ZM53.7357 71.375V75.75H59.6107V78.525H53.7357V83.15H60.3607V86H50.2357V68.525H60.3607V71.375H53.7357ZM67.0414 68.55V86H63.5414V68.55H67.0414ZM83.2244 73.95C83.2244 74.8833 82.9994 75.7583 82.5494 76.575C82.1161 77.3917 81.4244 78.05 80.4744 78.55C79.5411 79.05 78.3577 79.3 76.9244 79.3H73.9994V86H70.4994V68.55H76.9244C78.2744 68.55 79.4244 68.7833 80.3744 69.25C81.3244 69.7167 82.0327 70.3583 82.4994 71.175C82.9827 71.9917 83.2244 72.9167 83.2244 73.95ZM76.7744 76.475C77.7411 76.475 78.4577 76.2583 78.9244 75.825C79.3911 75.375 79.6244 74.75 79.6244 73.95C79.6244 72.25 78.6744 71.4 76.7744 71.4H73.9994V76.475H76.7744ZM97.5844 68.55V71.375H92.9344V86H89.4344V71.375H84.7844V68.55H97.5844ZM115.095 86L111.245 79.2H109.595V86H106.095V68.55H112.645C113.995 68.55 115.145 68.7917 116.095 69.275C117.045 69.7417 117.753 70.3833 118.22 71.2C118.703 72 118.945 72.9 118.945 73.9C118.945 75.05 118.612 76.0917 117.945 77.025C117.278 77.9417 116.287 78.575 114.97 78.925L119.145 86H115.095ZM109.595 76.575H112.52C113.47 76.575 114.178 76.35 114.645 75.9C115.112 75.4333 115.345 74.7917 115.345 73.975C115.345 73.175 115.112 72.5583 114.645 72.125C114.178 71.675 113.47 71.45 112.52 71.45H109.595V76.575ZM125.611 71.375V75.75H131.486V78.525H125.611V83.15H132.236V86H122.111V68.525H132.236V71.375H125.611ZM148.141 73.95C148.141 74.8833 147.916 75.7583 147.466 76.575C147.033 77.3917 146.341 78.05 145.391 78.55C144.458 79.05 143.275 79.3 141.841 79.3H138.916V86H135.416V68.55H141.841C143.191 68.55 144.341 68.7833 145.291 69.25C146.241 69.7167 146.95 70.3583 147.416 71.175C147.9 71.9917 148.141 72.9167 148.141 73.95ZM141.691 76.475C142.658 76.475 143.375 76.2583 143.841 75.825C144.308 75.375 144.541 74.75 144.541 73.95C144.541 72.25 143.591 71.4 141.691 71.4H138.916V76.475H141.691ZM158.726 86.175C157.093 86.175 155.593 85.7917 154.226 85.025C152.86 84.2583 151.776 83.2 150.976 81.85C150.176 80.4833 149.776 78.9417 149.776 77.225C149.776 75.525 150.176 74 150.976 72.65C151.776 71.2833 152.86 70.2167 154.226 69.45C155.593 68.6833 157.093 68.3 158.726 68.3C160.376 68.3 161.876 68.6833 163.226 69.45C164.593 70.2167 165.668 71.2833 166.451 72.65C167.251 74 167.651 75.525 167.651 77.225C167.651 78.9417 167.251 80.4833 166.451 81.85C165.668 83.2 164.593 84.2583 163.226 85.025C161.86 85.7917 160.36 86.175 158.726 86.175ZM158.726 83.05C159.776 83.05 160.701 82.8167 161.501 82.35C162.301 81.8667 162.926 81.1833 163.376 80.3C163.826 79.4167 164.051 78.3917 164.051 77.225C164.051 76.0583 163.826 75.0417 163.376 74.175C162.926 73.2917 162.301 72.6167 161.501 72.15C160.701 71.6833 159.776 71.45 158.726 71.45C157.676 71.45 156.743 71.6833 155.926 72.15C155.126 72.6167 154.501 73.2917 154.051 74.175C153.601 75.0417 153.376 76.0583 153.376 77.225C153.376 78.3917 153.601 79.4167 154.051 80.3C154.501 81.1833 155.126 81.8667 155.926 82.35C156.743 82.8167 157.676 83.05 158.726 83.05ZM179.255 86L175.405 79.2H173.755V86H170.255V68.55H176.805C178.155 68.55 179.305 68.7917 180.255 69.275C181.205 69.7417 181.914 70.3833 182.38 71.2C182.864 72 183.105 72.9 183.105 73.9C183.105 75.05 182.772 76.0917 182.105 77.025C181.439 77.9417 180.447 78.575 179.13 78.925L183.305 86H179.255ZM173.755 76.575H176.68C177.63 76.575 178.339 76.35 178.805 75.9C179.272 75.4333 179.505 74.7917 179.505 73.975C179.505 73.175 179.272 72.5583 178.805 72.125C178.339 71.675 177.63 71.45 176.68 71.45H173.755V76.575ZM198.146 68.55V71.375H193.496V86H189.996V71.375H185.346V68.55H198.146Z" fill="#464646"/>
<path d="M2.42916 39C1.73113 39 1.1727 38.8373 0.753878 38.5118C0.335057 38.1864 0.0907446 37.7524 0.0209411 37.21C-0.0488625 36.6676 0.0558428 36.0529 0.335057 35.3658L14.5226 2.38665C14.8716 1.51878 15.3079 0.904032 15.8314 0.542419C16.3899 0.180806 17.0006 0 17.6638 0C18.292 0 18.8679 0.180806 19.3914 0.542419C19.9498 0.904032 20.4036 1.51878 20.7526 2.38665L34.9401 35.3658C35.2543 36.0529 35.3764 36.6857 35.3066 37.2643C35.2368 37.8067 35.0099 38.2406 34.626 38.5661C34.2421 38.8554 33.7011 39 33.0031 39C32.2353 39 31.6245 38.8011 31.1708 38.4033C30.717 38.0056 30.3157 37.3908 29.9666 36.5591L26.302 27.7719L28.7625 29.2907H6.46031L8.86854 27.7719L5.2562 36.5591C4.90719 37.427 4.52327 38.0598 4.10445 38.4576C3.68563 38.8192 3.1272 39 2.42916 39ZM17.5591 6.61752L9.65383 26.0362L8.34501 24.7344H26.8255L25.6214 26.0362L17.6638 6.61752H17.5591Z" fill="black"/>
<path d="M43.5955 39C42.8975 39 42.339 38.8373 41.9202 38.5118C41.5014 38.1864 41.2571 37.7524 41.1873 37.21C41.1175 36.6676 41.2222 36.0529 41.5014 35.3658L55.689 2.38665C56.038 1.51878 56.4743 0.904032 56.9978 0.542419C57.5562 0.180806 58.167 0 58.8301 0C59.4584 0 60.0342 0.180806 60.5578 0.542419C61.1162 0.904032 61.5699 1.51878 61.9189 2.38665L76.1065 35.3658C76.4206 36.0529 76.5428 36.6857 76.473 37.2643C76.4032 37.8067 76.1763 38.2406 75.7924 38.5661C75.4085 38.8554 74.8675 39 74.1694 39C73.4016 39 72.7908 38.8011 72.3371 38.4033C71.8834 38.0056 71.482 37.3908 71.133 36.5591L67.4683 27.7719L69.9289 29.2907H47.6267L50.0349 27.7719L46.4225 36.5591C46.0735 37.427 45.6896 38.0598 45.2708 38.4576C44.852 38.8192 44.2935 39 43.5955 39ZM58.7254 6.61752L50.8202 26.0362L49.5114 24.7344H67.9918L66.7877 26.0362L58.8301 6.61752H58.7254Z" fill="black"/>
<path d="M87.903 38.6203C86.9607 38.6203 86.2277 38.3672 85.7042 37.8609C85.2156 37.3185 84.9713 36.5591 84.9713 35.5828V3.41724C84.9713 2.44089 85.2156 1.69958 85.7042 1.19332C86.2277 0.650902 86.9607 0.379692 87.903 0.379692H98.0071C104.08 0.379692 108.757 2.02503 112.038 5.31572C115.353 8.57024 117.011 13.2893 117.011 19.4729C117.011 22.5466 116.592 25.2768 115.755 27.6634C114.917 30.0501 113.678 32.057 112.038 33.6843C110.432 35.2754 108.46 36.5049 106.122 37.3727C103.783 38.2045 101.078 38.6203 98.0071 38.6203H87.903ZM90.4159 33.9013H97.693C99.9965 33.9013 101.986 33.612 103.661 33.0334C105.371 32.4186 106.802 31.5146 107.954 30.3213C109.106 29.128 109.961 27.6273 110.519 25.8192C111.078 24.0111 111.357 21.8957 111.357 19.4729C111.357 14.6634 110.205 11.0654 107.902 8.67872C105.633 6.29207 102.23 5.09875 97.693 5.09875H90.4159V33.9013Z" fill="black"/>
<path d="M129.522 39C128.719 39 128.091 38.765 127.637 38.2949C127.219 37.8248 127.009 37.1739 127.009 36.3421V2.65786C127.009 1.78999 127.236 1.13908 127.69 0.705144C128.144 0.235048 128.754 0 129.522 0C130.255 0 130.813 0.144644 131.197 0.433934C131.616 0.687064 132 1.15716 132.349 1.84423L146.066 28.3686H144.443L158.107 1.84423C158.456 1.15716 158.822 0.687064 159.206 0.433934C159.59 0.144644 160.148 0 160.881 0C161.649 0 162.243 0.235048 162.661 0.705144C163.08 1.13908 163.29 1.78999 163.29 2.65786V36.3421C163.29 37.1739 163.08 37.8248 162.661 38.2949C162.277 38.765 161.684 39 160.881 39C160.079 39 159.468 38.765 159.049 38.2949C158.63 37.8248 158.421 37.1739 158.421 36.3421V8.35327H159.573L147.427 31.6231C147.148 32.1655 146.851 32.5633 146.537 32.8164C146.223 33.0695 145.786 33.1961 145.228 33.1961C144.669 33.1961 144.216 33.0695 143.867 32.8164C143.518 32.5271 143.204 32.1293 142.924 31.6231L130.674 8.29903H131.93V36.3421C131.93 37.1739 131.721 37.8248 131.302 38.2949C130.918 38.765 130.325 39 129.522 39Z" fill="black"/>
<path d="M177.233 39C176.43 39 175.802 38.765 175.348 38.2949C174.929 37.8248 174.72 37.1739 174.72 36.3421V2.65786C174.72 1.78999 174.946 1.13908 175.4 0.705144C175.854 0.235048 176.465 0 177.233 0C177.965 0 178.524 0.144644 178.908 0.433934C179.327 0.687064 179.711 1.15716 180.06 1.84423L193.776 28.3686H192.153L205.817 1.84423C206.166 1.15716 206.533 0.687064 206.916 0.433934C207.3 0.144644 207.859 0 208.592 0C209.36 0 209.953 0.235048 210.372 0.705144C210.791 1.13908 211 1.78999 211 2.65786V36.3421C211 37.1739 210.791 37.8248 210.372 38.2949C209.988 38.765 209.395 39 208.592 39C207.789 39 207.178 38.765 206.759 38.2949C206.341 37.8248 206.131 37.1739 206.131 36.3421V8.35327H207.283L195.137 31.6231C194.858 32.1655 194.561 32.5633 194.247 32.8164C193.933 33.0695 193.497 33.1961 192.938 33.1961C192.38 33.1961 191.926 33.0695 191.577 32.8164C191.228 32.5271 190.914 32.1293 190.635 31.6231L178.384 8.29903H179.641V36.3421C179.641 37.1739 179.431 37.8248 179.013 38.2949C178.629 38.765 178.035 39 177.233 39Z" fill="black"/>
</svg>
