<svg width="20" height="17" viewBox="0 0 20 17" fill="none" xmlns="http://www.w3.org/2000/svg">
<path d="M19.5999 14.1498C19.5399 14.3298 19.4899 14.5198 19.4099 14.6898C19.0099 15.5498 18.3199 15.9998 17.3699 16.0098C15.2299 16.0198 13.0799 16.0098 10.9399 16.0098C8.19994 16.0098 5.44994 16.0098 2.70994 16.0098C1.54994 16.0098 0.669941 15.2798 0.459941 14.1398C0.439941 14.0398 0.439941 13.9298 0.439941 13.8198C0.439941 10.4898 0.439941 7.1498 0.439941 3.8198C0.439941 2.6798 1.32994 1.7298 2.45994 1.6498C2.56994 1.6498 2.66994 1.6398 2.77994 1.6398C4.04994 1.6398 5.30994 1.6398 6.57994 1.6398C6.64994 1.6398 6.72994 1.6398 6.79994 1.6398C6.82994 1.4398 6.82994 1.2598 6.87994 1.0898C7.03994 0.469805 7.57994 0.0498047 8.21994 0.0498047C9.39994 0.0498047 10.5899 0.0498047 11.7699 0.0498047C12.5799 0.0498047 13.1599 0.599804 13.2099 1.4098C13.2099 1.4798 13.2099 1.5498 13.2199 1.6398H13.4399C14.7099 1.6398 15.9699 1.6398 17.2399 1.6398C18.4799 1.6398 19.2799 2.2798 19.5699 3.4798C19.5699 3.4998 19.5899 3.5098 19.5999 3.5298V14.1498ZM6.79994 2.8498H6.60994C5.30994 2.8498 4.01994 2.8498 2.71994 2.8498C2.04994 2.8498 1.63994 3.2598 1.63994 3.9298C1.63994 7.1998 1.63994 10.4598 1.63994 13.7298C1.63994 14.3898 2.04994 14.7998 2.70994 14.8098C3.04994 14.8098 3.39994 14.8098 3.73994 14.8098C8.24994 14.8098 12.7699 14.8098 17.2799 14.8098C17.9999 14.8098 18.3999 14.4098 18.3999 13.6898C18.3999 10.4398 18.3999 7.1998 18.3999 3.9498C18.3999 3.2598 17.9999 2.8498 17.3099 2.8498C16.0099 2.8498 14.7199 2.8498 13.4199 2.8498C13.3599 2.8498 13.2999 2.8498 13.2199 2.8498C13.2199 2.9498 13.2099 3.0398 13.1999 3.1198C13.1499 3.8498 12.6199 4.3898 11.8899 4.4298C11.3499 4.4598 10.8099 4.4398 10.2599 4.4398C9.53994 4.4398 8.80994 4.4498 8.08994 4.4198C7.51994 4.3998 7.01994 3.9798 6.86994 3.4198C6.81994 3.2398 6.81994 3.0498 6.78994 2.8398L6.79994 2.8498ZM10.0099 3.2298C10.5899 3.2298 11.1699 3.2298 11.7499 3.2298C11.9499 3.2298 11.9999 3.1798 11.9999 2.9698C11.9999 2.4798 11.9999 1.9998 11.9999 1.5098C11.9999 1.2998 11.9399 1.2398 11.7199 1.2398C10.5799 1.2398 9.43994 1.2398 8.29994 1.2398C8.08994 1.2398 8.02994 1.2998 8.02994 1.5198C8.02994 1.9898 8.02994 2.4698 8.02994 2.9398C8.02994 3.1798 8.06994 3.2298 8.30994 3.2298C8.87994 3.2298 9.43994 3.2298 10.0099 3.2298Z" fill="white"/>
<path d="M6.42996 10.4498C7.00996 10.4498 7.58996 10.3998 8.16996 10.4598C9.17996 10.5598 10.01 11.5198 10.02 12.5398C10.02 12.6998 10.02 12.8598 10.02 13.0298C10.02 13.3598 9.74996 13.6298 9.42996 13.6298C9.09996 13.6298 8.82996 13.3598 8.81996 13.0198C8.81996 12.8198 8.81996 12.6098 8.77996 12.4098C8.69996 11.9898 8.34996 11.6898 7.91996 11.6398C7.84996 11.6398 7.77996 11.6298 7.70996 11.6298C6.83996 11.6298 5.97996 11.6298 5.10996 11.6298C4.41996 11.6298 4.01996 12.0398 4.01996 12.7198C4.01996 12.8298 4.01996 12.9298 4.01996 13.0398C4.01996 13.3698 3.73996 13.6298 3.40996 13.6298C3.08996 13.6298 2.82996 13.3598 2.81996 13.0498C2.79996 12.5098 2.81996 11.9798 3.12996 11.4998C3.55996 10.8198 4.18996 10.4598 4.98996 10.4298C5.45996 10.4098 5.93996 10.4298 6.40996 10.4298V10.4598L6.42996 10.4498Z" fill="white"/>
<path d="M8.41977 7.63988C8.41977 8.74988 7.51977 9.63988 6.39977 9.62988C5.30977 9.62988 4.41977 8.71988 4.42977 7.62988C4.42977 6.52988 5.33977 5.62988 6.42977 5.62988C7.52977 5.62988 8.42977 6.53988 8.41977 7.63988ZM5.62977 7.62988C5.62977 8.06988 5.97977 8.42988 6.41977 8.43988C6.84977 8.43988 7.20977 8.08988 7.20977 7.65988C7.20977 7.20988 6.87977 6.85988 6.42977 6.84988C5.98977 6.84988 5.62977 7.18988 5.62977 7.62988Z" fill="white"/>
<path d="M14.4101 10.4297C13.7001 10.4297 12.9901 10.4297 12.2801 10.4297C11.8901 10.4297 11.6301 10.1897 11.6201 9.83973C11.6201 9.48973 11.8801 9.21973 12.2701 9.21973C13.4101 9.21973 14.5501 9.21973 15.6901 9.21973C15.9801 9.21973 16.2801 9.21973 16.5701 9.21973C16.9401 9.21973 17.2001 9.46973 17.2101 9.80973C17.2101 10.1597 16.9601 10.4197 16.5801 10.4297C15.8601 10.4297 15.1401 10.4297 14.4101 10.4297Z" fill="white"/>
<path d="M14.4199 12.4202C15.1299 12.4202 15.8399 12.4202 16.5499 12.4202C16.9199 12.4202 17.1899 12.6502 17.1999 12.9702C17.2199 13.3502 16.9499 13.6202 16.5499 13.6202C15.2199 13.6202 13.8799 13.6202 12.5499 13.6202C12.4599 13.6202 12.3599 13.6202 12.2699 13.6202C11.8899 13.6202 11.6199 13.3702 11.6099 13.0202C11.6099 12.6602 11.8599 12.4102 12.2599 12.4102C12.9799 12.4102 13.6899 12.4102 14.4099 12.4102L14.4199 12.4202Z" fill="white"/>
<path d="M14.4201 6.04004C15.1401 6.04004 15.8501 6.04004 16.5701 6.04004C16.9501 6.04004 17.2101 6.29004 17.2101 6.65004C17.2101 6.99004 16.9401 7.24004 16.5801 7.24004C15.1401 7.24004 13.7001 7.24004 12.2601 7.24004C11.8801 7.24004 11.6201 6.98004 11.6201 6.63004C11.6201 6.28004 11.8801 6.04004 12.2501 6.04004C12.9701 6.04004 13.6901 6.04004 14.4201 6.04004Z" fill="white"/>
</svg>
