<svg width="32" height="33" viewBox="0 0 32 33" fill="none" xmlns="http://www.w3.org/2000/svg">
<path d="M21.7467 28.1132C20.6267 28.0066 19.6534 27.7532 18.7067 27.3932C16.2534 26.4866 14.12 25.0732 12.1467 23.3932C9.7867 21.3666 7.80003 19.0332 6.2667 16.3132C5.4667 14.8866 4.84003 13.3932 4.53336 11.7666C4.48003 11.5132 4.45336 11.2599 4.41336 11.0066C4.36003 10.6999 4.4667 10.4332 4.61336 10.1799C5.3867 8.81991 6.36003 7.60657 7.44003 6.47324C7.81336 6.08657 8.21336 5.71324 8.64003 5.39324C9.5067 4.72657 10.32 4.85991 10.9334 5.75324C11.6 6.72657 12.24 7.71324 12.8534 8.72657C13.2 9.28657 13.4934 9.89991 13.76 10.4999C14.2134 11.5399 14.1067 11.9666 13.2667 12.7266C12.8934 13.0599 12.52 13.3799 12.1334 13.6999C12.0267 13.7932 12 13.8732 12.0534 14.0066C13.2134 17.1132 15.36 19.2466 18.4534 20.4199C18.6 20.4732 18.6934 20.4599 18.8 20.3266C19.0534 20.0066 19.32 19.6999 19.6 19.3932C19.8134 19.1666 20.0267 18.9399 20.2667 18.7399C20.6 18.4732 20.9867 18.4066 21.4 18.5132C22.2534 18.7532 23.04 19.1799 23.7867 19.6332C24.7734 20.2332 25.7334 20.8866 26.6934 21.5132C26.8534 21.6199 27.0134 21.7399 27.12 21.8999C27.64 22.5932 27.68 23.0866 27.2267 23.6466C26.7067 24.2732 26.16 24.8866 25.56 25.4466C24.5734 26.3799 23.4934 27.2066 22.2934 27.8599C22.0934 27.9666 21.8534 28.0332 21.72 28.0866L21.7467 28.1132ZM9.60003 6.55324C9.60003 6.55324 9.49336 6.63324 9.45336 6.67324C8.20003 7.81991 7.12003 9.09991 6.17336 10.4999C6.00003 10.7532 5.97336 10.9932 6.0267 11.2866C6.25336 12.5532 6.69336 13.7532 7.28003 14.8866C9.5467 19.1799 12.8134 22.4999 17.0134 24.9132C18.3334 25.6599 19.7334 26.2199 21.2267 26.4866C21.5067 26.5399 21.7334 26.5132 21.9867 26.3399C23.0534 25.6199 24.0534 24.8199 24.9867 23.9266C25.32 23.6066 25.64 23.2599 25.9734 22.9132C25.88 22.8332 25.8 22.7666 25.72 22.7132C24.3467 21.7132 22.8934 20.8599 21.36 20.1266C21.1734 20.0332 21.08 20.0732 20.96 20.2199C20.52 20.7266 20.0667 21.2199 19.6267 21.7399C19.2934 22.1399 18.92 22.1932 18.44 22.0466C16.7334 21.5266 15.24 20.6599 13.92 19.4732C12.32 18.0332 11.1467 16.2866 10.52 14.2199C10.2534 13.3266 10.1734 13.4999 10.8934 12.7799C11.3334 12.3399 11.8134 11.9532 12.28 11.5532C12.4267 11.4199 12.4667 11.3266 12.3734 11.1399C11.72 9.79324 10.9867 8.49991 10.1334 7.27324C9.97336 7.03324 9.80003 6.80657 9.6267 6.56657L9.60003 6.55324Z" fill="white"/>
</svg>
