<svg width="32" height="33" viewBox="0 0 32 33" fill="none" xmlns="http://www.w3.org/2000/svg">
<path d="M25.1867 10.4838C22.08 8.55051 18.9734 6.61717 15.88 4.67051C15.56 4.47051 15.2934 4.47051 14.9734 4.67051C11.8534 6.63051 8.73336 8.57717 5.61336 10.5238C5.36002 10.6838 5.22669 10.8838 5.25336 11.1905C5.34669 12.4705 5.38669 13.7505 5.54669 15.0172C5.78669 16.9505 6.34669 18.8038 7.20002 20.5638C8.85336 23.9772 11.4534 26.4438 14.7867 28.2038C15.24 28.4438 15.6 28.4438 16.0667 28.2038C20.4934 25.8572 23.4667 22.3372 24.8 17.4705C25.2934 15.6838 25.5334 13.8705 25.6134 12.0305C25.6134 11.7638 25.6134 11.5105 25.6134 11.2438C25.64 10.8972 25.48 10.6705 25.1867 10.4838ZM22.4667 20.2572C20.9867 23.2172 18.6934 25.3638 15.8267 26.9505C15.5334 27.1105 15.3067 27.1105 15.0134 26.9505C10.52 24.4838 7.80002 20.7505 6.86669 15.7105C6.76002 15.1238 6.66669 14.5372 6.60002 13.9372C6.53336 13.3505 6.50669 12.7505 6.44002 11.9772C6.29336 11.5772 6.61336 11.2972 7.06669 11.0172C9.78669 9.35051 12.48 7.64384 15.1867 5.95051C15.3467 5.84384 15.4667 5.84384 15.6267 5.95051C18.4667 7.73717 21.3067 9.51051 24.1467 11.2838C24.24 11.3505 24.36 11.4838 24.36 11.5905C24.32 14.6038 23.8267 17.5372 22.4534 20.2572H22.4667Z" fill="white"/>
<path d="M18.8538 14.2427C18.8672 14.176 19.0005 14.096 19.0938 14.0827C19.4805 14.0694 19.8538 14.0827 20.2405 14.0694C20.6005 14.056 20.8272 13.7894 20.8138 13.4427C20.8005 13.1094 20.5605 12.896 20.2005 12.8827C19.8805 12.8827 19.5605 12.8827 19.2138 12.8827C19.2272 12.776 19.2405 12.7227 19.2538 12.656C19.3605 12.216 19.4805 11.776 19.5738 11.3227C19.6005 11.176 19.6138 11.016 19.5738 10.8827C19.5072 10.6294 19.2405 10.456 19.0005 10.4827C18.7205 10.5094 18.5205 10.6427 18.4405 10.9227C18.2805 11.5094 18.1338 12.096 18.0005 12.6827C17.9605 12.8427 17.8938 12.8827 17.7338 12.8827C17.0672 12.8827 16.4005 12.8827 15.7472 12.8827H14.4138C14.5472 12.336 14.6805 11.8027 14.8005 11.2827C14.8272 11.1894 14.8405 11.0827 14.8272 10.976C14.7738 10.696 14.5338 10.496 14.2672 10.4694C13.9872 10.456 13.7205 10.656 13.6405 10.976C13.4805 11.6027 13.3205 12.2427 13.1605 12.8694H12.8272C12.1072 12.8694 11.3872 12.8694 10.6672 12.8694C10.4005 12.8694 10.2138 12.976 10.0938 13.2027C9.89384 13.6027 10.1738 14.0427 10.6538 14.056C11.2805 14.0694 11.9072 14.056 12.5338 14.056C12.6272 14.056 12.7205 14.056 12.8538 14.0694C12.5472 15.2827 12.2538 16.4427 11.9605 17.6294C11.5205 17.6294 11.1072 17.6294 10.6938 17.6294C10.4538 17.6294 10.2538 17.7094 10.1205 17.9227C9.86717 18.336 10.1472 18.8294 10.6672 18.8427C10.9872 18.8427 11.3072 18.8427 11.6538 18.8427C11.5338 19.336 11.4138 19.7894 11.3072 20.2427C11.1738 20.7894 11.3072 21.1094 11.6805 21.2027C12.0938 21.296 12.3472 21.0827 12.4805 20.5227C12.6138 19.9627 12.7605 19.4027 12.8938 18.8694H16.4272C16.2938 19.4027 16.1605 19.9094 16.0405 20.416C15.9472 20.776 16.0938 21.096 16.4005 21.2027C16.7338 21.3227 17.0805 21.1494 17.1872 20.776C17.3338 20.2294 17.4805 19.6827 17.6005 19.1227C17.6538 18.9094 17.7338 18.8427 17.9605 18.8427C18.6805 18.856 19.4005 18.8427 20.1205 18.8427C20.5205 18.8427 20.7738 18.616 20.8005 18.2827C20.8272 17.896 20.5605 17.6294 20.1338 17.6294C19.4405 17.6294 18.7338 17.6294 18.0272 17.6294C18.0272 17.5627 18.0272 17.536 18.0272 17.496C18.2938 16.4027 18.5605 15.3094 18.8538 14.216V14.2427ZM16.7472 17.6427H13.2138C13.4938 16.496 13.7738 15.3627 14.0672 14.2427C14.0805 14.176 14.1872 14.096 14.2538 14.096C15.3605 14.096 16.4805 14.096 17.6405 14.096C17.3338 15.3227 17.0405 16.4827 16.7472 17.656V17.6427Z" fill="white"/>
</svg>
