<svg width="24" height="24" viewBox="0 0 24 24" fill="none" xmlns="http://www.w3.org/2000/svg">
<path d="M12.1881 20H11.868C11.731 19.9438 11.5893 19.8971 11.4583 19.83C10.5753 19.3758 9.73587 18.8533 8.93782 18.2683C7.93278 17.5317 6.99048 16.7288 6.224 15.7475C5.68713 15.06 5.26548 14.3154 5.16221 13.4425C5.08667 12.8025 5.03034 12.1583 5.01028 11.5146C4.96376 10.0233 5.07557 8.54208 5.33718 7.06958C5.42253 6.59042 5.61245 6.225 6.09853 6.04875C7.52522 5.53167 8.95105 5.01125 10.3786 4.4975C10.8613 4.32375 11.3499 4.16542 11.836 4H12.1881C12.1958 4.00667 12.2026 4.01667 12.2115 4.02C13.7799 4.56958 15.3491 5.11708 16.9167 5.66917C17.267 5.7925 17.6161 5.92167 17.9588 6.06417C18.2874 6.20083 18.5845 6.40042 18.6387 6.77125C18.7462 7.5025 18.838 8.23667 18.9041 8.9725C19.0138 10.1933 19.036 11.4175 18.9361 12.6396C18.8973 13.1154 18.8469 13.5967 18.7313 14.0583C18.5764 14.6767 18.2247 15.2121 17.8334 15.7175C17.1723 16.5717 16.3768 17.2942 15.5164 17.95C14.4777 18.7421 13.395 19.4679 12.1876 20H12.1881ZM12.0024 9.37292C11.2624 9.37083 10.6005 9.85 10.3995 10.5338C10.1912 11.2417 10.4725 11.9783 11.1109 12.3654C11.2257 12.435 11.265 12.5058 11.2616 12.6354C11.2517 13.0358 11.2577 13.4367 11.2586 13.8375C11.2586 13.8996 11.2582 13.9633 11.2701 14.0242C11.3439 14.4 11.6883 14.6525 12.0844 14.6246C12.4552 14.5983 12.7595 14.2992 12.7702 13.9242C12.7821 13.4875 12.7804 13.05 12.7719 12.6129C12.7693 12.4821 12.8129 12.4112 12.9242 12.3396C13.5371 11.945 13.8025 11.2017 13.5874 10.5167C13.3749 9.84042 12.7305 9.375 12.0033 9.37333L12.0024 9.37292Z" fill="white"/>
</svg>
