<svg width="18" height="20" viewBox="0 0 18 20" fill="none" xmlns="http://www.w3.org/2000/svg">
<path d="M9.24181 20H8.83029C8.65415 19.9297 8.47199 19.8714 8.30353 19.7875C7.16827 19.2198 6.08898 18.5667 5.06291 17.8354C3.77072 16.9146 2.55919 15.9109 1.57372 14.6844C0.883453 13.825 0.341337 12.8943 0.208551 11.8031C0.111431 11.0031 0.0390027 10.1979 0.0132138 9.39323C-0.0465946 7.52917 0.097165 5.6776 0.433519 3.83698C0.543259 3.23802 0.787431 2.78125 1.4124 2.56094C3.24671 1.91458 5.07992 1.26406 6.91532 0.621875C7.5359 0.404687 8.16416 0.206771 8.78913 0H9.24181C9.25169 0.00833333 9.26047 0.0208333 9.27199 0.025C11.2885 0.711979 13.306 1.39635 15.3214 2.08646C15.7719 2.24062 16.2207 2.40208 16.6613 2.58021C17.0838 2.75104 17.4657 3.00052 17.5354 3.46406C17.6737 4.37813 17.7917 5.29583 17.8767 6.21562C18.0177 7.74167 18.0463 9.27188 17.9179 10.7995C17.8679 11.3943 17.8032 11.9958 17.6545 12.5729C17.4553 13.3458 17.0032 14.0151 16.5 14.6469C15.6501 15.7146 14.6273 16.6177 13.5211 17.4375C12.1856 18.4276 10.7935 19.3349 9.24126 20H9.24181ZM9.00313 6.71615C8.05168 6.71354 7.20065 7.3125 6.94221 8.16719C6.67444 9.05208 7.03604 9.97292 7.85689 10.4568C8.00449 10.5437 8.05497 10.6323 8.05058 10.7943C8.03796 11.2948 8.04564 11.7958 8.04674 12.2969C8.04674 12.3745 8.04619 12.4542 8.06156 12.5302C8.15648 13 8.59928 13.3156 9.10848 13.2807C9.5853 13.2479 9.97652 12.874 9.99024 12.4052C10.0056 11.8594 10.0034 11.3125 9.99244 10.7661C9.98914 10.6026 10.0451 10.5141 10.1883 10.4245C10.9763 9.93125 11.3175 9.00208 11.041 8.14583C10.7677 7.30052 9.93921 6.71875 9.00423 6.71667L9.00313 6.71615Z" fill="white" fill-opacity="0.6"/>
</svg>
