<svg width="1366" height="672" viewBox="0 0 1366 672" fill="none" xmlns="http://www.w3.org/2000/svg">
<rect x="1070.86" y="247" width="11.9321" height="14.4889" rx="2" fill="white"/>
<g opacity="0.3">
<path d="M1266.55 478.496H1260.07V430.385L1266.55 423.825H1254.75V406.244C1254.75 399.18 1249.94 391.106 1241.18 389.844V378.49C1241.18 375.452 1238.71 373 1235.69 373C1232.66 373 1230.2 375.463 1230.2 378.49V389.844C1221.44 391.106 1216.62 399.18 1216.62 406.244V423.825H1204.82L1211.3 430.385V478.496C1211.3 478.496 1202.05 467.647 1188.77 467.647C1175.49 467.647 1166.23 478.496 1166.23 478.496V430.385L1172.71 423.825H1160.91V406.244C1160.91 399.18 1156.1 391.106 1147.34 389.844V378.49C1147.34 375.452 1144.87 373 1141.85 373C1138.82 373 1136.36 375.463 1136.36 378.49V389.844C1127.6 391.106 1122.78 399.18 1122.78 406.244V423.825H1110.98L1117.46 430.385V478.496H1110.98L1117.46 485.056V540.393L1114.69 543.754L1110.98 671.5H1262.88V543.754L1260.1 540.393V485.056L1266.58 478.496H1266.55Z" fill="#F8F9FE"/>
<path d="M1266.55 478.496H1260.07V430.385L1266.55 423.825H1254.75V406.244C1254.75 399.18 1249.94 391.106 1241.18 389.844V378.49C1241.18 375.452 1238.71 373 1235.69 373C1232.66 373 1230.2 375.463 1230.2 378.49V389.844C1221.44 391.106 1216.62 399.18 1216.62 406.244V423.825H1204.82L1211.3 430.385V478.496C1211.3 478.496 1202.05 467.647 1188.77 467.647C1175.49 467.647 1166.23 478.496 1166.23 478.496V430.385L1172.71 423.825H1160.91V406.244C1160.91 399.18 1156.1 391.106 1147.34 389.844V378.49C1147.34 375.452 1144.87 373 1141.85 373C1138.82 373 1136.36 375.463 1136.36 378.49V389.844C1127.6 391.106 1122.78 399.18 1122.78 406.244V423.825H1110.98L1117.46 430.385V478.496H1110.98L1117.46 485.056V540.393L1114.69 543.754L1110.98 671.5H1262.88V543.754L1260.1 540.393V485.056L1266.58 478.496H1266.55Z" fill="url(#paint0_linear_4358_32593)"/>
</g>
<g opacity="0.3">
<path d="M699.054 514.531H797.801V501.283H807.315V505.731L807.528 505.87C812.467 498.627 820.605 497.06 820.605 497.06C820.605 497.06 817.01 494.126 814.344 490.255C820.071 490.255 821.81 485.188 821.81 485.188H824.029C824.914 479.983 828.21 476.527 834.919 476.527C841.628 476.527 844.913 479.994 845.809 485.188H848.027C848.027 485.188 849.755 490.255 855.493 490.255C852.827 494.116 849.232 497.06 849.232 497.06C849.232 497.06 857.381 498.617 862.309 505.87L862.522 505.731V501.283H872.037V514.531H970.783V510.797H985.225C988.339 501.465 997.939 504.398 997.939 504.398V499.726L995.187 495.993H998.494C998.494 490.116 1003.27 485.338 1009.15 485.338C1015.03 485.338 1019.8 490.116 1019.8 495.993H1023.11L1020.36 499.726V504.398C1020.36 504.398 1029.96 501.465 1033.07 510.797H1047.51V530.53H1052.01L1049.34 536.215V602.878L1052.01 606.259L1050.94 610.525V625.458L1052.89 627.772V636.305L1054.49 638.972V670.681H615.4V638.972L617 636.305L615 627.772L618.952 625.458L617.952 610.525L616.885 606.259L620.552 602.878V536.215L617.885 530.53H622.376V510.797H636.818C639.932 501.465 649.532 504.398 649.532 504.398V499.726L646.78 495.993H650.086C650.086 490.116 654.865 485.338 660.742 485.338C666.619 485.338 671.397 490.116 671.397 495.993H674.703L671.952 499.726V504.398C671.952 504.398 681.551 501.465 684.666 510.797H699.107V514.531H699.054Z" fill="url(#paint1_linear_4358_32593)"/>
<path d="M699.054 514.531H797.801V501.283H807.315V505.731L807.528 505.87C812.467 498.627 820.605 497.06 820.605 497.06C820.605 497.06 817.01 494.126 814.344 490.255C820.071 490.255 821.81 485.188 821.81 485.188H824.029C824.914 479.983 828.21 476.527 834.919 476.527C841.628 476.527 844.913 479.994 845.809 485.188H848.027C848.027 485.188 849.755 490.255 855.493 490.255C852.827 494.116 849.232 497.06 849.232 497.06C849.232 497.06 857.381 498.617 862.309 505.87L862.522 505.731V501.283H872.037V514.531H970.783V510.797H985.225C988.339 501.465 997.939 504.398 997.939 504.398V499.726L995.187 495.993H998.494C998.494 490.116 1003.27 485.338 1009.15 485.338C1015.03 485.338 1019.8 490.116 1019.8 495.993H1023.11L1020.36 499.726V504.398C1020.36 504.398 1029.96 501.465 1033.07 510.797H1047.51V530.53H1052.01L1049.34 536.215V602.878L1052.01 606.259L1050.94 610.525V625.458L1052.89 627.772V636.305L1054.49 638.972V670.681H615.4V638.972L617 636.305L615 627.772L618.952 625.458L617.952 610.525L616.885 606.259L620.552 602.878V536.215L617.885 530.53H622.376V510.797H636.818C639.932 501.465 649.532 504.398 649.532 504.398V499.726L646.78 495.993H650.086C650.086 490.116 654.865 485.338 660.742 485.338C666.619 485.338 671.397 490.116 671.397 495.993H674.703L671.952 499.726V504.398C671.952 504.398 681.551 501.465 684.666 510.797H699.107V514.531H699.054Z" fill="url(#paint2_linear_4358_32593)"/>
</g>
<g opacity="0.3">
<path fill-rule="evenodd" clip-rule="evenodd" d="M1292 309.5C1292 308.672 1291.33 308 1290.5 308C1289.67 308 1289 308.672 1289 309.5V313.143C1287.32 313.754 1286.13 315.362 1286.13 317.249C1286.13 319.662 1288.09 321.619 1290.5 321.619C1292.91 321.619 1294.87 319.662 1294.87 317.249C1294.87 315.363 1293.67 313.756 1292 313.144V309.5ZM1286.92 322.936C1287.18 322.732 1287.51 322.621 1287.84 322.621H1290.5H1290.5H1293.17C1293.5 322.621 1293.83 322.732 1294.09 322.937L1303.42 330.187C1303.89 330.55 1304.1 331.153 1303.96 331.728L1297.96 356.228C1297.79 356.899 1297.19 357.371 1296.5 357.371H1290.5H1284.5C1283.81 357.371 1283.21 356.899 1283.04 356.228L1277.04 331.728C1276.9 331.153 1277.11 330.549 1277.58 330.186L1286.92 322.936ZM1325 309.5C1325 308.672 1324.33 308 1323.5 308C1322.67 308 1322 308.672 1322 309.5V313.143C1320.32 313.754 1319.13 315.362 1319.13 317.249C1319.13 319.662 1321.09 321.619 1323.5 321.619C1325.91 321.619 1327.87 319.662 1327.87 317.249C1327.87 315.363 1326.67 313.756 1325 313.144V309.5ZM1319.92 322.936C1320.18 322.732 1320.51 322.621 1320.84 322.621H1323.5H1326.17C1326.5 322.621 1326.83 322.732 1327.09 322.937L1336.42 330.187C1336.89 330.55 1337.1 331.153 1336.96 331.728L1330.96 356.228C1330.79 356.899 1330.19 357.371 1329.5 357.371H1323.5H1317.5C1316.81 357.371 1316.21 356.899 1316.04 356.228L1310.04 331.728C1309.9 331.153 1310.11 330.549 1310.58 330.186L1319.92 322.936ZM1284.13 360.645C1283.3 360.645 1282.63 361.316 1282.63 362.145C1282.63 362.973 1283.3 363.645 1284.13 363.645H1304.7V372.429C1304.3 371.823 1303.88 371.253 1303.43 370.723C1300.89 367.71 1297.52 365.816 1294.39 365.816C1288.79 365.816 1285.51 368.42 1284.53 371.62C1284.28 372.412 1284.73 373.251 1285.52 373.494C1286.31 373.737 1287.15 373.292 1287.4 372.499C1287.9 370.859 1289.77 368.816 1294.39 368.816C1296.37 368.816 1298.97 370.085 1301.14 372.655C1302.88 374.73 1304.26 377.569 1304.7 380.997V486.105C1300.9 486.727 1298 490.025 1298 494C1298 496.483 1299.13 498.702 1300.91 500.169L1292 671H1321.5L1311.83 499.475C1313.18 498.044 1314 496.118 1314 494C1314 490.165 1311.3 486.96 1307.7 486.181V383.969C1307.79 383.773 1307.85 383.554 1307.85 383.323C1307.85 383.26 1307.85 383.198 1307.84 383.136C1307.89 378.742 1309.46 375.147 1311.55 372.655C1313.72 370.085 1316.32 368.816 1318.3 368.816C1322.92 368.816 1324.79 370.859 1325.29 372.499C1325.54 373.292 1326.38 373.737 1327.17 373.494C1327.96 373.251 1328.41 372.412 1328.16 371.62C1327.18 368.42 1323.9 365.816 1318.3 365.816C1315.17 365.816 1311.8 367.71 1309.26 370.723C1308.7 371.385 1308.18 372.109 1307.7 372.888V363.645H1328.42C1329.25 363.645 1329.92 362.973 1329.92 362.145C1329.92 361.316 1329.25 360.645 1328.42 360.645H1307.7V350.566C1307.7 349.738 1307.03 349.066 1306.2 349.066C1305.37 349.066 1304.7 349.738 1304.7 350.566V360.645H1284.13Z" fill="#D9D9D9"/>
<path fill-rule="evenodd" clip-rule="evenodd" d="M1292 309.5C1292 308.672 1291.33 308 1290.5 308C1289.67 308 1289 308.672 1289 309.5V313.143C1287.32 313.754 1286.13 315.362 1286.13 317.249C1286.13 319.662 1288.09 321.619 1290.5 321.619C1292.91 321.619 1294.87 319.662 1294.87 317.249C1294.87 315.363 1293.67 313.756 1292 313.144V309.5ZM1286.92 322.936C1287.18 322.732 1287.51 322.621 1287.84 322.621H1290.5H1290.5H1293.17C1293.5 322.621 1293.83 322.732 1294.09 322.937L1303.42 330.187C1303.89 330.55 1304.1 331.153 1303.96 331.728L1297.96 356.228C1297.79 356.899 1297.19 357.371 1296.5 357.371H1290.5H1284.5C1283.81 357.371 1283.21 356.899 1283.04 356.228L1277.04 331.728C1276.9 331.153 1277.11 330.549 1277.58 330.186L1286.92 322.936ZM1325 309.5C1325 308.672 1324.33 308 1323.5 308C1322.67 308 1322 308.672 1322 309.5V313.143C1320.32 313.754 1319.13 315.362 1319.13 317.249C1319.13 319.662 1321.09 321.619 1323.5 321.619C1325.91 321.619 1327.87 319.662 1327.87 317.249C1327.87 315.363 1326.67 313.756 1325 313.144V309.5ZM1319.92 322.936C1320.18 322.732 1320.51 322.621 1320.84 322.621H1323.5H1326.17C1326.5 322.621 1326.83 322.732 1327.09 322.937L1336.42 330.187C1336.89 330.55 1337.1 331.153 1336.96 331.728L1330.96 356.228C1330.79 356.899 1330.19 357.371 1329.5 357.371H1323.5H1317.5C1316.81 357.371 1316.21 356.899 1316.04 356.228L1310.04 331.728C1309.9 331.153 1310.11 330.549 1310.58 330.186L1319.92 322.936ZM1284.13 360.645C1283.3 360.645 1282.63 361.316 1282.63 362.145C1282.63 362.973 1283.3 363.645 1284.13 363.645H1304.7V372.429C1304.3 371.823 1303.88 371.253 1303.43 370.723C1300.89 367.71 1297.52 365.816 1294.39 365.816C1288.79 365.816 1285.51 368.42 1284.53 371.62C1284.28 372.412 1284.73 373.251 1285.52 373.494C1286.31 373.737 1287.15 373.292 1287.4 372.499C1287.9 370.859 1289.77 368.816 1294.39 368.816C1296.37 368.816 1298.97 370.085 1301.14 372.655C1302.88 374.73 1304.26 377.569 1304.7 380.997V486.105C1300.9 486.727 1298 490.025 1298 494C1298 496.483 1299.13 498.702 1300.91 500.169L1292 671H1321.5L1311.83 499.475C1313.18 498.044 1314 496.118 1314 494C1314 490.165 1311.3 486.96 1307.7 486.181V383.969C1307.79 383.773 1307.85 383.554 1307.85 383.323C1307.85 383.26 1307.85 383.198 1307.84 383.136C1307.89 378.742 1309.46 375.147 1311.55 372.655C1313.72 370.085 1316.32 368.816 1318.3 368.816C1322.92 368.816 1324.79 370.859 1325.29 372.499C1325.54 373.292 1326.38 373.737 1327.17 373.494C1327.96 373.251 1328.41 372.412 1328.16 371.62C1327.18 368.42 1323.9 365.816 1318.3 365.816C1315.17 365.816 1311.8 367.71 1309.26 370.723C1308.7 371.385 1308.18 372.109 1307.7 372.888V363.645H1328.42C1329.25 363.645 1329.92 362.973 1329.92 362.145C1329.92 361.316 1329.25 360.645 1328.42 360.645H1307.7V350.566C1307.7 349.738 1307.03 349.066 1306.2 349.066C1305.37 349.066 1304.7 349.738 1304.7 350.566V360.645H1284.13Z" fill="url(#paint3_linear_4358_32593)"/>
</g>
<g opacity="0.2">
<path d="M1046.84 217.668L1047.04 207H1105L1098.57 613.171L1057.29 621.489V613.072L1058.52 608.519L1055.43 604.911V533.773L1058.52 527.706H1053.32V506.649H1036.6C1032.99 496.69 1026.5 498.5 1026.5 498.5L1030 490.5L1025.06 490.851H1021.23C1021.23 484.579 1015.7 479.48 1008.89 479.48C1002.08 479.48 996.549 484.579 996.549 490.851H992.719L995.906 494.834V499.82C995.906 499.82 984.789 496.69 981.182 506.649H971.61L967 207H1024.96L1025.17 217.668H1046.84Z" fill="#F8F9FE"/>
<path d="M1046.84 217.668L1047.04 207H1105L1098.57 613.171L1057.29 621.489V613.072L1058.52 608.519L1055.43 604.911V533.773L1058.52 527.706H1053.32V506.649H1036.6C1032.99 496.69 1026.5 498.5 1026.5 498.5L1030 490.5L1025.06 490.851H1021.23C1021.23 484.579 1015.7 479.48 1008.89 479.48C1002.08 479.48 996.549 484.579 996.549 490.851H992.719L995.906 494.834V499.82C995.906 499.82 984.789 496.69 981.182 506.649H971.61L967 207H1024.96L1025.17 217.668H1046.84Z" fill="url(#paint4_linear_4358_32593)"/>
</g>
<rect x="1070.86" y="271.717" width="11.9321" height="14.4889" rx="2" fill="white"/>
<rect x="1071" y="296.43" width="11.9321" height="14.4889" rx="2" fill="white"/>
<rect x="1071" y="401" width="11.9321" height="14.4889" rx="2" fill="white"/>
<rect x="986" y="401" width="11.9321" height="14.4889" rx="2" fill="white"/>
<rect x="1071" y="321.145" width="11.9321" height="14.4889" rx="2" fill="white"/>
<rect x="1071" y="425.715" width="11.9321" height="14.4889" rx="2" fill="white"/>
<rect x="986" y="425.715" width="11.9321" height="14.4889" rx="2" fill="white"/>
<rect x="1071" y="349.52" width="11.9321" height="14.4889" rx="2" fill="white"/>
<rect x="1071" y="454.09" width="11.9321" height="14.4889" rx="2" fill="white"/>
<rect x="986" y="454.09" width="11.9321" height="14.4889" rx="2" fill="white"/>
<rect x="1071" y="376.219" width="11.9321" height="14.4889" rx="2" fill="white"/>
<rect x="1071" y="480.789" width="11.9321" height="14.4889" rx="2" fill="white"/>
<rect x="985.852" y="247" width="11.9321" height="14.4889" rx="2" fill="white"/>
<rect x="985.852" y="271.717" width="11.9321" height="14.4889" rx="2" fill="white"/>
<rect x="985.852" y="296.429" width="11.9321" height="14.4889" rx="2" fill="white"/>
<rect x="985" y="321.146" width="11.9321" height="14.4889" rx="2" fill="white"/>
<rect x="986.07" y="349.521" width="11.9321" height="14.4889" rx="2" fill="white"/>
<rect x="986.07" y="376.219" width="11.9321" height="14.4889" rx="2" fill="white"/>
<path opacity="0.5" fill-rule="evenodd" clip-rule="evenodd" d="M524.378 274.81H532.377H532.393C534.121 306.999 539 403.507 539 462.024C539 533.047 531.001 645 531.001 645H502.616V585.156L507.825 579.426H503.789H503.695V571.611C503.695 568.071 501.114 565.042 497.438 563.784V508.57L502.522 502.171H493.918V474.964L499.19 470.047H494.105C488.051 465.13 478.461 453.815 475.145 433.177H479.29C479.29 433.177 479.29 423.841 472.407 420.878C470.106 418.114 469.26 414.021 468.523 410.45C467.686 406.398 466.988 403.02 464.46 403.02C461.932 403.02 461.234 406.398 460.397 410.45C459.659 414.021 458.814 418.114 456.513 420.878C449.629 423.828 449.629 433.177 449.629 433.177H453.775C450.459 453.828 440.869 465.143 434.815 470.047H429.73L435.018 474.964V502.171H426.414L431.498 508.57V563.784C427.822 565.055 425.24 568.084 425.24 571.611H414.545C412.708 536.399 411 494.842 411 462.024C411 403.507 415.879 306.999 417.607 274.822H425.606C425.974 267.936 426.198 264 426.198 264H523.786C523.786 264 524.01 267.936 524.378 274.81Z" fill="url(#paint5_linear_4358_32593)"/>
<g opacity="0.3">
<path d="M555.3 562.518C534.1 570.918 558.467 594.685 573.3 605.518C579.134 601.352 592.201 590.418 597.801 580.018C603.401 569.618 596.134 564.018 591.801 562.518C604.201 519.718 586.634 506.352 576.301 505.018C548 504.018 550.467 544.352 555.3 562.518Z" fill="#D9D9D9"/>
<path d="M555.3 562.518C534.1 570.918 558.467 594.685 573.3 605.518C579.134 601.352 592.201 590.418 597.801 580.018C603.401 569.618 596.134 564.018 591.801 562.518C604.201 519.718 586.634 506.352 576.301 505.018C548 504.018 550.467 544.352 555.3 562.518Z" fill="url(#paint6_linear_4358_32593)"/>
</g>
<path fill-rule="evenodd" clip-rule="evenodd" d="M571 529.229C571 528.55 571.672 528 572.5 528C573.328 528 574 528.55 574 529.229V597.771C574 598.45 573.328 599 572.5 599C571.672 599 571 598.45 571 597.771V529.229Z" fill="white"/>
<path d="M571.75 646.087V602.913C571.76 602.907 571.771 602.901 571.785 602.894C571.929 602.819 572.181 602.75 572.5 602.75C572.819 602.75 573.071 602.819 573.215 602.894C573.229 602.901 573.24 602.907 573.25 602.913V646.087C573.24 646.093 573.229 646.099 573.215 646.106C573.071 646.181 572.819 646.25 572.5 646.25C572.181 646.25 571.929 646.181 571.785 646.106C571.771 646.099 571.76 646.093 571.75 646.087Z" fill="#F1F4FA" stroke="#F1F4FA" stroke-width="1.5" stroke-linecap="round" stroke-linejoin="round"/>
<path fill-rule="evenodd" clip-rule="evenodd" d="M582.796 588.442C583.38 587.855 584.33 587.852 584.918 588.436L584.215 589.143L584.918 588.436C585.505 589.02 585.508 589.97 584.924 590.558L574.564 600.978C573.98 601.565 573.03 601.568 572.442 600.984C571.855 600.4 571.852 599.45 572.436 598.862L573.134 599.556L572.436 598.862L582.796 588.442Z" fill="white"/>
<path fill-rule="evenodd" clip-rule="evenodd" d="M563.564 588.763C562.98 588.175 562.03 588.173 561.442 588.757ZM563.564 588.763L573.924 599.183C574.508 599.77 574.505 600.72 573.918 601.304C573.33 601.888 572.38 601.885 571.796 601.298L561.436 590.878C560.852 590.29 560.855 589.341 561.442 588.757" fill="white"/>
<path d="M1148.84 509.92C1148.84 506.65 1146.19 504 1142.92 504C1139.65 504 1137 506.65 1137 509.92V526.08H1148.83V509.92H1148.84Z" fill="white"/>
<path d="M1208 518.478C1208 510.481 1200.39 504 1191 504C1181.61 504 1174 510.481 1174 518.478V558H1207.97V518.478H1208Z" fill="white"/>
<path d="M852 588.645C852 577.241 843.719 568 833.5 568C823.281 568 815 577.241 815 588.645V645H851.969V588.645H852Z" fill="white"/>
<path d="M1243.84 509.92C1243.84 506.65 1241.19 504 1237.92 504C1234.65 504 1232 506.65 1232 509.92V526.08H1243.83V509.92H1243.84Z" fill="white"/>
<path d="M1137 558H1149V531H1137V558Z" fill="white"/>
<path d="M1232 556H1244V531H1232V556Z" fill="white"/>
<path d="M865 577C865 572.582 868.582 569 873 569V569C877.418 569 881 572.582 881 577V591H865V577Z" fill="#FDFDFF"/>
<path d="M642 577C642 572.582 645.582 569 650 569V569C654.418 569 658 572.582 658 577V591H642V577Z" fill="#FDFDFF"/>
<path d="M893 577C893 572.582 896.582 569 901 569V569C905.418 569 909 572.582 909 577V591H893V577Z" fill="#FDFDFF"/>
<path d="M670 577C670 572.582 673.582 569 678 569V569C682.418 569 686 572.582 686 577V591H670V577Z" fill="#FDFDFF"/>
<path d="M922 577C922 572.582 925.582 569 930 569V569C934.418 569 938 572.582 938 577V589C938 590.105 937.105 591 936 591H924C922.895 591 922 590.105 922 589V577Z" fill="#FDFDFF"/>
<path d="M699 577C699 572.582 702.582 569 707 569V569C711.418 569 715 572.582 715 577V589C715 590.105 714.105 591 713 591H701C699.895 591 699 590.105 699 589V577Z" fill="#FDFDFF"/>
<path d="M951 577C951 572.582 954.582 569 959 569V569C963.418 569 967 572.582 967 577V589C967 590.105 966.105 591 965 591H953C951.895 591 951 590.105 951 589V577Z" fill="#FDFDFF"/>
<path d="M728 577C728 572.582 731.582 569 736 569V569C740.418 569 744 572.582 744 577V589C744 590.105 743.105 591 742 591H730C728.895 591 728 590.105 728 589V577Z" fill="#FDFDFF"/>
<path d="M980 577C980 572.582 983.582 569 988 569V569C992.418 569 996 572.582 996 577V589C996 590.105 995.105 591 994 591H982C980.895 591 980 590.105 980 589V577Z" fill="#FDFDFF"/>
<path d="M757 577C757 572.582 760.582 569 765 569V569C769.418 569 773 572.582 773 577V589C773 590.105 772.105 591 771 591H759C757.895 591 757 590.105 757 589V577Z" fill="#FDFDFF"/>
<path d="M1009 577C1009 572.582 1012.58 569 1017 569V569C1021.42 569 1025 572.582 1025 577V589C1025 590.105 1024.1 591 1023 591H1011C1009.9 591 1009 590.105 1009 589V577Z" fill="#FDFDFF"/>
<path d="M786 577C786 572.582 789.582 569 794 569V569C798.418 569 802 572.582 802 577V589C802 590.105 801.105 591 800 591H788C786.895 591 786 590.105 786 589V577Z" fill="#FDFDFF"/>
<rect x="865" y="599" width="16" height="40" rx="3" fill="#FDFDFF"/>
<rect x="642" y="599" width="16" height="63" rx="3" fill="#FDFDFF"/>
<rect x="223" y="589" width="16" height="63" rx="3" fill="white"/>
<rect x="893" y="599" width="16" height="40" rx="3" fill="#FDFDFF"/>
<rect x="670" y="599" width="16" height="63" rx="3" fill="#FDFDFF"/>
<rect x="922" y="599" width="16" height="36" rx="3" fill="#FDFDFF"/>
<rect x="699" y="599" width="16" height="57" rx="3" fill="#FDFDFF"/>
<rect x="951" y="599" width="16" height="36" rx="3" fill="#FDFDFF"/>
<rect x="728" y="599" width="16" height="57" rx="3" fill="#FDFDFF"/>
<rect x="980" y="599" width="16" height="36" rx="3" fill="#FDFDFF"/>
<rect x="757" y="599" width="16" height="57" rx="3" fill="#FDFDFF"/>
<rect x="1009" y="599" width="16" height="36" rx="3" fill="#FDFDFF"/>
<rect x="786" y="599" width="16" height="57" rx="3" fill="#FDFDFF"/>
<rect x="436.797" y="308.145" width="11.1731" height="13.5673" rx="2" fill="#FBFBFE"/>
<rect x="436.797" y="331.285" width="11.1731" height="13.5673" rx="2" fill="#FBFBFE"/>
<rect x="436" y="354.43" width="11.1731" height="13.5673" rx="2" fill="#FBFBFE"/>
<rect x="437" y="381" width="11.1731" height="13.5673" rx="2" fill="#FBFBFE"/>
<rect x="436" y="406" width="11.1731" height="13.5673" rx="2" fill="#FBFBFE"/>
<rect x="460" y="308.145" width="10.375" height="13.5673" rx="2" fill="#FBFBFE"/>
<rect x="460" y="331.285" width="10.375" height="13.5673" rx="2" fill="#FBFBFE"/>
<rect x="460" y="354.43" width="10.375" height="13.5673" rx="2" fill="#FBFBFE"/>
<rect x="460" y="381" width="10.375" height="13.5673" rx="2" fill="#FBFBFE"/>
<rect x="482" y="308.145" width="11.1731" height="13.5673" rx="2" fill="#FBFBFE"/>
<rect x="482" y="330.285" width="11.1731" height="13.5673" rx="2" fill="#FBFBFE"/>
<rect x="482" y="353.43" width="11.1731" height="13.5673" rx="2" fill="#FBFBFE"/>
<rect x="482" y="380" width="11.1731" height="13.5673" rx="2" fill="#FBFBFE"/>
<rect x="482" y="406" width="11.1731" height="13.5673" rx="2" fill="#FBFBFE"/>
<rect x="505.797" y="308.145" width="11.1731" height="13.5673" rx="2" fill="#FBFBFE"/>
<rect x="505.797" y="331.285" width="11.1731" height="13.5673" rx="2" fill="#FBFBFE"/>
<rect x="505" y="354.43" width="11.1731" height="13.5673" rx="2" fill="#FBFBFE"/>
<rect x="506" y="381" width="11.1731" height="13.5673" rx="2" fill="#FBFBFE"/>
<rect x="506" y="406" width="11.1731" height="13.5673" rx="2" fill="#FBFBFE"/>
<rect x="436" y="431" width="11.1731" height="13.5673" rx="2" fill="#FBFBFE"/>
<rect x="482" y="431" width="11.1731" height="13.5673" rx="2" fill="#FBFBFE"/>
<rect x="506" y="431" width="11.1731" height="13.5673" rx="2" fill="#FBFBFE"/>
<rect x="504" y="454" width="11.1731" height="13.5673" rx="2" fill="white"/>
<rect x="504" y="475" width="11.1731" height="13.5673" rx="2" fill="#FBFBFE"/>
<rect x="505" y="496" width="11.1731" height="13.5673" rx="2" fill="#FBFBFE"/>
<rect x="505" y="517" width="11.1731" height="13.5673" rx="2" fill="#FBFBFE"/>
<rect x="504" y="538" width="11.1731" height="13.5673" rx="2" fill="#FBFBFE"/>
<rect x="242.797" y="245" width="11.1731" height="13.5673" rx="2" fill="white"/>
<rect x="261.953" y="245" width="10.375" height="13.5673" rx="2" fill="white"/>
<rect x="280.312" y="245" width="11.1731" height="13.5673" rx="2" fill="white"/>
<rect x="301.797" y="245" width="11.1731" height="13.5673" rx="2" fill="white"/>
<rect x="242.797" y="268.145" width="11.1731" height="13.5673" rx="2" fill="white"/>
<rect x="261.953" y="268.145" width="10.375" height="13.5673" rx="2" fill="white"/>
<rect x="280.312" y="268.145" width="11.1731" height="13.5673" rx="2" fill="white"/>
<rect x="301.797" y="268.145" width="11.1731" height="13.5673" rx="2" fill="white"/>
<rect x="242.797" y="291.285" width="11.1731" height="13.5673" rx="2" fill="white"/>
<rect x="261.953" y="291.285" width="10.375" height="13.5673" rx="2" fill="white"/>
<rect x="280.312" y="291.285" width="11.1731" height="13.5673" rx="2" fill="white"/>
<rect x="301.797" y="291.285" width="11.1731" height="13.5673" rx="2" fill="white"/>
<rect x="242" y="314.43" width="11.1731" height="13.5673" rx="2" fill="white"/>
<rect x="261.156" y="314.43" width="10.375" height="13.5673" rx="2" fill="white"/>
<rect x="279.508" y="314.43" width="11.1731" height="13.5673" rx="2" fill="white"/>
<rect x="301" y="314.43" width="11.1731" height="13.5673" rx="2" fill="white"/>
<g opacity="0.3">
<path fill-rule="evenodd" clip-rule="evenodd" d="M42.5 365C43.3285 365 44 365.672 44 366.5V370.144C45.6741 370.756 46.8689 372.363 46.8689 374.249C46.8689 376.662 44.9124 378.619 42.4989 378.619C40.0854 378.619 38.1289 376.662 38.1289 374.249C38.1289 372.362 39.3248 370.754 41 370.143V366.5C41 365.672 41.6716 365 42.5 365ZM41 467.97C38.2727 468.642 36.25 471.104 36.25 474.039C36.25 476.058 37.2073 477.853 38.6928 478.996L28 611L51.5 610L46.1284 479.129C47.7154 477.995 48.75 476.138 48.75 474.039C48.75 471.108 46.7321 468.648 44.0097 467.973V424.631L44.0096 424.61L44.0093 424.596L44.0027 424.596L44.0027 424.595L44.0088 424.595L44.0093 424.595L44.0093 424.594L44.0092 424.591L44.009 424.585L44.0084 424.565L44.0068 424.524L44.0089 424.492C44.0175 424.363 44.0333 424.17 44.0621 423.933C44.1201 423.454 44.228 422.814 44.4244 422.151C44.8444 420.734 45.5296 419.656 46.5217 419.288L46.524 419.287C47.0731 419.082 47.6977 419.104 48.081 419.313C48.3191 419.442 48.7501 419.788 48.6729 421.039C48.6218 421.866 49.2507 422.577 50.0775 422.628C50.9044 422.68 51.6161 422.051 51.6672 421.224C51.7999 419.075 50.9909 417.48 49.514 416.677C48.1827 415.953 46.6179 416.05 45.4772 416.475C44.086 416.992 43.1443 417.992 42.5049 419.063C41.8654 417.992 40.9238 416.992 39.5325 416.475C38.3918 416.05 36.827 415.953 35.4957 416.677C34.0188 417.48 33.2098 419.075 33.3426 421.224C33.3936 422.051 34.1053 422.68 34.9322 422.628C35.759 422.577 36.3879 421.866 36.3369 421.039C36.2596 419.788 36.6906 419.442 36.9288 419.313C37.312 419.104 37.9366 419.082 38.4858 419.287L38.4881 419.288C39.4801 419.656 40.1654 420.734 40.5853 422.151C40.7818 422.814 40.8896 423.454 40.9476 423.933C40.9764 424.17 40.9923 424.363 41.0008 424.492L41.0029 424.524L41.0013 424.565L41.0007 424.585L41.0005 424.591L41.0005 424.594L41.0004 424.595C41.0004 424.595 41.0004 424.595 41.007 424.595L41.007 424.596L41.0004 424.596L41.0001 424.617L41 424.631V467.97ZM45.4772 416.475L45.4783 416.475L46 417.881L45.476 416.476L45.4772 416.475ZM38.9203 379.936C39.1834 379.732 39.507 379.621 39.8401 379.621H42.5H42.5001H45.1701C45.5034 379.621 45.8273 379.732 46.0905 379.937L55.4204 387.187C55.8876 387.55 56.0977 388.153 55.957 388.728L49.957 413.228C49.7926 413.899 49.1911 414.371 48.5001 414.371H42.5H36.5001C35.8091 414.371 35.2075 413.899 35.0431 413.228L29.0431 388.728C28.9023 388.153 29.1128 387.549 29.5803 387.186L38.9203 379.936Z" fill="#D9D9D9"/>
<path fill-rule="evenodd" clip-rule="evenodd" d="M42.5 365C43.3285 365 44 365.672 44 366.5V370.144C45.6741 370.756 46.8689 372.363 46.8689 374.249C46.8689 376.662 44.9124 378.619 42.4989 378.619C40.0854 378.619 38.1289 376.662 38.1289 374.249C38.1289 372.362 39.3248 370.754 41 370.143V366.5C41 365.672 41.6716 365 42.5 365ZM41 467.97C38.2727 468.642 36.25 471.104 36.25 474.039C36.25 476.058 37.2073 477.853 38.6928 478.996L28 611L51.5 610L46.1284 479.129C47.7154 477.995 48.75 476.138 48.75 474.039C48.75 471.108 46.7321 468.648 44.0097 467.973V424.631L44.0096 424.61L44.0093 424.596L44.0027 424.596L44.0027 424.595L44.0088 424.595L44.0093 424.595L44.0093 424.594L44.0092 424.591L44.009 424.585L44.0084 424.565L44.0068 424.524L44.0089 424.492C44.0175 424.363 44.0333 424.17 44.0621 423.933C44.1201 423.454 44.228 422.814 44.4244 422.151C44.8444 420.734 45.5296 419.656 46.5217 419.288L46.524 419.287C47.0731 419.082 47.6977 419.104 48.081 419.313C48.3191 419.442 48.7501 419.788 48.6729 421.039C48.6218 421.866 49.2507 422.577 50.0775 422.628C50.9044 422.68 51.6161 422.051 51.6672 421.224C51.7999 419.075 50.9909 417.48 49.514 416.677C48.1827 415.953 46.6179 416.05 45.4772 416.475C44.086 416.992 43.1443 417.992 42.5049 419.063C41.8654 417.992 40.9238 416.992 39.5325 416.475C38.3918 416.05 36.827 415.953 35.4957 416.677C34.0188 417.48 33.2098 419.075 33.3426 421.224C33.3936 422.051 34.1053 422.68 34.9322 422.628C35.759 422.577 36.3879 421.866 36.3369 421.039C36.2596 419.788 36.6906 419.442 36.9288 419.313C37.312 419.104 37.9366 419.082 38.4858 419.287L38.4881 419.288C39.4801 419.656 40.1654 420.734 40.5853 422.151C40.7818 422.814 40.8896 423.454 40.9476 423.933C40.9764 424.17 40.9923 424.363 41.0008 424.492L41.0029 424.524L41.0013 424.565L41.0007 424.585L41.0005 424.591L41.0005 424.594L41.0004 424.595C41.0004 424.595 41.0004 424.595 41.007 424.595L41.007 424.596L41.0004 424.596L41.0001 424.617L41 424.631V467.97ZM45.4772 416.475L45.4783 416.475L46 417.881L45.476 416.476L45.4772 416.475ZM38.9203 379.936C39.1834 379.732 39.507 379.621 39.8401 379.621H42.5H42.5001H45.1701C45.5034 379.621 45.8273 379.732 46.0905 379.937L55.4204 387.187C55.8876 387.55 56.0977 388.153 55.957 388.728L49.957 413.228C49.7926 413.899 49.1911 414.371 48.5001 414.371H42.5H36.5001C35.8091 414.371 35.2075 413.899 35.0431 413.228L29.0431 388.728C28.9023 388.153 29.1128 387.549 29.5803 387.186L38.9203 379.936Z" fill="url(#paint7_linear_4358_32593)"/>
</g>
<rect x="90" y="484" width="48" height="6" fill="white"/>
<rect x="95" y="535" width="38" height="6" fill="white"/>
<path d="M99 490H129L124 522H106L99 490Z" fill="white"/>
<path d="M1016 246H1055L1048.5 278.155H1025.1L1016 246Z" fill="white"/>
<path d="M1023.19 291.017H1048.85L1044.57 312.453H1029.17L1023.19 291.017Z" fill="white"/>
<path d="M1025.23 325.316H1046.79L1043.19 343.537H1030.26L1025.23 325.316Z" fill="white"/>
<path d="M1027.29 356.399H1044.74L1041.83 371.404H1031.36L1027.29 356.399Z" fill="white"/>
<path d="M1028.31 384.264H1043.71L1041.14 397.126H1031.9L1028.31 384.264Z" fill="white"/>
<path d="M1029.34 409.988H1042.69L1040.46 420.706H1032.46L1029.34 409.988Z" fill="white"/>
<path d="M1031.39 433.57H1039.6L1038.23 440.001H1033.31L1031.39 433.57Z" fill="white"/>
<path d="M1031 449H1039.21L1037.84 455.431H1032.92L1031 449Z" fill="white"/>
<g opacity="0.2">
<path d="M497.612 581.943V574.149C497.612 570.618 495.471 567.598 492.422 566.342V511.273L496.639 504.891H489.503V477.756L493.875 472.852H489.658C484.637 467.948 476.683 450.662 473.933 430.078H477.371C477.371 430.078 477.371 426.767 471.662 423.811C467.588 417.927 469.015 406 465.071 406C461.127 406 462.554 417.927 458.48 423.811C452.771 426.754 452.771 431.078 452.771 431.078H456.209C453.459 451.675 445.505 467.961 440.484 472.852H436.267L440.652 477.756V504.891H433.516L437.733 511.273V566.342C434.684 567.611 432.543 570.632 432.543 574.149C432.465 574.149 382.603 574.149 382.603 574.149V564.786L377.076 561.948L371.548 564.786V568.945C366.177 565.034 359.637 561.347 352.177 559.11L349.076 547.236L343.017 542.437C344.742 538.618 343.549 530.667 339.228 523.801C334.907 530.667 333.714 538.618 335.439 542.437L329.38 547.236L326.279 559.11C318.819 561.347 312.292 565.034 306.908 568.945V564.786L301.38 561.948L295.853 564.786V574.149H245.913C245.913 570.618 243.772 567.598 240.723 566.342V511.273L244.94 504.891H237.804V477.756L242.189 472.852H237.972C232.938 467.948 224.997 456.662 222.247 436.078H225.685C225.685 436.078 225.685 426.767 219.976 423.811C215.902 417.927 217.329 406 213.385 406C209.441 406 210.868 417.927 206.794 423.811C201.085 426.754 201.085 436.078 201.085 436.078H204.523C201.772 456.675 193.819 467.961 188.798 472.852H184.581L188.966 477.756V504.891H181.83L186.047 511.273V566.342C182.998 567.611 180.857 570.632 180.857 574.149V581.943H177.509L181.83 587.658V606.189H181.609L141.608 588.391V573.77C141.608 570.396 138.896 567.663 135.549 567.663C132.201 567.663 129.49 570.396 129.49 573.77V588.391L83.4288 609.851C83.4288 609.851 79.3028 610.648 78.0313 605.535C76.7597 600.422 71.5309 601.22 71.5309 601.22L68.6764 588.587L65.8219 601.22C65.8219 601.22 60.5801 600.422 59.3215 605.535C58.063 610.648 53.924 609.851 53.924 609.851V609.89L3.34973 611.78L0 609.89V671H496.717V587.658L501.037 581.943H497.69H497.612Z" fill="#D9D9D9"/>
<path d="M497.612 581.943V574.149C497.612 570.618 495.471 567.598 492.422 566.342V511.273L496.639 504.891H489.503V477.756L493.875 472.852H489.658C484.637 467.948 476.683 450.662 473.933 430.078H477.371C477.371 430.078 477.371 426.767 471.662 423.811C467.588 417.927 469.015 406 465.071 406C461.127 406 462.554 417.927 458.48 423.811C452.771 426.754 452.771 431.078 452.771 431.078H456.209C453.459 451.675 445.505 467.961 440.484 472.852H436.267L440.652 477.756V504.891H433.516L437.733 511.273V566.342C434.684 567.611 432.543 570.632 432.543 574.149C432.465 574.149 382.603 574.149 382.603 574.149V564.786L377.076 561.948L371.548 564.786V568.945C366.177 565.034 359.637 561.347 352.177 559.11L349.076 547.236L343.017 542.437C344.742 538.618 343.549 530.667 339.228 523.801C334.907 530.667 333.714 538.618 335.439 542.437L329.38 547.236L326.279 559.11C318.819 561.347 312.292 565.034 306.908 568.945V564.786L301.38 561.948L295.853 564.786V574.149H245.913C245.913 570.618 243.772 567.598 240.723 566.342V511.273L244.94 504.891H237.804V477.756L242.189 472.852H237.972C232.938 467.948 224.997 456.662 222.247 436.078H225.685C225.685 436.078 225.685 426.767 219.976 423.811C215.902 417.927 217.329 406 213.385 406C209.441 406 210.868 417.927 206.794 423.811C201.085 426.754 201.085 436.078 201.085 436.078H204.523C201.772 456.675 193.819 467.961 188.798 472.852H184.581L188.966 477.756V504.891H181.83L186.047 511.273V566.342C182.998 567.611 180.857 570.632 180.857 574.149V581.943H177.509L181.83 587.658V606.189H181.609L141.608 588.391V573.77C141.608 570.396 138.896 567.663 135.549 567.663C132.201 567.663 129.49 570.396 129.49 573.77V588.391L83.4288 609.851C83.4288 609.851 79.3028 610.648 78.0313 605.535C76.7597 600.422 71.5309 601.22 71.5309 601.22L68.6764 588.587L65.8219 601.22C65.8219 601.22 60.5801 600.422 59.3215 605.535C58.063 610.648 53.924 609.851 53.924 609.851V609.89L3.34973 611.78L0 609.89V671H496.717V587.658L501.037 581.943H497.69H497.612Z" fill="url(#paint8_linear_4358_32593)"/>
</g>
<path d="M457.344 534C457.344 529.582 460.897 526 465.281 526V526C469.665 526 473.218 529.582 473.218 534V586C473.218 587.105 472.33 588 471.234 588H459.328C458.232 588 457.344 587.105 457.344 586V534Z" fill="white"/>
<path d="M202.359 519C202.359 514.582 205.913 511 210.297 511V511C214.68 511 218.234 514.582 218.234 519V571C218.234 572.105 217.345 573 216.25 573H204.344C203.248 573 202.359 572.105 202.359 571V519Z" fill="white"/>
<path d="M328.367 578C328.367 573.582 331.921 570 336.304 570V570C340.688 570 344.242 573.582 344.242 578V590C344.242 591.105 343.353 592 342.257 592H331.344C329.7 592 328.367 590.657 328.367 589V578Z" fill="white"/>
<path d="M457.344 599C457.344 597.343 458.676 596 460.32 596H470.242C471.886 596 473.218 597.343 473.218 599V656C473.218 657.657 471.886 659 470.242 659H460.32C458.676 659 457.344 657.657 457.344 656V599Z" fill="white"/>
<path d="M202.359 584C202.359 582.343 203.692 581 205.336 581H215.257C216.901 581 218.234 582.343 218.234 584V641C218.234 642.657 216.901 644 215.257 644H205.336C203.692 644 202.359 642.657 202.359 641V584Z" fill="white"/>
<path d="M328.367 606C328.367 604.343 329.7 603 331.344 603H341.265C342.909 603 344.242 604.343 344.242 606V663C344.242 664.657 342.909 666 341.265 666H331.344C329.7 666 328.367 664.657 328.367 663V606Z" fill="white"/>
<path d="M357.133 606C357.133 604.343 358.465 603 360.109 603H370.031C371.675 603 373.007 604.343 373.007 606V663C373.007 664.657 371.675 666 370.031 666H360.109C358.465 666 357.133 664.657 357.133 663V606Z" fill="white"/>
<path d="M381.938 606C381.938 604.343 383.27 603 384.914 603H394.836C396.479 603 397.812 604.343 397.812 606V663C397.812 664.657 396.479 666 394.836 666H384.914C383.27 666 381.938 664.657 381.938 663V606Z" fill="white"/>
<path d="M248 606C248 604.343 249.333 603 250.976 603H260.898C262.542 603 263.875 604.343 263.875 606V663C263.875 664.657 262.542 666 260.898 666H250.976C249.333 666 248 664.657 248 663V606Z" fill="white"/>
<path d="M406.742 606C406.742 604.343 408.075 603 409.719 603H419.64C421.284 603 422.617 604.343 422.617 606V663C422.617 664.657 421.284 666 419.64 666H409.719C408.075 666 406.742 664.657 406.742 663V606Z" fill="white"/>
<path d="M272.805 606C272.805 604.343 274.137 603 275.781 603H285.703C287.347 603 288.679 604.343 288.679 606V663C288.679 664.657 287.347 666 285.703 666H275.781C274.137 666 272.805 664.657 272.805 663V606Z" fill="white"/>
<path d="M431.547 606C431.547 604.343 432.879 603 434.523 603H444.445C446.089 603 447.421 604.343 447.421 606V663C447.421 664.657 446.089 666 444.445 666H434.523C432.879 666 431.547 664.657 431.547 663V606Z" fill="white"/>
<path d="M297.609 606C297.609 604.343 298.942 603 300.586 603H310.507C312.151 603 313.484 604.343 313.484 606V663C313.484 664.657 312.151 666 310.507 666H300.586C298.942 666 297.609 664.657 297.609 663V606Z" fill="white"/>
<g opacity="0.2">
<path d="M156.317 568.615V552.884H153.301V531.163H140.862V499.048H145.126C145.126 499.048 146.191 490.216 147.257 479.945C139.263 479.945 140.148 460 130.736 460H90.2334C80.8218 460 81.7065 479.945 73.7125 479.945C74.7784 490.216 75.8442 499.048 75.8442 499.048H80.1077V531.163H67.6691V552.884H64.6527V568.615L46 571.616V576.301H174.97V571.616L156.317 568.615Z" fill="#F8F9FE"/>
<path d="M156.317 568.615V552.884H153.301V531.163H140.862V499.048H145.126C145.126 499.048 146.191 490.216 147.257 479.945C139.263 479.945 140.148 460 130.736 460H90.2334C80.8218 460 81.7065 479.945 73.7125 479.945C74.7784 490.216 75.8442 499.048 75.8442 499.048H80.1077V531.163H67.6691V552.884H64.6527V568.615L46 571.616V576.301H174.97V571.616L156.317 568.615Z" fill="url(#paint9_linear_4358_32593)"/>
</g>
<rect x="86" y="482" width="48" height="6" fill="white"/>
<rect x="91" y="533" width="38" height="6" fill="white"/>
<path d="M95 488H125L120 520H102L95 488Z" fill="white"/>
<defs>
<linearGradient id="paint0_linear_4358_32593" x1="1190.74" y1="448.459" x2="1174.47" y2="648.077" gradientUnits="userSpaceOnUse">
<stop stop-color="#D3E5FF"/>
<stop offset="1" stop-color="#C3C7FF" stop-opacity="0"/>
</linearGradient>
<linearGradient id="paint1_linear_4358_32593" x1="834.977" y1="526" x2="834.977" y2="745.5" gradientUnits="userSpaceOnUse">
<stop stop-color="#D3E5FF"/>
<stop offset="1" stop-color="#C3C7FF" stop-opacity="0"/>
</linearGradient>
<linearGradient id="paint2_linear_4358_32593" x1="840.283" y1="550" x2="834.788" y2="745.5" gradientUnits="userSpaceOnUse">
<stop stop-color="#E6F0FF"/>
<stop offset="1" stop-color="#C3C7FF" stop-opacity="0"/>
</linearGradient>
<linearGradient id="paint3_linear_4358_32593" x1="1307.76" y1="424.369" x2="1058.38" y2="1108.46" gradientUnits="userSpaceOnUse">
<stop stop-color="#D3E5FF"/>
<stop offset="1" stop-color="#C3C7FF" stop-opacity="0"/>
</linearGradient>
<linearGradient id="paint4_linear_4358_32593" x1="993.406" y1="280.395" x2="990.652" y2="761.912" gradientUnits="userSpaceOnUse">
<stop stop-color="#D3E5FF"/>
<stop offset="1" stop-color="#C3C7FF" stop-opacity="0"/>
</linearGradient>
<linearGradient id="paint5_linear_4358_32593" x1="468.421" y1="188.301" x2="465.962" y2="672.836" gradientUnits="userSpaceOnUse">
<stop stop-color="#D3E5FF"/>
<stop offset="1" stop-color="#C3C7FF" stop-opacity="0"/>
</linearGradient>
<linearGradient id="paint6_linear_4358_32593" x1="574.084" y1="537.224" x2="556.557" y2="673.839" gradientUnits="userSpaceOnUse">
<stop stop-color="#D3E5FF"/>
<stop offset="1" stop-color="#C3C7FF" stop-opacity="0"/>
</linearGradient>
<linearGradient id="paint7_linear_4358_32593" x1="57.305" y1="516.24" x2="-62.903" y2="588.342" gradientUnits="userSpaceOnUse">
<stop stop-color="#D3E5FF"/>
<stop offset="1" stop-color="#C3C7FF" stop-opacity="0"/>
</linearGradient>
<linearGradient id="paint8_linear_4358_32593" x1="254.32" y1="497.764" x2="246.795" y2="743.228" gradientUnits="userSpaceOnUse">
<stop stop-color="#D3E5FF"/>
<stop offset="1" stop-color="#C3C7FF" stop-opacity="0"/>
</linearGradient>
<linearGradient id="paint9_linear_4358_32593" x1="112.11" y1="497.283" x2="107.296" y2="596.333" gradientUnits="userSpaceOnUse">
<stop stop-color="#D3E5FF"/>
<stop offset="1" stop-color="#C3C7FF" stop-opacity="0"/>
</linearGradient>
</defs>
</svg>
