<svg width="95" height="96" viewBox="0 0 95 96" fill="none" xmlns="http://www.w3.org/2000/svg">
<g clip-path="url(#clip0_1151_26003)">
<path d="M42.1421 90.8455C39.6228 90.7004 37.289 91.6379 34.8772 92.1104C34.521 92.1811 34.1611 92.2332 33.8049 92.2927C30.7958 91.7198 28.8108 89.8819 27.5085 87.1884C26.8629 85.8528 26.1653 84.5469 25.5308 83.2076C24.4437 80.9159 22.7926 79.3236 20.2992 78.6204C18.6147 78.1442 16.9562 77.5676 15.3125 76.9574C12.6262 75.9604 10.849 74.1188 10.1774 71.2578C9.53179 68.5159 10.3815 65.8484 10.5929 63.1661C10.7822 60.7739 10.2145 58.843 8.786 57.0312C7.39091 55.2603 5.95871 53.5043 4.67864 51.6516C2.96816 49.1738 3.11658 45.5837 4.91981 43.1878C5.69528 42.1572 6.54866 41.1899 7.33896 40.1706C8.77116 38.3216 10.5336 36.6139 10.6078 34.0729C10.6523 32.6145 10.4297 31.1524 10.3629 29.6903C10.285 27.9492 9.66536 26.2341 10.0401 24.4744C10.708 21.3084 12.5891 19.2175 15.6761 18.2242C17.0378 17.7852 18.3661 17.2234 19.7464 16.8812C22.7666 16.1296 24.6589 14.1876 25.9687 11.4532C27.4305 8.39875 28.5622 5.0616 31.909 3.39116C34.0053 3.45812 35.9755 4.16499 37.9791 4.66352C39.9011 5.13972 41.7822 5.35178 43.7079 4.84954C48.0601 5.03555 51.0136 2.11136 54.3492 0.0316798C56.4567 0.00935765 58.2005 0.857598 59.6476 2.34202C60.9388 3.67019 62.2189 5.00951 63.4618 6.38604C65.2094 8.32435 67.3614 9.25816 69.9624 9.29536C71.9957 9.32512 74.0364 9.37349 76.0548 9.58555C79.2086 9.91666 81.7094 12.227 82.3958 15.3521C82.8225 17.2941 83.1675 19.2585 83.4829 21.2228C83.8614 23.548 84.9671 25.371 86.9298 26.6843C88.3546 27.633 89.7497 28.6263 91.1485 29.6085C94.6697 32.0825 95.8978 36.1526 94.3172 40.1371C93.7198 41.6438 93.1261 43.1469 92.4917 44.635C91.4528 47.0718 91.4676 49.4826 92.5139 51.9157C93.1744 53.4448 93.7792 54.9962 94.3728 56.5513C95.7939 60.2642 94.7476 63.8246 91.5418 66.1424C90.0799 67.1989 88.5772 68.196 87.0931 69.2228C85.0895 70.6105 83.8911 72.5042 83.4681 74.915C83.1342 76.8309 82.8299 78.7544 82.3809 80.6443C81.5832 84.0075 78.8969 86.2657 75.4871 86.5038C73.7358 86.6266 71.9771 86.7085 70.2221 86.7271C67.4876 86.7568 65.1797 87.6758 63.3431 89.7554C62.2374 91.0055 61.0724 92.1997 59.911 93.3939C58.7645 94.5733 57.4807 95.5369 55.7666 95.7117C55.659 95.5629 55.5847 95.3285 55.4437 95.2802C53.1248 94.458 51.1731 92.9735 49.0731 91.757C46.9062 90.5032 44.6429 89.6773 42.1384 90.8492L42.1421 90.8455ZM40.1793 66.4474C41.6115 66.4698 42.9324 65.7666 44.1457 64.777C46.8394 62.5857 49.5406 60.4056 52.2343 58.218C59.4584 52.3547 66.6861 46.4989 73.9028 40.6282C75.8841 39.0173 76.6707 36.9339 75.9769 34.4412C75.2942 31.9858 73.6505 30.4902 71.1089 30.0884C69.1313 29.7759 67.5321 30.5683 66.0257 31.7849C57.8963 38.3662 49.7335 44.9066 41.6115 51.5028C40.8509 52.1203 40.5207 52.072 39.8974 51.3428C36.5506 47.4401 33.1593 43.5747 29.7421 39.7353C27.4565 37.1682 23.7128 36.8483 21.2714 38.9354C18.7594 41.0821 18.4775 44.9029 20.7519 47.5443C25.6199 53.1918 30.5398 58.7984 35.4561 64.405C36.6434 65.7592 38.1683 66.4586 40.1756 66.4437L40.1793 66.4474Z" fill="#560BAD"/>
<path d="M31.9051 3.38294C28.5584 5.0571 27.4267 8.39053 25.9649 11.4449C24.6551 14.1794 22.7628 16.1214 19.7426 16.8729C18.3586 17.2189 17.034 17.7807 15.6723 18.216C12.5853 19.2093 10.7079 21.3002 10.0363 24.4662C9.66526 26.2259 10.2812 27.941 10.3591 29.6821C10.4259 31.1442 10.6485 32.61 10.604 34.0647C10.5261 36.6057 8.76736 38.3133 7.33516 40.1624C6.54485 41.1817 5.69147 42.1527 4.916 43.1796C3.11277 45.5755 2.96436 49.1656 4.67483 51.6434C5.9549 53.4998 7.3871 55.2521 8.7822 57.023C10.2107 58.8348 10.7784 60.7657 10.5891 63.1579C10.3777 65.8402 9.53169 68.5114 10.1736 71.2496C10.8452 74.1106 12.6224 75.9521 15.3087 76.9492C16.9524 77.5593 18.6109 78.1323 20.2954 78.6122C22.7851 79.3191 24.4399 80.9077 25.527 83.1994C26.1615 84.5387 26.8591 85.8446 27.5047 87.1802C28.807 89.8774 30.792 91.7116 33.8011 92.2845C30.2837 93.4676 26.4806 91.9273 24.6291 88.5121C23.7275 86.8453 22.9224 85.1265 22.0801 83.4301C21.0227 81.302 19.4569 79.7767 17.1342 79.0735C15.5462 78.5936 13.9878 78.0132 12.4035 77.5035C8.41116 76.2163 6.37046 73.3181 6.5968 69.129C6.68213 67.5107 6.84539 65.8923 7.07172 64.2888C7.46131 61.5209 6.92331 59.0692 5.0236 56.93C3.82516 55.5832 2.72689 54.1434 1.64718 52.6962C-0.553063 49.7534 -0.556774 46.234 1.64718 43.2912C2.86789 41.6617 4.16651 40.0879 5.44659 38.5031C6.69327 36.9591 7.32403 35.218 7.16448 33.2239C6.98638 31.0549 6.70811 28.8897 6.59309 26.717C6.3816 22.7548 8.41858 19.8306 12.1512 18.5769C13.8134 18.0188 15.4646 17.4273 17.1416 16.9176C19.4087 16.2293 20.9707 14.7523 22.0208 12.6801C22.9001 10.9501 23.6941 9.17181 24.6403 7.47905C26.2172 4.66274 28.5955 3.16716 31.9014 3.37922L31.9051 3.38294Z" fill="#743CB5"/>
<path d="M42.1421 90.843C44.6429 89.6748 46.9062 90.5007 49.0767 91.7507C51.1805 92.9636 53.1285 94.4517 55.4474 95.2739C55.5884 95.3223 55.6626 95.5567 55.7702 95.7055C53.8149 96.297 51.9782 95.9547 50.2455 94.9465C48.6092 93.9978 46.9841 93.0305 45.3627 92.0521C44.3609 91.4494 43.2849 91.0662 42.1458 90.8393L42.1421 90.843Z" fill="#743CB5"/>
<path d="M54.3493 0.0246675C51.0174 2.10435 48.064 5.02854 43.708 4.84253C45.8155 3.61853 47.923 2.39453 50.0267 1.16682C51.3625 0.389262 52.7687 -0.120426 54.3493 0.0246675V0.0246675Z" fill="#743CB5"/>
<path d="M40.1831 66.4483C38.1758 66.4632 36.6545 65.7637 35.4635 64.4095C30.5473 58.803 25.6273 53.2001 20.7593 47.5489C18.4849 44.9112 18.7706 41.0904 21.2788 38.94C23.7202 36.8529 27.464 37.1728 29.7495 39.7399C33.1668 43.5793 36.558 47.4447 39.9048 51.3474C40.5281 52.0766 40.8583 52.1212 41.619 51.5073C49.7372 44.9112 57.9 38.3708 66.0331 31.7895C67.5358 30.5729 69.1387 29.7768 71.1163 30.093C73.6579 30.4985 75.3016 31.9941 75.9843 34.4458C76.6781 36.9384 75.8915 39.0218 73.9102 40.6328C66.6936 46.5035 59.4658 52.363 52.2417 58.2226C49.5443 60.4102 46.8432 62.5903 44.1531 64.7816C42.9399 65.7712 41.619 66.4743 40.1868 66.452L40.1831 66.4483Z" fill="#FCFEFD"/>
</g>
<defs>
<clipPath id="clip0_1151_26003">
<rect width="95" height="96" fill="white"/>
</clipPath>
</defs>
</svg>
