<svg width="48" height="48" viewBox="0 0 48 48" fill="none" xmlns="http://www.w3.org/2000/svg">
<path d="M41.0718 4.60027C41.0732 4.10241 40.8425 3.63204 40.4478 3.3285C40.0514 3.02564 39.5368 2.92528 39.0556 3.05635L17.4959 8.90421C17.1562 8.99564 16.8562 9.19671 16.6423 9.47564C16.4284 9.75493 16.3123 10.0967 16.3119 10.4485V33.0963C14.7026 32.1952 12.7773 32.0505 11.0512 32.7006C9.32479 33.3506 7.97375 34.7295 7.35834 36.4681C6.74298 38.2071 6.92655 40.1292 7.85977 41.7202C8.79299 43.3112 10.3805 44.4095 12.1987 44.7209C14.0166 45.0327 15.8798 44.5262 17.2898 43.3369C18.6995 42.1476 19.513 40.397 19.512 38.5523V21.2083L37.912 16.2404V27.3682C36.3027 26.4671 34.3774 26.3222 32.6513 26.9721C30.9248 27.6225 29.5738 29.001 28.9584 30.74C28.343 32.479 28.5266 34.4007 29.4598 35.9917C30.393 37.5828 31.9805 38.681 33.7987 38.9928C35.6166 39.3046 37.4798 38.7982 38.8898 37.6088C40.2995 36.4195 41.113 34.6685 41.112 32.8238C41.1242 32.6081 41.1242 32.3917 41.112 32.176C40.9875 22.9925 41.0718 13.7897 41.0718 4.60027ZM13.2482 41.616C12.4357 41.616 11.6564 41.2932 11.0818 40.7185C10.5072 40.1439 10.1843 39.3646 10.1843 38.5521C10.1843 37.7393 10.5072 36.96 11.0818 36.3854C11.6565 35.8107 12.4358 35.4882 13.2482 35.4882C14.0606 35.4882 14.84 35.8107 15.4146 36.3854C15.9893 36.96 16.3121 37.7393 16.3121 38.5521C16.31 39.3639 15.9867 40.1422 15.4125 40.7164C14.8382 41.2904 14.0604 41.6139 13.2482 41.616ZM19.5122 17.8958V11.6719L37.9122 6.68795V12.9201L19.5122 17.8958ZM34.8082 35.888C33.9957 35.888 33.2164 35.5652 32.6418 34.9905C32.0671 34.4159 31.7443 33.6366 31.7443 32.8238C31.7443 32.0113 32.0671 31.232 32.6418 30.6574C33.2164 30.0827 33.9957 29.7599 34.8082 29.7599C35.6206 29.7599 36.3999 30.0827 36.9746 30.6574C37.5492 31.232 37.8721 32.0113 37.8721 32.8238C37.8699 33.6359 37.5467 34.4142 36.9724 34.9881C36.3981 35.5624 35.6203 35.8859 34.8082 35.888Z" fill="white"/>
</svg>
