<svg width="32" height="33" viewBox="0 0 32 33" fill="none" xmlns="http://www.w3.org/2000/svg">
<path d="M24.6401 16.4865C24.6401 15.3931 23.9601 14.5665 22.8934 14.3531C22.7601 14.3265 22.6267 14.3131 22.4801 14.2998V14.0198C22.4801 13.1931 22.4801 12.3665 22.4801 11.5398C22.4801 10.8331 22.3867 10.1531 22.1734 9.47314C21.1867 6.3798 18.1467 4.52647 14.9334 5.0598C12.3334 5.48647 10.2801 7.40647 9.72005 9.9798C9.60005 10.4998 9.56005 11.0465 9.54672 11.5798C9.52005 12.4731 9.54672 13.3665 9.54672 14.2865C9.38672 14.2998 9.26672 14.3131 9.13339 14.3398C8.09339 14.5531 7.40005 15.3798 7.38672 16.4465C7.38672 17.5798 7.38672 18.7131 7.38672 19.8598C7.38672 21.8331 7.38672 23.7931 7.38672 25.7665C7.38672 27.0065 8.30672 27.9398 9.52005 27.9398C13.8401 27.9398 18.1601 27.9398 22.4801 27.9398C22.6801 27.9398 22.8801 27.9131 23.0667 27.8598C24.0134 27.5931 24.6134 26.7931 24.6134 25.7665C24.6134 24.1798 24.6134 22.6065 24.6134 21.0198C24.6134 19.4331 24.6134 17.9798 24.6134 16.4731L24.6401 16.4865ZM11.0134 11.3131C11.0401 8.91314 12.8001 6.88647 15.1867 6.4998C17.8401 6.07314 20.2801 7.67314 20.9067 10.2865C20.9867 10.6198 21.0267 10.9798 21.0267 11.3265C21.0401 12.3131 21.0267 13.2998 21.0267 14.3131H11.0134C11.0134 14.2331 11.0001 14.1798 11.0001 14.1131C11.0001 13.1798 11.0001 12.2598 11.0001 11.3265L11.0134 11.3131ZM22.3334 26.5131C18.1334 26.5131 13.9334 26.5131 9.73339 26.5131C9.09339 26.5131 8.86672 26.2865 8.86672 25.6331C8.86672 22.6331 8.86672 19.6331 8.86672 16.6331C8.86672 15.9665 9.09339 15.7531 9.76005 15.7531C11.8534 15.7531 13.9601 15.7531 16.0534 15.7531C18.1467 15.7531 20.2667 15.7531 22.3734 15.7531C22.9867 15.7531 23.2267 15.9931 23.2267 16.6065C23.2267 19.6198 23.2267 22.6465 23.2267 25.6598C23.2267 26.2865 23.0001 26.5265 22.3601 26.5265L22.3334 26.5131Z" fill="white"/>
<path d="M16.3868 17.9394C15.4135 17.7661 14.4402 18.2861 14.0535 19.1794C13.6535 20.1261 13.9068 21.2727 14.7735 21.7661C15.2935 22.0594 15.3868 22.3927 15.3202 22.8861C15.3202 22.9127 15.3202 22.9394 15.3202 22.9527C15.3202 23.1794 15.3202 23.3927 15.3202 23.6194C15.3202 24.0727 15.6002 24.3661 16.0268 24.3661C16.4535 24.3661 16.7468 24.0861 16.7468 23.6194C16.7468 23.1527 16.7468 22.6994 16.7468 22.2327C16.7468 22.0994 16.7868 22.0461 16.9068 21.9927C17.8135 21.5927 18.2802 20.7394 18.1735 19.7394C18.0668 18.8194 17.3602 18.0994 16.3868 17.9261V17.9394ZM16.0402 20.7661C15.6135 20.7661 15.3202 20.4861 15.3068 20.0727C15.3068 19.6461 15.6002 19.3527 16.0135 19.3527C16.4402 19.3527 16.7335 19.6461 16.7335 20.0727C16.7335 20.4861 16.4402 20.7661 16.0268 20.7794L16.0402 20.7661Z" fill="white"/>
</svg>
