<svg width="201" height="100" viewBox="0 0 201 100" fill="none" xmlns="http://www.w3.org/2000/svg">
<rect x="71.3604" y="43.8242" width="4.97497" height="14.3585" rx="2.48749" fill="#F72585"/>
<rect x="160.91" y="43.8242" width="4.97497" height="14.3585" rx="2.48749" fill="#F72585"/>
<rect x="81.3105" y="40.2344" width="4.97497" height="21.5378" rx="2.48749" fill="#B5179E"/>
<rect x="121.11" y="40.2344" width="4.97497" height="21.5378" rx="2.48749" fill="#480CA8"/>
<rect x="91.2598" y="43.8242" width="4.97497" height="14.3585" rx="2.48749" fill="#7209B7"/>
<rect x="131.06" y="43.8242" width="4.97497" height="14.3585" rx="2.48749" fill="#560BAD"/>
<rect x="101.21" y="40.2344" width="4.97497" height="21.5378" rx="2.48749" fill="#560BAD"/>
<rect x="141.01" y="40.2344" width="4.97497" height="21.5378" rx="2.48749" fill="#7209B7"/>
<rect x="111.16" y="33.0527" width="4.97497" height="35.8963" rx="2.48749" fill="#480CA8"/>
<rect x="150.96" y="33.0527" width="4.97497" height="35.8963" rx="2.48749" fill="#B5179E"/>
<path d="M64.3219 39.8178C64.6567 39.483 64.8447 39.029 64.8447 38.5556C64.8447 38.0821 64.6567 37.6281 64.3219 37.2933C63.9871 36.9586 63.5331 36.7705 63.0597 36.7705C62.5863 36.7705 62.1322 36.9586 61.7975 37.2933L50.633 48.5111L44.7663 42.6267C45.1066 41.9101 45.2827 41.1266 45.2819 40.3333C45.2819 39.2785 44.9691 38.2474 44.3831 37.3703C43.797 36.4932 42.9641 35.8096 41.9895 35.406C41.015 35.0023 39.9427 34.8967 38.9081 35.1025C37.8735 35.3083 36.9232 35.8162 36.1773 36.5621C35.4315 37.308 34.9235 38.2583 34.7177 39.2929C34.5119 40.3274 34.6175 41.3998 35.0212 42.3743C35.4249 43.3489 36.1085 44.1818 36.9855 44.7678C37.8626 45.3539 38.8937 45.6667 39.9486 45.6667C40.7432 45.662 41.5267 45.4797 42.2419 45.1333L48.1263 51L42.2775 56.8667C41.5515 56.5151 40.7552 56.3327 39.9486 56.3333C38.8937 56.3333 37.8626 56.6461 36.9855 57.2322C36.1085 57.8182 35.4249 58.6511 35.0212 59.6257C34.6175 60.6002 34.5119 61.6726 34.7177 62.7071C34.9235 63.7417 35.4315 64.692 36.1773 65.4379C36.9232 66.1838 37.8735 66.6917 38.9081 66.8975C39.9427 67.1033 41.015 66.9977 41.9895 66.594C42.9641 66.1904 43.797 65.5068 44.3831 64.6297C44.9691 63.7526 45.2819 62.7215 45.2819 61.6667C45.2749 60.8914 45.099 60.127 44.7663 59.4267L64.3219 39.8178ZM39.9486 42.1111C39.597 42.1111 39.2532 42.0068 38.9609 41.8115C38.6685 41.6162 38.4407 41.3385 38.3061 41.0137C38.1716 40.6888 38.1364 40.3314 38.205 39.9865C38.2735 39.6417 38.4429 39.3249 38.6915 39.0763C38.9401 38.8276 39.2569 38.6583 39.6017 38.5897C39.9466 38.5211 40.304 38.5563 40.6289 38.6909C40.9537 38.8254 41.2314 39.0533 41.4267 39.3457C41.6221 39.638 41.7263 39.9817 41.7263 40.3333C41.7263 40.8048 41.539 41.257 41.2056 41.5904C40.8722 41.9238 40.4201 42.1111 39.9486 42.1111ZM39.9486 63.4444C39.597 63.4444 39.2532 63.3402 38.9609 63.1448C38.6685 62.9495 38.4407 62.6718 38.3061 62.347C38.1716 62.0221 38.1364 61.6647 38.205 61.3198C38.2735 60.975 38.4429 60.6582 38.6915 60.4096C38.9401 60.161 39.2569 59.9916 39.6017 59.923C39.9466 59.8544 40.304 59.8897 40.6289 60.0242C40.9537 60.1588 41.2314 60.3866 41.4267 60.679C41.6221 60.9713 41.7263 61.3151 41.7263 61.6667C41.7263 62.1382 41.539 62.5903 41.2056 62.9237C40.8722 63.2571 40.4201 63.4444 39.9486 63.4444Z" fill="white"/>
<path d="M55.434 53.2924C55.0992 52.9576 54.6452 52.7695 54.1718 52.7695C53.6983 52.7695 53.2443 52.9576 52.9095 53.2924C52.5748 53.6271 52.3867 54.0812 52.3867 54.5546C52.3867 55.028 52.5748 55.482 52.9095 55.8168L61.7984 64.7057C61.9637 64.8723 62.1603 65.0046 62.377 65.0948C62.5936 65.1851 62.826 65.2316 63.0607 65.2316C63.2953 65.2316 63.5277 65.1851 63.7443 65.0948C63.961 65.0046 64.1576 64.8723 64.3229 64.7057C64.4895 64.5404 64.6218 64.3438 64.712 64.1272C64.8023 63.9105 64.8487 63.6782 64.8487 63.4435C64.8487 63.2088 64.8023 62.9764 64.712 62.7598C64.6218 62.5431 64.4895 62.3465 64.3229 62.1812L55.434 53.2924Z" fill="white"/>
</svg>
