<svg width="24" height="24" viewBox="0 0 24 24" fill="none" xmlns="http://www.w3.org/2000/svg">
<path d="M11.728 7.6791C11.728 8.16691 12.1249 8.56371 12.6126 8.56371H17.0377C16.9766 8.46921 16.9057 8.38102 16.8251 8.30037L11.9913 3.46656C11.9106 3.38587 11.8223 3.31487 11.728 3.25391V7.6791Z" fill="white"/>
<path d="M17.2827 9.25538H12.6127C11.7431 9.25538 11.0358 8.54808 11.0358 7.67846V3.00846C10.9808 3.00308 10.925 3 10.8688 3H4.57692C3.70731 3 3 3.70731 3 4.57692V18.805C3 19.6746 3.70731 20.3819 4.57692 20.3819H13.6704C12.7369 19.4946 12.1977 18.2592 12.1977 16.945C12.1977 14.3273 14.3273 12.1977 16.945 12.1977C17.0615 12.1977 17.1769 12.2019 17.2912 12.2104V9.42231C17.2912 9.36615 17.2881 9.31038 17.2827 9.25538V9.25538ZM11.3819 15.7692H7.055C6.86385 15.7692 6.70885 15.6142 6.70885 15.4231C6.70885 15.2319 6.86385 15.0769 7.055 15.0769H11.3819C11.5731 15.0769 11.7281 15.2319 11.7281 15.4231C11.7281 15.6142 11.5731 15.7692 11.3819 15.7692ZM12.6181 12.0604H7.055C6.86385 12.0604 6.70885 11.9054 6.70885 11.7142C6.70885 11.5231 6.86385 11.3681 7.055 11.3681H12.6181C12.8092 11.3681 12.9642 11.5231 12.9642 11.7142C12.9642 11.9054 12.8092 12.0604 12.6181 12.0604Z" fill="white"/>
<path d="M17 13C14.7944 13 13 14.7944 13 17C13 18.3432 13.6687 19.5893 14.7886 20.3331C15.4439 20.7694 16.2086 21 17 21C19.2056 21 21 19.2056 21 17C21 14.7944 19.2056 13 17 13V13ZM18.7976 16.0401C18.7976 16.0401 16.9616 18.3785 16.9591 18.3816C16.8347 18.5401 16.5912 18.5543 16.4492 18.4122L15.2296 17.1927C15.0963 17.0594 15.0963 16.8431 15.2296 16.7098C15.363 16.5765 15.5792 16.5765 15.7125 16.7098L16.6598 17.657L18.2604 15.6184C18.3769 15.4701 18.5916 15.4443 18.7399 15.5607C18.8882 15.6772 18.914 15.8918 18.7976 16.0401V16.0401Z" fill="white"/>
</svg>
