<svg width="48" height="48" viewBox="0 0 48 48" fill="none" xmlns="http://www.w3.org/2000/svg">
<path d="M16 13.517C15.6066 13.517 15.2293 13.6733 14.9511 13.9515C14.673 14.2296 14.5167 14.6069 14.5167 15.0003C14.5167 15.3937 14.673 15.771 14.9511 16.0492C15.2293 16.3274 15.6066 16.4837 16 16.4837H32C32.3934 16.4837 32.7707 16.3274 33.0489 16.0492C33.3271 15.771 33.4834 15.3937 33.4834 15.0003C33.4834 14.6069 33.3271 14.2296 33.0489 13.9515C32.7707 13.6733 32.3934 13.517 32 13.517H16ZM14.9511 19.2848C14.673 19.563 14.5167 19.9403 14.5167 20.3337C14.5167 20.7271 14.673 21.1044 14.9511 21.3825C15.2293 21.6607 15.6066 21.817 16 21.817H32C32.3934 21.817 32.7707 21.6607 33.0489 21.3825C33.3271 21.1044 33.4834 20.7271 33.4834 20.3337C33.4834 19.9403 33.3271 19.563 33.0489 19.2848C32.7707 19.0066 32.3934 18.8503 32 18.8503H16C15.6066 18.8503 15.2293 19.0066 14.9511 19.2848ZM16 24.1837C15.6066 24.1837 15.2293 24.3399 14.9511 24.6181C14.673 24.8963 14.5167 25.2736 14.5167 25.667C14.5167 26.0604 14.673 26.4377 14.9511 26.7159C15.2293 26.994 15.6066 27.1503 16 27.1503H32C32.3934 27.1503 32.7707 26.994 33.0489 26.7159C33.3271 26.4377 33.4834 26.0604 33.4834 25.667C33.4834 25.2736 33.3271 24.8963 33.0489 24.6181C32.7707 24.3399 32.3934 24.1837 32 24.1837H16ZM16 29.517C15.6066 29.517 15.2293 29.6733 14.9511 29.9514C14.673 30.2296 14.5167 30.6069 14.5167 31.0003C14.5167 31.3937 14.673 31.771 14.9511 32.0492C15.2293 32.3274 15.6066 32.4837 16 32.4837H24C24.3934 32.4837 24.7707 32.3274 25.0489 32.0492C25.3271 31.771 25.4834 31.3937 25.4834 31.0003C25.4834 30.6069 25.3271 30.2296 25.0489 29.9514C24.7707 29.6733 24.3934 29.517 24 29.517H16Z" fill="white" stroke="white" stroke-width="0.3"/>
<path d="M9.45603 4.45603C8.42771 5.48436 7.85 6.87906 7.85 8.33333V40.3333C7.85 41.7876 8.42771 43.1823 9.45603 44.2106C10.4844 45.239 11.8791 45.8167 13.3333 45.8167H34.6667C36.1209 45.8167 37.5156 45.239 38.544 44.2106C39.5723 43.1823 40.15 41.7876 40.15 40.3333V8.33333C40.15 6.87906 39.5723 5.48436 38.544 4.45603C37.5156 3.42771 36.1209 2.85 34.6667 2.85H13.3333C11.8791 2.85 10.4844 3.42771 9.45603 4.45603ZM13.3333 5.81667H34.6667C35.3341 5.81667 35.9743 6.08181 36.4462 6.55378C36.9182 7.02575 37.1833 7.66587 37.1833 8.33333V40.3333C37.1833 41.0008 36.9182 41.6409 36.4462 42.1129C35.9743 42.5849 35.3341 42.85 34.6667 42.85H13.3333C12.6659 42.85 12.0257 42.5849 11.5538 42.1129C11.0818 41.6409 10.8167 41.0008 10.8167 40.3333V8.33333C10.8167 7.66587 11.0818 7.02575 11.5538 6.55378C12.0257 6.08181 12.6659 5.81667 13.3333 5.81667Z" fill="white" stroke="white" stroke-width="0.3"/>
</svg>
