<svg width="113" height="113" viewBox="0 0 113 113" fill="none" xmlns="http://www.w3.org/2000/svg">
<path fill-rule="evenodd" clip-rule="evenodd" d="M56.25 103.125C82.1383 103.125 103.125 82.1383 103.125 56.25C103.125 30.3617 82.1383 9.375 56.25 9.375C30.3617 9.375 9.375 30.3617 9.375 56.25C9.375 82.1383 30.3617 103.125 56.25 103.125ZM56.25 112.5C87.316 112.5 112.5 87.316 112.5 56.25C112.5 25.184 87.316 0 56.25 0C25.184 0 0 25.184 0 56.25C0 87.316 25.184 112.5 56.25 112.5Z" fill="white" fill-opacity="0.35"/>
<path d="M73.25 68.1875V75.1875H42.9375L41.5625 70.6875C43.4375 68.8542 44.8125 67 45.6875 65.125C46.5625 63.2083 47 60.8333 47 58C47 57.7083 46.9583 57.2292 46.875 56.5625H39.9375V50.5625H45.125C44.2917 47.7292 43.875 45.1667 43.875 42.875C43.875 40.0417 44.4792 37.6042 45.6875 35.5625C46.9375 33.4792 48.6667 31.8958 50.875 30.8125C53.0833 29.7292 55.625 29.1875 58.5 29.1875C63.125 29.1875 66.6458 30.4792 69.0625 33.0625C71.5208 35.6042 72.8125 38.875 72.9375 42.875H64.875C64.8333 40.875 64.3125 39.3125 63.3125 38.1875C62.3125 37.0208 60.75 36.4375 58.625 36.4375C56.6667 36.4375 55.1042 37.0208 53.9375 38.1875C52.8125 39.3542 52.25 41.1458 52.25 43.5625C52.25 44.6458 52.3542 45.7292 52.5625 46.8125C52.8125 47.8542 53.1667 49.1042 53.625 50.5625H65.375V56.5625H55.1875C55.2708 57.2292 55.3125 57.7292 55.3125 58.0625C55.3125 59.8542 54.9583 61.6458 54.25 63.4375C53.5833 65.1875 52.5417 66.7708 51.125 68.1875H73.25Z" fill="white" fill-opacity="0.35"/>
</svg>
