<svg width="100" height="100" viewBox="0 0 100 100" fill="none" xmlns="http://www.w3.org/2000/svg">
<path d="M100 79.2953V82.225C99.9414 82.4417 99.8555 82.6566 99.8301 82.8773C98.9023 90.8166 93.4473 97.1954 85.7383 99.3145C84.7129 99.5957 83.6582 99.7734 82.6172 99.998H78.9062C77.4668 99.6348 75.9863 99.3848 74.5938 98.8887C69.9648 97.2403 66.709 94.0021 64.2988 89.8049C59.752 81.889 55.1797 73.9888 50.6152 66.0827C50.4277 65.7585 50.2324 65.4401 49.9844 65.028C49.7383 65.4323 49.5664 65.7018 49.4063 65.9772C44.7129 74.1099 40.0098 82.2347 35.334 90.3771C32.7695 94.8399 29.1016 97.8926 24.1211 99.2949C23.0645 99.5918 21.9727 99.7676 20.8984 100H17.3828C17.166 99.9414 16.9512 99.8672 16.7285 99.8301C8.5918 98.4785 3.27344 93.8556 0.761719 86.0198C0.408203 84.9183 0.248047 83.7542 0 82.6175V78.7114C0.197266 77.7973 0.341797 76.8696 0.599609 75.9731C2.81641 68.276 7.80859 63.3249 15.668 61.8445C23.2988 60.407 29.6289 63.0437 34.3496 69.274C35.1465 70.3248 35.75 71.5201 36.4766 72.7037C36.6543 72.4126 36.8262 72.1412 36.9863 71.8638C39.6523 67.2467 42.2988 62.6179 44.998 58.0204C45.3848 57.3622 45.3477 56.9169 44.9766 56.2762C35.3887 39.7004 25.8203 23.1148 16.2637 6.52136C15.8965 5.88465 15.5488 5.17959 15.4316 4.46866C15.1074 2.47847 15.998 1.19724 18.3594 0H20.1172C21.5742 0.519521 22.459 1.59763 23.2148 2.91205C31.9277 18.068 40.6738 33.2064 49.4121 48.3467C49.5781 48.6358 49.7676 48.9131 49.998 49.2803C50.2578 48.8448 50.4434 48.544 50.6191 48.2373C59.3398 33.1244 68.0684 18.0133 76.7656 2.88666C77.5234 1.56833 78.4063 0.490225 79.8828 0H81.6406C82.3047 0.441398 83.0703 0.785141 83.6152 1.34372C84.8828 2.64643 84.918 4.42569 83.8398 6.29285C74.2109 22.9859 64.5781 39.677 54.9453 56.368C54.6855 56.8192 54.4766 57.1805 54.8184 57.7645C57.6113 62.532 60.3535 67.3268 63.1172 72.1099C63.2324 72.3072 63.3965 72.4771 63.4121 72.4986C64.6953 70.7408 65.7773 68.8444 67.248 67.3249C72.2402 62.157 78.3965 60.3465 85.3418 62.0593C92.4355 63.8093 97.0313 68.4284 99.1973 75.4028C99.5879 76.6626 99.7383 77.9946 100 79.2953ZM80.7578 69.2721C74.7227 69.2779 69.7227 74.4048 69.7187 80.5922C69.7129 86.9006 74.7422 92.172 80.7695 92.1798C87.0254 92.1877 92.168 87.012 92.1582 80.7211C92.1484 74.4146 87.0215 69.2662 80.7578 69.2721V69.2721ZM19.248 69.2858C12.9453 69.2721 7.8418 74.354 7.81641 80.6703C7.79102 86.9397 12.875 92.1545 19.0391 92.1818C25.1172 92.2091 30.2344 86.9417 30.2539 80.6351C30.2734 74.4497 25.2773 69.2975 19.248 69.2858V69.2858Z" fill="white" fill-opacity="0.35"/>
</svg>
