<svg width="201" height="100" viewBox="0 0 201 100" fill="none" xmlns="http://www.w3.org/2000/svg">
<rect x="53.4883" y="42.8228" width="4.97497" height="14.3585" rx="2.48749" fill="#F72585"/>
<rect x="143.038" y="42.8228" width="4.97497" height="14.3585" rx="2.48749" fill="#F72585"/>
<rect x="63.438" y="39.2324" width="4.97497" height="21.5378" rx="2.48749" fill="#B5179E"/>
<rect x="103.238" y="39.2324" width="4.97497" height="21.5378" rx="2.48749" fill="#480CA8"/>
<rect x="73.3882" y="42.8228" width="4.97497" height="14.3585" rx="2.48749" fill="#7209B7"/>
<rect x="113.188" y="42.8228" width="4.97497" height="14.3585" rx="2.48749" fill="#560BAD"/>
<rect x="83.3379" y="39.2324" width="4.97497" height="21.5378" rx="2.48749" fill="#560BAD"/>
<rect x="123.138" y="39.2324" width="4.97497" height="21.5378" rx="2.48749" fill="#7209B7"/>
<rect x="93.2881" y="32.0518" width="4.97497" height="35.8963" rx="2.48749" fill="#480CA8"/>
<rect x="133.088" y="32.0518" width="4.97497" height="35.8963" rx="2.48749" fill="#B5179E"/>
<g clip-path="url(#clip0_848_8356)">
<path d="M165.062 59.7207C165.006 59.9645 164.964 60.215 164.887 60.4587C164.676 61.1697 164.296 61.7926 163.755 62.3207C158.249 67.629 152.737 72.9306 147.224 78.2322C147.055 78.3947 146.83 78.5233 146.605 78.591C144.201 79.3697 141.796 80.1348 139.391 80.9066C139.37 80.9134 139.349 80.9337 139.328 80.9473C139.188 80.9473 139.047 80.9473 138.906 80.9473C138.484 80.8118 138.203 80.541 138.062 80.1348C138.062 79.9993 138.062 79.8639 138.062 79.7285C138.463 78.5775 138.871 77.4264 139.272 76.2754C139.68 75.0973 140.073 73.9191 140.502 72.7478C140.587 72.5108 140.741 72.2671 140.924 72.091C146.345 66.8572 151.773 61.6368 157.202 56.403C157.996 55.6311 158.91 55.1165 160.035 54.9811C160.056 54.9811 160.084 54.9608 160.105 54.9473C160.422 54.9473 160.738 54.9473 161.055 54.9473C161.104 54.9608 161.153 54.9879 161.202 54.9947C163.038 55.2452 164.514 56.5384 164.943 58.2717C164.985 58.4478 165.027 58.6306 165.062 58.8134C165.062 59.1113 165.062 59.416 165.062 59.7207ZM157.138 59.4092C152.47 63.9051 147.78 68.4212 143.118 72.9171C144.208 73.9665 145.319 75.0363 146.409 76.0858C151.077 71.5832 155.767 67.0671 160.436 62.5712C159.339 61.5217 158.228 60.452 157.138 59.4092ZM158.657 57.8858C159.782 58.9691 160.893 60.0389 162.011 61.1155C162.749 60.4926 163.115 59.7139 162.883 58.7592C162.665 57.8587 162.067 57.2697 161.132 57.053C160.134 56.816 159.311 57.1613 158.657 57.8858ZM140.784 78.327C142.028 77.9275 143.216 77.5483 144.37 77.1759C143.575 76.404 142.787 75.6322 141.986 74.8535C141.599 75.9842 141.198 77.1217 140.784 78.327Z" fill="white"/>
</g>
<defs>
<clipPath id="clip0_848_8356">
<rect width="27" height="26" fill="white" transform="translate(138.062 54.9473)"/>
</clipPath>
</defs>
</svg>
