<svg width="92" height="113" viewBox="0 0 92 113" fill="none" xmlns="http://www.w3.org/2000/svg">
<path d="M81.959 112.5H9.45225C9.35597 112.45 9.26244 112.371 9.16065 112.36C3.95036 111.702 0 107.262 0 101.614C0.00825284 71.3816 -0.0137547 41.1459 0.049517 10.913C0.052268 9.28446 0.437401 7.5266 1.12514 6.05485C3.09757 1.8459 6.66279 0.0220182 11.2294 0.0220182C29.4984 0.0192673 47.7674 0.033022 66.0337 1.06343e-05C67.621 -0.00274031 68.8177 0.528193 69.9208 1.63958C76.5231 8.29137 83.1501 14.9156 89.8019 21.5179C90.916 22.6238 91.4305 23.826 91.4277 25.4105C91.3947 41.3688 91.4085 57.327 91.4085 73.2852C91.4085 82.655 91.4085 92.0247 91.4085 101.397C91.4085 105.103 90.0688 108.162 87.0812 110.434C85.5627 111.589 83.7828 112.101 81.959 112.5ZM63.2828 7.05069H62.0229C45.11 7.05069 28.1945 7.05069 11.2816 7.05069C8.31336 7.05069 7.03417 8.34638 7.03417 11.3504C7.03417 41.2917 7.03417 71.233 7.03417 101.174C7.03417 104.176 8.31336 105.466 11.2899 105.469C34.2438 105.469 57.1977 105.469 80.1516 105.469C83.0703 105.469 84.3743 104.165 84.3743 101.254C84.3743 77.2796 84.3743 53.3024 84.3743 29.3279C84.3743 28.9455 84.3743 28.5603 84.3743 28.1395C79.6977 28.1395 75.1971 28.156 70.6938 28.1339C66.2841 28.1119 63.324 25.1602 63.2828 20.7642C63.2635 18.6047 63.28 16.4452 63.28 14.2857C63.28 11.9144 63.28 9.54305 63.28 7.04794L63.2828 7.05069Z" fill="white" fill-opacity="0.35"/>
<path d="M14.1157 56.1821V49.2855H77.2555V56.1821H14.1157Z" fill="white" fill-opacity="0.35"/>
<path d="M14.1172 73.7611V66.859H77.2569V73.7611H14.1172Z" fill="white" fill-opacity="0.35"/>
<path d="M14.1128 91.3283V84.4371H63.231V91.3283H14.1128Z" fill="white" fill-opacity="0.35"/>
<path d="M70.3643 91.3508V84.4597H77.2774V91.3508H70.3643Z" fill="white" fill-opacity="0.35"/>
</svg>
