<svg width="94" height="115" viewBox="0 0 94 115" fill="none" xmlns="http://www.w3.org/2000/svg">
<path d="M85.0214 114.206H2.4834C0.553188 113.317 0 111.788 0 109.716C0.0416378 74.6416 0.0416378 39.5648 0 4.49093C0 2.42094 0.550213 0.88629 2.4834 0H85.0214C85.0838 0.0386636 85.1433 0.0921979 85.2147 0.110043C91.044 1.60008 93.7237 5.05007 93.7237 11.0697C93.7237 36.5937 93.7237 62.1176 93.7237 87.6416C93.7237 93.1764 93.798 98.7142 93.6969 104.249C93.6166 108.55 91.4722 111.622 87.5553 113.403C86.7553 113.766 85.872 113.942 85.0243 114.203L85.0214 114.206ZM20.1497 107.515H21.1222C41.8251 107.515 62.528 107.515 83.2339 107.515C85.7262 107.515 87.0289 106.173 87.0289 103.616C87.0289 72.6192 87.0289 41.6199 87.0289 10.6236C87.0289 7.95876 85.7441 6.69476 83.0436 6.69476C62.4894 6.69476 41.9322 6.69476 21.378 6.69476H20.1497V107.515ZM6.76019 107.422H13.3568V6.76316H6.76019V107.422Z" fill="white" fill-opacity="0.35"/>
<path d="M71.156 42.1075V27.8227C64.0151 29.5894 56.9426 31.3381 49.769 33.1107C49.769 33.5777 49.769 34.0149 49.769 34.455C49.769 42.0747 49.7958 49.6974 49.7571 57.3171C49.7333 62.159 46.1525 66.3258 41.4504 67.1109C36.5847 67.9229 31.8142 65.1391 30.2587 60.4727C29.0304 56.7878 29.7115 53.3913 32.3139 50.5094C34.9222 47.6245 38.2264 46.6817 42.0303 47.4668C42.3515 47.5323 42.6727 47.6007 43.0772 47.6869C43.0772 45.0697 43.0772 42.509 43.0772 39.9453C43.0772 36.8968 43.0683 33.8483 43.0802 30.7998C43.0891 28.8012 43.9457 27.677 45.8789 27.1952C55.06 24.9051 64.2441 22.615 73.4341 20.3547C75.9503 19.7361 77.8686 21.2202 77.8715 23.7571C77.8834 33.0869 77.9161 42.4197 77.8567 51.7496C77.821 57.3588 73.2051 61.7516 67.6376 61.6326C62.0075 61.5107 57.6386 56.8918 57.8081 51.241C57.9925 45.034 63.9943 40.433 70.0526 41.8517C70.3767 41.926 70.7009 42.0034 71.147 42.1075H71.156ZM71.1857 51.6395C71.1946 49.8253 69.6748 48.2966 67.8547 48.2877C66.0375 48.2788 64.5058 49.7926 64.4969 51.6128C64.488 53.4419 65.984 54.9408 67.8249 54.9468C69.6689 54.9527 71.1768 53.4686 71.1827 51.6395H71.1857ZM39.6778 60.5411C41.5069 60.5708 43.0415 59.0897 43.0743 57.2666C43.104 55.4434 41.6377 53.9385 39.7819 53.8939C37.9558 53.8523 36.4182 55.3304 36.3914 57.1595C36.3646 58.9856 37.8457 60.5084 39.6778 60.5381V60.5411Z" fill="white" fill-opacity="0.35"/>
<path d="M53.2224 73.8328C60.0927 73.8328 66.9659 73.8239 73.8361 73.8388C76.4979 73.8447 78.1843 76.2567 77.1255 78.5409C76.4801 79.9298 75.3202 80.5335 73.8034 80.5305C69.3095 80.5216 64.8156 80.5276 60.3217 80.5276C51.1108 80.5276 41.8999 80.5335 32.6861 80.5246C30.0034 80.5216 28.2874 78.1572 29.3164 75.8701C29.9618 74.4336 31.1514 73.8269 32.7218 73.8298C39.5563 73.8447 46.3909 73.8358 53.2254 73.8358L53.2224 73.8328Z" fill="white" fill-opacity="0.35"/>
<path d="M53.1118 93.9082C49.3257 93.9082 45.5397 93.9112 41.7506 93.9082C39.4873 93.9053 37.9675 92.5639 37.9556 90.5832C37.9437 88.5994 39.4695 87.2224 41.712 87.2194C49.3971 87.2135 57.0822 87.2135 64.7674 87.2194C67.0069 87.2194 68.5326 88.6113 68.5088 90.598C68.485 92.5461 66.9831 93.9023 64.8061 93.9053C60.907 93.9142 57.0109 93.9053 53.1118 93.9053V93.9082Z" fill="white" fill-opacity="0.35"/>
</svg>
