<svg width="24" height="24" viewBox="0 0 24 24" fill="none" xmlns="http://www.w3.org/2000/svg">
<path d="M16.8463 11.4844H16.154C15.8672 11.4844 15.6348 11.7169 15.6348 12.0036C15.6348 12.2904 15.8673 12.5228 16.154 12.5228H16.8463C17.1331 12.5228 17.3655 12.2903 17.3655 12.0036C17.3655 11.7168 17.1331 11.4844 16.8463 11.4844Z" fill="black"/>
<path d="M14.6367 13.0503C14.6367 13.7114 15.1745 14.2491 15.8355 14.2491H19.7235V11.8516H15.8355C15.1745 11.8516 14.6367 12.3893 14.6367 13.0503V13.0503ZM16.491 13.0856C16.491 13.3524 16.2747 13.5688 16.0078 13.5688C15.7409 13.5688 15.5245 13.3524 15.5245 13.0856C15.5245 12.8187 15.7409 12.6023 16.0078 12.6023C16.2747 12.6023 16.491 12.8187 16.491 13.0856Z" fill="white"/>
<path d="M15.8354 15.1815C14.6625 15.1815 13.7083 14.2273 13.7083 13.0544C13.7083 11.8816 14.6626 10.9273 15.8354 10.9273H19.7235V9.30749C19.7235 8.21176 18.832 7.32031 17.7363 7.32031H6.99548C5.89975 7.32031 5.0083 8.21176 5.0083 9.30749V16.7437C5.0083 17.8394 5.89975 18.7309 6.99548 18.7309H17.7363C18.8321 18.7309 19.7235 17.8394 19.7235 16.7437V15.1815H15.8354Z" fill="white"/>
<path d="M6.99523 6.39258C18.6704 6.39258 17.8337 6.38295 18.09 6.41411C17.7715 5.74061 17.0858 5.27344 16.2927 5.27344H6.99523C5.92827 5.27344 5.05539 6.11876 5.01025 7.17478C5.5311 6.68979 6.22905 6.39258 6.99523 6.39258V6.39258Z" fill="white"/>
</svg>
