<svg width="64" height="64" viewBox="0 0 64 64" fill="none" xmlns="http://www.w3.org/2000/svg">
<path d="M52.3121 23.1147V45.9339C52.1589 46.0067 52.198 46.1687 52.1697 46.2861C51.549 48.883 49.3293 50.6614 46.6704 50.6625C36.5468 50.6658 26.4242 50.6669 16.3006 50.6625C13.1732 50.6614 10.6741 48.1634 10.6719 45.0262C10.6654 36.3364 10.6643 27.6455 10.673 18.9546C10.6763 15.8206 13.1819 13.3389 16.3158 13.3335C18.254 13.3302 20.1911 13.3335 22.1293 13.3335C28.9592 13.3335 35.7891 13.3302 42.6201 13.3346C45.4344 13.3367 47.827 15.4489 48.1629 18.2295C48.1944 18.4871 48.3227 18.5567 48.5238 18.6306C50.35 19.3035 51.5382 20.5808 52.1078 22.444C52.1763 22.6679 52.148 22.9212 52.3121 23.1158V23.1147ZM31.5072 48.0427C36.4815 48.0427 41.4548 48.0427 46.4291 48.0427C48.4412 48.0427 49.6913 46.7839 49.6924 44.7599C49.6935 43.5109 49.6826 42.2608 49.7 41.0117C49.7043 40.7008 49.6358 40.5954 49.3032 40.6019C48.1379 40.6237 46.9726 40.6204 45.8073 40.6084C44.0865 40.5911 42.3635 40.69 40.646 40.5574C37.3588 40.303 34.7923 36.9603 35.3543 33.7003C35.8902 30.5946 38.3078 28.5521 41.4558 28.5499C44.0582 28.5477 46.6606 28.5412 49.2619 28.5597C49.6315 28.5618 49.7065 28.4553 49.7011 28.1064C49.6793 26.79 49.6956 25.4725 49.6924 24.155C49.6869 22.2124 48.4216 20.9449 46.4823 20.9449C36.4805 20.9439 26.4786 20.9428 16.4767 20.9449C14.5679 20.9449 13.2928 22.2233 13.2917 24.1387C13.2884 31.037 13.2917 37.9365 13.2895 44.8349C13.2895 45.1621 13.3156 45.486 13.4015 45.8023C13.7776 47.1861 14.9418 48.0438 16.4637 48.0449C21.4782 48.0482 26.4927 48.046 31.5072 48.046V48.0427ZM13.3123 19.1883C14.5918 18.3393 15.9734 18.3013 17.3811 18.3034C26.609 18.3165 35.8369 18.31 45.0637 18.31C45.566 18.31 45.5725 18.3002 45.3801 17.8284C44.9105 16.6761 43.8169 15.9565 42.4951 15.9554C33.7955 15.9522 25.097 15.9543 16.3974 15.9543C16.33 15.9543 16.2615 15.9554 16.1941 15.9587C14.4994 16.0457 13.2319 17.4284 13.3123 19.1894V19.1883ZM45.1529 37.9626C46.5486 37.9626 47.9433 37.955 49.3391 37.9691C49.6228 37.9724 49.7 37.8952 49.6989 37.6093C49.6869 35.5863 49.6837 33.5644 49.7011 31.5414C49.7032 31.2218 49.6054 31.1686 49.3141 31.1697C46.6856 31.1816 44.0582 31.1751 41.4298 31.1784C41.2004 31.1784 40.9678 31.186 40.7427 31.2284C38.9774 31.5599 37.7882 33.0937 37.9262 34.8493C38.0643 36.6049 39.5253 37.9463 41.3341 37.9604C42.607 37.9702 43.881 37.9626 45.154 37.9626H45.1529Z" fill="white" fill-opacity="0.35"/>
<path d="M52.3621 45.9655L52.3336 45.979C52.2756 46.0066 52.254 46.0488 52.2431 46.1031C52.2375 46.1307 52.2351 46.1598 52.2325 46.1918L52.2322 46.1959L52.3621 45.9655ZM52.3621 45.9655V45.9339M52.3621 45.9655V45.9339M52.3621 45.9339V23.2526V23.1158V23.1147H52.3134M52.3621 45.9339L52.3134 23.1147M52.3134 23.1147L52.3504 23.0835C52.2765 22.996 52.2446 22.894 52.2232 22.7815C52.2161 22.744 52.2103 22.7069 52.2044 22.6688C52.2014 22.6489 52.1982 22.6286 52.1949 22.608C52.1852 22.549 52.1737 22.4886 52.1556 22.4294C51.5815 20.5515 50.3823 19.2621 48.5411 18.5837L48.541 18.5837C48.4405 18.5467 48.3673 18.5138 48.3144 18.4629C48.2636 18.4141 48.2273 18.3441 48.2125 18.2235C48.2125 18.2235 48.2125 18.2235 48.2125 18.2234L48.1629 18.2295M52.3134 23.1147L46.6704 50.6625C36.5468 50.6658 26.4242 50.6669 16.3006 50.6625C13.1732 50.6614 10.6741 48.1634 10.6719 45.0262C10.6654 36.3364 10.6643 27.6455 10.673 18.9546C10.6763 15.8206 13.1819 13.3389 16.3158 13.3335M48.1629 18.2295C47.827 15.4489 45.4344 13.3367 42.6201 13.3346C37.8384 13.3315 33.0572 13.3322 28.2762 13.3329C26.2272 13.3332 24.1783 13.3335 22.1293 13.3335C21.4832 13.3335 20.8372 13.3331 20.1913 13.3328C18.8995 13.332 17.6079 13.3313 16.3158 13.3335M48.1629 18.2295C48.1944 18.4871 48.3227 18.5567 48.5238 18.6306M48.1629 18.2295L48.5238 18.6306M16.3158 13.3335L16.3157 13.2835C13.1545 13.289 10.6263 15.7927 10.623 18.9545C10.6143 27.6455 10.6154 36.3364 10.6219 45.0262C10.6241 48.191 13.1455 50.7114 16.3006 50.7125C26.4242 50.7169 36.5468 50.7158 46.6704 50.7125C49.3528 50.7114 51.5923 48.9168 52.2183 46.2978L16.3158 13.3335ZM48.5238 18.6306C50.35 19.3035 51.5382 20.5808 52.1078 22.444C52.1307 22.5189 52.1428 22.5971 52.1548 22.6753L48.5238 18.6306ZM49.3396 37.9191H49.3397C49.4811 37.9207 49.5517 37.901 49.5904 37.8623C49.6293 37.8234 49.6494 37.7521 49.6489 37.6096C49.6369 35.5865 49.6337 33.5643 49.6511 31.541C49.6521 31.3821 49.6271 31.3101 49.5847 31.2729C49.5632 31.254 49.5329 31.2402 49.4881 31.2314C49.4429 31.2225 49.3861 31.2194 49.3143 31.2197C47.5954 31.2275 45.8769 31.2274 44.1583 31.2273C43.2488 31.2273 42.3394 31.2272 41.4298 31.2284H41.4298C41.2011 31.2284 40.9723 31.236 40.752 31.2775L40.752 31.2775C39.0111 31.6045 37.8401 33.1159 37.9761 34.8454C38.112 36.5743 39.5507 37.8965 41.3345 37.9104C42.2198 37.9172 43.1055 37.9156 43.9912 37.914C44.3784 37.9133 44.7657 37.9126 45.1529 37.9126L49.3396 37.9191ZM49.3396 37.9191C48.3054 37.9086 47.2717 37.9101 46.2381 37.9116C45.8767 37.9121 45.5153 37.9126 45.154 37.9126L49.3396 37.9191ZM40.7427 31.2284C40.9678 31.186 41.2004 31.1784 41.4298 31.1784C42.3396 31.1772 43.2492 31.1773 44.1589 31.1773C45.8772 31.1774 47.5954 31.1775 49.3141 31.1697L40.7427 31.2284ZM40.7427 31.2284C38.9774 31.5599 37.7882 33.0937 37.9262 34.8493C38.0643 36.6049 39.5253 37.9463 41.3341 37.9604C42.2196 37.9672 43.1057 37.9656 43.9915 37.964C44.3787 37.9633 44.7658 37.9626 45.1529 37.9626L40.7427 31.2284ZM31.5072 47.9927H31.4572V47.996C30.0412 47.996 28.6251 47.9962 27.2091 47.9963C23.6273 47.9968 20.0455 47.9972 16.4637 47.9949C14.9627 47.9938 13.8195 47.1497 13.4497 45.7892C13.3654 45.4787 13.3395 45.1596 13.3395 44.8349C13.3405 41.6993 13.3404 38.5635 13.3402 35.4277C13.3401 31.6646 13.3399 27.9015 13.3417 24.1387C13.3422 23.1924 13.6573 22.4072 14.2042 21.8589C14.7511 21.3105 15.5337 20.9949 16.4767 20.9949H16.4767C26.4786 20.9928 36.4805 20.9939 46.4823 20.9949C47.4408 20.9949 48.2285 21.308 48.7772 21.8569C49.3258 22.4058 49.6397 23.1949 49.6424 24.1551C49.6435 24.602 49.6423 25.0492 49.6412 25.4964C49.6389 26.3667 49.6367 27.2374 49.6511 28.1072C49.6538 28.2828 49.6347 28.3771 49.5853 28.4309C49.537 28.4835 49.4466 28.5108 49.2622 28.5097C47.046 28.4939 44.829 28.4963 42.6122 28.4987C42.2267 28.4992 41.8413 28.4996 41.4558 28.4999C38.2833 28.5021 35.845 30.5622 35.305 33.6918C34.7381 36.9804 37.3251 40.3505 40.6421 40.6072L40.646 40.5574L40.6422 40.6072C41.7875 40.6956 42.9371 40.6813 44.0843 40.667C44.6594 40.6598 45.2338 40.6527 45.8068 40.6584C46.9723 40.6704 48.1381 40.6737 49.3041 40.6519L49.3042 40.6519C49.4691 40.6487 49.5486 40.6746 49.5908 40.7213C49.6345 40.7697 49.6522 40.8547 49.65 41.011C49.6377 41.8891 49.6395 42.7679 49.6412 43.6461C49.642 44.0175 49.6427 44.3888 49.6424 44.7598C49.6418 45.7615 49.3324 46.5686 48.7794 47.1251C48.2264 47.6816 47.4245 47.9927 46.4291 47.9927H46.3999H46.3708H46.3416H46.3125H46.2833H46.2542H46.225H46.1959H46.1667H46.1376H46.1085H46.0793H46.0502H46.021H45.9919H45.9627H45.9336H45.9044H45.8753H45.8461H45.817H45.7878H45.7587H45.7296H45.7004H45.6713H45.6421H45.613H45.5838H45.5547H45.5255H45.4964H45.4672H45.4381H45.409H45.3798H45.3507H45.3215H45.2924H45.2632H45.2341H45.2049H45.1758H45.1466H45.1175H45.0884H45.0592H45.0301H45.0009H44.9718H44.9426H44.9135H44.8843H44.8552H44.826H44.7969H44.7678H44.7386H44.7095H44.6803H44.6512H44.622H44.5929H44.5637H44.5346H44.5055H44.4763H44.4472H44.418H44.3889H44.3597H44.3306H44.3014H44.2723H44.2432H44.214H44.1849H44.1557H44.1266H44.0974H44.0683H44.0391H44.01H43.9809H43.9517H43.9226H43.8934H43.8643H43.8351H43.806H43.7768H43.7477H43.7186H43.6894H43.6603H43.6311H43.602H43.5728H43.5437H43.5145H43.4854H43.4563H43.4271H43.398H43.3688H43.3397H43.3105H43.2814H43.2522H43.2231H43.194H43.1648H43.1357H43.1065H43.0774H43.0482H43.0191H42.9899H42.9608H42.9317H42.9025H42.8734H42.8442H42.8151H42.7859H42.7568H42.7276H42.6985H42.6694H42.6402H42.6111H42.5819H42.5528H42.5236H42.4945H42.4654H42.4362H42.4071H42.3779H42.3488H42.3196H42.2905H42.2613H42.2322H42.2031H42.1739H42.1448H42.1156H42.0865H42.0573H42.0282H41.9991H41.9699H41.9408H41.9116H41.8825H41.8533H41.8242H41.795H41.7659H41.7368H41.7076H41.6785H41.6493H41.6202H41.591H41.5619H41.5328H41.5036H41.4745H41.4453H41.4162H41.387H41.3579H41.3288H41.2996H41.2705H41.2413H41.2122H41.183H41.1539H41.1248H41.0956H41.0665H41.0373H41.0082H40.979H40.9499H40.9207H40.8916H40.8625H40.8333H40.8042H40.775H40.7459H40.7167H40.6876H40.6585H40.6293H40.6002H40.571H40.5419H40.5127H40.4836H40.4545H40.4253H40.3962H40.367H40.3379H40.3087H40.2796H40.2505H40.2213H40.1922H40.163H40.1339H40.1047H40.0756H40.0464H40.0173H39.9882H39.959H39.9299H39.9007H39.8716H39.8424H39.8133H39.7842H39.755H39.7259H39.6967H39.6676H39.6384H39.6093H39.5802H39.551H39.5219H39.4927H39.4636H39.4344H39.4053H39.3762H39.347H39.3179H39.2887H39.2596H39.2304H39.2013H39.1722H39.143H39.1139H39.0847H39.0556H39.0264H38.9973H38.9682H38.939H38.9099H38.8807H38.8516H38.8224H38.7933H38.7642H38.735H38.7059H38.6767H38.6476H38.6184H38.5893H38.5601H38.531H38.5019H38.4727H38.4436H38.4144H38.3853H38.3561H38.327H38.2979H38.2687H38.2396H38.2104H38.1813H38.1521H38.123H38.0939H38.0647H38.0356H38.0064H37.9773H37.9481H37.919H37.8899H37.8607H37.8316H37.8024H37.7733H37.7441H37.715H37.6859H37.6567H37.6276H37.5984H37.5693H37.5401H37.511H37.4819H37.4527H37.4236H37.3944H37.3653H37.3361H37.307H37.2778H37.2487H37.2196H37.1904H37.1613H37.1321H37.103H37.0738H37.0447H37.0156H36.9864H36.9573H36.9281H36.899H36.8698H36.8407H36.8116H36.7824H36.7533H36.7241H36.695H36.6658H36.6367H36.6076H36.5784H36.5493H36.5201H36.491H36.4618H36.4327H36.4035H36.3744H36.3453H36.3161H36.287H36.2578H36.2287H36.1995H36.1704H36.1413H36.1121H36.083H36.0538H36.0247H35.9955H35.9664H35.9373H35.9081H35.879H35.8498H35.8207H35.7915H35.7624H35.7332H35.7041H35.675H35.6458H35.6167H35.5875H35.5584H35.5292H35.5001H35.4709H35.4418H35.4127H35.3835H35.3544H35.3252H35.2961H35.2669H35.2378H35.2087H35.1795H35.1504H35.1212H35.0921H35.0629H35.0338H35.0046H34.9755H34.9464H34.9172H34.8881H34.8589H34.8298H34.8006H34.7715H34.7424H34.7132H34.6841H34.6549H34.6258H34.5966H34.5675H34.5383H34.5092H34.4801H34.4509H34.4218H34.3926H34.3635H34.3343H34.3052H34.276H34.2469H34.2178H34.1886H34.1595H34.1303H34.1012H34.072H34.0429H34.0137H33.9846H33.9555H33.9263H33.8972H33.868H33.8389H33.8097H33.7806H33.7514H33.7223H33.6932H33.664H33.6349H33.6057H33.5766H33.5474H33.5183H33.4891H33.46H33.4308H33.4017H33.3726H33.3434H33.3143H33.2851H33.256H33.2268H33.1977H33.1685H33.1394H33.1103H33.0811H33.052H33.0228H32.9937H32.9645H32.9354H32.9062H32.8771H32.8479H32.8188H32.7897H32.7605H32.7314H32.7022H32.6731H32.6439H32.6148H32.5856H32.5565H32.5273H32.4982H32.4691H32.4399H32.4108H32.3816H32.3525H32.3233H32.2942H32.265H32.2359H32.2067H32.1776H32.1485H32.1193H32.0902H32.061H32.0319H32.0027H31.9736H31.9444H31.9153H31.8861H31.857H31.8279H31.7987H31.7696H31.7404H31.7113H31.6821H31.653H31.6238H31.5947H31.5655H31.5364H31.5072ZM13.3594 19.098C13.326 17.4068 14.5585 16.0927 16.1966 16.0086L16.1941 15.9587L16.1965 16.0086C16.2628 16.0054 16.3305 16.0043 16.3974 16.0043C18.883 16.0043 21.3686 16.0042 23.8542 16.004C30.0678 16.0035 36.2811 16.0031 42.495 16.0054C43.7977 16.0065 44.8723 16.7149 45.3338 17.8473C45.3823 17.9662 45.4166 18.0522 45.4342 18.116C45.4528 18.1829 45.4475 18.2081 45.4406 18.2186C45.4339 18.2288 45.4138 18.2432 45.3461 18.2514C45.2815 18.2593 45.1904 18.26 45.0637 18.26C42.7569 18.26 40.4501 18.2604 38.1432 18.2608C31.2228 18.262 24.302 18.2632 17.3812 18.2534C16.0011 18.2513 14.6317 18.287 13.3594 19.098ZM45.154 37.9626C45.5155 37.9626 45.8769 37.9621 46.2383 37.9616C47.2719 37.9601 48.3052 37.9586 49.3391 37.9691L45.154 37.9626Z" stroke="white" stroke-opacity="0.35" stroke-width="0.1"/>
<path d="M40.4351 34.693C40.4275 33.9309 41.0254 33.3146 41.7787 33.3048C42.532 33.295 43.1517 33.8994 43.1636 34.656C43.1767 35.4061 42.5668 36.0355 41.8157 36.0485C41.0689 36.0615 40.4417 35.4452 40.4351 34.693Z" fill="white" fill-opacity="0.35"/>
<path d="M43.2136 34.6552C43.2012 33.8713 42.5591 33.2447 41.7781 33.2548C40.9968 33.265 40.3773 33.9043 40.3851 34.6934L41.8157 36.0485L41.8165 36.0985C42.5952 36.085 43.2271 35.433 43.2136 34.6552ZM43.2136 34.6552L43.1636 34.656L43.2136 34.6551C43.2136 34.6552 43.2136 34.6552 43.2136 34.6552Z" stroke="white" stroke-opacity="0.35" stroke-width="0.1"/>
</svg>
